<mxfile host="app.diagrams.net" modified="2023-07-14T16:42:49.948Z" agent="Mozilla/5.0 (Macintosh; Intel Mac OS X 10_15_7) AppleWebKit/537.36 (KHTML, like Gecko) Chrome/114.0.0.0 Safari/537.36" etag="mW08QYpyVNPoleYwOFsc" version="21.3.3" type="github">
  <diagram name="第 1 页" id="580ywaNv5yEKEdypJIo8">
    <mxGraphModel dx="2261" dy="1965" grid="1" gridSize="10" guides="1" tooltips="1" connect="1" arrows="1" fold="1" page="1" pageScale="1" pageWidth="827" pageHeight="1169" math="0" shadow="0">
      <root>
        <mxCell id="0" />
        <mxCell id="1" parent="0" />
        <mxCell id="mMl1sKTFDAsI_Ko-cwrK-24" style="edgeStyle=orthogonalEdgeStyle;rounded=0;orthogonalLoop=1;jettySize=auto;html=1;exitX=0.5;exitY=0;exitDx=0;exitDy=0;entryX=0;entryY=0.5;entryDx=0;entryDy=0;" edge="1" parent="1" source="mMl1sKTFDAsI_Ko-cwrK-1" target="mMl1sKTFDAsI_Ko-cwrK-11">
          <mxGeometry relative="1" as="geometry" />
        </mxCell>
        <mxCell id="mMl1sKTFDAsI_Ko-cwrK-42" style="edgeStyle=orthogonalEdgeStyle;rounded=0;orthogonalLoop=1;jettySize=auto;html=1;entryX=0;entryY=0.5;entryDx=0;entryDy=0;" edge="1" parent="1" source="mMl1sKTFDAsI_Ko-cwrK-1" target="mMl1sKTFDAsI_Ko-cwrK-40">
          <mxGeometry relative="1" as="geometry" />
        </mxCell>
        <mxCell id="mMl1sKTFDAsI_Ko-cwrK-43" style="edgeStyle=orthogonalEdgeStyle;rounded=0;orthogonalLoop=1;jettySize=auto;html=1;entryX=0;entryY=0.5;entryDx=0;entryDy=0;" edge="1" parent="1" source="mMl1sKTFDAsI_Ko-cwrK-1" target="mMl1sKTFDAsI_Ko-cwrK-41">
          <mxGeometry relative="1" as="geometry" />
        </mxCell>
        <mxCell id="mMl1sKTFDAsI_Ko-cwrK-1" value="&lt;b&gt;&lt;font style=&quot;font-size: 15px;&quot;&gt;broadcast-proxy&lt;/font&gt;&lt;/b&gt;" style="ellipse;whiteSpace=wrap;html=1;" vertex="1" parent="1">
          <mxGeometry x="550" y="330" width="160" height="90" as="geometry" />
        </mxCell>
        <mxCell id="mMl1sKTFDAsI_Ko-cwrK-28" style="edgeStyle=orthogonalEdgeStyle;rounded=0;orthogonalLoop=1;jettySize=auto;html=1;exitX=0.5;exitY=0;exitDx=0;exitDy=0;entryX=1;entryY=0.5;entryDx=0;entryDy=0;" edge="1" parent="1" source="mMl1sKTFDAsI_Ko-cwrK-5" target="mMl1sKTFDAsI_Ko-cwrK-13">
          <mxGeometry relative="1" as="geometry" />
        </mxCell>
        <mxCell id="mMl1sKTFDAsI_Ko-cwrK-5" value="&lt;b&gt;&lt;font style=&quot;font-size: 15px;&quot;&gt;comet&lt;/font&gt;&lt;/b&gt;" style="ellipse;whiteSpace=wrap;html=1;" vertex="1" parent="1">
          <mxGeometry x="1350" y="330" width="160" height="90" as="geometry" />
        </mxCell>
        <mxCell id="mMl1sKTFDAsI_Ko-cwrK-17" style="edgeStyle=orthogonalEdgeStyle;rounded=0;orthogonalLoop=1;jettySize=auto;html=1;entryX=0;entryY=0.5;entryDx=0;entryDy=0;" edge="1" parent="1" source="mMl1sKTFDAsI_Ko-cwrK-6" target="mMl1sKTFDAsI_Ko-cwrK-1">
          <mxGeometry relative="1" as="geometry">
            <Array as="points">
              <mxPoint x="70" y="155" />
              <mxPoint x="70" y="375" />
            </Array>
          </mxGeometry>
        </mxCell>
        <mxCell id="mMl1sKTFDAsI_Ko-cwrK-6" value="&lt;span style=&quot;font-size: 15px;&quot;&gt;&lt;b&gt;biz_1&lt;/b&gt;&lt;/span&gt;" style="ellipse;whiteSpace=wrap;html=1;" vertex="1" parent="1">
          <mxGeometry x="-260" y="110" width="160" height="90" as="geometry" />
        </mxCell>
        <mxCell id="mMl1sKTFDAsI_Ko-cwrK-18" style="edgeStyle=orthogonalEdgeStyle;rounded=0;orthogonalLoop=1;jettySize=auto;html=1;entryX=0;entryY=0.5;entryDx=0;entryDy=0;" edge="1" parent="1" source="mMl1sKTFDAsI_Ko-cwrK-7" target="mMl1sKTFDAsI_Ko-cwrK-1">
          <mxGeometry relative="1" as="geometry" />
        </mxCell>
        <mxCell id="mMl1sKTFDAsI_Ko-cwrK-7" value="&lt;span style=&quot;font-size: 15px;&quot;&gt;&lt;b&gt;biz_1&lt;/b&gt;&lt;/span&gt;" style="ellipse;whiteSpace=wrap;html=1;" vertex="1" parent="1">
          <mxGeometry x="-260" y="330" width="160" height="90" as="geometry" />
        </mxCell>
        <mxCell id="mMl1sKTFDAsI_Ko-cwrK-19" style="edgeStyle=orthogonalEdgeStyle;rounded=0;orthogonalLoop=1;jettySize=auto;html=1;entryX=0;entryY=0.5;entryDx=0;entryDy=0;" edge="1" parent="1" source="mMl1sKTFDAsI_Ko-cwrK-8" target="mMl1sKTFDAsI_Ko-cwrK-1">
          <mxGeometry relative="1" as="geometry">
            <Array as="points">
              <mxPoint x="70" y="595" />
              <mxPoint x="70" y="375" />
            </Array>
          </mxGeometry>
        </mxCell>
        <mxCell id="mMl1sKTFDAsI_Ko-cwrK-8" value="&lt;span style=&quot;font-size: 15px;&quot;&gt;&lt;b&gt;biz_1&lt;/b&gt;&lt;/span&gt;" style="ellipse;whiteSpace=wrap;html=1;" vertex="1" parent="1">
          <mxGeometry x="-260" y="550" width="160" height="90" as="geometry" />
        </mxCell>
        <mxCell id="mMl1sKTFDAsI_Ko-cwrK-16" value="" style="group" vertex="1" connectable="0" parent="1">
          <mxGeometry x="800" y="-100" width="234" height="60" as="geometry" />
        </mxCell>
        <mxCell id="mMl1sKTFDAsI_Ko-cwrK-11" value="" style="rounded=1;whiteSpace=wrap;html=1;" vertex="1" parent="mMl1sKTFDAsI_Ko-cwrK-16">
          <mxGeometry y="30" width="60" height="30" as="geometry" />
        </mxCell>
        <mxCell id="mMl1sKTFDAsI_Ko-cwrK-12" value="" style="rounded=1;whiteSpace=wrap;html=1;" vertex="1" parent="mMl1sKTFDAsI_Ko-cwrK-16">
          <mxGeometry x="60" y="30" width="60" height="30" as="geometry" />
        </mxCell>
        <mxCell id="mMl1sKTFDAsI_Ko-cwrK-13" value="" style="rounded=1;whiteSpace=wrap;html=1;" vertex="1" parent="mMl1sKTFDAsI_Ko-cwrK-16">
          <mxGeometry x="174" y="30" width="60" height="30" as="geometry" />
        </mxCell>
        <mxCell id="mMl1sKTFDAsI_Ko-cwrK-14" value="。。。" style="text;strokeColor=none;align=center;fillColor=none;html=1;verticalAlign=middle;whiteSpace=wrap;rounded=0;" vertex="1" parent="mMl1sKTFDAsI_Ko-cwrK-16">
          <mxGeometry x="120" y="30" width="60" height="30" as="geometry" />
        </mxCell>
        <mxCell id="mMl1sKTFDAsI_Ko-cwrK-15" value="lancer" style="text;strokeColor=none;align=center;fillColor=none;html=1;verticalAlign=middle;whiteSpace=wrap;rounded=0;" vertex="1" parent="mMl1sKTFDAsI_Ko-cwrK-16">
          <mxGeometry x="90" width="60" height="30" as="geometry" />
        </mxCell>
        <mxCell id="mMl1sKTFDAsI_Ko-cwrK-21" value="send message" style="text;strokeColor=none;align=center;fillColor=none;html=1;verticalAlign=middle;whiteSpace=wrap;rounded=0;" vertex="1" parent="1">
          <mxGeometry x="-100" y="340" width="120" height="30" as="geometry" />
        </mxCell>
        <mxCell id="mMl1sKTFDAsI_Ko-cwrK-31" value="click_house" style="shape=cylinder3;whiteSpace=wrap;html=1;boundedLbl=1;backgroundOutline=1;size=15;" vertex="1" parent="1">
          <mxGeometry x="852" y="-440" width="136" height="100" as="geometry" />
        </mxCell>
        <mxCell id="mMl1sKTFDAsI_Ko-cwrK-33" style="edgeStyle=orthogonalEdgeStyle;rounded=0;orthogonalLoop=1;jettySize=auto;html=1;" edge="1" parent="1" source="mMl1sKTFDAsI_Ko-cwrK-15" target="mMl1sKTFDAsI_Ko-cwrK-31">
          <mxGeometry relative="1" as="geometry" />
        </mxCell>
        <mxCell id="mMl1sKTFDAsI_Ko-cwrK-34" value="" style="shape=image;verticalLabelPosition=bottom;labelBackgroundColor=default;verticalAlign=top;aspect=fixed;imageAspect=0;image=data:image/png,iVBORw0KGgoAAAANSUhEUgAAAVQAAACXCAYAAABKmaMbAAABX2lDQ1BJQ0MgUHJvZmlsZQAAKJF1kD9LQmEUhx/LEEpKI6ihwa0CC1OHxkyjAoeLFv0ZguvVtFC7XI1oC/oK0dbQEn2BcKgh+gRBUNAQNURBo+CScjtXK7XovBzOw4/ze9/zHuhwqrqetQO5fNGIzc14VlbXPI5XHDjpp5c+VSvoIUWJSgvftT0qd9isejtu3ZV2n0Qe16sH0+/G9WD5zfu3vy26k6mCJrUqGdR0owg2n7CyW9Qt3hceMGQo4UOL0w0+szjR4Mt6z2IsLHwj7NIyalL4SdibaNHTLZzL7mhfM1jTO1P5pbjUIclhIswSleMhjoKfIJNMMf+PJ1j3hNlGZw+DTdJkKIo7JIpOlpTwAnk0JvAK+/FJBqxd/95hU0u+QCAnT402tS0XXFTAfd7URp7lO8dwpeiqof5s1laxFzYC/gb3lKDryDTLy+AYg9q9aX6UTLN2Cp0P4q18Aj9vZQqPir9BAAAAOGVYSWZNTQAqAAAACAABh2kABAAAAAEAAAAaAAAAAAACoAIABAAAAAEAAAFUoAMABAAAAAEAAACXAAAAANVHy5AAAEAASURBVHgB7Z0HnBTF8scLyTnnnHOSIFlAQQVRARFFxSzmrE/9I2L2GZ+KPPUpiJIURQyAipKTJMk555wzqP/69l3vzc1tumM5Dui6z97MTvf09NTu/qa6uvpX6UqUKPGPOHEacBpwGnAaOGUNXHDKLbgGnAacBpwGnAaMBhygui+C04DTgNNAjDQQHFAzZRXJnDPyJahDXSdOA04DTgNOA5LBr4Nbb73Vfyjw/vPPPw/sm51jBxK/d++cBpwGnAbOYw0kAVR08dng/klUcke325IccwecBpwGnAacBhI0EHzIn1Bu9rJmTuc74t46DTgNOA04Dfg1EBZQn705u6z7poAsH5xfCuR0w3u/8tx7pwGnAacBrwbCAupNbbPI0rUnpdx1O2XngSgmqbwtu32nAacBp4HzTANhATVzRpHZy0/Kib/OM62423UacBpwGkiBBsICaroL0snJkylo1Z3iNOA04DRwHmogJKC2qJ1JMqYXmTj/+HmoFnfLTgNOA04DyddAkrCpjOlPyqqh+SVTxnTy3cTjMna2A9Tkq9Wd4TTgNHA+aiCJhXry7/Ry79sHZM7yE9KxRSYpUVDNVCdOA04DTgNOAxE1kARQ//knnfw687hc23Of/KM8VF0vzRKxEVfBacBpwGnAaUAkCaBapTCzf+LkP5InuwvqtzpxW6cBpwGngXAaCAmonHRcZ/hrlHVD/nAKdGVOA04DTgNWA2EBddTU43Jh5YxmtVT+HAftOW7rNOA04DTgNBBEA2EB9fG+B6RG913S4V97Zc/hbEFOd4ecBpwGnAacBqwGwgIqlfYd+kfmrzopf/8dsapt022dBpwGnAbOSw04lDwvP3Z3004DTgOnQwNJAvu5iOM+PR2qdm06DTgNnOsaSAKoW7dulZ9//vlcv293f04DTgNOAzHXgBvyx1ylrkGnAaeB81UDDlDP10/+PL/vqlWrSq5cucJqoUiRImHL/YU5cyZwBl9wwQWSKVMmUyVPnjz+qkne58iRQwoUKJDkuPcA7aRLl7DQhutly5a86BvuKUuW4KsfM2bMmKQP+fPn93bB7UfQQHr9UvX21qlQoYKsXLnSeyjq/VL5ckm9UkVkza59Uihndmlcrphs3HtQ/vpb17CqXFWrgtQuUUiqFysgS7bukrijUTef4ooX6Jfw8urlZOv+Q3L8r+DkrvS3RcWSsnLHHnOdVpVKme3eI8fMfeRQctidB4+kuA/uxDOrgSpVqkjDhg2lYsWK5vXwww9L7dq1BRCxx44dOyb79u0zHQVsP/nkE9m/f7+sW7dOXnvtNWnTpk2iV+HChWXBggWmfsGCBaVfv34yYcIEOXjwoHTo0EGeffZZ2b59u7zyyisybNiwRAq46KKLpGbNmsLvjRfJMa+//no5dOhQ4Jj/tzhw4EBZtWqVbNmyxbT15ptvCvc1derURG3zpn///gYc//zzz0RlH3/8sezdu9e0YwvKli0rb7zxhqxfv15efPFF2bVrlzzwwAMyZswYGTx4sEyZMsXowdZ329AaSOJDDV01cgmgdYW+xi5bJxeVLSK3N6ktCzbvlG0KZEjFwvmkaO7sUr5AXvl+3go5djI4uEW+UvJqZMqQXu5uXkeBfq8s3bo76MnVi+aXu5rVltGLVpvyh1rXlzFL1kjfCX/KQ63qG6B97odJQc/1HsQyadullTRv11gyZ8kkfXv3k9VL1nqruP0YaABL7auvvpKZM2cKwOKXd955R/LmzSu33RaXXPKGG24w4LNz505TFdDInj27tG/f3rwvVKiQTJo0Sd5//31jWVavXl3I8nvXXXfJ7NmzZcaMGYkuATg3aNBABg0aZI5Tb8eOHcIcBHLZZZfJ5s2b5ciRI5IhQwbp1q2bLFu2zADw8ePHDWBRD/DFyjx8+LABuquvvtr0i/NOKhkx8xmAe6NGjSR9+vTCuSVKlJBNmzZJqVKlZNq0aYK1jRw9elTWrFlj9l9//XV56aWXBIsUQA8nnHPixAkD5NTr1KmTfPHFF1K+fHljEV955ZWB0wFqHjxOgmsgpoAa/BIJR98eM0OqFskvr15zccLBVNg7duKkPDbsd9mk1vLplsu7tpZWVzeX7Zt2SGG1xi9Qkm4nsddAx44djXX52WefJWkcEClXrpx89NFHicoADoAimNx7772Bw6VLl5bHHntMunTpIn/piIah+KJFiwLlACPDbyxMhCE04Prvf/9bsAAnT54sxYsXN9buHXfcYepg3TZr1kx69eolFtTnzJlj2uXav/32m2zbts3U7dGjh3m/ceNG8x5A69y5s7F2n376aQPCWMJ///13wGLGvQAwUw+hj3fffbdgfUaSO++804D2jTfeGKiKhTpq1CgD0jyY6tWrZ0Dc63IIVHY7AQ2kKqAGrhpkp2KhvPLMFY0lb9YsclQB8LMp8+S3petMzYI5s8nLV7eQQjmyyZb9B+WkfpHGLF4jP85fFaSlxId6XdlUaBt57vtJslbdEVZuvqi6XF27kroe/pF1uxOO2/Jw27Zt2wpfRNwjDO2szJo4Tyb+NE0KFMsvD7x4pz3stjHWAFbU0qVLZffupCMOAAprzR+tUrlyZQNooboyffr0JEVYsFivWHAIoNW9e/dE9R588EHz/uabbxZ8jo0bNzbvBwwYIGPHjjVWLO4DrEmvAFIM2QGp1q1bG+uTckY5rVq1MvfA+QiW7/333y/XXnutXH755caK5GEC6CFYkwA6wvCdhwoPA0AVS95K5syZBcC2QP/ll1/Kp59+aupXqlQp4Fem7a5du5o+4e7AZYF1il6dhNZATAF18soNcuBo3HBg3sYd8s2cpbJffZCRBBvuhQ7N5bB+ad/4dbq0r1lB7m9ZT+aplbfjwGEzFM+ZOZO8+/tMuVh9mxeWLCx5sgV3rPuv1X/KfMmfPas8f2UzyUIKgnjh/E51K8u45etlyZadxiVgy9h+NWuJuit2mEODZy6S7fsPe4uFCQGsgnz58iU6jmWKFBDnzE+kmBi+ufjii4VJHL8FyiX4XGrVqiXffPNNkiviHnj11VfNcUDr66+/lt69e8vChQuT1PUeGDp0qHz77bfmkN16y3Ef0EaNGjXkl19+MeDIUB4ABNzx0z7xxBNm+H/TTTcFTsVa/vXXX03bnIfLALnvvvtMP1esWBGo69/BYuYerOBWsMKDBKsaNwduA4DdCr5a3BeLFy82h2bNmmX8pgAyoI/rgvtt2bKlcS1QCWube7DuBNuW2ybVQMKnkLQs2UcWb9klvJD1u/fLoBlxH1qkhkrnzy1ZM2aQD8fPlmmrN8t8BaWBt3WQ5uVLyPC5y6VGsYIyeuEqmbhig8xcu0UG33FVpCYD5Rv2HJAdQSaTmuqEGZNl74+dZerWUZBuXLZY4LyhCqhWglnCfKGxOJgkcJK6GsAS3LBhg5ks8l8ZywvLDFDwCkCL789rrQFCL7zwggEdW/fxxx+3u4EtQ258mAh+TL8wGXXJJZeYyS1Aafz48WbUArAxrH/yySdl5MiR4p0gwlK0AMqkFy4BK0waMTnlFUDtu+++M4eY6Hr55ZeFSaoyZcpInz59TL/+gcBYBasWAARQOWatWMoY1s+fP98AOe+RH3/8UZYsWWJGXADsTz/9ZHy9gDL3e88995h27IRd3FnufzANxBRQg10gmmOFdEiPLNkWN3w7dOyEmbAqmCubZMuU0YDt8viyI+oOiMVkVo3ihWTPkYThy8rtuxMBaqR+M9zk5SR1NYAVyA8dy9IvjBiaN28u48aNM6DqLcfnyZB+4sSJxvrC//nWW295q5h9/JslS5ZMdBy3grXOmHn3C24ALFEmij7XiSwsX4ShPKDNFoDjZcXuM3nERJMFV1uOG+GZZ56xb43/lHu+4oorTLQCLgj6j7vp999/N9exgBo4KcqdFi1ayFNPPWX6x8OoadOmgv/2kUceMdEKPKQAfSeRNZAwZohcNyY1bNhSZrVIrew+FAdsZTTsCmFWPrO+9h4+KoePx4FrhXg/KMd5naoAoLl0Ft5Kifhr2/eRtsWKFTP+LOsvi1TflcdGAwxJAbi5c+cmaRDri2EwFqNfAD1GE0wY4ecEfIkA8L4IRwrmIyQsqW/fvubFRJBfsJix5CjD18gwHsHP/uijjwrWaLt27cw+x+kjIAsAY4niR2WWH9AGyPD14rf1CgBK1IDXSsSFwYsIAq4RrG+0gXUbTngI4LIA1AHWAwcOmL5xDq4IxO//NQfdvyQaSHVAXb1jrxlqd7mwsuRUQEuvXy7cAwy/u9avanyj3RvVMB2dtS4uBGXx1p1ymYZj1dT41ftaXpjkJlJyYMqqzZJJfwSXVy8rJfPmlEZlEob70bQHkOIPu+WWW5JUL63xrMXLFDXHi5UpIrx3cuoaIFyIGXgbquRtEYBisoYQJ8DJK0zQADjLly83PlbCjRiKM7S1L3zhXj+k93wAc8SIEeYVbMiPj5LZdcCTUYud/QeEbWzp22+/HZjMwn2AVcrQndAmQJiYWACN7xVAyzDbKzwQOM8/a4+FS+RA1qxZk1jl6ITwMR5C4QQfMKDOQwY3Af5pwscQ6wLBpeEksgYSzMTIdWNSAy/PwBkL5fr61eRKnXzqN3Wema3vM36Wiffs372duc6oRatklYIv8tnk+fLKNS3kxatayK7DR0xw/omTSS0FU9nzj9n9Nzq1Chx57ZqWZr/vhDkaY7pW5m7cLj2a1zXH9ulkWtZAzcg7dnhlt94zHnw54Qt8VfcrTNETXXt5q7j9FGgAkAEsGeL65aqrrjKgSdiSX3joEbRO3Om7775rLDB8kPazAySZuQ8WMcCw1w+iWLEE9dvzmaG/9NJLTVwooGwtVGbqWTQAmDNUZ7KM8CiAH58lgisC3y4WKH2gTQLqad+GTdl6uAEAPW8/rVVat27dRH5XHhoIMay4CiIJvl9CperXr2/AHosaECfelvMpI2QLAHcSWgOpDqh0ZcTcFebl7db45Rtk0sqNUix3DtmuM/teP+mmvQfk1s9HGmuWmXomrKau3iQZ1LplFVQwIbRqxfY90vGj4cGKzbEXfposubNllnT6h3shOTJ8+HDhFUwceAbTyqkdA3gIth8yZEjQhggnwgL1+yKpjMX4wQcfGEsOMGRYC3Axsw2wAlLB/JicC9Dx8gpDZPpjP3+AEivvhx9+MKuWaAtrkmE7AMtsPT7TMjqBhLuBITjWK2FItMMQG8uae8NH3FJn2JkIAyzxozJJxUTS888/byzJatWqBboDyALoiPdhwn0ywURQvwX+wEm+nf/85z+mTyxs4N5oj0gKfMlY1rhXeLAAujw4eCg4Ca6BdDqMipsajC/n6emP3wt+auodbV+jnLSpVlZW7dxrlrZyZQB20O0dzKRVsJ78tnStRg3MCVbkjp2FGgD0ihYtaizNYACBOwDLzT/c51ZZFgrQMpllg+o5zpCYBQCEONmgeo4TqM/qI++sPMetAJTeZar2uHeLZcrQPVh/GFJzTYbZa9euDeq3pS2A04Y3edv27nMPWN74YoPpxVuXfSzZ1atXJ/LFAuqAtl+wbll6ayV37tyJzrPH3TZBA2cFoBbJlUOurFVe8mXPIlNXbTKvv9XCyJcjq2RUKzWYHDx2XIgWcOI04DTgNJBaGjgjQ/7k3txWXR316eR5SU7bHSS+NEkld8BpwGnAaSCVNBDcvEuli7vLOA04DTgNnEsacIB6Ln2a7l6cBpwGzqgGHKCeUfW7izsNOA2cSxpwgHoufZruXpwGnAbOqAZiCqgw9reuXNrcEAz4l1YpbZaRntE7jOLiZBag76EkvXKaXlO7olnZRZ06ynNat2Tc0sDKSprdpFz4pX2h2g12PGeenJJf2wwm2ZXzgJVXKRHCazg3p0ZMOHEacBo4PRqI6Sx/JMb+03MLp95qjxZ1Zfyy9fL5tLh0Fv4WWaJ6S+OayqS1U+kJj8vdLeqYRQY9Bv4sNzSsJlUK5zcLDfznBXtft2lNaX9jW8mjDFvTx8ySbz79wVTLpctf//Wfhw3LPweOKu3hr8PGysSRcRyaT7/3sBRQcm4EAoulc1ZI/7cGm/ftu7UxpNbmTfy/L979SuZPjyNF7nDzZdKifRMTd0nxL1+PlTHfjo+v6TZOA04DsdJATAE1Vp1K7XaeGa55gHR1y+mWgspFcONDXWSb0hMShH1B+oQBAssb1y3fKD9/NUYO7Dskdz5zs7Tv1lYmj/7DrJiZ8NNUWaf0hbu37ZFLO7eUlh2aSpnKpWStPgjSqQUNyH7Q83+BW7C8rBVrlpOLlWT7j99ny0+DflVQzpeIRzNwgttxGnAaOGUNpCqgViiYV9fjN5ehMxfLDQ2qGdao7+Ytly/VkgrH2J8ra2bppRZWufx55C8FovFKCt1XV0GVUSvvFU2nwuJThrSrdu6RyoXyy9BZi5XcellE5VyrBC1X16lo6n09a6lyCiQkJ6xfuog8dmlDyaLMVgvVMk2OwL0J4zmraSDWsLJfSWDeffq/smnNFnljcG972Gz36CqwT175PHBs7HcT5YYHOku5qqVl5aI1Mm3MzEAZ4AqgVq9X2QCqKdD1bls3bJeTSm/olcu6tJaDCtDDPvnerEnfoAsjnDgNOA2cHg3EFFAjMfZn1nX4EEkDpj8tWClrdu4zq58AxHCM/Y9e0kAZoXLJR5PmSgkdGndQUhX4UTfs2W/agySaYTss/CMXrpRrL6wSFaCOVetuobLy92rfzLD6e1X88CX1lVPgkGHuv7NZHW+RDFPwBcCRUQtWyex4VixbCXo2lkpazkt7/Ji6CwDTaKS2uhiwYtcqx4GVmhdVk7p6vKKuGvv7r79l0ujptkjSK/C/PrCXOWf9yk3y3xf6GXDNUyC3IVCmjDoblGVr2McjZMv6bYFz3Y7TgNNAbDQQU0CNlrH/q9lLEpGjYGmGZ+wvYHyUv2oeKYR0zy11uPvl9LjUFaQx6aTWJj5OlqYCuNHI7kNHhJflaLXnsKQ1hwLiC+OmmGyn8K8+3LqBLTZpU+ybGWuTAiTEFPBHkrkyJVKjQRWpVq+S/P7dhEQWZ5lKJaVynQqSWS32NZpv61h8eplVi9bKoQNHTGLAi/RBUO3CStLs8otk/I9T1CebWbLqkt0ZY+fIauU36HRHB31dKR8+/1lKuubOcRpwGgijgZgCapjrJCqaqKxSXgnH2I8dCKuUZeznvI2a1oR1/YglhIBd6vjJv+SE+hKt9WgqpOBfHWXzR1brMBxZtnWP2Ub7j6G+TZgW7Tm2XgmNOLjl8Rtk1eK1MnpoYpq6H7/8RXiVqlBcHnqlh0lXzfslfy43L9pYpNZz70/+JY0urW8A9YQSdGOZfq1WKVK1TiWp0bCq2Xf/nAacBmKrgYRZkdi2G7a1g0cSTwCFY+xX16Ahn/aGNRXJnV0gPzldsiw+3UpRpRJESuXLmaxLMcEEnZw3n3k0DeRT/lYypW7fvFM+erF/yFMY0h/X+69UK7glDohixSL4T//Rh42V40oY43/gkN6YfPBQyzlxGnAaSLkGzgig+rsbibF/w9790qR8cRMrSsxn/mxZ5c/T6AOEfxU+1hvVZ4lftrNO/iRHoGeDzd+m6vWeW6h4QTM7z8x8TvUHM1OfWTMXEGP6+Jv3mxn9Ef1HSmkd3lOWRa+PT/bGB6+VYjpRRpwqpNWZNAvsgj8Wm6Yv73qJTl6VMW2wn7dgHpk5Lo66cPakeQZcm152kRBlUF3dCZt9Pl/SYZMKBF5PJ04DTgMp18AZGfJDvecVfJjhGPvf/W2mvN6xpbx33aXmtDW79sq3c5ZLWZ1wscLQn1Z9TdvioNtv7u6o8aRxk0tXa+A+rxnrtshro6eZSIFbGtXUxH3FZXcyyaetGyLYRe97/nbJoRY2UrVuRfMa3OdbObT/UCAGtUfPW005/77rN1Km/zZLajWuLnWbxQEeE1KES9lY0jpNasilnS4OnLN7xx75TUPBkEmjpgmxrx1vb2/e79NIgx8HxuUJMgf0H4zySDByZlPg/jkNOA1EpYE0xYcKuAVj7Ld3Ai/qYWVP3x8/GWOPB9vSVvp0wQ1wQq/+8gyDg53PsSwakZAnaxaBPjAtCJZnTgVjhvx+YXUVM/rb1m+Xgxqd4BcsYNwAuzWLgVcgESY/PMTLWKpOnAacBlKugTNioYbqLon6NuiEUyhJDrA9c3njALu/v73tBw8Lq5wiyVGN6dx6Im2AKX3dozm2eAWTXer35RVKDmlaGV5+adKkiTn03//+11/k3jsNOA0kUwNpykJNZt/DViejarZMGYPWwT+a3BxSQRtyB50GnAacBjwaSFMWqqdfp7zLmnteTpwGnAacBlJLA8GdjKl1dXcdpwGnAaeBc0gDDlDPoQ/T3YrTgNPAmdWAA9Qzq393dacBp4FzSAMOUM+hD9PdSngNZMuWLVGFLFmySPny5RMdi/SmSJEiwnnJFVbP+YW2UiKsdCtRokRKTk31c2yMs//CuXMnxJD7y87m9+k1DrG39wYqVKggK1cm0Nh5yyLtszy0XqkismbXPoGxHyb8jXsPmqWjkc4NVw5DflGNv9yqwe8w5PMKF14Vrq3ULmvQoIFUqVJF1qxZE5NLFytWTNq0aSNLliyJSXvRNJJDP8sCRfObsCv/ogXK4E/8SxcbpGVh9drAgQNl0aJFsn37dtPVkiVLyttvvy2jR482VIve/vfv318KFCggf/75p/ewfPzxx7J3715ZtWpV4Djg1rp1a/M581kT03v4cEKIWt26deU///mPDBs2LHAO8b+ffPKJ7N+/X9atWyevvfaa+Vz5bO2rcOHCsmDBAuEzb9y4sQF/HgA1a9aUZ5991tAxFi1aNHCc/fXr1weucbp2WLnXt29fo8fNmzdLnz59pFChQjJ37txEl+QBNmTIEFm4cGGSRSNfffWVDB06NFH9c+FNTGf5o2Hsf7LtRfLHms0yUcmSo5VTYciP9hqnqx5r5PmyjR07NqpL3H777ZI3b17zQw92Qv369Q3H6vDhw4MVn9KxG2+80XAQsAUQWEjw0Ct362KCOE4D+AOe7f6yuYZdKkumAWTp3JXy6WtfmP3U+IeVxo9y5syZ8uabbya55DvvvGP0yJJapEePHnLgwAHz4+ZHnjVr1sA5LGxAIOnu3Lmz2X/99dflpZdeEqzIV155xRwL9a9FixbSqVMnA2alS5eW40pW7v28oXKkv1i2lGXIkEGqV68un3/+udx1110ye/ZsmTFjRqLmGzZsKDyMBw0aJG3btpV27doFwBK+XYwe6gBukPFgCQKokydPTtROct+QJqfznVcZAp6dW3fJvx95P0kTTz/9tPCAmjNnjin7+uuv5dFHH5WRI0cmAs7u3bub+37hhRdMvWeeeUZ27doVaC9fvrhUP4cOHUryQAtUOst2Ygqo0dx7TV3LvmVf2gmWj6bPqVmHEUI4khJ+qMuWRSbPTkmfO3ToIPPmzQtYV/c8d6vyumaUPr0+la3KnVBD071YIfNA9lzZ5K0n+kibTi2lti5/rX9xHZk1IbGVYuvHetuxY0fDNwuRt18AwXLlyslHH31kirCUIIB57733DEh++eWX5of91FNPGQ6Dxx9/3NAt/vxzwmIPdHz33XdL2bJl/c0Hfb9t2zZ57LHHBMv2oosuSkQsznAfblzKPv30UwOM1O3SpYsBcSxhLGcrXDtPnjzGEuXY0qVLDc8CgM997d6927TDdwXOCACJz23t2rW2iRRvH3r5boG3F4IdwNovPGzr1asnDz/8sOk75RMnTpRrrrnGPNg4vm/fPgOkl1xyiYwZM8asxKPeVVddZR7YWOXIu+++a4D5119/NZa/OXiW/0s1QL2reW1pXam0Wc55Te1K0r5Gedl79JjcOyhuXXlxJf14vE0DKZMvzrcyc/1Ws6Y+Gv3yBGfZJE9thkLBhC81VgRPeiwbfjzsd+3aVfDn8GX9/vvvAx8+P6SePXsKT9G/dZkqXwz7A33jjTcMbSBDPX6sixcvlueee87Uw1Jg+Mb5J3SZLJYeVkkk4R6wVrBeEDs8fOSRR2TTprilplhWWDq0680EMHjw4IAFhA6s2+bJJ580bd1///3SqlUr0/aePXtMXzdu3GjK7D90gQVl7zG3MmyxnHVo3+GyQZe6op9ZExKGvyaTwMK1JktAfk2rgjRu01CWzVkl//vf/2TChAnGurI/HnudWG35LAEawMUv9957r8BJawESwESwPvnM6B9W7ahRowxQ8fmie6xE2uPzBZS5Z0CV74sVPl+sXUt8Azj7BS7c559/PnCYIT/W2Q033GCOVaxYMVDWvn17M4LhM0X4PmHZeWX69OnCA4Tvwfvvv2++Wy+//LIB099++02aNm0qPAwHDBjgPS1F+5+88oWsXrJW85s9lAhQAVcszWrVqknv3r3F//3hdwdAolvuHWuZ73KNGjUEax9X0dSpmsZH3Rt8p0eMGCG33HKLKUtRR9PoSTEF1HCM/ZCZjFVS5JeuaiEzlYDkh3krDH+p1cvtTWtJdmVQeuLbsZoaRYdEyoxkJRJDPkMghlV2CGHPYwuwAT61a9c2XxCe/tbXwwcKAL344ovGD2Ud6Hx5AEWA8IMPPjBfossvv1x++ukn80XCemAYzw/y4MGDct111wk/GoZuPIW5JuCMnwzfmvXZefvl3+dHiD+KHyv389Zbb5kq3nP5ofPj4cnvFYavDH0ZbmLB8KUGCEqVKmWGhfjkfv/9d+OPAwiwjnh5hXtYvXq1bN261RwuEZ/JtUnbhnL9fZ1M0sCpv86QUYPHmPIMynOwee1mqdWouhQvW1T265LhXHmUa0EfIAwFuW8eEviO8ZX5h7Teayd3/+KLLzaWjQV/7/noDtasb775JnAYHWIBMsweP368AVY+a+gVL7vsMuPHBPgZ4vPwAYixGgHAkydPJgKqW2+91dwLD1Fk1qxZcumll0rx4sXlu+++Mw82jgMiuGWiuW/08+2333JaYGveeP7Rn0qVKgn3jvAdxR1gBYOBYfipCmAaTLg2L3Rz/fXXm5e/Hg84/L5Yzf/3f/9nHgC4sPhe4g44HySmgBqOsd+y40MEvUPXlK/yrUnPmy2O8eiETm6s3rlLlqj/xgqM/FaCMeTzYwGQvBMF/GBwnDN8xirD4uMLbq1FvpDWt8UQhWGHFXxXWGv8aJi4wPfGD4sfmPXXMTHBpALCcKdRo0YGUBnu8QPGP4YwmRCNWP8eW/qFI98vTJDQn2DCsItrc98APRYXVtYVV1xh7hnA4IuNhQCwcH9YcQi+OB4SPESskJUVKaiTUYPeHyZ1m9SS1lc3lyk/T5cjh+LOg1u1670dZcovM4RsAvhcseoAfgRQxbLCeiF7AQ+uWEym8YDcsGGDuRdzIc8/Hhj0wTvhwUQSFhyAAGcBOgL0ASmADH8roxGAEcGtwhCdzxvLCn1aYcg7f/78RN8XymDqevXVV8098p7vB5ZyNIAKsPP9QYJFA5gC/Yd7g4c6fmHOsb5fLD/ugdHL6RLAEqDkYY71CXAyWWYn7XjPA5zPxvaDBz0PaMr4PmN0YLXaGX62dkR2uvqd2u0mdZKkdg/ir/c/5e2EIer9rm1k6J1Xq0ugXNQ94cOGId9rlfDFBCT4QQAiWI8WTGmYYR5DOX5k+LWYAQZIkTJlypgtXwTAhhc+MqxRK1iTVgAmrFGEIaUdovPea2Hy/nQJgMX9ASZWAA6sFr7g9j6Y8KLvtr/U5QfK/Xl9swfi/dyTRk2XP6cskAHvDDW6bN6uiZJbxw1PSRRIUkD4WzNmzijHfUt9AZ4VK1YYFwUAbn9Itn8p2TKEBAiD+U55EDVv3txYoV498DliKXGP+DEBRX7c+ALRDVY9lvUPP/yQki6Zc9A91jgPXuTDDz803z+s9EiCm4FzefmjKPznAliAKXpltMJnx3cuNQS3BBYqD0YmlwBL9nnhErP3bu8BNwe+a36H7POAp6/WNcEW99S5JDG1UKNRDFyopDTxCxbpnV+MlqK5csj9rS6UO5rWljFL1iXJ9+Q/j/c8KWFNAsiwVBF+IDj9sUwYhmNZYv2NGzfOWC+UY8XwwrLDmX7fffeZL6gd9gK09glsGvX8A5CDCZZKwYIFA0W4IZKTW4ovo33CBxo5hR2uTZsMZYMJ/jwsDn/KFpuG+uiROGvU3m8WzVGFAKTQAfaLzyyQR0PmyLpK3/nB4xvkB8T1sf7x/3ofSMH6Es0xLG8AyLptvOcAlIw8+vXr5z1sPlf6z4MPnyc/fmbuAQX74+cE+u59bxthOO99SNrj4bZ81/AjY3n++OOP4aoa36Id8vvdOd4TeRjieuI7zsOAayxfvjzkdxQwY4TGzL93dt3bZkr2MVYY5XgfQDyg+U15hfkJXoxUcGXRHyx3Ro74UBnZ2Ye597yzeT8psp3mu1mrMaoN1OcGE/4F+gW2cnn1skK6aCj6liq4wlnqJ6K2df1bhtUMR/CJeoUfEb5MhoGEdfBU54fOB4zzv1u3bmZ4zY8TtwDhJwj+SCwcJroYJvMFAiSwaiIJljAAzxeeHwc+veQI1jY/AoAOcDhVwcfHD5HwLe4DcOBLbAWAwh1gH0T2OOBIEsAWmr6boXy7Gy41gDP+pymmyuol6w34HNA440aaGBBwnaZE2Nwv1iA/LkCLYTM+3ViAKdYNn4fXd2j7CxgCNujf/8PmYUpKGnyuderUMZ8lfm5mxr3CQ8ULaLTJUBodRRL0CiiiaytEFWC9RRKsTgCGF59RKOE7Sh/RMRY/D2seWpUrVw56SkoyMTAZSaYIMkJkzJTR7NvQOHsRXBkID0krfDaRJiD5XQGmXmHE4HWpeMvOxv1Ut1C/nb1UHmhdX/p3b2fSjFz/6fdGbx2ULb9H87rmR3pCgXDIjMWCvzUasVaF3QY7h+EUX258Y/aFBctkDIL1wo8H4QdJIDZWKz8KhLaZoLLiv5Z9z4+CSSBm/RHrp7TnRdrivOdJjh+SHzR9wGXxwAMPBHx8tMF1EMDLiu2D9z0+Q3xbgKgFUjv0ZWINl0ew4TNtkEnglseul//r85hJWz1/2iIhNhEZ8sE38sQ7D8hT7zxo3pNUkCgA+swsNdZTrOWee+4xnw0TbH5hFIKLA3+pX1q2bGksJdwfBL4TfI+usCDpLwJAMbKgDQSdIVhevXv3Nvvh/hHMD9jhL7Yz9vbz8I5Y/G0w4+0HUb4zuCns+fYcO8GKbpkAw0BggsiGkNl6dmvvJTmZGDrfcZVUq58A0OQ4WzRzqfR/a7B5wPN9JO6WBRHWhYarhcUGWP5+Afxx9TC8ZwKYib9zWdIUHypWa3Z9KpLTKTWEHxOTPPh+vD5R77V58gLAgJod9nrLQ+1jSfFFttYS1+KLF0qsdRyq/FSPAxhl1De8ZcsWEydIe7169TJDN4Zl4YRg762aCSDY/ZOn6rBOMgYjrw7XZnLL8MNhzWAVEUjuF4by3BuxpX7BOkX3PIQuvPBC85DiAcWDBaFd2gcgHnroIXPcWvJY2V5gwzoGHLyTmAAmfl3/hBuTVFiPjDR4oNvICkYflPFADyZMaNIfJlHtxBMPPT5D+33yn8f1CVtichLhQRDrTAyAIfeD4UEoFy4x+skDgVhYLFf/g5TQPR5OuD0AXKtLPguG/OeapClAPdeU670fLGFcDKHkTHy5AAJcG8FiOUP180wdBxDx9WJh2h+lty88+LiPUIDjrQvYRBqeeut793H7EF5GZEgkwSLGtYSOvT5MgLFq1aohfZ+MHHjAeq/BZBz3HqrfuDKwAK1rBfcHFj0giBskFoKLAevZ6hjXFDP5fB7J9TEzeThp0qRYdCtNteEANZU+Dn5YWBGhJDXWYIe6tjvuNOA0EBsNpLoPNTbdPvta4anuQPPs+9xcj50GkqOBC5JT2dV1GnAacBpwGgitAQeooXXjSpwGnAacBpKlAQeoyVKXq+w04DTgNBBaAw5QQ+vGlZxjGiAe0sad2lsjOsB/zJbZLbPyxIAihNBFI9567Mdi2W0013V1zqwGYgqoMPa3rlza3BGM/ZdWKS2ZMoRe+XFmb/3sujpZC+qWLGQ6TcaCJvFsUNHeReYsmQRS6PNVADVWSvljblm4QcypXwhdsgseIE2xJNMsuODlDcZnVdznGjtKMD5CWBZLmgllQlgSC+2ek3NfAzEFVBj7H2xVz2jtorJF5P6W9SSvBuunZSGDQIuKwRmcwvW7pga0v3JNi3BVYlpG1oJ7Lr7QtHmDEj0/pKvNopV7nrtNXhnQU1749Gnp2fdxyZo9ga0+2jbSWj2sSgL8Leerv38EnxOwjxBYzyomgs4BOqjlWGnEC2BkBRz7gKIVVl7ZhQwAI+xWCCvgCH+DacxatsR5QiwDIQp8ocRlEvjOcmdifWH8greU0Dkn57YGzvuwqZRmECioFnjlQvnT/LejsZJ2V6hRVr7+aIQCxD/KbdpRblB+035vDkrzfQ/XQbvc0lqR3rqsb/cy9mMdMmzHyvzXv/4VsDY5h/X3LKf0EyZDagLYwpLEskrAmH2EwH5Yklj5xBJMBOpD+B4IcCegHmBF4DGAEAT+CAL9WQrs5NzVQKoCaoWCeeXFq5rL0JmL5YYG1ZRIOr18N2+5fDl9kWGZerZdYymu+YtYyz9i7nIZMjMuEV3vDs1M3dLK5p9Fz/lz43Z5dfQ0Tf73tyFU6aUEHuXyKxenWgbjlTu17/g58k/8Z9a5biVppMNj0q40KRdHc/bq6KlST5dThssgEOojz6rEyp8pD0HG9BcYusEhuvYZ+WzKPPlNCbQ/7NZWJmu+LNv3gjrMfu+6S+WFnyYbspcXOzSXpdt2S21NBXP0pHKH/jJd5ur9IDBthdKBqRDmH2umARdW2EC2YQXiksMHj8iMcXPksutam8MVapazxWftNjmM/VDOQcABaTfLjP00jwz77eorLE+WlcIxikUJ2Qlr4nnvpQSEdMau2YcbgFVErIZidZPlzMWSBVBvvfXWs1bPruPJ00BMATUcYz/dypwxvQBIgOlPC1bKmp37JF/2ONapf3duKUdOnJTXfp4mlYvkl+vqVZXfl66X7QcOSYEcWRVoc8o3c5bKUa1zY8Pq0rR8cZPo79FLGkjJvLnko0lzpYQmjOtQs4IsV8AaE888nltdDgB5Xr3OJ5PnGiCExSpSBoFQauT6z/0wURqVLSad61aWnrqPbNt/2GxhyrpS+2ABtUOtCoZViz7VUDdBFr1/+vnmmD+km97HI5c2kFs/H2nqhNNBpKwFDGtZnumdDKFDOZVFf6/qmeykl6iLYseWnVJA9Xs2S3IZ+yFlxqJlYolMBoCf1wfKxBQW53hl87dDe0sBiEsB4PQTfrNIA3ISBB8p6/OxgvHRWqJu3uMWsKQ7gHkwroGz+bNwfU+sgZgCajjGfu9lv5q9RC3QuC8jx0l3klPpwmZpahRySx1UouJjar1dXaeCQDyN7Dp8RAYpAxXSUie+LlJAI3MqIDV19Sb5dfEaU4Y/tKXSj1lANQf1X88Rkww1oH3PliwCoTIIeOt597F8yTaAtawj6CSZB4Zrqhcs32rKdI8+WmlfJq3cELCYaav/lPkybfVm2a/3+bKmhMmh9146f66wOoiUtYA11lDw+blXoWCD9OO2p7rJDgX7+ToaaKMPL37o1irz3t/ZsI8FnhzGfij5oHbEwoSwBipDL1ENpDG8EIjGraAjuHJhlbdMXZRlz57dsPbbvFGWWQw/LDq1K+LIUAtpiH1vfbK2fbc99zQQU0CNVj0TV25MVLVkfCpiLDdeyPo9+wyw2oobdicwUMGpWlUBK50WQlaN9Wdlo+Y2wur1CpYvPKupITBlbVWr+po6ldQlsUxyqNU4/M/liS69dHtcf1ds32OO19Lhf66scUxU4XSQqBHfG4b6TLz4heyVxUoXMdyWrz74rlx8ZVPzoz9bwdQy9gej1AMkId2ARNw7PMc9MHr0aJPjCv3AmOQFVEKasFg5binvqAd3LsexUDkfpinqMnnlJVemrhUeXlA/MtzHkibVCv5UaPosqYit67bnngbOCKAePHI8kSa3K/0b8tnk+bLMA47eSoVzJcyQFs2dXQBOrMW/1EwkXMtKES3D8vTK0fi0FN5jdj9UBgFbHnr7jw7Tg5eOUnfGLY1qmcLtBw8nSZtdWh8au9WvaR8kK3bsCeyH00Hwq8Ud5YfPsBZLlSGuFQigIQie/PMfskct66KlCpsUwbb8bNumhLGfYTtWpU1HQgI9JoeYoIJWj6wOgC6TU1YYrjOUxw2wYMECefDBB421CSsYVI/hGJxwLTABBj0g/tQ+ffqYqACoAc8GZi+rA7dNvgZiGjaV/MvHnbFo804z9L6jWS0pohMz6RWpmlcoIcRbWimiPsB6CgbVixbQVNN55A8dMiMb9u6XJupPBVSJzcyfLav8qTnko5VQGQQinb9A+8yQkH7SX6/8snitAdsGpYvK6AWrvEVm/7r6VU3GAnzJWM8kLYxGB0ka8hxgBpmsBWQn8MqMcXHUbdt04quQWsJl1QWxcuFab5WzZh9fZ0oY+/2WIZNHWI74OgHOYALo4o8GeEnax6TUrTq5hIVqh/re8wiP4vtATCs+U9j1n3jiCfOAszyhlqzce57bP7c0cEYsVH9qE/ylzLz/67LG8l+dJUewPP/9y7SAtg/psKtnu6bmPf7UCeo/Rd79baa83rGlmUnn/Zpde82EE/vRSKgMApHOBQTnbdouj13aUB7TygOmLwj4hY/r/czfvENqFSsoP8f7dr3tFc6V3WQs4NinGh2ARKMDUzHEv1BD+Km/zpQLm9eRznd2MGce3HdIvvrv8BCtpO3DKWXsD3ZXuEdIEYJf0wbk23rkPwK4IYFmsolcY6S1IdaUgH9m7sk1RnYArFBIlgFe/NeEURFVgHvAcpPiMoDQmjxMTs5tDaQqoGKFdfwo+I/5T81hRDoUwozwi27bfyhRTqk5anV+pCk2cmfNksgfun73fun22Q/Gsj2sX9z9mgfJK/10AohXKMHS7DHw50TFmXT4HEpO6MQGrgak94+T43aC/C+q4V8LdEadqAC/3PXlz1IoRzbZrQ8GgNRKJB3YesG2EA8HI6kGaD/o+YnkVMs/s6bqtilMgrWRlo8BWgCSN4+Rt7+w8pOwLtp0H+gF98jgwYPNpBMWqBXInwn2x5/KIgDaZchvY1WJUSX1DCuvmCADLIk/xWXAhBd5tCB49gsWbCwJn/3tu/dnXgNnBcF0nxvamNl0rNHTLSQKHHBL+5CXwZKeuW5ryHLCubo2qCol8+SSJ74dmygKgNVVL+qs/rWfjDAxtCEbcQVJNMAk0qkw9hNWhtWJz9QKgMkQHmANxYSPm8ECqT3Pbpl4IpcUbgMiAaxFasvd9vzTQKpaqClV7y+L1shOndxJDTmgFu49g38Jeak9h+LSKoeqwHB/4aadZnEB4VVe2apugt+XJS83lff883mf2XPyeoWSUKBn6zO094Ipx4mM2L49blGFreffhmsXMEUAZCdOA2jgrLBQ3UflNOA04DRwNmggTczynw2Kcn10GnAacBqIpAEHqJE05MqdBpwGnAai1IAD1CgV5ao5DTgNOA1E0oAD1EgacuXnjAaY0Sd0yStpibGfvhEeFkmIWChfvnykambZrP9+w50EY5kVIiBYLILAuuVdqmvruG1SDcQUUNMaY39OZam/rl4V8yJ7gFcIj+IYW+JO2SfgPjXE/HDy5w55qTxaFuqHAGtUpswZg54bjpU/XFmk/gS92Fl2MC0x9rM0lcB/4l0BdFZQAZLwrn766adGs6z/Z8mqFco7d+5sXiylhYrQvmdL1gC/wDnQpk0bc5hFDH379k308sbKElIGwxZA2qRJE3n66afNsln2OY9ls+w7kmy/lhO/j2nYFIz9V+hrrIYGwdh/e5PaQuA8QfpWYMj/Y81mwxRlj0WzJYbzemWq/78RE6Opbupk1thAqADLKECxPBS+Uivl9BgZBfaMmqJELAfM/oBputppXgILlq2bnC1f/LZdWklz5XYFxPr27ier46kEaQemJ8oBsZMa9P/fF/rLuvhVX+WqlpG7/6+7ZFCKPwLPRw4aI+PjFw+QvuTxN+836/JpZ+nclfLpa1+wawRWfoikkb1KHvP2k33lSDynQbiycP0xjaXRf+jvq6++kpkzZwb4R71dZfknXKawRPGZ+Bn7YYJCaIcgfgQuU5aXIuEY+yGshjcVkOJz8jL29+rVyzBhWcZ+lp/C2A+/AmDEMljCt1jOykosrp01a1Z5/PHH5Zdf4sL16C8LCkaOHGn6wj8sRBYRLF4cx7i2ZMmSAIgSn0sMrOUXgJSlRYsW5nrwFLDaCxAnzAuuV4TFB1AW+gUrHmYutsTWso/lWrduXdPOli1bkoSf+ds4n9/H1EKNRpEw5HvJTKI5hzopYcgndvWlkVMEntbUksu7tpZLOrZQDtK4GNQLPOv8sS4heV40c5m89+zHpku3Pdkt0LXbnrxBDmms6isP6FpwjWFtf2ObQLqSGx/qItmVIOatJ/rIvKkLpYpSG9a/uI4518vKP7Tvd4KFCys/Eq4sUn9MA2n0XzSM/QAuAgCS54m1+5axn/N5wUrFKij2LZhyDquhABTL2J8/f36zT10Y+yGjgbHfCm1jEQZj7GdJKoz9gBPCMlaWp8IXMG/evABfquUDqF27trnGiBEjbPOBLf3wv/x8BIAr8bXE3kIfCK8AAuUh+bEAV+9CBghnyJOFFQ9TFqllFi1aZGgHYe6CDAaCGPrrj+UNdMztGA3E1EINp9O7mtcOy5BfsVBeeeaKxpJXl5ayXNMy4EdiyO9Qq7x0a1DdEDcf1x/HJKUG/FAJQezy0HB9ilTG0KpBgwby/fffmyFapPqUz5o4Tyb+NE0KFMsvD7x4Z6JTmrdvZN4P1bX0+QvnNZZojtwZJG+BPJIhUwYDnqOG/CYwROVQ1iysp6aXNZTfhk+QclVLG1KTrbpEN3+RfKadxm0ayqwJcyUcK3+4snD92RP/QEh0A2nozdnM2A94A7DPPvusYfnHmgbwGVIjWLl89pCq2BQrVvUvvPCC3Q1s0QXUg1awVHk1a9bMWMJYpRdeeKEpBjT9/lC4CczIqm1bA/o8dABduAtwBbC4AdpE2LrgL3ASWgMxBdRwjP3hGPKZJnhBU4OwFv+NX6dLe2W8Zzg+b9MO2akWWziG/HSSTr6YvlAW6bp53AJ3NqsjK5Vv9GddXRVO1itvKRkAGO4fUKJn9v/ckJilCkuAL180EwX2Wtu1z0gByW8PBbYFixSQv3Ql1dHDR+X2p26U7eoOKaR9LlyyoPpFM5l6q5Sp6vp7OyrF3kljIRVUdi0EN8DmtZulVqPqUrxsUdmv/c6lbPxIOFb+cGXh+pOWAfVsZ+wnmR9Daij+bBZWQI00LVZefvllu5toGyx7Ktayd0UXgIx/FssV6xO3B0N1hGOsOvMLJNy0YzMK0D+G+VbwrTqJrIGYAmo4xn44SkMx5JfWISqW6IfjZxsm+/kKSgNv6yDNy5eQ4ZpbKhxD/g/zV5p8U/VLFzEpq7FSy2nKE+WdCnv38JHaDABU9O7bE+HCZLiEny4WklX9oAwxL+l4sUnp/NnrA+WxN+5TYMwpmdTfiuQtkFtqN6khH730udz1zM2STc+xk1DHj52Qrgq2U36ZIWUqlZS8BfOYc8Kx8ocrC9cf03Aa/XcuMPbjP2Wm3hJhd+/ePQCuqJ0Zdi9hi/0omIzyC2BIYkIrZA4g5xVgSrZVhvrUQbCEAVebRJBjuAGwUEnRUqtWLeMOWLVqlbFuKUeCEe/Elbj/Xg3EFFC9DSdnv5CCBrIknlz6kAIHLEwFPaTSodq7pVENubp2Rdl79JhZ758+3QUmkV+o+sk5jp+LV6zkiFrbAFzbLi1lRP9Rkl4TDiL71Vq2Fmr3R7vKsnmrZJVa2OnU/3pYzwFIkZYdmpqJrBH9R8qT7zwox9WyRsKx8ocrC9cf03Aa/HcuMfYztP7ii7iJRdLXQAloxVqu9j3+UDKv3n///eYQLgEmxKzg87SCvxO/J/mzAFAsX1wMCJYnZV657rrrZPLkydK0aVPDvoUPF15Xogfw60JRiITjUvC2dz7vp/qkVDCG/N3xhCNl4pn3MynQZNbXXh0aJ0hShnxm7gHTb/9cJrcPGCVPq68R4cvmFQhLMuoTOLlCPnZo4aKJ+Yum7R1b40ipd27dLdPGzFS/aBlz2tb122VLPCk2Q/sv3x1q6PYYguEWQIgIyKwhXl+8GzfRkkd1xbAfwecKIGO5+ln5w5WF649pOA3+w+qC9X7u3LlJegfDPpaWTbBnK+ALHz48gTaSyRVmxpmAgXKPVNJM0rBv6f8YGlvGfrhO+R5gpRHiBCDZGXV7De8W/yNDc8vYT5+ICiA5oBWG04AVliSCrxI/p30BhF7h+j179jTWJqBqJ5Cw1okkICOBV/D9Y/0SzdCtWzcTUcAEGN8pKASxdC2YA8w//vijOZ38V5zHFj1Txj4vQrMAWiehNZB8lAndVlQlwRjy4TSFULprPJN9d7U6kVkemrxgDPl/6znH/4pLJQ0A39q4RhL2fNr5Y80WyaaWIYz/JMSLVq6//nrDgu+N14vm3NKaKLB4maKmajFNV817ZPKoP8x2z459kkWzsWJxMqtPmNMOBU7CnA7rK53+ALvcc435Mk/9dYY5Z/WS9eY9AMlEE+A67be4H2M4Vv5wZeH6Yy6axv6dS4z9t2p4FgBnmaoAcMK87AvgswLwdunSxdRlqI7BwLCeSS0s9nbt2kmlSpUSZWvAz0yIFdEHnAuok81h6dKlZp+sBYA6EQeEbDHct8K8AS/a5Fq4Aewxv7Fiz3HbOA2k+pA/GEM+fs8+42fJQ63qB5jsRy3SYa+H/i4UQ/4wzaB6g87yt61a1qQTOXDseKKhELe5cscembxqo/zfFU3MF+TuQT+btCORvgR2SGW3kerb8gdfvsvuylXdrzD7T3TtJQc0UeDY7ydJ66uby8v9nzWWwMcvDQjUHfjeMLnjXzeZMg7+8vXYQCzpkA++kSfeeUCe0qE+wuTVLCXcRsKx8ocri9Qf03ga+neuMPaTIaBUqVKJ4meJU/VOSnnTpRButXXr1sDQm2H70KFDzRAcQCXm9N133zUhYcSywtPKpBSWKJY81jLWLRYyW6xlJpkwGIh15dpMwCK4HbDAqQfYE1XABBlWK9fA7eAktAbSFH0fQ/hiynRP0j4vk33o7seVpNenb0FlwE+tzKaR+hOpnGF94RIFZZNazn7BAsCq3bZxhxnm+8sLalQAflUsW7+EY+UPVxauP/5rnKn3RFr079/fMPYTJ+mXL7/80ky22FlqfzlWHgz7+AWtMFyGYZ94UyaAiMVEcAWQ1ZTZcIbTMPYDSnYm3TL20yZtkNGUfS9jf7BZcT5bQA6Lj6G49YcOGDDALFIAUAmBIuieIT0rlAh5IiPAwoULhUlSdOCPOgEUWWHF0B6fP9cgDhUwxPJlVdaKFSvkxRdfNAsLeM8iA/yyPKRwc+BywA1A7C6uDhYOAKQsRMCKRa/UYUtbToJrIE0BavAuuqNOA3Erhc4lxn4Ak1xTCK4M/JWAFwCIn5LoklAZUjnXDr1pwz+CwtrEJ2zbBxC9E1GcSxQBCwDsubRZrlw546OlT/7EhhzDqsaX6iS0BhyghtaNK3EacBpwGkiWBlJ9UipZvXOVnQacBpwGziINOEA9iz4s11WnAaeBtK0BB6hp+/NxvXMacBo4izTgAPUs+rBcV50GnAbStgYcoKbtz8f17izVADPikYTZdgLurXhXUtlj4bac7w+hClafa8RqtV+w9t2xBA3ENLAfntMKSkwCwXQh5f6sVbyATFQ6PZZ+eqVxuWLzk0tPAAAOc0lEQVSySVf8sELqVKWBkqIcOn5CIGYJJRfoF++yamUNtd9BDfyPRiDKnrV+a1QLAKJpz18nljqwbRfQWNw6Gt/qJdK2ZSnZtqpUStboKi5Wt9HfPboUeKkum41WINgmxjVYzGy0bcSyng1oD9bmpEmTAmz5EI2Eimf1ngsvKqz6LDUtVKhQoIhVRaw+YjUTK5O8QuC8ZXsi3rRly5ZmzT3nfPbZZ4Y+j6B+KP1Yk4/QPjGhvAisZynto48+alZJwSzFslRWUN13330mZpVzAFFoAhGIpImdHThwoHnPv7Vr14ZdPhuo6HaSpYGYAmo0jP30rkeLujJ+2Xr5XBnyT1VuvKi6AedwgAo3wN3N6yg47I0aEO5qVluOjjsp4w6sP9UuBj0/ljqwF6ihHKz3XXxhEkBlWe6/O7WU13/+I1mLHx5qXV/GLFkjfXVFFqvYWHH23A+T7OXCbsNlCQh7YpSFWGfRMvbbJgm+h18U5nqvsBKpZMm45cEcJ4ZzypQpgSrEhhJwz3FWFVmxpCEsDiB9iVdY2skKJl5egbCaoHuErADffPONt9hcg3X1BOHDSAXT2elm+E/UAffmlDQQU0CNtifPKInJwSCcjNGen9x6x5RY5LFhvxvgTe65p6v+6dABnAWP7Pw9SZdZSVY6X27lMciYpOx0HPBmCYBv4fr7OpoMAv3eHBSzy2F9EYyOVecXLEyC1FkZ5RdWNnnXrVNOIDxkylYIaocwBSF9CCuPWFvPiiSo7iBLmT9/vq1uVlbxBqu2SpUqZgVSoFB3OBfrEko8K6xqYoUWS0pZCcU+Dwn2EVZGsZoKQLUM/xxbuXKlCdIntQkPCM6JxPBvr2m3PCAI6ncSew2kKqBee2FlubpORXMXX89aKj8ql6mV4soJ+nibBlJGf/jITB1uvzZ6mi0Ouy2sNH/9bmknebJklulrN8tbSigCqxXS68qmQjYA5DldR8/w1crNat1eXbuSsvv/o7mvdkjJvLnkri9H22JpXL64sWz50sIZ8O2fy01Z7w7NDBsWIJVFrb8/N26XV7Wvf+lSPqRz3UrSqFxx2bLvoDQpV8Ice3X0VJmjBNbhdBAqa4FpQP9xLxBuVyqcT0ppX4+qK+WugaMFusPPb21viGFYsnvnFwn38E6X1lI0Vw7TxCvXtNAf+z8yY90Wefe3mfJg63pSWF0zPb+faC8hfbu1lXHqshk2OwFgAoW+HRjcyavEjxyiDivhsgTYOqe6TQ5jv/dagKUdctvjwfyQACmM+Qy3AVLIRrBQyd7w3HPPyYwZM4y1y/JNK/gpAUA4SL0CkbT3GrQJYQmgxoolAB1SFFYtNW7c2AA+7gSOIaeb4d/bV7d/ahqIKaCGY+ynm2N1mL9QgatX+2aSP3vWRD2/vWktya5MUE98O1bBKoNU1zXr0Ur5AnllyMzFxpd6Z9PaCjh5A0P7/lPmm2s9f2UzTZOSwOCTR9meOtWtrD7eDTJPge5eHSqnV+D0Su0SheQjHe7WV+aoGxtWl+EKqMB0gRxZpXjunIbln3QtlDVV8J0Yn2wvt7aNLzlv9izyyeS5kjH9BQGAD6UDrhwqawHEMAh8BXVLFJal23bJW2NmSBVNQEjGAuTVUVM1MWIx6Vinknlv/72tNIH5smWWF69qIf+bNNf4RPfH86jOWL1Znr68seTT+4FwG50DvlNXxfFlfjVriXnQ0NbgmYtk+/7E/AEkb8P3559MCZclwPbrVLbJZey312J4HSxrJw8Er8XJ+n3ShzDUJm8UW66JsFYe7lLW+8MfAJ2gXaZJPinSmNhUJva6x44dM2Bs3z///PMmISCWq+XcxWIlWR9tkIPqzTfftNXldDP8By7kdk5ZAzEF1HCM/fTUsvbDLuWXvPqjR04oHd/qnbtkydbQk0z+c7ceOCRfz45z/gNu9UoVCQDqBuUM3aFg4RcAEMpALDWkrp7TVK1Kr4xfvl7G6QsLtImWlVeQxI+I7DqcwPjfsnJpA2YWUG0bPUdMSuKzDKWDSFkLbJtYoM98N8G8nbp6kz0sy7fvkWLxKVECB3Vnk5JXM5mErN21PxGD14y1WwwJzTW1Kki/qQsMt+x2TWzIOchQBVQrP85PGK7aY5AaAy7eoSxl4bIE2LXjto2UbBm2w0IfjPAYijqYkWBjskIGUb+P05bZrWW0Z9jOZBKWaCgSELKjQt5MNlPAlBEMAIuEWn/PUB6/LMQuVmc2aR/nwRoFsAOqweR0MvwHu547ljINxBRQU9aFuLP+N2mePN62obzftY35kX85fYGMXLg6qibX7kwYxkPfl0u5QiNJjWIFZc+ROKCh7moFSj+gLosHdUt0nStrApfqht1xoMO5uBGqFs3PbkCOqOWaHParaLMWYJ3GSrC2J6xYL62qlJYB0xfJhSWLyMAZC6Nunhls/yw2J4fLEhB14yEqpoSxHxCbMGGC8UniP4XSjjxLEIbY1M32ckwYQVsHuTgz7VYAzvbt24vlxoWhCa5RhBl1mJi8JNb2PLtllt2mHSHRnQVwW06YFaml/datLWd7uhj+vddw+6emgYQguFNr55TPxiLF93ff4F+NFXiHDt0zeUh2w13A+kvD1fGXLdGkfmRYtVJK81r5Jd4N6z9s3uO3tVJUM5RujGfPt8eOegh77bFw2+iyFig7f/xwPVxbocoypE/s0qAebowcOmy/s1ktUfZE+SVCckNv20yWELKD388r4bIEeOulZD8ljP1YmqT4aNiwofFbso//El5SO0SHP5TjlvAZBihAjvxLvLAeoe9jH1BmIsgvMOBzDWb9mcHnhf+T8Cd8oqEEflMY9//4I46A3NbjuJXTzfBvr+O2p6aBNAOol1cvayxLrLqlCq5/KZqlBCijVcdkHS7Dv3qH+m7rliwkjcsmHu5HaqeITuaQAaC6ZiUtky+P/KH+yFORaLIWpLT9wxqni6+3rcbiZtG4UC+sbtt/SDarzi+vVs5kjsWyjlYA0ptuuimQb96eFy5LgK2Tkm1KGfu5FhYi/lNveBRRAgAZLyaH/EJOe3yZ/hdcqaGENgFWXA+8iBv1Bu8HOw+fKmDtJ2/Gd0rUAHLraWb4D9Yvdyz5GkjVIf83d3cMpCghFxQvZpyZze+g+z2a1zUznSd05nTIjMVy0jODGurW4ubyE5faY8yav9GpVaDwtWtamv2+E+ZofOVa+Xnxamlfo7x5bVC/IeTWXmH2P5F43h5SHsqe7ZqaYvypE+InpBLVD/ImnA4iZS2guWA+yJs0WqGzTrBZ+e6eTmb3lgEjZf+RY2b/O80ee129qtKqUmkDnN6Z/dELVumDpbaM0DrJEdsXu7XnhssSYOukZJtSxn4sUSaaxo0bZ6xpAAwAnT59etg88wBwjx49knQVyzyUMKmE1c7Lyt69e831/HqiHBcC7gJ8sgj+WMKaAGH8qYRVnW6Gf0ucbTrg/p2SBlIVUK/95LuQnb1fh/rMvGfX3E92UoTKGfSLxUqnYALgPvr174mKegz8OfB+hU7UdPwoITlboCB+5+OJc3Xme54BqcfaNDRWnK3T6ePEffW3M0eT6hEBkFvdBn5faT+NLOAVTMLpYPzyDWY1V6isBQ8OHROsSRn4xyLzCloYf5BJOztx56+HuwMLdnZ8okB/eaj3+AyD+Q0Bjg96fmISDWbWycadyZhgDHUtwo6qV69uGPuD1QHAYNa3Sfa8dbAUmcBiBRKrhfBFAqiAGS9CnwAwtmQAZVIL4Rh5lfxCdEMoISDfK/T7gw8+EM6BKd8vzO4PGTJEWAiAMNEHYz5xsLglAGPr7w0GfF6Gf8K7ENwWLHpAIKr2plPhGPV4mAwbNiwQocBxJ6eugTRPMD3o9g4mwV6wW/1t6Vr5cPycYEVRHSPmco1OaOXQJZI1dejeR9ti2Wwk6XNDGzNbbiMEItVPq+Ul8+Y0q9ZwWwz8Y2EgzjYt9pfwrJQy9pOOBJD3x5/a+wQ4bWA9IU6IjQ8NFkmA5UpQvbeMjKChMqESYcCqKrtCivYBWNwPRCv4h/pYqby8Ma64EiwDf6wZ/umPk9hoIM0DKjGSoVJAsy6foPaUSltN41xTY02Zxf9BFxnYeM9I7XXQMKOdGl407RT9ppGuc7rLi6qLo5MuQli4aUfULovT3SfXvtPA2ayBNA+oZ7NyXd+dBpwGzi8NpJlZ/vNL7e5unQacBs5FDSSZlIJYghCNYOJdfRKs3B1zGnAacBo4nzWQBFBRxsBvByfRyU2duyU55g44DTgNOA04DSRoICigZs2UTvYeSFiWaavbVST2vds6DTgNOA04DSRoICigjnsvuxTQGeCVm/6SVg/tSajt9pwGnAacBpwGQmog6KRUo3sPSu9+h6RC8fRSpXRQzA3ZoCtwGnAacBo4XzUQFFBRxk/T4gKci+QNWeV81Zm7b6cBpwGngaAaCImWulTdSNbMwZd9Bm3NHXQacBpwGjiPNRASUHcf+FsgHrqudWZD63Ye68jdutOA04DTQFQaCAmonP1k34PSonZGWfVVAWlWaWVUDbpKTgNOA04D56sGws44Pds9m8Bn/O9BhyRvsRLnq47cfTsNOA04DUSlgZAWas6s6aRQngvkzSGH5YtfjsjBYwns9lG17Co5DTgNOA2cZxoICajZFFCRtVuSJtQ7z3TkbtdpwGnAaSAqDYQE1GY1M5kGtu9NyDseVYuuktOA04DTwHmqgaA+1AnvZ5fiBS6QHQqmS9dFn2PoPNWhu22nAacBpwGjgaCAeucbR2T3vmOyeaezTt33xGnAacBpIFoNBAXUFRv/lmPHHJhGq0RXz2nAacBpAA0EBVQKyMPjF7IxOnEacBpwGnAaCK6BoIDquE+DK8sddRpwGnAaCKeBJDmlwlV2ZU4DTgNOA04DoTUQMmwq9CmuxGnAacBpwGkgmAYcoAbTijvmNOA04DSQAg38P/bzfbTuI8SSAAAAAElFTkSuQmCC;" vertex="1" parent="1">
          <mxGeometry x="280" y="120" width="340" height="151" as="geometry" />
        </mxCell>
        <mxCell id="mMl1sKTFDAsI_Ko-cwrK-35" value="" style="shape=image;verticalLabelPosition=bottom;labelBackgroundColor=default;verticalAlign=top;aspect=fixed;imageAspect=0;image=data:image/png,iVBORw0KGgoAAAANSUhEUgAAAXUAAACnCAYAAADufMxYAAABX2lDQ1BJQ0MgUHJvZmlsZQAAKJF1kD9LQmEUhx/LEEpKI6ihwa0CC1OHxkyjAoeLFv0ZguvVtFC7XI1oC/oK0dbQEn2BcKgh+gRBUNAQNURBo+CScjtXK7XovBzOw4/ze9/zHuhwqrqetQO5fNGIzc14VlbXPI5XHDjpp5c+VSvoIUWJSgvftT0qd9isejtu3ZV2n0Qe16sH0+/G9WD5zfu3vy26k6mCJrUqGdR0owg2n7CyW9Qt3hceMGQo4UOL0w0+szjR4Mt6z2IsLHwj7NIyalL4SdibaNHTLZzL7mhfM1jTO1P5pbjUIclhIswSleMhjoKfIJNMMf+PJ1j3hNlGZw+DTdJkKIo7JIpOlpTwAnk0JvAK+/FJBqxd/95hU0u+QCAnT402tS0XXFTAfd7URp7lO8dwpeiqof5s1laxFzYC/gb3lKDryDTLy+AYg9q9aX6UTLN2Cp0P4q18Aj9vZQqPir9BAAAAOGVYSWZNTQAqAAAACAABh2kABAAAAAEAAAAaAAAAAAACoAIABAAAAAEAAAF1oAMABAAAAAEAAACnAAAAAN1jiq8AAEAASURBVHgB7Z0HnBTF8scLyTnnHCRLBslJQURREAEFAyLm8J7p/c0Bc34q8syKgqCIYgBUEJAkApKz5JwlZ/Rf377rvbm53b09Lu0dXffZm9menp6Z3+7+urq6uipLuXLl/hEnDgGHgEPAIZApEDgnUzyFewiHgEPAIeAQMAg4UndfBIeAQ8AhkIkQcKSeiT5M9ygOAYeAQ8CRuvsOOAQcAg6BTISAI/VM9GG6R3EIOAQcAo7U3XfAIeAQcAhkIgQcqWeiD9M9ikPAIeAQcKTuvgMOAYeAQyATIeBIPRN9mO5RHAIOAYeAI3X3HXAIOAQcApkIAUfqmejDdI/iEHAIOAQcqbvvgEPAIeAQyEQIOFLPRB+mexSHgEPAIZBmpJ47ZxaHtkPAIeAQcAikMgKpTuoP3ZBX1n5XVJZ/VUSqlc+ayo/jmncIOAQcAmc3AqlO6v265JQV605JtR57ZPWm02c32u7pHQIOAYdAKiOQ6qSeI7vIvBWn5dSpVH4S17xDwCHgEHAISKqT+jlZssip0y65kvuuOQQcAg6BtEAgVUm9TcPski2byPQFJ9PiWdw1HAIOAYfAWY+AUm7KS97cWWT+8MKSI3sWGTP5hEyacyLlL+JadAg4BBwCDoEECKSKpn702D9yx4uHZP6KU9K9Qw4pW8J5vSRA3hU4BBwCDoFUQCBVSP1vNaFP+P2E9Hpov/yj+30650yFW3dNOgQcAg4Bh4AfgVQhdXsRPF5OnvpHCuVN1cvYy7mtQ8Ah4BA46xFIdbY9ocReu6ozv5z13zQHgEPAIZAmCKQ6qY+ffkIa1cxmVpVWLevIPU0+VXcRh4BD4KxFIEu5cuVS3Ym8QL4sUrFUVlm+/pRbhHTWftXcgzsEHAJpgUCakHpaPIi7hkPAIeAQcAhI6q8odSA7BBwCDgGHQNohkOo29bR7FHclh4BDwCHgEEgVUi9btqxD1iHgEHAIOATSAYFUIfV0eA53SYeAQ8Ah4BBQBBypu6+BQyANEMifP3+8q+TKlcu8L1SoULzyYG+yZ88uiY1+aT9HjhyB03PmzCmRtB04QXdoo2DBgt6iePslS5aM956655zjKCQeKFHwJuo+kQpFCkjHGhUNNCXy55ULa1aUHNni/Nsvq1dNejeuaV6E9U0r4VoX16ki+XLG/XD81+Z+qWOlQ/UKUqlozI+kRZUyUrNUEXso0W3WrFmlTMVSki17qsRcS/T6rsKZI6BuwnLVVVfFa+C9996T3r17m7IiRYrIiBEjpHjx4vLxxx9LhQoV4tU999xzpUuXLoHXDTfcIG+//bZ069YtUMbxokWLBs575pln5Lbbbgu8v/rqq+X1118PvPfuPPLII/LKK68InYVX7r//fvnXv/7lLZIs+r3nHosVKybvvPOOQOxDhw4Vvp+00a9fv3j13Zv0RyDqSL2LkuJdHRobZM6vXEruaN9YCueJ0WooPLdkEWlWubRc3bS2ZM+adrdPx3JzmwZSrnC+kJ9andJF5abW9QPH7+7YRLrWjSH5uzs0kX7N6gSOhdvpc2sPeWH443LvS7fL8589Jve9fIfkyBn/BxjufHcsDoGKFSvKmDFjpHXr1nGFsXsQ1pdffikPPPBAgmPJKWjcuLH06dMn0ESHDh0Ezfzbb781Zb169ZKjR48aMt+3b5/ccsstwjmWpOkQBgwYIJdffrlpp0mTJrJt2zbp2rWreX/llVeaY6VLlzbkWrduXaEjWb9+vdSsWdNco3nz5rJ161apVatW4GW16jfffFMKFCgg77//vjk/cKNBdv7R4E0LFiyQiy++2Bzl2r///rucPn1a6JyqV68ut956q3lVrVo1SAuuKK0RyHBq4KsTZkutUkXlue7t0hSr4ydPyb2jfpEt+w6l+nVP6bXGDv9Z5kyZL7UaVZerbr9CLurdUb7/7KdUv3ZmuwCEc+jQIZk+fXqCR+vRo4fRVj/88MMEx1KyoG/fvjJ16lS58847jbkCkkZuvPFGyZs3r0CG7I8aNUomT55sju3YsUO+//57QeNmf9q0aaaczgKC5/2GDRuMBo2WTh00+f79+8u9995rNGo0cbRvhA7jnnvukXXr1snBgwdNR9K2bVtDzqZCiH/NmjUT7jdfvnxGa2/Tpo2cPHlSFi1aZJ7lyJEjQgdCh8EzOkl/BDIcqYeD7NwSheWhi1tI4dy55JgS44czFsrEFRvMKcXz55FnLm8rJfLlkW0HDsmpv/+WCcvWyfeL1oRr0hx7/NJWQtvIY99Ok/V79pt9/l17fh25vH51+Uf/NuyNKw9UCLPTuXNnGThwoKxevVoefvjhQM3RH34f2J/76wK5tN9FUrdpLUfqAVQi20GTRHP97LPPgp5wxRVXyIoVK2Tv3r2B47Vr1zaau7VHL1y4UJ588kl56aWXjDacO3duQ6bly5c3nQVa/s6dOw1hX3DBBfK3fq94bwUSxMxC/cqVKxsyxN49Z84cefbZZ2XQoEFy4MABY8qw57AtVaqU9OzZ02jU1apVkxIlSpjD2LHpCHi/ZcsW2b17tyFmtH3uGVMJRA7pPvHEE4EmR48ebfZvvvnmwKjlhRdekLfeeivQtrXJf/HFF6Yuz/7cc88ZU9E111wjPDujmwkTJhjtn/033nhD6FTWrl0ry5YtC1zP7aQfAmlnv4jwGaev3iRf/rHc1F64eZd8NW+FHDh6PNGzsa4/1a2N/K3DxZd+niVrdu8zphvIHMEskl/t4a//Mke27T8s5QsVkEIes46pFOLfxzMWyas/z5Z8OhGVK3vWQC3Ov6JhDZmq9/zetAVSsUiM/dxW+GLucvn1z03m7edzlsoPi1bbQ2ZrJ7cgn1BSsEh+yVsgj2xYGdNOqHquPCECEB1a5TfffJPgYLt27Yz2iZ3YCiYSSDabputCe3/55ZcDmiyEiVY6c+ZMqVSpknz++eeSJ08eY5aAtC+88EKZP3++IUBLwLR7SkOVrlmzxpD0xo0bpUqVKoaM0X7RzM877zxp1aqV2ceWjkCWixcvNtr05s2bZdWqVcZMhKlo//79MnHiRHNs6dKlpr7/H5r8jBkzjBbvPUaHw4gFMxDPigmG58BGzovzMNnY9+DWvXt3M4qgU0PAp379+oKWj2mmU6dOZlTAuU6iA4Go09SXbdsjvJCNew/I8NmR9f4VdUIyt04qvj3lD/lt7VZZtGWXDLuhm7SpWk6+XrBK6pYpLuOXrJGpSrJz1m+Tz2+8LOJPYNNfB2XXoaMJ6rfSyc/TGjz+zUlzzbEG5UtKi8plAvVGKqlbCTYi4Ef522+/mR+9refd8uO+/ckb5aSGuvzqg++8h9x+IghAuJgOfvjhB0M+/urXXnutbNq0yWjd9hjEDKG/9tprhqAph8StrFy50pgYIGE034suusjYlSE2CA7CQyA97NwIny/nYb/+73//K2jpaODHjx+X4cOHy3XXXWc6i6+++kogfYTOnntDGMU1aNBAMOFYgXi9wqSlt+NCc+YZuA4dG4J5BDs42jQvTE8I92fl/PPPN3XGjRtni0wnwmimTJkyQgfDuffdd5/p9H788UehcwRrntFJdCAQdaR+prCUiNXIl++IGUofPn5Sjp86LcVVy82TI7sh/FWxx46qaYZjyZW6ZUvIX0ePBZpZvXNvPFIPHAixw4+FVyi55dH+UkTNPm8+8p6c0OdxEjkC119/vTGFDBs2LMFJEC7eHJhVvMJkI+SMxh1M0PpPnDgR6CQgSUwWtIfd3gqmCEvqlGEGQcvHVAMhcw2EDgSBlNmnE0cgdUw4Tz31lOkEdu3aZcrtP7TkP//807wooz3s9ZhmMOkgXPOTTz4RcEDzRrj/pEqNGjXk9ttvD9wrowU0fmz71twDDkuWLElq065+KiEQdeaXSJ7zhH6JkJwed7+9h2PItZK6RCJ4q+TU174jx+TIiRiCrxZrF6ecV3IFEi+QK87FsVzstSNtF+0Hb4IWLVokOKXvHT2lap1K8skrI2TTmi0JjruC0AiglWLfRgtFI/bLTTfdZOzoeHV4BfKEWK0ZxHss3D7mFbRVK3QOVrDp44Fz7NgxY0cfMmSIOYR9nYlL3Bm5HvvY3RFs5tu3bzcdAKTKeyY4eVEfG/vhw4dNXf5BstjXvRo8k6Fci3kbK8GwSMz/HU8X2yk8+OCD8scff5gOijbx3GE+gE7MSfQgkCFJfe2ufcbs0atRDcmvpJpVf8SYajCF9GlSy9jKr2seM/ydu2G7QXvZ9t1ykbpLnlemmNzevlGKfAIz1myVHKpldalTWcoXzi/NK8WZXiK5AGTOBBTalFcu6dtJGrWtL7MmzJXDB49IpRoVpHSFkt4qbj8MAviDo/3iG+4XCBeSxfThlylTphit9+677zbkCVFH4oeNjZvrob1C0F4tnZEYphM6EkxBmFKQuXPnGl92bOfYv3FjRPtG88fThP13333XaNx0/ggdBB0W9+clcMrwQMHc5JVffvnFmHcoo7NitOAVJoqZLA0nnGPNMnQQ7DN5ivCe0QHeO2ydRAcCGdL8wuB12OwlclWT2nLpedXko5kLjRfL4ClzBX/wj6/ratAdt3SNrNEOAPlw+iJ5tntbGXRZW9lz5Kig7Z889bc5Fu4fXi8vXdEhUOX57u3N/pBf58mE5etlweadckubhqZs/7HjkjtQM/EdOwy3W3tGg5bnmd0WnZsKL+SojkQeGxDzYzIF7l9IBPDvxhyAFukXXBwhKgjPL3v27DG2b9wL8eVGmAD0dgDez4p9XrgWoq3jfsjLS55MhNLJQPZMTmIrRwtHU8fejXaOWYT95cuXm8lLzkfzxv7OJCymGOsnjuaMe6KX1CHsu+66yxC+/5kwjeADz31iOkLoBPBkYdL28ccf95+S4D1mHExVjH5oh7kEOh4WOzHZi6fOq6++akxAjEicpC8CqRJPnSEdX8r0kKznZJEyBfPJTtVwg9nN0erxYGES9V9fTpSt6nceamUqbo940yQmBfPklCz6h6nHSfoigPaIDRgbMxN7XrE2YFZzYhsOJ5AuJJiU7zF2egjWawNnoVGjRo1k9uzZMmnSJDPxyIrOOnXqxJuk5V5wIeS3g8cMnimch8mEDgM3Q/zOIVQ6CjR6noNRAitHWXVKp4GL7ODBg82jobk/9NBDZp8JX7x5rDz99NPGjRJvGivY8OkE7IQv5SyCwv+dTvLTTz8190UZpI4pxnZ+eMdg8qFdJ+mLQKYj9VBwXqIrOzvVrmxcHRtXKGWq9f9krAwf0M1MpAY7b+KK9epNMy/YIVcWpQgwycjLq8naW4UIWYWJlwkaZ3oJmi3k6SV/ey90CmjRuLmy6pTRQzCB/CHRYKMRb31MSHQSVkv3HvPv05Eh2O6tcD42e78GTqfjvTbaP7Z/7slJ+iJw1pB6qQL55NJ6VaVI3lwyUyceeaGFF8mXW7LrFzKYHDp+QvCiceIQcAg4BDIKAmcNqWeUD8Tdp0PAIeAQSA4CwVXU5LToznUIOAQcAg6BdEPAkXq6Qe8u7BBwCDgEUh4BR+opj6lr0SHgEHAIpBsCjtTTDXp3YYeAQ8AhkPIIRB2pJ5b5KKUgaHuuhkKNzUrUoFwJaVi+hGm6hibhaFmlbESXKZA7p8nMxJaVpWRpKlkgb0TnZsRK+PiX1jUA2UJ4CxXJmztB5MvkZH/KiBi5e3YIpDcCUUfqiWU+SinABrSqJ63PjYnRcXPbBnJru5jQAVc3qy1kLIpEqminQGamc4sXEhYgsW+jNNIxfHPrFeb1xU2Xm6QekJ5XeE+dT2+4NFA8oGU9U/avC+Lu4WqNpf71LT2EdHnUf//amCw0nPTiFe1NWSONEEkIBI5DvFZG3dxdrm0ePuNSN3X15Dx7TRZjcc+UIbk0xs7Tl7WRUVo25OrOQpu9GtewlzAd4siBl8uHel+s5v0wdkUvFc40+1OgcbfjEHAIJAmBqCP1JN19FFdWXjTy0Jgp8sYvc6VMoXzyVp8L461e7agxXVgEQ5x3q+GfoytikXbVykve2BR2aMYsSrFtFtPOoLT63RNq+NzihU19zqNOMNGzgxUHyrJmifkatKgcM0JporlRGXlY6aM5YWtqtqkHv5kiV773jTw9doZs15j0CKOUx7q2kqXbdku/j76XGz4dJyt3BF8wY9tzW4eAQyD1EMhwsV9I/Pyfi86X2qWKaSCvLLJVsxjdPXKioG12b1BdCujx7QcPmyBf7L/40ywTnwUt9+nL2wQyH+X0kFZi8LJCkaQJLNkmDndShPR3K7bvla37D8nrvS6Qtjo6mLIqJlZ262rlZO7G7aphF9dk2xVkxJyY+OsQ/WGNB9JXRw3vT1uY4HKb9h2Qi8+rIju0zS36Klcof4I6SS0gFs5pXTlYR7X9Lrr6lmuQSARppnHjyeq0audf5v28TTvMln8EVUNeUpwJy0BEzJd++t2UuX8OAYdA2iMQdZp6YpmPHr+0pWD3Hjl3mdw/epJs0NRykHshTWGH5kpmI7TYpVt3GWLqGUs6A1vX08xF2eW1ibNNwgtMClZGzV0hX8QS6rjFazQxR/yMMiyBttHz7DlsN+47aDIzbdQkGgePnTD78z2E561LCjzIukqxGM2a0MAVCheQ33RlK1pua7Xxe+VLvaeLalUxIYS95exPWr5BO4fycqGGPfhFQxmklMxYu8UESKtXpoRMjk0DSNszV2+WqnrfpPVrqlq8V++vXKyQBkg7FjTODucmlv2JOk4cAg6BlEMgjtlSrs1ktRQu8xFEfG7xIjJGMxl9NS8m04pXK9x9+KhMUwK654KmMl23aMCNK8XEeSHz0TjNfMTxPzbuMDFf7I1OXrXR7spszYrkF+JeEJubWBxe2avZkLyZmbz73np2/8Tpv6WwhilAsL1jLpm1bqsxq9yl0SXplKxwr9do/tOeDavbosB2joYT7qfHCuZS04cS/PXNY6I6Biqc4c6Pes1Xr7zAJP4g0JmVUYp1bu0Qu9SuIg3LlRSiUb6s2jidUUE1vxzWcApIzVJFAvMR/9OYOYu37tbON3z2J3sNt3UIOARSBoGo09TDPVbpWM8SGyPdXxfzgZWTagrApIA9Gts0hLk61nxgk2bYuoltMbu8+OKLgYh0idUPdTxH1nNkr3Y8SPsaFU3ya+K/11B7NYI5xgqx4b/XnKYktcbrxCvErCH36SIdjRCfxsppLQ8mkUSa5Ly1u/fLZh19/LQ0ftKDE4rlB9MXGnv6oLHTzSVubdfQbPdr/ti8auZC9h4+bmLqMFIqqjF1nDgEHAJpj0B8tkj76yfpijZPaK3SMSToPzkEp5mgXBB8OU1kgTAJmJTMRyRAIEPRpZfGean4r53Ye+Kyo5nbjqWu2q4Pq/25gbpSYk4izG+76hXiNcNohE6pjc80Q6XBk/+QJ76bFq/+viMxWX7oPKyYkMARJO629e8aOUFNJivs2wTb+Zt2mlyv1o6/VhN8F9UE3OC5U+cyhv0e33SVoAFfAdEIiX/eunVr3xH31iHgEDgTBOJ+/Wdydhqfg1aKieXSetXMhB6ud0yQhvKb9t7en6qlE3q3uOYyveb82t5Die4TO5oMRSRPSKqQXg9fbezRhzQ+N2ahOqWLmXt+dtxM+feXv5jXj8vWSc2S8TurY5pL9ZeV66WIkmYksvvQEWO3v0TxQbvH7s58w3ol3uTIDZq0o3318oa4yfB0Ya3Ksk0nqBFrBnug8/kmhHGxfHFp3SK5JrHBiQVOZiAnDgGHQPIRiDPiJr+tNGlh0A/T1YulrTyjGYwQNPCflq6PFx9bLRfyt+9uhqsG+bSe816/LuYcNONI5Uxib9tRA5mWuMfVu/6Sl3+eLRhI2qmnC9eno7EyTe36l9atmsBsgZ2+U81KId0V7fncI94nn85aIqTy4xxkpk5+YttOjjCX8a+OTfUV0wreRYwUkAM6Cnh2/Ez1SGoemKcgs9Ry9fiJRAoXjpk49mYLiuQ8V8ch4BAIjkCGDb1bSLXXvDp5t01d+iK1GaO1Elc9KecEhy26SzEvlSqYV3brRC7zBwijmeRkeKLNkgXyyB5Nq2fb9KOAr/0xTciwP9YM5D8e7D2ZctDWyXtJdiAnDgGHQPIQyHCaun1cUsclNX0ck49bdCIwswsjAxJxe2Vo/0uSleGJNjep62Y42XEgZkFSuDr+Y5UqVTJ5QB2h+5Fx7x0CZ4ZAhtXUz+xxz96zXIans/ezd09+diGQYTX1s+tjSv7T4lPvxCHgEMj8CGQo75fM/3G4J3QIOAQcAslDwJF68vBzZzsEHAIOgahCwJF6VH0c7mYcAg4Bh0DyEHCknjz83NlnGQJ58sRfXJUrVy6pWrVqklAoVaqUcF5ShZXNfqGtMxFWN5crFxeW4kzaSKtzcubMGfRSBQsWDFp+thdmLVCgwJMpDYK2KQcPhnd/C3VNMh81rlBK1mlUQ8LlttCwr5s1uBTuiMkRshuVVt/t7ep2x7J8Xom56CXneil5btOmTaVmzZqybt26FGm2TJky0qlTJ1m+PC7YVoo0HKaRfPpZFtPwDocPxqx69VblGKEfT2vAs2gWVhYPGzZMli5dKjt37jS3Wr58eXn11Vdl/PjxJjSz9/4//vhjKVasmMyfP99bLO+++67s27dP1qxZEyiHYDt27Gg+Zz7r3bt3i3dBVsOGDeW///2vjBo1KnAOv7P33ntPDhw4IBs2bJDnn3/efK58tvZVsmRJWbx4sfCZt2jRwnRAdEKsDXj44YeFjqJ06dKBcvY3btwYuEZq7RD5dMiQIQbHrVu3yuDBg6VEiRKyYMGCeJekEx0xYoQsWbJEdu3aFe/YF198ISNHjoxX5t7ompRoA4HMRxfra9LKDXJ+5VIyoGV9syLS6wPNkvTfNbrhVA1qFamQ3Yil87cM+1HIbsSSfFZbZgQhNgpf+EmTJkV0uwMGDBBWakI2waRJkyYmLvzXX38d7HCyyvr162fi5LCFlAprVqi7n71Z8sdmYzqhoR4evu4Zc428GrLhvpfvkAKxMXlWLFgtHzz/abKun5ST0VYhhjlz5sjLL7+c4NTXXnvN4EgYA+SWW24xygoEA9Hkzh0XtOzTT2Pu+7T68/fs2dPUf+GFF4TFVWjTzz77rCkL9a9t27ZyxRVXGEKtWLGinNCQEt7Pm9DP3C8aPseyZcsmderUkU8++cSEWPjjjz8SLN5q1qyZoBAMHz5cOnfuLF27dg0QNjkCVq9eLdSBYAlah0YMqU+fPj3UbUZUXkYjo/YceJlUqFZWdm/fIy/++80E5z344INCJzlv3jxz7Msvv5R77rlHxo4dG4+8r7vuOvPcTz31lKn30EMPyZ49ewLtETsIOXz4cIJONVDpLNuJOlKPBP/zyhY3q0IjqXs21qlWrZoULVo05KNDFitXxoQuDlnpDA9069ZNFi5cGNAyb32sv8aizy6DH/9AtmvI47raoVrpd3cvyaurVF+5f7B00rR89VvWlSbtGsjcX+Nra7Z+Sm979Ogh2bNnNwlQ/G1DxFWqVJF33nnHHEJjJOjYG2+8YYj6s88+M+Tyn//8x8Suue+++0x45h9//DHQFBjffPPNUrly5UBZuJ0dO3bIvffeK2j4559/fryELGjU3CvHPvjgA0PO1O3Vq5eOcE6bEQEjCCtcu1ChQkYjp2zFihVSr149U5fn2rt3r2mH7wpxjSBFPrf169fbJs54e/czN8txzS9wUlcz02H4hQ6/cePG8q9//cvcD8enTp0q3bt3N50r5fv37zdkfsEFF8iECRPEdpqXXXaZURoYnSCvv/666Rx+/vlnMwIyhWf5vwxF6je1qS8dq1c0OTO7a0jaSzRWyj6N7X3b8J/Mx1hWMwDd16mpVCoSY2ubo1mFnh//W0QfMZrMwIEDjfbCsDSY8MNCm0LjQcPjB8x+nz59BPseP65vv/028AXkx/zoo48K2sTfGuuFL6cliZdeesnEq2HYDWEsW7ZMHnvsMVMPjYmhNOef1AxIaLxoZ4kJz0BgLLQ4xA7V//3vf8uWLTGjEjRMND7a9WZx+vzzzwOaIBocP3a2DzzwgGnrjjvukA4dOpi2//rrL3OvmzdvNsfsP7BAk7TPWLBIfilKQpMhX8um1VsMPnN/jTNFVKlVUVYvWS/bNfJjUY3FjrTo1ExWzlsj77//vvz6669Gy7Q/YHudlNryWUJ2EJxfbrvtNiGOviVpSBtBC+cz4/7Q7seNG2fIks8X7FkZS3t8vnQMfCcgdr4vVvh80fptgDg6CL8Qv/+JJ54IFGN+QUu9+uqrTdm5554bOHbJJZeYkRyfKcL3CQ3XK7NmzRI6Mb4Hb775pvluPfPMM4bQJ06cKK1atRI65KFDh3pPO6P99579VNYuXy//99+745E6BI/GXbt2bXnyySfF//3hdwdJgy3PzqiB73LdunWFUQ/xjWbOnGlMTXynx4wZI9dff705dkY3mklPijpSJ/PRQSVqZOHmXSabEEGjkNHzVskkzchDYK45G7bJdwv/FGJ9WyGZNLG9yYiUU78MpGazQnYjyAwhu9EfmmjCKwxHGeLa4Zz3GOQKAdavX998SdGCrO2PLxXkN2jQIGOXtJM6fIEhZsj4rbfeMl/kLl26yA8//GC+zGhRmFQghUOHDknv3r2FHy7DaLQRrkkHgd0UW6u14Xrvy78PEWCfhDB4nldeecVU8Z4L2fADRgPyCqYEzBAM/dHk+GFBRhUqVDBDdGy0v/zyi7HPQkZoiby8wjOsXbtWtm+PwbacJt9GWnZuJlfdfoUc089xpgY1G/f5BFOeTQOFbV2/VeppYuyylUvLAQ1DUEBzudKJMSznuemomEvAdpqSoQTatWtnNDzbAZkbiv0Hdmi1X331VaAYDNGEMXlMmTLFkDufNeGYL7roImPXpvPB3EIHSGeAPR0SPqXxcLxk2b9/f/MsdOTI3Llz5cILL5SyZTVZ+TffBL6nEBkmskieG3xGjx5t2rNb88bzj/upXr268OwI31FMM1ZQWjCJJFcg9GDCtXmBzVVXXWVe/np0sswDMHp45JFHTCeEOZHvJaYZJ4kjEHWkHi7zEQkmeBHhcJdOuK3ZtS/eExbOEzNLflIn3Nbu3qORAuNsb4llN+IHCyl6J6/40TKZgykD7RTNlx+Z1Zr5UVhbJ8NFhoBWsGWitfLDZTKNiWN+3PzIrf2WyTImuhCGns2bNzekztAbEsFeijDBFYlwDey9bLkv9v3CpB33E0wYAnNtnpvOBs0TbfPiiy82zwxp8eNiUg5y4/nQZhFss3RUdGRWChWNGTEV1wnS4W+OkoYt60lHzRM748dZclQDgyEnjp+UPrf1kBk/zZZKGt4XGzzaLZ0PArGjYaLFkXmKzjMlJnjppDdt2mSexVzI849Oi3vwTsIxuYkmCyn973//MxjR8UCUkCj2d0ZlkDOCiQtzCZ83GiZ4WsH8sGjRonjfF44xEUhgM54R4fvBiCESUqdz4fuDQM6hhFy7KBbME3CONWugAfMMVvEJdX5yyiFsyBqFAi0c8mYC104k8x4lgs/G3gfKBkoCx/g+o/igvVvPF7Z2ZJqce8tM5yY0eGXgpyNJM5EY3+zTSUYOvFzNM1Uifhq+cGQ38mpn/DggKn6UEBlatCV0GmbIzbCaHzp2TjwjIHOkUqVKZsuXEcLjhc0UrdwKWrUVyBGtHGF4b80lvPdq2rxPLYE0eT4IzQoEj/bGj8w+B5Ow3Lu9X+pCEjyf11Z/UCNoItPGzZL5MxbL0NdGGizbdG1pyJxj7bu1klMnT8mYj8dKds1QdUJtsV6B/P78809jLqITsT9mb52k7jOch4whOL/QGbZp08Zo414c+BzRGHlG7NoQMwSDbRhsGN0wwvjuu+/8TUb8HuwZldD5I2+//bb5/jFaSUww+XAuL76v4QTShNDBlVEbnx3fubQQTERo6nRcTHhC2Ozzwjxpn90+AyYn5jL4HbKPksG92pEPW0yFTuIQiDpNPe7WQu8RajdYYgw084GfjjeJp+/o0EhubFVfJmgOTyIMJiZoDC1btjRkisaO8CNlIgoNDZMIGjZa8OTJk40Wx3G0OV5ouEzw3H777eZHYk0QkL3VRPz3QKcQTNDYihcvHjiEScifHzVwMMgOPwir6QQ5nOQirk2bmBWCCfZdNC86Ra/s3BLjgnbsaIxWbp83l+ZWRSDznJrj9KNBH5v3hdSdFfs69w7pYCvmR8z1GQUxH+DtFM1JZ/CPEQgkaE1o3iYga0ZgH330kbfYfK7cP50vNnAICI8WiMkSECdw7973thFMK96O2paH2/JdY14BDfz7778PV9XYmq3ZxW9a855Ih4wZkO84HRLXWLVqVcjvKITKSBWPGK/XibfNM9lHYWK05+0EURL4TXmF+SpejNgwK3I/jGAYQWNTZ4RrFQrveWfzfobU1NerD3tTtcESU90bI7xLncpSQEliu2blWaEET87OSGOtY+JgaIiN3Cv8kLFtMyTH5QrtBrLhS8aEVN++fY2pA4LARINrGIJ9Gk2PyVdMFnyJISq0u8SEEQGdDD86fqDYeJMijDr4IUK2EFRyBZsvZIBrJc8BQfFDsgJJYpqxnaEth6CPqx297SUtjVml69UXGtKb8sMMU2Xt8o2GAA/qOoTmFzQxBP/bxLnmedGK+YFDnJgwsPGnBKGj5fF5eG3J9n4hZAgP/P3kQodOSkNs8A0aNDCfJfMeeIx4hY7NS6q0iVkDjBITcIWYwdoK3jbWHGPLgm3RviE5XnxGoYTvKPfId4qRDwoDHWeNGjWCnsL3l8+aOYZIhQnySpoIJkfOHJI9R3azb91WbRuYlRA6ait8NolNivO7gtC9wsjJa97yHjsb9zOkpj76jxVyZ8cm8vF1XU22n6s++NZ8dt3qnyu3tGloiOKkkvEIzRoUaYYjq13ZbbAvA0NbfmDYSu0LTZ4JQgQtjh8wAimwWATtnR8mQttMmlrxX8u+54fJxCTeMIi1W9vzEtsyoYRGg10aUuEeMB/deeedAZsvbXAdBAK1Yu/B+x4bMrZOftyWzK0ZgslezE/BTBm08fng0XL9vVfJI4Pvlb91rmPRb0uN7zLHRrz1ldz/2p3yn9fu4q2sWbZe3Rnnm3vGewMtMqXl1ltvNZ8Nk75+YTSGuQn7uV/at29vNEZMUSzOYYEQWKFJgzECSTLCog0EzBA00CeffNLsh/vHgiMIl/kD68liPw/vyM3fBp4gfiLnO4PJyJ5vz7GT/mDLpCxKCpOW1r3T1rNb+yz+hT/2eLBtzxsvk9pN4jqJOwcNlKVzVsjHr3xulAy+j/jls47CmjMxe7EgihGQX+iAMLthasEpgcloJ6ERyHTx1G1GpLRKhsEPmolHbIFeG7kXcjQQOgGI1ZogvMdD7aNR8mOyWiPX4ssfSuwoIdTx5JZDWpV0rmDbtm3Gj5j2Hn/8cTOMZogcTliQsn3jzqDPX1y9lI7oxDerTVNTsMui1aEdstjFL5hVeDZ8z/2Clg72dISNGjUyHSWdJJ0bQru0D0ndfffdptyOaBhteMmVUQIE5Z1Yh7Sx8/sngZk4RYtmxIVSYT2OGIVxDKUimDDJzv0wsW8nQ+l4+Qzt98l/HtfHpZAJc4TOiHPpbNDYU0IgZJ4H5Qc3S8yT3CedEr7yaPD+zhy3WjpITFCQvsWSzwLzi5P4CGQ6Uo//eJnrHSMCzD2hJD2+4JARZqZgvt6h7jO9yiFlbP9o2pYYvPdC58tzhCI9b10ILzFTgbe+dx8THK6feEwlJowMMPOBsdemDTnXqlUrpC2cERSdvPcaTBDz7KHuG7MSmrA1c2GKYmQDEWOSSgnB3MMowmKMmRAPFz6PpM45MKE9bdq0lLitTNWGI/UM9HHy40abCiVpEbMj1LVduUPAIRAdCGRIm3p0QJf2d4F244g77XF3V3QIZCQEku8akZGe1t2rQ8Ah4BDI5Ag4Us/kH7B7PIeAQ+DsQsCR+tn1ebundQg4BDI5Ao7UM/kH7B4vZRHAX9r6pduW8Zrxl9ljdou3Cj7iCO6tkYi3HvspESIhkuu6OhkbgagjdTIfdaxR0aBK5qMLa1aUHNlCr5DL2PCn7d2T/alh+RLmomR+ahkbRTHSu8iZK4eQ2OJsFYiVFaV+n3wWl+GT7hfcCu2iLAJ92UQZLArj5V0wxOrhT9S3nAVDCC6ThJ/AzRAhfAEhc504BBJDIOpIncxHd3VobO6bzEd3tG8shTUcQDQLmZjanls+ybd4ni66ebZ72ySfd6YnkP3p1naNzOlkf7pbV+VGKrc+doM8O/RReeqDB+XRIfdJ7ry5Iz01auuhXbMIycaM998oC2RYVISw+IfVniyMgWwJC8uKTF6QMyuF2YeYrbBC1S42g5yJComwUhjXVCJ0Wg0fP3CCoRHEi3jj+G2zOIfQFKwFIFImcc9xa3XiEAiHgHNpDIdOhMfONBNTcR2J1ChRNMKrpF+1Fpp4pFrdyvLlO2OUpP7R2Og95GqNj/7Ry8PT76ZS4Mp2abzVpr1NEg/Fm/kILRkTCtr2//3f/wW0bs4hXgtL3/1JHwjEBeETXZAl8HQI7CMsPiK6ICtEbdpBwhYTH4hFOCz6gdwR4t4QxIp4QyxGImyDE4dAKAQyHKlXK15YBl3WRkbOWSZXN62tyTCyyjcLV8lns5aa6IwPd20hZTUfJrFfxixYJSPmxCRXfrJba1O3omZFyqXnzN+8U57TrEintR5BwB7XoFNVimosb9WQpqzaKEOmzJN/YlHr2bC6NFdTxTYNJduySkyI0ufGz5TGuvQ9XCamUKDn1uQQH2rcmuxZzzGhgkdorAzkwxkLZaImAXm7b2eZrvlX7b0XV5PHG70vlKd+mG4ClA3q1kZW7Ngr9TWt3zFNEvLST7NkgT4PUrpAPgmFgakQ5h8xNiA4ViISIMoKwbaOHDoqsyfPk4t6dzTF1c6rYg9n2G1SMh8RLpagUSQeISSEP0QzJhi7ShUNnBAAxChHsyZAFzFUeO8N50ugNBvjhVgyrLZk1SirQG3MfTR6SL1///4ZFmd342mLQNSRerjMR0CTM3tWgRQh9B8Wr5Z1u/dLkbwx0Rpf7Nlejp48Jc//+JvUKFVUejeuJb+s2Cg7Dx6WYvlyK9nnN5mUjmmdfs3qSKuqZU3y6nsuaCrlCxeQd6YtkHKaBLnbedVklZLmhOXrzadRUM0/dCaF9TrvTV9gyJjoj4llYjInB/nH9R/7bqo0r1xGejasIY/qPrLjQEzsEyJMXqr3YEm9W71qJhol91RXTTa59Pm5z5cn/C599Tn+fWFT6f/JWFMnHAaJZX/CxMBSeu8EHfeVX7MR7VOc8+nI4gI1F+3atluKKb4ZWZKa+YjEEmj2THaSEQoC9trEmSxF856iWZGsmcWG78W8A3n7k5awkIyAWgg2c+K5MBrAZm+TjfAeE40NFEeHEiw2TUb+LNy9pywCUUfq4TIfeR/9iz+WqyYe84OgnNR1+TXU51xNc0eu0kOabOG4arGXN6gmJM9A9hw5KsM1ciPSXidjz1dSnaoaMUQ5c+0W+XnZOnMM+3h7DR1qSd0U6r9Hx0wzYX3te7bhMjF563n3GQGQtYlRg1ozEmRw+lrT9jECqK0Zg8Cjg97LNE3zZ0cOtPXxjEXy29qtckCf8xlN75dPn71i0QJhMUgs+xMxOQif64/dTvhUAlXd8J++sks7nEU6KuqkHShkY7VT7/NlhH1GIknJfEQ4XcIyo2kTZI0wxN7gagQ644WQLMUKGBFrn+w8NsIlx/LmzWuyH9k8pDYiJ3Z5MLUrh5s0aWICXdn31kZv23dbh4Afgagjdf8Nhno/dfXmeIfKq+aKoMHyQjb+td+Qu3mj/zbtjQvlSkz2WkqaWbSchBtowVY2a65MtH+vMAIgTntaCBEmt+voonuD6moeWin5VHv+ev6qeJdesTPmfv/c+Zcpr6emmAK5YyI4hsMgXiO+N5hdmAz0C1nhy1QsZWJjP3fX69Lu0laGeDIqodvMR8HC4ULUBIoiEYrXVIKpZvz48SZnKvgQadBL6rgborlTbsPVUo/Y+5SjqXM+ERqpy4SqN0EEda3QgRK2GdMLIwrS5mFfJ8SuDYRl67qtQ8CPQIYl9UNH46c92xkbtvXD6YtkpYegvQ9cskCc50DpgnkF8kb7Pa3qMq6UVkrpMTRwrxyLTTHmLbP7oTIx2eOht/+oyST40XFqWrq+eT1zcOehI8ae761ZUTuuvWrntp3Zn7v+CuyHw8Dbhn8f8sHEgMaOucEKSSxIcjD9x9/lLx1hlK5QUiD6jCpnkvkIEwratU0tR1JoJiyZNCUkLtmxIH4mTK1gOsGsgklm8eLFctdddxmtm2iahGkOF/kQMw+TsoT2xb4+ePBg4y1DWN+MEBHTYuC2aY9A1Lk0nikES7fuNgkxbmxdT0rpZGFWZcs21coJ/thWSqlNuLESUp3SxaRSkULyu5ovkE37DkhLta9D7PhuF82TW+ZvjImTbc8Ntw2ViSncORxbrPfM8Jz75H698tOy9Ybwm1YsLeMXr/EeMvu9m9QymZ+YW2AUQSLuSDBI0JCnAM8Ksj+R5ckrsyfHhF3doZOxJXREUFnNQauXrPdWyTD72L7PJPORX0NmQhMNGts35B1MIH7mJyB/ElEzUdpfJzzR1K3ZxXserot8H/B5x4ZOlqL777/fdLI2zrhNuOI9z+07BLwIZFhN3Z+mDvs5Hin/d1EL+Z96jyBo4C/+9FvgeQ/rEPjRrq3Me+zrv6o9HXl94hx5oUd742HC+3V79plJUPYjkVCZmBI7FyJeuGWn3HthM7lXKw+dtTgwT3BCn2fR1l1Sr0xx+THW1u9tr2SBvCbzE2UfqNcMEgkGpmKIf6HMKTN/niON2jSQngO7mTMP7T8sX/zv6xCtRHfxmWY+CvZUmKpIHoGd2y4asvXIp0nnQSILJkDJXUuKQnzRWZSERwu5a8myhDZOogjIn/kMXBzxtsFUY2ObY74hKQd5PZ04BMIhkCnjqeMCiJ18x4HDgRylg6/uZCYk39F0aQVz5wpqH0fDP6I/ngOaVzO5kkNNGaHkpE62eSc9Q9V795ouep+H5YnvpgWqsGBpkE6MXvneGCmRL4/s1c4JMvdLMAz8dZL6Pr/ikzNPzkA6uqSen971Ic4zzXzEvaNJs6K0Z8+egUdhwpVJUyZC0cRZKYpgE8dmjn0cbZvkzvi6W192fNhJI0ibtIG9nH3MN7RHXlavbd5eEE0+JZNW2HbdNvMgkClJPdjHY0kdrTy1Bb/3oddfEvIyjCjmbNge8jiuln2a1pLyhQrI/aMnxfOO8ZI6PvZOIkeAic3kZD7C5RPtGxu6FYgXcwrzEKEyCmHysWRuz7NbJkNJF4cJh47Baub2uNs6BJKKwFlD6vh679YJR9wAU1uwjpdQ80go+evwMTmh2nooaaqeJg0rlFJ3y42yYnuMl4utiwbeR+3pb6udOxJt357ntg4Bh8DZgcBZQ+pnx8fpntIh4BA42xHINN4vZ/sH6Z7fIeAQcAiAgCN19z1wCDgEHAKZCAFH6pnow3SP4hBwCDgEHKm770CKIcAEcRaNW5KZv1R4uuBW6JVoynzEveG6mZjgyVO1atXEqpkQB/7nDXcSkT6t4BnEgjaEaJXesAq2jtumPAJR9/uLtsxH+TXbT+/GNc2LLExewXWRMrb4pbPPoqC0EPPjLVow5KUK6bFQP0aiLebImT3oueGyG4U7xhepMPcTS3iQe2aTaMp8RBgBFifVqlVL6FRYaQpRE7f9gw8+MNATL4bwAlY4jo89L8IeEEbYvmdL9iW/EKOmU6dOppiFVkOGDIn36tKlS+AU3D2JTAmZt2zZUh588EET4oB9ziPEAfsu0UcAslTZiboVpWQ+ulhfk1Zu0CiKpWRAy/pmOT0LiayQaej3dVtNhEVbFskWH++rNOPPI2OmRlLd1MmpvsOE8a2khMVSfuKdW6miZWRm+mvcDA0edtDsD/1NV4UujIseaesmZcuPr3OvDtJGY8NDpEOe/EjWxoYBph0iJHIc0j6lIQL+99THsiF2dWyVWpXk5keuk2wanpcVomOHT5Ap3083lycV3X0v32HiuFCwYsFq+eD5T80x/pHdiGQYyD4NePbqA0PkaGwMnATH7n9bjh45ZupyPxfpSwEK3M8mjUkf7bQOfl988YXMmTMnEL/cPFDsP5bqEwud6Ip8Jv7MR0RQRGiHzEcIsdAJBYCEy3zEQiTirkOUfE7ezEePP/64iSBpMx+xeInMR8TjgRAJWYCvPKEHWLHKtXPnzi333Xef/PTTT+ba3C/ZmcaOHWve8w9NmYVOy5bFRCpdvnx5gMjx38dH3sajIZBY27ZtzfWIa8OqWDoSfOqJFY+wQIpww35hNENES7b43rOPBt+wYUPTzrZt2+L5+vvPd++Th0DUaeqRPA6ZhrwBuCI5hzpnkmkI3/anx84Q4rynlXTp01Eu6NFWY5jvM5c8xxMXBi2bRBVL56yUNx5+1xy/4YG+gVu74YGr5bCGH3j2To0dosG3LunXKZB6rt/dvSSvBjV75f7BsnDmEqmpYYmbtGtgzvVmNxo55BtB0ye7EeI/Vlhjz/eNPRa4n7lx9zPg/r5RT+g8VySZjyB9BBImbyixXmzmI87nRTRHgnWxbwmdc1g1CqnZzEdFixY1+9Ql8xEB1Mh8ZIW20YyDZT4ifACZjyBIhJADhBIgvszChQsD8dZt/Jj69euba4wZM8Y2H9hyH/6XP34NBL9z504TAuHw4cMmDg0NEK6YfKsQvHexFUHSWE3LaIbVtKQJXLp0qQkhTMRLApgR1Iz79S7eCtyU20kxBKJOUw/3ZDe1qR8209C5JQrLQxe3kMIaBoBEFDaTUGKZhrrVqyp9m9YxySdYFDRNw/qm1OIehrlNmzaVb7/91gyXwz2fPTZ36kKZ+sNvUqxMUblz0EBbbLZtLmlutiM19krRkoWNRp6vYDYpXKyQZMuRzRD4uBEThciK+TTaJFpkq4uaycSvf5UqtSqaQFzbN+2UoqViAp216NRM5v66QMJlN4p3rFdHc/1qdasIlmV7PyP0foprm9mVqLJrx1FEk4rs1ciR/+j1o1UycuYjOhBI/uGHHzbZkhhV0Olg3kDQ9vnsCQRm0+XZz+Gpp56yu4EtWBA22AoaO6/WrVubEQHaeaNGjcxhiNtvHyeWjRlhdu5sOh46PoifWDeYZVhRS8hjolwS78ZJ6iEQdaQeLvNRuExDUMdTmuaN2C0v/TxLLtHMQZhGFm7ZJbtVcw2XaSiL0tOns5bIUs3og4lmYOsGslrjlf+4dF1Y5Ddq3POv5q0wppeDmqyC/fmb4kd3RCPiBxDJ5JW92E69Z6SYFLVFgW3xUsXktMZ6OaamjwH/6Sc7NdJjCb3nkuWLq508h6m3Ztl6ueq2Hhoe95TRFItrVEoEk8zW9VulXvM6UrZyaTmgJqMCmtUICZfdqICmB7SZjy68vI3s3LFHipXUe1OzQeB+NF7ODaqh79SkHsXLFpPiej97daSBbT0aiT2jZz4iQTXmDcLzkikJgVhJuWflmWeesbvxtow6/MKowRvKgE4Bez0aPFo4JijMJghlxLTxC4lEaMdmZuL+MLlYCRbLxh5z25RDIOpIPVzmI2Kch8o0VFHNBWjkb0/5w4QCWKTEOOyGbtKmajn5WnOVhss09N2i1SZ/aRNdnp9D85eirVdRTVPjNYZFmnjmNpMSFb379kRiaRNCFbttSkhutYsz3L+gRzvBRv7hC8Pk3pduV3LOLznU/o4ULlZQ6resK+88/Ync9NC1kkfr2YnRE8dPSh8l/Bk/zZZK1ctL4eKFzDk2u9EANd/s1s5t4axl0unK9kbby664njwek/lop3Z2NvPROaoJ+u/ng5feD9yPaThK/2WGzEfY0/Fgsck8rrvuugDBAzueJwQZ8wsTpH6BkEm2bYUMTORQhdAnTpxozC7UQRgRQPA2MTZlmGTQ1Em3V69ePWOaWbNmjdHyOY4QR95J6iMQdaR+po9cQokLWR6bIOOwkhfRC4urKSAxub55Xbm8/rmy79hxEx8ma5ZzTHLqxM6L5Dh2T14pJUd11AEBd+7VXsZ8PE6yaieEHNBRg9XUr7unj6xcuEbW6Egji9rjj+g5kDnSvlsrM5k55uOx8sBrd8kJHWEgp/R42fIlJZtq+8/frdmNNBE3E3i8TugPtbQm2ea63sxHhD8+qhma7P18+9FYHRnE3M9BvR80ee0VTPvR9C8zZT7CzPHppzGT3aQiJJyvFavB2/eECD54UCf077jDFGGe4fO1gg3cCvZv7ODkY4XEGQFg7kHQwDnmld69e8v06dOlVatW8vnnnws2feLC41WDnZ/wwsiGDRu8p7n9VEAgQ06UBss0tFeDZCGVNNEFgsadU1/7Yj00TKFO33nmHE0RHi0Q+uj5K2XA0HHyoNqeEb7wXiG+eXbVRJIqDRo0kCuvvDIin+BI2t61PSaxxm4N9PXbhDlqJ69kTtu+cadsi03sgZnls9dHCqFyGQ5jokHwlMmp7pefvh4z+VdIscIEg0DC2fXYjJ9nqy08NrtRbEeAfZ4OA+0+XuYjxQitHqzM/UycK1XUrfMcjWO/Q+8HQo+jDHOZqPiH9kn2oAULFiS4HzIVoXHapNG2AnMjX38dF0OeCT88RpgUJFzu6NGjjXbKPjlMEcwUNvMRsdL5HqCt4n4IKVpPE3sN77ay2qMxk9jMR9wT3jIkvLaCaQPCRKNGsF1j97YvyNgrXP/RRx81WjfEbic1GbXgYUNmJ68wF8QoAC+fvn37Gk8bJmX5ThH+F43fdih0Dt9//705nXyqnMcWnDnGPi/cJiF7J6mHQNJZKvXuJeKWg2Ua2rj3gEmKQQTDQnlyyXWqfSNzPSFug2Ua+lsJ6MTpv42vOZ1A/xZ1E2Qhop3f122TPKqpkjmJJM+RylVXXWWyCXn9eSM5t6Imvy5bqbSpWka1ZN4j08f9brZ/7dovufQ50bzxdsEFcZeSNy6IR/SVRUmg163dzQ9qphI1sna5uhnq8x5Wkm5xQRND8L8pESOzJ88z20B2o+qa3WjpelMWKvMRhD19fNz95NT7aXdZazmImUzvJxoJPTNlPurfv7/xfCHsL0InggumfUG+ViD/Xr16mRDBmE3oiDGxMNHKyKVr165SvXr1eFmvmHfA/RGvHM6lYyEr1ooVK8w+2Z/oWPDEwZ0S04sV5pF40SbXwiRjy/wKkz3HbVMGgQxpfgmWaQg7+OApc+XuDk0CGYHGLVUThGqdVkJlGhr1x3K5Wr1fOteqbFLDHVT7sXdYyvmr1ZNj+prN8sjFLc2X9ObhP5oUcrbtUFvbjt2Gqucvv+uZmwJFl113sdm/v8/jclCTX0/6dpp01AnLZz5+2GhE7z49NFB32Buj5Mb/u8Yco/CnLycFfM1HvjVK7n/lTrn/1Tt1AlOMeWauJg1BZqjW37CtZje68VJzjOxGXw4ZbY6R+aixTh73GnCp/K0jG2/mo4P79X7U779j97ZB78c0EEX/MkvmIzItVahQIZ5/PX7s3olSb+o7XCG3b98eMINgQhk5cqQxh0Dq+KS//vrrxl0TX3fivDNRikbOiIZRA1o+IwW2jBqY+ERpwReea+MUgGACYiRCPTocvG2YtEV75xqYgJykHgKZLvQu5pQy6q1BIupgGYFCQZlVtZDimklou5JmRhBMLCXLFZctOoLwC5oQ2v2OzbuMycUet54oxdVbBjv7ERZ0+Uwk3uxGxgClQ2frveI9Ztu023D3Y+uk9zYzZT5C88UsYu3jQ4cONQupIHXcE1kYhHmFlZy4I5IKb8mSJcLEPdmf/N5YEDMrUTGzMAcEmeOnDiEzAmD16p9//inYZvVxAAAUQklEQVSDBg0yi594z0Io7PR0lJicMP9gksG3H7MTi5sgcxZLoc3jFUMdtrTlJHUQyHSknjowRX+rfgLmju2sgDWDnKME/beSuJVg59hjdus/x5ZnxC3D/8yU+QjSJncpglkJ+zUECgljt8brirJgwrnWDEIb/pEkWjeLi2z7kLJ3cpRz8a5hkZI9lzarVKlibPZc05+smzJGF9jWnaQeAo7UUw/bNGvZxFmxZK3EbbVvP2lbTd17Y17SDlbftuU9x+07BBwC0YtAhpwojV440/7OrN6NNm40csgdYo99b00npkD/2fr2PTVtWcxZ+l7Ptx2FLbP13dYh4BCIbgQy5ERpdEOaendnyFcJ10/U3itakqZuAkK2hG+1eu+Jsfvh2g5S3RU5BBwCUYaA09Sj7AMJdTtGc+agErLRpENVjK1jtXVvNUvyti2/hu6t6/YdAg6BjImAI/UM8Ll5ydcQs9W49d6tZu59DEvetgy7eaCNWC2dMkP8YbR2e77bOgQcAhkHAUfqGeezCtypJe0AUesRq30HKnl28Hix51CMicWU+co9p7jdKEAAT5HEBC8UFgVZ8a44tWXhtpzvd28MVp9rRJIpKdi5rixtEYg6mzpx0qtpMC2SZJTQ2OH1NOLfVA2FyzJ9r7SoUka26MpIVpImV5pqIK/DJ04KwcRCCcGrLqpd2YTlPaSLkyIRkn3M3bg90UVKhpzRnJNCsloXDDbHYmBNMpB3OIJP7L6Lqa9+A/V/9yYDSeyccMc76MrUdbq6lFXA3O9fGrZhhYY4iFRIEoIPPKtmo0Hsoptg9zJt2rRA1iGCY9lohcHq2jLiqpOdqHLlylKiRAlbbFZfskqTVZ+s4PQKi3tslET80du3b29itOCy+eGHH5rQtyw8IhwvMVwQ2sdnnBeLfwh7cM8995jVpERkJIQAK01vv/1249POORA5IX4RkmEQH37YsGHmPf/Wr18fNtRBoKLbSVMEoo7UI8l8BEK3tG0oU1ZulE8001Bypd/5dUwHEY7UiSVzc5sGSlD7Iialm1rXl2OTT8nkgxuD3mKAfCFzfYUSiBpdLJ62re+5nymrNhkMOJ/2bL1w7YW6DuV1NYb77e0aJSB1Qii8eEV7eeHH35O0QOvujk1kwvJ1MkRXrrLal5W5j303LdwtBI4lyLbkycQUqJSMHbTUSDMf2cuw3J745GQA8gorNsuXjwnlQDk+3jNmzAhUwXecRUGUs/rSig10dfnll5tUdLacLcvwWenJyysk3WBhEEJ2pa+++sp72FyDOCwsFCKSIxFCUztTUrwbcG/SFYGoI/VI0XhIA28dChLTOdLzk1rvuAbDunfUL4b8k3puuPqRkq/VwL31H/nmVzmgIwwrHPMSvy1PypYYN//e/UuCU1hxW7FIQY17kz3BsdQo8GZbIj7PVbf3MJmYPnp5eIpdDi2UBTNot35B02YhzTvvvOM/ZFLCeeOcUIHFOiSEsMLCG4J8IaSCY4UmsVhYuUmYWgJ8LVq0yFY3gcF4g3Zfs2ZNs1IzcFB3OBctm3C2Vlj9SWYllv+zYpR9Oir2EVaQsuoUUreZkihbvXq1WUhEmjo6Kc5JLFOSvabd0kmx8MhJ9CGQ4Uj9ykY15PIG5xokv5y7Qr7XWOhWympM8fs6NdVIjTEJmeeo6eP58b/Zw2G3JTVE70fXd5VCuXLKrPVb5RUNgkU0SOTxS1sJWZWQxzTuCqYEK9eqln95/epKpv9oLtVdUl5Tvd302Xh7WFpULWs0an44X81dbqJBQr5PdmstuTSnZwWNA59LteAFmo3oOb3X03pNrtqzYXVpXqWsbNPYKi2rlDPtPT9+pszTJBw9waB+NVP25R8r42EQKvuTvSGehaQh1UsWkQp6r8fUrHXTsPFCqOJP+l9igpkRXmHgp3HP8JpmOyqtER+RZzXGCyQ7e8M2eX3iHLmrY2MpqWayR7+dai8hQ/p2lslqPhul95aYkAmHPJ0QDcGlrMTLtqTp+5Bq51Wxh1Nkm5TMR94LQtjW/GHLg9mlIXMyD2H6gMwJkIWmThasxx57TGbPnm20fpbaW8FuDQkTw9wrJMPwXoM2CbIFsbKyk06FQF6s7mzRooUJroVphzIktTMlee/V7acvAlFH6uEyHwHVJDW5LFHyfPyS1lI0b+546A1oVU/yagTF+0dP0rC72aSOxjiJVKoWKywj5iwztvWBreor6RUOmFk+nrHIXOuJS5WIs8dFviMa5BUNa6jNf5MsVLK9Tc0WWZWwvVK/XAl5R00P2O37atLrrzXEL6RdLF9uKasxakYr8ZF6r+/5taVVtXIyVRM20wEU1LaZWyicN5e8N32Bpok7xxA+Hiu/avLrZYrBoz4MuHKo7E8EM0OIb9OwXElZodmLXpkwW2pqUm013Jhjz42bqcm+y0iPBtXNe/vvVQ32VSRPThl0WVt5f9oCYyM/EBuHffbarfJglxZSRJ+HpCFgTgcwc01MvO0vtCOjs0M+n7NUdh6IbxsnITG2YP8EX7hMTPa+krNNauYjey1MHcQ88QudklfzJpQtqeAwe5CHlC3XRIitQuxzwvZ+9tlnJhGFXVJPflJS0tm0dPY6x48fNx2Cff/EE0+YJNdo8DZmP5o7Cahpg5ymL7/8sq0uqZ0pKXAht5PuCEQdqYfLfARaNvsRURn9UliJBzmpoXTX7t4jy7eHnvj0n7tdkz18+UfMhFS/ZnU0xG6pAKlv0pjju5Sw/NJKtfDTqrWisSIN9ZxWql17ZYqS9GR9QfotNAtTtRJF5E+1KyN7dNLw89lLjSdKO41D3kwJdeqfm2JcDWMbeXTMtPg2bCX8XXoeLz8GiWV/im3SBDp7SE03yMy1W2yxrNr5l5SJTW8XKNSdLRprnQlOZP2eA/EiX85ev820171eNflo5mITm36nJuvmHGSkkrqV7xfFmQ5sGYkZIDivWYFjNhPTDf/pK7v0c7TZlujwbKwR28aZbJOa+eiRRx5JYPP2X9dmBsKEwgQnGnmowFX79+83k5sXX3yxiZHCc0HySKh4LZhVsNOT1NliZhNRcx7RFulcIPZgkpqZkoJdz5WlDwJRR+rJgeH9aQvlvs7N5M0+nQzRfDZrsYxdsjaiJtfvjjOpEHq3gCaMSEzqlimuZKexyzHT6I9yrZK1n9RXxnYsezWHJ5I/t8Zip77Kpr0HAwG2MOnUKl3UlNt/R1WDT0rUyEizP6Glp5TwJL/+uVE6aKc0dNZSaVS+lAybvSTi5vHs8Ht3cPJJnSsoo6Mbf7allCD0M8l8BJH++uuvxkaNPZ1wtOTtJMgVoWq9wiQmIWdJkIIHihW08UsuuURsbH0iGxKrHMHThAiG3kQc9jy7xfvEppAjebPtROxxXCAnTZqUQMu3x9mmVqYk7zXcfvoigLNEphE0c2zBt3/+s/GyuFHNKDk8iQLCPai1n4erY49hrIDIV2jWn8JqJrGCfdwvsfwdKIYEY4wdItjxbVulC+aVzWQhiu0gOOGYJ+lAoIEwO5Flf9IsR7GmkzBNhTyULau9+7gqX89fJfnUhDKwdT2TWeqnRBJ2x50pZgIPdzrswF4JmW3JW+kM988k8xEaN+namjVrZuzY7GPPJq65NZcQf5xym7SCyIkQLfk8eaFFk9yZfToGJif9QiYhroE3DJ4tvLCH45qIjTyUEB+dzEW//x6TtMTWo9xKamdKstdx2/RFIFORepc6lY2GjXa7QgmeScekkHWoj8ISb7zjqplPU9MFXiF0Hg3Ll5AWleObXuLV97wxerreWymdYGykmZTQ+CsXLijYp9H4Y/R4zwkR7kaS/SnCphJUO6KaM7b/zuqrn0v9xr3UvkPjsm9VzLvUriJLtaNjhBGpQObXXHON8a32nhMq25K3zpnsn2nmI66Fpow93eu6iPcMZMqLCUu/HD582Ni2sW97X999952/auA9bULuZBnihV+5d4FRoKJnBxs7HYY/AQW2dLxpkP79UzdTkud23G46IpDhzC9f3dwjkG6O3KK88MTAy6Wb7t/SpqGxuZ5Uj4IRs5fJKY9nQSicg5GoLauhXi8vqH+2ESXi57u3090s6nc9T/2v18uPy9ZK17pVpKt6ZmzShUAk6EAM6aF1K0Wzb9szO0rclB3WONaPdm2le9jXj8oUtacH6pnS4P/CYZBY9idaDGbCuEa9eHrqpK+Vb269wuxeP3SsHIg1HX2zYJX0blxLOlSvaMjb6/EyfvEa07mN0TpJEXsvdmvPJdtSI/XD7zmwmynyZluydc5ke6aZj9DImfycPHmyGVVAopD4rFmzBFNIKKETuOWWWxIcxsUwlDDRyeiFl5V9+/aZ6/lx4jjmHEw3JIlGsM/jckhHgH0dl8fUzpREh+IkOhDIcKR+5XvfhETuDjW74JGSV3OJ2ok6KmfTLzcrQoMJpH/Pl7/EO3TLsB/Ne85YtWOv9Hgn5pqmBSVqr6/4u1MXyAf6wint3k7NjDZr6/V8b0w8ku7xztfxrjNPE0XjGVMwd64EtvOP1OOGVzAJhwGLkabpCtxQ2Z/uGjkhWJMy7Pel5hX0YGwhE8l2MtlfD9MTmvwfscmv/cdDvceGHMyODHm99eh7Jnl2Tp0A3x07NxGqnUjKcQmsU6eOjBgxImh1SHTVqlWBxNHeSmjMGzZsMEmjWVWJbRpSh1B54ZYIibLt3bu3Sd3G+ZSRp9MveP2EEhYNeYX7fuutt4RzyDjkF7xeeCYWKyFMPpN5CD95TER0CNb+H4x8vZmScL1EMCGxMAsh2YY3NR5l1KNDGzVqVNBkGNRxkj4InBVJMoYP6GaSRgeDeOKK9fL2lHnBDgW0bS+J20lRq1Hjk71B86Dm0YnV80oX0zyp80yIg6ANegoHX93JeJFYzxnPoQy1W75wfrO6t44++7Dfl6gfftI09bR82ORkPiIfJx2N3z/d3j/kbRf/4H6IWP9xOgO/oMGz8Md7rHHjxiGX3Z933nkmv6hdSUp7kDymoE2bNiUwu6Ct8/L6wGPWsZmMUjpTkv/53Pv0Q+CsIHV8qLPrjy6YEMeFhTfBxGrc8Uidih5tvXOtShqfRr1g1ETxnS6Esv7gwdrzlnVTF8Dd6vr3G3b0DCyl1dx0hS6UWrJll3rBqDumE4eAQyBdETgrSN2PsNG2KVRNxmrc/jr2vTfdmy3j/HhE73tv67mtQ8Ah4BBIawSCq69pfRdpdD00b2s+gdDRuBMTagQ6gSCVjTYfpNwVOQQcAg6B9EAgVUid2fv0FEveCQg3VqOGqC2de+sEztN6lsitRm7r2XL7fKYtOggnDgGHgEMgChDIcN4viWFm6BUNPFYT570lZlPma8CSuymOPS9eWez5kDk9oCNxH4DurUPAIRBVCKSKps4T5s6ZTtqrki8kHox8LVlzZ1bjtlvu2Z7Hvl84ZrMF+Y+59w4Bh4BDIFoQSDVNfdoHhaRYoXNk9ebTcuFt+1L8eb0auSXrSC9i6seaTCzBB7T5SBtx9RwCDgGHQBQikGqaepNr/5JB7x+RauWySs1KKdt3eAmdyU6/tp0UnCF4015STnJ1HQIOAYdAlCKQaqTO846dHrMIo2SRM7+M1aTjEa/H9m01bC+xW6xNWaxGHijTHW9d9m0bto7bOgQcAg6BjIrAmbNtBE9s4zpFEMU2aGsB8oWYIfIQEo6U/WfZ97Rt2te2bVmI5l2xQ8Ah4BDIMAikKqnvPfC3QOy9LsxpQrImBRUv4VrSjaetB2nMe9zusw0QeOw5dAKBV5B2XJFDwCHgEMioCKQqqQPK/715SNo0zC6rvikqt/YMnpElKHg+s0k8d8Rgmru/DE2chtHwY0k86HVcoUPAIeAQyEQIpOwMZhBgHrohj5CT4aVPD8tPv+mORyBdq4V7is1ugnIlZ2tm4ZjRwMOcD5HHpfP1t+7eOwQcAg6BzIlAqpJ6vjxZpHjhc+SJdw/LsHExOS4tjNYsYrRoWxhiazRu/7FYzZxIdKYDiNXIbbUEnYI94LYOAYeAQyATI5Cq5pe8uZSOlV03bDmd0G0QzRtgIePExEfYVDdnWWKPPR5BS4ldyR13CDgEHAIZGoFU1dRb19PmlWl37VNDiBIvGjcmFKN5x2rYZkI0AgghbHOeh8ADxB7B+a6KQ8Ah4BA4GxBINVKf/mFhKVfsHNmtHjDL1582ZE4YW4jYkLEHXUP2nvfeXY7FI3O0cycOAYeAQ8AhEBSBFIun7nVB5ErVK2SVw0f+kS27Y6YrLTHbyU57N6HK4x3XN/6OwB53W4eAQ8Ah4BCIQyBFNPWA7hxrGqH5VRtPB67iNbGw7yV2yBrDfijSDlUeaNztOAQcAg4Bh0AAgSRNlELIAQIPNKE7HjL3Ftt9SNy+KPO3AXH7y+y5busQcAg4BBwCkSMQMakHSBcCDyKGmO0kaJDjgSJs4v42Ijkv0IDbcQg4BBwCDoFQCERM6olp41zAWM99hO3V7k3HoMe95hfOo0NwC4VAwolDwCHgEEgeAgGbuiVc0xzmkiDtUnYOmraKPR7zzhQF/hkbum2D+krkAbt57PmBym7HIeAQcAg4BFIMgWxWkzYkHUu4lPm1aXtFNGpL2raMrSnzFFjSt+3a954qbtch4BBwCDgEUhgBo6lDuH4SRwO3RBxOGw/cj9XMtcBP8IE6bsch4BBwCDgEUhWBbJC5l4QtgVtC917dW4/yQB2fScXfQXjbcPsOAYeAQ8AhkHoIxNnUg0xwJgi25bTx1PskXMsOAYeAQyAFEIgh9VhtHQ07oH1r42ZZvy3TrVecNu5Fw+07BBwCDoHoQMC4NFoit9vouDV3Fw4Bh4BDwCGQVAQCfuoQutXF2WI/d9p4UuF09R0CDgGHQPoiELCpYz+PNxFqzS7pe3/u6g4Bh4BDwCGQBAQCpG5NL047TwJ6rqpDwCHgEIgyBP4f/AZYCrs9QmoAAAAASUVORK5CYII=;" vertex="1" parent="1">
          <mxGeometry x="640" y="112" width="373" height="167" as="geometry" />
        </mxCell>
        <mxCell id="mMl1sKTFDAsI_Ko-cwrK-36" value="" style="shape=image;verticalLabelPosition=bottom;labelBackgroundColor=default;verticalAlign=top;aspect=fixed;imageAspect=0;image=data:image/png,iVBORw0KGgoAAAANSUhEUgAAAU4AAAClCAYAAAAzpxScAAABX2lDQ1BJQ0MgUHJvZmlsZQAAKJF1kD9LQmEUhx/LEEpKI6ihwa0CC1OHxkyjAoeLFv0ZguvVtFC7XI1oC/oK0dbQEn2BcKgh+gRBUNAQNURBo+CScjtXK7XovBzOw4/ze9/zHuhwqrqetQO5fNGIzc14VlbXPI5XHDjpp5c+VSvoIUWJSgvftT0qd9isejtu3ZV2n0Qe16sH0+/G9WD5zfu3vy26k6mCJrUqGdR0owg2n7CyW9Qt3hceMGQo4UOL0w0+szjR4Mt6z2IsLHwj7NIyalL4SdibaNHTLZzL7mhfM1jTO1P5pbjUIclhIswSleMhjoKfIJNMMf+PJ1j3hNlGZw+DTdJkKIo7JIpOlpTwAnk0JvAK+/FJBqxd/95hU0u+QCAnT402tS0XXFTAfd7URp7lO8dwpeiqof5s1laxFzYC/gb3lKDryDTLy+AYg9q9aX6UTLN2Cp0P4q18Aj9vZQqPir9BAAAAOGVYSWZNTQAqAAAACAABh2kABAAAAAEAAAAaAAAAAAACoAIABAAAAAEAAAFOoAMABAAAAAEAAAClAAAAACvbZlIAAEAASURBVHgB7Z0HnBVF8sdLcs45ZySDBMkCCqIICIgonooRs2c89QyYs57KcepfRRQBRRADoIDknHOSnHPOoP7r20u/nZ197+3bxKau/cxO7umpmfeb6uqqX19UpkyZv8WJ04DTgNOA00DEGsgU8ZHuQKcBpwGnAacBowEHnO5FcBpwGnAaiKcGHHDGU2HucKcBpwGnAQec7h1wGnAacBqIpwYccMZTYe5wpwGnAacBB5zuHXAacBpwGoinBhxwxlNh7nCnAacBpwEHnO4dcBpwGnAaiKcGHHDGU2HucKcBpwGnAQec7h1wGnAacBqIpwYccMZTYe5wpwGnAaeBLIlRQZ8+fYKeXu3iamb7S/1eCrrfbXQacBpwGkjLGkgUcHLjg0cMiXX/L/27X6xtboPTgNOA00B60UCigRNFnD59OqCPnNkvCiyfOnUqsOwWnAacBpwG0osGkszH+czNuWXz90Vk7ZDC6UU37j6cBpwGnAaCaiDJgPMfHXLI6k3npNL1+4JeyG10GnAacBpILxpIMuDMnlVkwdpzcvbP9KIadx9OA04DTgPBNRAncObNmzf4mb6tF2W6SM6d8210q04DTgNOA+lQA5kuv/zykLd19dVXy6233hpyv93Rul42yZpZZOrSM3aTmzsNOA04DaRbDWRp1qyZubnff/89xk127NhR6tSpI//5z39ibPeuZM18TlYOyivZtJn+w9QzMnGBA06vftyy04DTQPrUQKZ3331XmjZtKl7Ls0OHDgY033///RihRn4VnPsrszz04UlZuPasdGudTcoUVbPTidOA04DTQDrXQKaTJ08K4HnppZca8LziiisMaH7wwQdy5kx4C/Lvvy+SCQvOyXXPHpa/dazMXlfkSOfqcrfnNOA04DQgYjqHCFR/7733pHHjxlK3bl358MMP4wRNr/LoST977m8pkDs6+N273y07DTgNOA2kJw0EMocAzzfeeCPB93ZGe9RrV3RN9QQr0J3oNOA0kGY0EGc4UqR3MmbmGbmkelaTPRTpOe44pwGnAaeBtKiBJAPOxwYcldq37JfO/zqUFvXg6uw04DTgNBCxBpIMOLni4eN/y9L1Lgo+Yu27A50GnAbSpAYCPs7E1D579uxBT8+Rw/WyB1WM2+g04DSQpjWQaOD8R4/eaVoBrvJOA04DTgPx1UCigHPXrl3y66+/xvea7ninAacBp4E0rYEk9XGmaU24yjsNOA04DUSoAQecESrKHZZxNVCjRg3Jly9fWAWUKFEi7H7/Ti/rWKZMmSRbtmzmkAIFCvgPjbWeJ08eKVKkSKzt3g2Uc9FF0QkpXC9XrlzeQ+Jc5p5C9VNkzZo1Vh0KF844JOaZ9YXoF6cGQxxQpUoVWbduXYi94TeXK5RPGpYrIRv3H5ZieXNLs0qlZNuhY/LnX5q7qdKlbhWpV6aY1CpVRFbt2i9RW8OXmRR7M+nL1rFWJdl15Lic+TM4uSj1bV21rKzbe9Bcsm21cmZ+6ORpcx95lJx037GTSVEdV0YKaODiiy+WJk2aSNWqVc308MMPS7169QSwsNsYLubw4cOmdoDqp59+KkeOHJHNmzfL66+/Lu3bt48xFS9eXJYtW2aOL1q0qHzxxRcyZcoUOXbsmHTu3FmeeeYZ2bNnj7z66qsyfPjwGHdNOjSEO/zemBgk8YYbbpDjx48Htvl/i4MHD5b169fLzp07TVlvv/22cF8zZ86MUTYrAwcONCC4aNGiGPs++eQTOXTokCnH7qhYsaK89dZbsmXLFnnppZdk//798sADD8j48eNlyJAhMmPGDKMHe3x6nSfKx5kYpQBOV+k0cc1mubRiCbm9eT1ZtmOf7FbAQqoWLyQl8+eWykUKyo9L/pDT54KDWGLqEOzcbFkyy92t6iugH5LVuw4EO0RqlSwsd7WsJ2NXbDD7H2rXSMav2igDpiySh9o2MoD63E/Tgp7r3Yil0aFnW2l1dTPJniObDOj3hWxYtcl7iFtOAg1geX377bcyb948AUD8QrpxwYIF5bbbbjO7brzxRgMy+/ZFjWYAOOTOnVs6depk9hcrVkymTZtmUpOxFGvVqiVffvml3HXXXbJgwQKZO3dujEsAwqQzf/PNN2Y7x+3du1foI0CuvPJK2bFjh8AbkSVLFundu7esWbPGAC18EQATAshiNZ44ccIAWteuXU29OO+ckuHS3wCIQ9qTOXNmkzZdpkwZ2b59u5QrV05mzZolWM8ImYIbN240y2QMvvzyy4KFCXCHE845e/asAWyO6969u3z11VdSuXJlY+Fec801gdMBZO94ZIEd6WAhxYAzLt29O36u1ChRWF679rK4Dk3S/afPnpNHh/8u29X6TW7p2KudtO3aSvZs3yvF1brOpGTQTpJeA926dTPW4ueffx6rcMCiUqVK8vHHH8fYB0AACMHk3nvvDWwuX768PProo9KzZ0/5U1soNKFXrFgR2A8A0mzGYkRo+gKib775pmDRTZ8+XUqXLm2s1zvuuMMcg7XasmVLef7558WC98KFC025XHvChAmye/duc2zfvn3N+rZt28w6wNWjRw9jvT711FMGbLFs//rrr4AFDNgDwByHUMe7775bsCbjkjvvvNOA80033RQ4FGAfM2aMAWM+QA0bNjRg7XUVBA5OJwupFjjD6bdqsYLy9FXNpGDOHHJKge7zGUtkwurN5pSieXPJK11bS7E8uWTnkWNyTl+Y8Ss3ys9L14cr0ux7/poWQtnIcz9Ok03qRrBy86W1pGu9auoy+Fs2H4jebveHm0PTxwuHW4MmmZX5U5fI1F9mSZFSheWBl+60m908iTWAVbR69Wo5cCB2CwIgwvryR4dUr17dAFeoqsyePTvWLixSrFEsMgRwuuWWW2Ic9+CDD5r1m2++WfAJWj7cQYMGycSJE41VSrMf69ArgBFNbcCoXbt2ARIeWi1t27Y198D5CJbs/fffL9ddd53Aq8v989EA3BCsQ4AbodnNxwPQBzyxzK0Qnw0wW0D/+uuv5bPPPjPHV6tWLeD3pexevXqZOuGmwNWAtYle06ukGHBOX7dVjp6KGlZ4yba98v3C1XJEfYRxCTbZi51byQl9Od8aN1s61aki97dpKEvUatt79IRpQufNnk3e/32eXKa+x0vKFpcCuSILxB84Y6kUzp1TXrimpeSA0v68cH73BtVl0totsmrnPtOUt/uYfzt/lboZ9ppNQ+atkD1HTnh3C455vvKFChWKsR1LEykiGcepHkMBF2DlsssuEzpT/BYll+a5wAb2/fffx6oJzfrXXnvNbAecvvvuO+nXr58sX7481rHeDcOGDZMRI0aYTXbu3U+znzJq164tv/32mwFBmuAAHSCOH/Xxxx83zfZ//OMfgVOxfseNG2fK5jya+sh9991n6vnHH38EjvUvYAFzD1ZwB1jhg4GVjHuC5j4AbgVfKm6HlStXmk3z5883fk2AF3DH5cD9tmnTRnAJIFjP3IN1A5iN6fBftAYv8M2t3LlfmJAtB47IN3OjHk5c1ShfOL/kzJpF/jt5gczasEOWKvgMvq2ztKpcRkYuXiu1SxWVscvXy9Q/tsq8TTtlyB1d4ioysH/rwaOyN0inTgvtuKLT6sOJ882x9RWMm1UsFThvmAKnlWCWLS8uFgTOeicXVgNYdlu3bjWdNv4rY0lhafHj9wqAim/Oa30BNi+++KIBF3vsY489ZhcDc5rK+BgR/Ix+oVMI0nA6mQCfyZMnm1YIAEZz/IknnpDRo0eLt6MGy88CJZ1PNOWt0HlDJ5FXAK8ffvjBbKLD6ZVXXhE6iypUqCD9+/c39fobAl0VrFSADuBkm7VK2UdzfOnSpQawWUd+/vlnWbVqlWlBAaS//PKL8cUCvtzvPffcY8qxHWdRZ6W//ykGnAlVZTFtiiOrdkc1u46fPms6jormyyW5dAwPQHXt+X0ntRmfFJ1KtUsXk4Mno5sd6/YciAGccd0LzUQmJxdWA1h1/KCxFP1CC6BVq1YyadIkA57e/fgkaYpPnTrVWFP4J9955x3vIWYZ/2PZsmVjbMcdYK0terr9QvMdy5IOmy+1QwlLFqEJDjgzB8iYrNhlOnHoLLIgavfT/H/66aftqvFvcs9XXXWViQ7AdUD9cRMxRA7XscAZOCnChdatW8uTTz5p6sdHp0WLFoJ/9Z///KeJDuBjBLind4m231PhndpwoOwKhlYOHI8CsAoazoTQC55dp0MnTsmJM1EgWuW8n5LtTIkVgDKf9npbKXP+2nY9rnmpUqWMv8n6s+I63u1PGg3QlATIFi9eHKtArCmar1iAfgHcaB3QcYMfEpClx907EeYTzIdHuM+AAQPMRIeMX7CAsczYhy+Q5jeCH/yRRx4RrEsGSWQZoY6AKUCLZYmfk151wBnAwheLX9UrACW99F6rD9cDEz32XCNY3SgDazWcAPa4GgBvAPTo0aOmbpyDCwHx+2fNxnT2L1UD54a9h0wTuecl1SWvAldmfYlo1tNs7tWohvFd3tK0tnkk8zdHhXas3LVPrtQwpzoa/3lfm0uS5HHNWL9DsunL3rFWRSlbMK80rRDdTI/kAgAm/qpgI4aW13jQ0hVKmmJKVSghrDtJvAbwudHjbUOAvCUCRHSaEDoECHmFjhKAZe3atcYHShgPTWiapHbCV+31E3rPBxhHjRplpmBNdXyI9GYDjLRCbG87YGtjMxnKxnYq0ezHyqTJTcgQYEtMKcDFewWg0jz2CsDPef5ecixWeupz5swZy8pGJ4Rl8bEJJ/hoAW8+JjTv8R8zYgRiXRfe8cvClZWW90WbcqnwLvDCDJ67XG5oVFOu0U6gL2YuMb3j/SfPN/GSA2+52tR6zIr1sl5BFvl8+lJ59drW8lKX1rL/xEkTxH72XOwvvznY84/e9Le6tw1sef3aNmZ5wJSFGqO5SRZv2yN9WzUw2w5rp1bOwJFxL9hmkZ17z3jwlegXtcstV5ldj/d63nuIW06ABgATQNE/eitFdenSxYAj4UB+4eNGcDdxmwxWiEWFj9A+O8AQUAvWQ09z1Q+WWKUEv9vz6RFnXC8AGfC1Fic94/g9AW2a2HRaEXYEwONTRHAh4HvFoqQOlEngOeXbcCR7HM13wM1bT2tlNmjQIIZflLogxIDSxI9L8M0SgtSoUSMD6ljIgDXxqpzPPkKhEjOiRFx1SOn9qRo4Uc6oxX+YyauoyWu3yrR126RU/jyyR3vSvX7M7YeOSp8vRxvrlJ5xOo5mbtguWdRaJSsomBCy9Meeg9Lt45HBdpttL/4yXfLnyi4X6R9ugfjIyJEjhSmYOJAMppXEbQNgCEofOnRo0III08Gi9PsKORgL8KOPPjKWGaBHcxSAoicZAAWMgvkZORdAY/IKTVvqY58/gIjV9tNPP5ksHsrCOqS5DZDSO45Ps4J25OAmoOmMNUp4D+UA5FjK3Bs+3Dbao02HFKCIn5POIjp0XnjhBWMZ1qxZM1AdwBTgRrwfDe6Tjh6C3y3AB07yLTBcOHUiAYB7ozwiF/D1YinjFuEDArjygQD806NcpE2aqO61BNwdX0N//FsCiknSUzrVriTta1aU9fsOmZROCgdIv7m9s+k8CnaxCas3aS/9wmC73LY0qAHArWTJksZyDAYENOOxxPzNdG6VdEgAlU4lG3zOdpqyBMoTOmSDz9lOQDvZON5ecLZbARC96Zl2u3eOpUmTO1h9aApzTZrHmzZtCupXpSwA0oYNecv2LnMPWNL4SoPpxXssy1imGzZsiOErBbwBZ79grZJyaiV//vwxzrPb08s83QFniXx55Jq6laVQ7hwyc/12M/2lFkOhPDklq1qdweTY6TNC77wTpwGnAaeBSDSQ6pvqkdyE95hdmi302fQl3k1m+UCQ+MxYB7kNTgNOA04DEWgguAkWwYnuEKcBpwGngYyqAQecGfXJu/t2GnAaSLAGHHAmWHXuRKcBp4GMqgEHnBn1ybv7dhpwGkiwBlIMOGGAb1e9vKk4jOpXXFzepE8m+E4u0Ikw1VP3UJJZOTWvrVfVZDpxTH3l2WxQNiolrrqSMzevFD6lLVS5wbbnLZBXCmuZwSS35vSTiZQQIWyFc/NqhIITpwGngdgaSLFe9bgY4GNXNXVs6du6gUxes0W+nBU1DIK/VqRm3tqsjjI/7VPavDNyd+v6Jhi/7+Bf5cYmNeXi4oVNQL7/vGDrDVrUkU43dZACygg1e/x8+f6zn8xh+TTt81//ediwxrPhlNLxjRs+UaaOjuJwfOqDh6WIkkAjEDGsXviHDHxniFnv1Lu9IU82K+f/ffX+t7J0dhT5buebr5TWnZqbuEV2//bdRBk/YvL5I93MacBpAA2kGHCmVfU/PVLHidFsj+SWopprf9NDPWW30uYRrJwpc3TjgLS+zWu3ya/fjpejh4/LnU/fLJ16d5DpY+eYDJIpv8yUzUqrd2D3QbmiRxtp07mFVKheTjYp4F+kFjFg+tGz/xe4BcsLWrVOJblMyZzn/L5AfvlmnIJvoRg8joET3ILTQAbXQKoFzipFC2q+eSsZNm+l3Ni4pmE5+mHJWvlaLaNwDPD5cmaX59ViqlS4gPypgDNZyYcHaFZQBbXaXtVhOEi6pCm6ft9BqV6ssAybv1JJlNfE+Rpcp0QjXetXNcd9N3+15sxHD1LXqHwJefSKJpJDmZiWq6UZH4H7EQZtsksgiLByRMlM3n/qf7J94055a0g/u9nMD2pW1KevfhnYNvGHqXLjAz2kUo3ysm7FRpk1fl5gHyAKcNZqWN0Ap9mhuWK7tu6Rc0q755Ure7aTYwrEwz/90eRcb9UEAidOA04DsTWQYsAZFwN8ds0zh1sT0Pxl2TrZuO+wyQYC+MIxwD9yeWNlMMonH09bLGW0SdtZyUHg59x68IgpDzJimtuwuo9evk6uu+TiiIBzolpry5Xl/flOLQ1LvFeVD1/eSHPmjxsm+Dtb1vfukuEKsgA1MmbZellwnsXJHgRtGCmClnPRbj+tzXxAMxKpp64BrNJNmsNvpc6lNaWBbq+qWVR//fmXTBs72+6SzArwbwx+3pyzZd12+d+LXxgQLVAkvyHqZR/HbFVWqOGfjJKdW3YHznULTgNOAynYVI+UAf7bBatikHxgOYZngC9ifIjjdJwhhGF822gz9evZUUMeMPxFd7Ue8UGSkgmwRiIHjp8UJssRas8hlTOPAt+Lk2aY0S3h/3y4XWO72wy3YVfmbooNhBAswF/ISIUJkdqNL5aaDavJ7z9MiWFBVqhWVqrXryLZ1QLfqOMxnT4/LMn6FZvk+NGTZoC4SxXwa15STVp2vFQm/zxDfabZJaemqs6duFA2aP5+9zs663SN/PeFzxNSNXeO00C61UCKWZyRanSqsiB5JRwDPHYdLEiWAZ7ztulwGOStI5bYADakM+f+lLPq67PWoDkgAf/qKzs8skGbz8iaXVFjrZuVCP7RRLcDZ0VweIxDymgP/62P3SjrV26SscN+j7Hv569/E6ZyVUrLQ6/2NcMQs75q0VozcfAKtYb7ffovaXpFIwOcZ5UIGkvzO7UykRr1q0ntJjXMsvvnNOA0EK2B6B6H6G2paunYyZgdMeEY4NV1Z0iOveFCJXRsdkg8kkvWnB+mo6RS3CHlCuWN16Xo6IHmzDsedSQFFFL+UEbG3KNj0X/80sCQp9AUP6P3X61ucMsasMQqRfBv/q0fFStnlPjE/2Fh2FrG84byzInTQEbVQKoHTv+DiYsBfuuhI9K8cmkTa0nMZOFcOWVRMvro4P+ED/Qm9SniN+2hnTDxEWjDYIe3Q7B6zy1WuqjpDacnPK/6a+kZz65M+MRoPvb2/aYHfdTA0VJem+Xsy6HXx2d604PXSSntsCLOE3LkbDrq57I5K03RHXtdrp1IFUwZLBcsWkDmTYqi1FswbYkB0RZXXir06tdSN8AOn0+WYY4ZQgJeSSdOAxlVA6m+qQ4lnFfwMYZjgH9/wjx5o1sb+eD6K8xpG/cfkhEL10pF7fiwQpOdUn1F291B59/f3U3jMaM6ebpqgDvT3M075fWxs0zP/K1N6+gAbqXlQDxJjq37INhF73vhdsmjFjNSo0FVMw3pP0KOHzkeiOHs+2wfs59/P3wxWmZPmC91m9WSBi2jgI2OIcKQbCxm/ea15YrulwXOObD3oEzQECtk2phZQuxot9s7mfXD2rP/8+CocWTMBv0HQzkSjATY7HD/nAYygAbSLB8nIBaMAd4+M3g5GXs9krHaKSvzRcGNb0Ka/vQ0X235/nkOjQAokDOHQGuXGgRLMq+CLk11v5BtRA/67i175JhGA/gFi5bm+wFlxfcKZLWM7w3BL5anE6eBjKqBVG9xhnowDNjGOOihJD4A9nTHZgG2eH95e46dELJ+4pJTGhO562zqAE3qelDHYGIKJvvVL8sUSo7rcCRMfmnevLnZ9L///c+/y607DWQoDaRZizMpnxIjaDImezDBfxnfMYaCleO2OQ04DaQfDaRZizMpHwE55UxOnAacBpwGItFAcMdeJGe6Y5wGnAacBjKoBhxwZtAH727bacBpIOEacMCZcN25M50GnAYyqAYccGbQB+9uO7wGcuXKFeMAxk+vXLlyjG1xrZQoUcKMux7Xcf79ZJP5hbISImR+MY58WhAbI+yvK2O0pzbJrLF5/RJaqSpVqsi6ddH0avEph7TIhuVKyMb9hwUGeJjVtx06ZlIm41OO/1gY10tq/OIuDRKHcZ0pXNiS//yUXG/cuLFcfPHFsnHjxiSpRqlSpaR9+/ayatWqJCkvkkLy6LMsUrKwCWfyB/ezD16/PzUoPzUL2VyDBw+WFStWyJ49e0xVy5YtK++++66MHTvWUAB66z9w4EApUqSILFq0yLtZPvnkEzl06JCsX78+sB0Qa9eunXnOPGtiYk+ciA79atCggfznP/+R4cOHB84hfvbTTz+VI0eOyObNm+X11183z5Vna6fixYvLsmXLhGferFkzA/IAfZ06deSZZ54xNIElS5YMbGd5y5YtgWsk1wKZbAMGDDB63LFjh/Tv31+KFSsmixcvjnFJPlRDhw6V5cuXx0qu+Pbbb2XYsGExjk/plRTrVY+EAf6JDpfKnI07ZKqS8kYqiWFcj/QayXUcOeC8VBMnTozoErfffrsULFjQ/KCDndCoUSPD8Tly5MhguxO17aabbjI59sz54RNw/9Crd2vQfVTOPvnxz9zyirmGTRGFuR5ZvXidfPb6V2b5QvzD6uLHN2/ePHn77bdjXfK9994zeiSVFOnbt68cPXrU/Ij5MefMmTNwDgkACGTQPXr0MMtvvPGGvPzyy4JV+Oqrr5ptof61bt1aunfvbkCrfPnyckZJsb3PG4pB6ouFy74sWbJIrVq15Msvv5S77rpLFixYIHPnzo1RfJMmTYSP7jfffCMdOnSQq6++OgCK8L1i3HAMIAapDJYdwDl9+vQY5cR3heFVetzZxRDJ7Nu1X97854exinjqqaeED9HChQvNvu+++04eeeQRGT16dAyAvOWWW8x9v/jii+a4p59+Wvbv3x8or1ChqCFijh8/HuvDFTjoAi6kGHBGco91NFd75+HUE1QeSZ0v5DFY/OHINvhBrlkTN0lzQurcuXNnWbJkScBauue5PsormlX6P/+Z7FJugNo6TIgVmOxz58sl7zzeX9p3byP1NO2z0WX1Zf6UmFaHPT6p5926dTN8pxBG+wWwq1Spknz88cdmF5YPRCYffPCBAcOvv/7a/ICffPJJk6P/2GOPGRrAX3+NTopAx3fffbdUrFjRX3zQ9d27d8ujjz4qWKqXXnppDAJrmulws7Lvs88+MwDIsT179jRgjWWLJWyFaxcoUMBYlmxbvXq14REA2LmvAwcOmHJ4V+BEAHh4bps2bbJFJHj+0Ct3C7yxEMUAyn7ho9qwYUN5+OGHTd3ZP3XqVLn22mvNB4zthw8fNoB5+eWXy/jx401mGsd16dLFfJixspH333/fAPC4ceOMJW82puC/VAmcd7WqJ+2qlRfSGK+tV0061a4sh06dlnu/icqbLq3kFY+1bywVCkX5PuZt2WVyxiPRI19k0gX5CtOECSa8vFgFfLmxVPiRsNyrVy/B38JL+eOPPwYeMj+YZ599Vvgq/qXpmbwA9of41ltvGTo7mmj8KFeuXCnPPfecOY4vP80uzj+r6aFYblgZcQn3gPWBNYLYZt0///lP2b49KsUSSwnLhXK9zPJDhgwJWDTowLpbnnjiCVPW/fffL23btjVlHzx40NR127ZtZp/9hy6wiOw95ldGKNI4hw0YKVs1xRP9zJ8S3Ww1zPTLNxnW+cI6HAfSrH0TWbNwvfzf//2fTJkyxVhL9kdir5NUc54lgAKI+OXee+8VOFEtEAKMCNYkz4z6YaWOGTPGABLPF91j9VEezxfw5Z4BT94XKzxfrFdL4AII+wUu1hdeeCGwmaY61taNN95otlWtWjWwr1OnTqZFwjNFeJ+w1Lwye/Zs4UPBe/Dhhx+ad+uVV14xoDlhwgRp0aKF8NEbNGiQ97QELX/66leyYdUmHf/qoRjACYhiOdasWVP69esn/veH3x1AiG65d6xf3uXatWsL1jsunpkzdfgXdUvwTo8aNUpuvfVWsy9BFU2Gk1IMOMMxwEPKMVHJd1/u0lrmKZHGT0v+MPyZ9v5vb1FXcivjz+MjJuqQGtqUUSYfK3ExrtN0oTlkTX97HnMADJCpV6+eeRH4mltfDA8OoHnppZeMn8g6snlJAD8A76OPPjIvS8eOHeWXX34xLwzWAM1vfnjHjh2T66+/Xvhx0OTiq8o1AWH8WPi+rE/NWy//Mj82/EX8KLmfd955xxziPZcfND8SvuReodlJk5VmIhYJLy8/+HLlypnmHD6z33//3fjL+MFj7TB5hXvYsGGD7Nq1y2wuc37kzuYdmsgN93U3g8fNHDdXxgwZb/Zn0Q/gjk07pG7TWlK6Ykk5oqmy+Qool4B+KGjCcd98DPDt4svyN0W9147v8mWXXWYsFQvy3vPRHSxP33//fWAzOsSio3k8efJkA6A8a2j/rrzySuNnBOBpmvORAXCxAgG6c+fOxQCkPn36mHvhY4nMnz9frrjiCildurT88MMP5gPGdsACd0ok941+RowYwWmBuVnx/KM+1apVE+4d4R2lGW8Fw4Dmc2IF0AwmXJsJ3dxwww1m8h/Hhwy/LFbwv//9bwP0uJ54L2nGp3ZJMeAMxwBv2dYhHN6rOdPrfTnXBXNFMfSc1U6GDfv2yyr1r1iB4d1KMMZ1fhQAj9dhzw8DBzbNXqwsLDheZGv98eJZ3xNNC5oLVvAtYX3x46ADAd8YPyB+SNafRgcBzn2EZkrTpk0NcNJM44eK/wrBqR+JWP8bc+qFQ90vdFRQn2BCc4lrc98AOhYUVtNVV11l7hlg4AXmiw+AcH9YZQi+Mj4GfCysMAonUlQ7hb75cLg0aF5X2nVtJTN+nS0nj0edB7dnr3u7yYzf5grs9PhEsdIAeATwxFLCGoENnw9UUnRq8SHcunWruRdzIc8/PgzUwdvxQIcOFhk/fHLy0RHgDhgBWPhDaV0AgAjuEJrWPG8sJfRphabq0qVLY7wv7INZ6rXXXjP3yDrvB5ZvJMAJgPP+IMF6380O/Ydbgo83flvOsb5ZLDnugdZIcgmgCCDy0caaBCDptLKdZ6zzoebZ2HrwQedDzD7eZ4wLrFDbo87ctrCSq97xKTe2YyI+Z6fQsf+nvJEwGn3Yq70Mu7OrNuUrRVwTHiqM614rgxcQMODFByywBi1oUjDNM5pg/JjwO9HjCmAiFSpUMHMeOKDChA8L69IK1qEVAAjrEqEpaJvWrHstRtaTSwAm7g/QsAJAYIXwItv7oOOJutv6ciw/RO7P6zs9et4PPW3MbFk0Y5kMem+Y0WWrq5sriXJUs5IB4xgcDv7QrNmzyhlfiisA88cffxjXAkBtfzC2fgmZ0/QD8IL5NvngtGrVyliVXj3wHLF8uEf8jIAfP2J8degGKx1L+aeffkpIlcw56B7rmg8s8t///te8f1jdcQnuAc5l8kct+M8FmABN9Errg2fHO3chBHcCFicfQDp5AEWWmXBl2Xu394B7At8yv0OW+ZBTV+tSYI5bKbVIilmckSgALk6GwvALFuadX42VkvnyyP1tL5E7WtST8as2xxoPyH8e63z5YPkBsLA8EX4ION+xNGg+YylizU2aNMlYI+zHKmHCUsOpfd9995kX0TZXAVT7RTWFev4BvMEEy6No0aKBXbgP4jP2EC+d/WIHCknEAtemTJqgwQR/GxaEf6gPO7zwqZNR1qW93xw6hhECYEJT98V5pvoCGorGKJvUnR82vjt+KFwfax7/rPfDE6wukWzDkgZorLvFew6ASEviiy++8G42z5X684HDJ8mPnJ5yfvz2R84J1N27bguhGe79GNrt4ea8a/h5sSR//vnncIca359tqvvdMN4T+ejhMuIdB/S5xtq1a0O+o4AWLS562r292d4yE7KMUUKrxfuh4UPMb8or9B8w0fLABUV9sMRpCeLjpKVmP9re81JqOTYqpVRNglx3k8Z4NlafGMzqmfRFtdKxVkVhGGCo41YriMKZ6Sc8tsf65zSHaUbgs/QKPxZ8jTTfCJfgK80PmgeJE753796mWcyPkOY8YR0I/kIsFjqcaN7yogAGWClxCZYtQM6LzY8An1t8BOuZlx1AAwQSK/jg+MERFsV9AAK8rFYAIprx9oNjtwOCDAbXWodlpgl+9Y1XGGCZ/MsMc8iGVVsMyBzVON2mOkAcIDpLCZe5X6w7fkSAE81dfK5JAZpYKzwPr2/P1hfQA1TQv/8HzEeToUzwidavX988S/zQ9ER7hY+HF7gokyYwOopL0Cvgh66t0IuPNRaXYEUCJEw8o1DCO0od0TEWPB9lPk7Vq1cPekpCmP3pFGTkAUYYyJotq1m2IWf2IrggED6GVng2cXUE8rsCNL1CC8DrCvHuu9DLqdriHLFgtTzQrpEMvOVqMzzFDZ/9aPTTWdnX+7ZqYH6MZxXwhs5dKfhDIxFrJdh5sHNoBvES47uyExYpnSII1gg/EoQfHgHLWKG8/Ahl01FkxX8tu87LT2cMveyI9SPa8+Ka40Tny4yfkB8udcDV8MADDwR8cJTBdRBAyoqtg3cdnx6+J8DSAqZtstLBhasiWLOXMmCmv/XRG+Tf/R81wxEvnbVCiO1Dhn70vTz+3gPy5HsPmnUGl6PXnTrTK4w1lNRyzz33mGdDR5dfaFXgmsCf6Zc2bdoYywe3BQHiBKmjKyxC6osARLQUKANBZwiWVL9+/cxyuH8EvQNq+HNtD7l9Ht4WiL8Mepj9YMk7g3vBnm/PsR2d6JaOKAwBOmpsaJY9zs7tvcSH2b/HHV2kZqNoIGYMrBXzVsvAd4aYDznvI3GrJA5Y1xcuEoLyseT9AsjjoqFZTkcsHXCpVdIsHydWaG79yjHmz4UQfjR0tuCb8fosvdfmSwrQAl62uerdH2oZy4gX1lo/XIsXLJRYazfU/sRuBxgqqO92586dJs6O8p5//nnT5KI5FU4Iit6lzPLB7p9xjE5oZ18wkuRwZcZ3H34yrBOsHAKu/UITnHsjNtMvWJvono/NJZdcYj5GfIj4gCCUS/kAwUMPPWS2W8scq9kLYFi7gIC3MxFgxO/q7/iiswhrkJYDH24byUBrgn18uIMJHYvUh85M2wHEx41naN8n/3lcn3AgOgkRAD+pmf0BPe4HA4MQKVxZ1BPgJ5YUS9T/wSQkjo8Q7gqA1eqSZ0FTPTVJmgXO1KTEpK4Lli2ugVCSEi8RP3hcEsFiIUPVM6W2A3z4YrEY7Y/PWxc+cNxHKGDxHguoxNWs9B7vXcZdQ9gWkRhxCRYuLiF07PUxAoA1atQI6ZukJcCH1HsNOsW491D1xgWBRWddIrgtsNABO9wXSSG4BrCGrY5xKdFzzvOIrw+YTrxp06YlRbWSrAwHnEmmyqQriB8QVkEouRA5xqGu7bY7DTgNiKRqH2dGfUB8pR04ZtSn7+47LWggU1qopKuj04DTgNNAatKAA87U9DRcXZwGnAbShAYccKaJx+Qq6TTgNJCaNOCAMzU9DVeXNKsBOvQSI/SOE8cYaTmErBHeE5fQK09MJ0KoXCTiPY7lpEh/jeS6aemYFOscggG+StGCMnHNZsMAX7d0EZm6blsMFqS0pMjUVFdY8PV3JYs0owcG/MK5c8rMDdtTUxVTbV2IySQ0J5yQCkhQtxVCbYhTJEA9d+7cJmXQ7rNzYhRtELjd5p0TOA+ZCDnl0LBBtxYsFtaeA2UbSRqWTNluZw4IQ8JCFhxkJIS2MZEoQcA9ueA2P5+stQcffFD+9a9/mZhUwq+IVSU0iSw5UlOhGfRn2nmvlxGXUww4I2GAT20PJCGM9NxDHQ38vkGJff89auoFuaWEsuATfN2hZ1tpdXUzyZ4jmwzo94XhW7wglU7Gi2CdRcoAT+whCQyhBFCCr8Ar8BYQe8l5WGe//fZbYDcJA+jVZgixo02bNiYjKXCQLpB+SdwnzEDELT7++OMm7RMAI+7UCteBBjCckBllQZeYTdihEDLU4OiEqYsUS2IqiduEsAWiEZIcOJaAddKOqQOMWbAsYQnbmMxw184o+1IMONOighPKSF80b26pXqxwqr/ljr3aSVulg4O0o7harZkyqdmaDsSmGQZLFyV/28sADzARUE6uNFwAfgHcACMrWGhkGJHdgyVHcLfN4CHjCCAl9dAbiA8HAlYqaZBWADqsVYL358yZYzJsoFGDq5I5GUKUh0A2QwYOk6XEA5jJY0cgC2Ef9SG9kQwdlhEC8mEZIjPJWs1Yp/ArUHesbaxZBN4ArGv4GgjQJyXXSZQGUi1w0ox/qUsrGTZvpdzYuKYSFmeWH5asla9nrzCsSM+oVVQ6fx4hV33U4rUydF7UgGT9Orc0x5ZXdvgces6ibXvktbGzdBC4vwwxyPNKRFGpsHJB6td2snJ3Dpi8UP4+/zb0aFBNmiopL8N1NK8U9ZV/bexMaahphOEY6UO9TDmVwPdzzbPPmjmTocEbqrm9yOczlsgEJWr+b+8OMl3HU7J1L5o3l3xw/RXy4i/TDWnJS51byerdB6SeDiFy6pxyV/42Wxbr/SAwQ4XSgTkgzD98aYAIAGF/bBw+f+oSmfrLLClSqrCQd5xeJD4M8NwzFiFpgcGA068TmuCAHnngADDNXlJosdYAZZrnWG/kpXstNmj04DiwAkCSWQOIwfcJm5A/S4vsIECQZwbBCFYjy2R1YTFagXMTCxErlhx01m3TnGMgc7EWMLn4ZPnwwaB8yyFLAgbA2adPH1usm3s0kGLAGY4Bnvplz5pZAB5A85dl62TjvsNSKHcUS9KbPdrIybPn5PVfZ0n1EoXl+oY15PfVW2TP0eNSJE9OBdS88v3C1XJKj7mpSS1pUbm0GfDtkcsbS9mC+eTjaYuljA4c1rlOFVmrwDR+1Sajkvya/w5gF9TrfDp9sQE8WJfiYqQ3Jwf5x/Wf+2mqNK1YSno0qC7P6jKy+0gUpRbMTtdoHSxwdq5bxbBAUafa2rxn6BDq+fb4OdJb7+OfVzSWPl+ONseE00FcLPg0HbFsvJ0A1MvSwxWR1G8dU99IJL4M8LZMmtg0ef3i1xmJCgAnaY74KAFQ/JQAI35DrEXIX6CvY1gOm24IS5e17Minh6uAkQcAQQbZC8bqZOsC6NHhQ8oky7ZZbvdbqjxAnf1+omvqbK1dfJjkw9OJxD1bgmrWcXFYMhs4GoLl9ttrZrR5igFnOAZ470P4dsEqtSijmzQMk5FXaazm65AajD10TAlxT6s11rV+FYHgGNl/4qR8o4xJSJvq5eVSBS5GygSM6CQZt3Kj2de6alndXy4AnGaj/nt21DRDWWfXmcNKH4qR3nucdxlLFvZ6rN+/dMXPZD9ShwjBkq2pzOnoo63WZdq6rQELmLIGzlgqszbskCN6n6/oUCJ59N7LF84XVgdxseDjx4MaLj7cn977SkvLWGTxYYC39wZ3pR9w7D5vXjhWGU1ZOCchzoDrFUYmLzcrPkma61C9IXy4YEjCHQB5MexGkH5QDmxRACJEH+EEq9b6LoMxowN6+GLZZ5muKA93AKBuxzmyzFwwKOFOsBlrgDdWt133g3O4umWEfSkGnJEql552r5Q9P8QslhgTsuXgYQOg9ritB6IZk+D0rKHAhLcOUmSsOSvbdOwbrFivYMnC83khBGanXWolX1u/mroS1kgetQJHLlob49Kr90TV9489UT+6utpsz5czijkpnA5iFOJboYnuJyP2HZIuVi0DfL9+/WLdDxY3nTCQVXubsfZAgC+SYZVp0kL8jAWHtUbz3nJQ2rKYs9021XGV2AHq8EfyPOjBxsoDeC0NoPd8uwzoAmKAraVmwwr2Axt+VPycWJyMBY8Fi78VX6mXVNiWyxy3Au4D7glLHQsaq5hoAVt37/EZeTnVA+exk2diPJ89SkuGfD59qazxgKD3oOL5omPqSubPLQAk1t+favYRBmWlhO7DkvTKqfPDGXi32eVQjPR2f+j539q8Dr53jLohbm1a1+zcc+xErOGQy+vH4cCxk+piiPpI/LH3YGA5nA6CXy1qKz8oOkywPOkxTa+SEAb4SHWBTxEaOThOATNACfBDn4wmidAjDgjSc40P0QodSrbnHh8kHTD4LpkAQYZmsQDJOTa2k0HdAEwIn4nhtExGfAS8nU8AME3wyZMnm0H38LtiPcKqBSWiPc/WxzvHBcB9QaOHv7N///6mFx4KPb/P1XteRlvOlNZueMWOfabJfEfLulJCO0gyKyK1qlLGxCvaeymhvdgNyxWXWiWL6BDCBWSONnWRrYeOSHP1dwKezbUTqHCunLJIxwCPVEIx0sd1/jKtM00n6kl9vfKbkvqyqXH5kjJ22XrvLrN8faMahgEfXy/WMIPXRaKDWAV5NtBDCgs+cX5+Ka/ui9IVSprNcGuynhaFEJ6EMMBHeq8w9wNG+ADpfKLJC+hxTcJ7mLBkASqWaZojACUTzwCfJwCItcqQy1ii+BIBQZr9bbSTCkJshnSm+b5p0yYTMoT7AesQdwICsHqtZgCWutALzmBydA7RyQO42ya6OfH8P/yqvJ/EsHI/uBTo3OLDankzLUm397yMvJzqLU7/kBj4M+np/teVzeR/2iuNYEm++duswHM8rs2TZ69uYdbxd05R/yby/oR58ka3NqbnmvWN+w+Zjh+WI5FQjPRxnQvYLdm+Rx69ookw0O6g2csCftszej9Ld+yVuqWKyq/nfa/e8orny20Y8Nn2mfbGI5HowBwY4p/XOvEf8uArdwU2dbnlKrP8eK/nA9vSykJCGeC5P5qlNJnhrAymK/bRNMbXCZclwAn4MP4U4T52ID8sezpeAFhk2bJlxlpkHYuTwHLAjVhJhh5m6Baa2HTCAPz4OQFNRmS1A/mxHZDF1WLrRpC7bUozXg/gTXgU1ybGFJAHvIlBxSeLGwL2e6xKgJs64O8mPIkB1mjWW65OmvqEQeHDdRKtgTTNx0n4Dn7L3UeOB8Yc6n9je9MJ87EOzZA/Z46g/kos1RP6QhzRcXISK9n0xxFKzqrFgYsgLvnkHx21nsflhZ+mBQ4laP4l7Qy67tNRUixPLjmgHwAA0y/BdOA/JqOtAwYJZYBHV/gdASDCg4IJViEs5QTVEx9JE5Zlmtw0cwlLCib0sjNBymvjL5966ikTBwqQ0amETxGfLGUFC3RnLCSsWLKGyAQCHAFxLFOa5vgo8WFikWI1YpUS9E42EsK94V4A6LFc8V+yTOcVY03hBsAi9gsWaVISHfvLT2vraRo4gynbAifWZXILA8YNurVTyMtgGc/bvCvkfsKkejWuIWUL5JPHR0yM0evuBU5iUJ1ErgF8fknFAB/5VSM7kuY41qFtWtPMxqpjikQInMcXCjDiy6TJb90A/vOxTi1g+vfRAcR5lEHPu7Uw/ce59eAaSPVN9eDVDr31txUbZZ92slwIOaoW6z1DotPr/Nc8eDxquFz/drtOM3359n0mCN8fqrRLm/e/ax6/v7fUnuvmoTUAqNjOl2BHhQKTYMcm9TZAzyu2ie3dFm7Z28mED5IplIS7Twu24c4PVa7bLpLuLE73UJ0GnAacBpJbA2muVz25FeLKdxpwGnAaiEsDDjjj0pDb7zTgNOA04NOAA06fQtyq04DTgNNAXBpwwBmXhtx+p4EEaCCtM7oTfkRYV1xChlPlypXjOsykf1JmpEL0gRWbMMA6UQhETaS0pFivempjgM+rxL1X1apkngdpmNC+WSHsqEn5EjJXQ4tOnTknrauWEbKBiB9NbuFly6+ZToc05z6YFCicXw4fOBIIhvYek0czqOhhPnM6dqgLRMVZlH3p+PkUVu954fbFVR9vOWlxOSEM8MHuk1jMtMDoTorlK6+8YiZ6/GFUggaPPH+Ija+77joTW0ogveUDBSxJ2UXg9iQ2lDRRK2Q4+dM6yZH/+uuvZdy4cYYODw5TrxB7SvA9QgD/O++8Y7LbYKhv3769oejjfGJbIV8hG4oU1/hGJXivmZjlFAPOSBjgLyTjenaNZYOiroICEWmRXuCspNvub9NQDo6ZoYQiR83yoFma/bMkmrUpIQ+BFzAc43r7Hm3MfsDq3Nlz8r8XB8rm81lQlWpUkLv/fYsBPzJIRn8zXib/PN1UI7cmBjz29v2S73x+++rF6+Sz178KVPGe526TKrUrmnUA+d0nBsjJ8zn74faFq0+g8FS4gP6SkwG+TZu0y+hOdhJpmWQaEURP0D+poJbFnncUrtDRo0cHniwWH8HzK1dGMZDB7ATAIcTPEhNqgROykNatWxtLsXPnziZgH7AmHAoQRQi6B4D9QoooQ3YwJ9aUZSxRyKQJ/N+5c2ecLFL+MpNqPcWAM5IbuJCM68R+vjx6htzWvI5cVq1cJNVL9DHhGNexFq+8vp0sn7tafh81Re5/8Q657Yne0u/uN811b3viRmMt9n/+M7n3+duk003tZc7EBQYAb3qop+RWopN3Hu8v7bu3kXrNa0ujy+rL/CmLpVn7xgY0v/t4lMaI/i033NdNbryvu3zx9jdh98VVn0QrIxkLSE4GeKqdlhndScfE0sOKI8WUrCQAzuavwxFKGmkwxiaC8f1CQL03mJ5l0kWJRybVlDx4gBNKPFJFSSc9cuRIoBiIWdhOrj1ZUBBuk+IKKfPcuXMN1ymcpnwI46LeCxSaDAupEjjvalUvLON61WIF5emrmklBTamELNgyqsfFuN65bmXp3biWIQg+o+mQ05Sy7r+TFkSUFhmX7mnikKNMvnE4ElpvOeEY11t1amoOHfa/kVK4eEFjWebJn0UKFikgWbJlkZw6ANuYoRPk6KFjkkdZnrCqWlzZRCaMnCKVapSXdcs3yS4drK1wiUKmnGbtmxjgbHp5IzmhbEtzJy00wMzOKnWiXBTh9oWrz8F9h8w1Uuu/5GSAt/ecVhnd+ajAAwpDPcH1kHzA3gRYITTXebcg+7BDbdh7fvHFF+1iYI6uq1evHljH8mRq2bKlsWyxMm0zHXD0+yvJpTctMeUpxcIkRRWgJdeeJjxB/bgR4DElTTWlJMWAMxwDfDjGddzLL+qQEuSavzVutnRSBnWa0Ut0nJx96q8Lx7h+kVwkX81eLit27jMDqN3Zsr6sU77LXzXbKJxsUd5MGOVpph9VQmGWF22NyarE15eXIBKHur1WOMb1oiWKyJ+aWXTqxCm5/cmbZI/6VItp/nrxskUlm5IZI+tXbpIb7u0mZ9XvSlOmqLJBIfgud2zaIXWb1pLSFUvKEa13vgJ5zL68Oj+kbPpYkJdf21r2qi6KqIsCCbcvXH1SM3AmNwO8UZz+S6uM7tDj0RQmxx4GeATwGjNmjFnmHz7QYEIOvF8gNvFmLAG8NWrUMKmdWJOQKtPERrBO8cH7hWFBKMcyzlM/mudWguXS230Xap5iwBmOAZ7OmVCM6+XV34hl+d/JCwwz+lIFzMG3dZZWlcvISB17KBzj+k9L15nxiBppR082HY8Iq7OSDpWhPElh9Q0fpmWU50Dvsj1xshIs0AyB1TspJKf6KclnvrzbZYLP8vM3Bsujb92nAJhXsmnHDlKwSH7TDP/45S/lrqdvllx6XLbsWc0+OoR6KajO+G2uVKhWVgoWjeohzZotq3lZb3uyt+zVoTuW6hhO+C6xKsLtC1cfc8FU+i+5GeC5bSwkfHZpldEd/yY94zZ/HhZ6C6LcH/nwdMb4hQ4cvwB6jLVkBWZ5xjgCNOEppYnOMQiWLSBqhxBhG8109AmRSt26dU0znuY8flgr8IqmtKQYcCb0xospOCCrzpMYH1eAgDWoqIe8OFTZtzatLV3rVZVDp06bfPbMF2UyA7qFOj4+2/ET2V7B+JwX6tiTaj0DZB16tpFRA8dIZgV65Ihav9bivOWRXrJmyXpZrxbzRdqhdULPsT3obTq3MB1KowaOlifee1DOqKWMnD1zVkrph4OyX3vwfbnsmhamR54OpnD7wtXHFJwK/10IBnhumw6LtM7oTpPYjs7JsCreoT+8IMr94q+kBx7me4SPrqW4Y33FihXMjEClh9+U3nCAEksW1wCCJck+r1x//fUyffp048uEUg8fK5EOjB+P3xUqPCQcF4G3vORazpRcBSdFucEY1w+cJ86ocJ7JHcsxu06HtEkbLbEZ1+kpBzRHLFojtw8aI0+pLxDhoXsF4o2s+sWLrzBkLKEbkcS0RVL23l1R5Mf7dh2QWePnqd+ygjlt15Y9svM8+TJN8q/fHyZ5IXTWpg3NeYQe+OwaQvXV+9+a9QKqK5rrCD5RgBdL9KCOh1RSCZ8BzLj2hauPOTkV/sPKgfKNsBW/wJCOZWMHNvPvj2udJi4dK0g4RndYjyyjuy3Ty+jOQG34+nDx2J5oXD5eIKJJaxnd4c7kPcPqglwY4LHn2fK9c/yDNKktozv3zLjqjGxphWYwoIRliOBLxA9pJ+7PK1yfkTixHgFP25GDdQ+VHeMaeQXfP9Ys4xj17t3b9OAvWbLEvLNQ1WG5WtDmvqHsQxjviPOY8xzZxzITvfgAakpJ/BHiAtY0GOP6Fo1ZhLi413lm9FvUikTme+jbgjGu04N85s+oIYIB2j7NasdiY6ecORt3Si61xmCQZ2C0SIXRDWFVh9g2PhKKcX36mDmmmIN7D0sOHX0TC5KYS8KH9ipAEj50QqeL9IfQ855rzUs1c9xcc86GVVvMOiBJhw8gOmtC1I9irnaGIbt1mOFiOn5RRR0gjo4kJNy+cPUxJ6eyfxeKAR5/mw3QTquM7n369BGAzDIlAdT0YtuJj7IVALZnz57mWJrYGB40x+lcwsKHZLlatWoxRhfAz0zoEmMycS7gzegDjMPEMp1SgDcfInRIM90KHxEmyuRaNN/tNr/RY8+5EPNU3VQPxriOX7L/5PnyUNtGAWb0MSu0uarWk5VQjOvDdcTMG7VXvUONimYYiqOnz8T4snP+Oh3TZ/r6bfLvq5qbB3X3N7+a4Sps2aHm1kKw81DH+beHYlw/qgPGTfxxmrTr2kpeGfiM+fJ+8vKgwOmDPxgud/zrH2YfG3/7bmIgFnPoR9/L4+89IE9qEx2hE2m+EjsjM8fNk0ta1Zced3Y268cOH5dvtec+rn1x1ccUkIr+XSgGeDo70jKjO2MYlStXLjCeOo+QcZO8nUPeYTPo6Ybp3jaZaW5DykzTGeAkZpNhP2j6EwsK7yedQ1iWWP5Yv1irWLzMsX758GB4ECvKtW2YE+4CLGqOA9TpxaejCiuUa/gp+i7k65dmaeVoepfKn0fHUj8RlBk9lBIz6xeuqDKqX6iRLEPVI9LtNMeLlykq29US9gtfXMYF2r3VJlyWAAAPmElEQVRtr2me+/cX1V54/J7BsoNo3mfPlV32aQeRX8LtC1cffzkptX4hGeBpsqdlRncsOJrQ1l85aNAgEyMJcBJaRHA6TfEBAwaYgHWyh4j5nDx5smHZ90eRAH6fffaZaZLj8wcwieME9LBkCdVjjCUY7Mn6YR3XBX5TPnaML28zh4jVxEVBgD2AyfFYpfS2cwxzOz78hX7X0ixwXmhFueulHQ3QlLtQDPDpgdEdYLQM9Lg48CcCUgAdfkSiRdgWTDjXNpkpw9/iwnokwN2WD/B5O4Q4l157AuXtuZTJ8CN23PhgaZVYyfg6U0occKaU5t11nQacBtKsBlJ151Ca1aqruNOA00C61oADznT9eN3NOQ04DSSHBhxwJodWXZlOA04D6VoDDjjT9eN1N+c04DSQHBpwwJkcWnVlOg3EQwP0EMcl9D4TLG7Fm/ljt4Wbc74/dCjY8VwjqbLfgpWfXralWAB8pAzwzSqVku2aAUPGUGKlseZoH9f0QghGQkkmfcGurFnRUM4d0wD5SATm+PlbdkUUKB9Jef5jklIHtuwiGstaX+NDvYTNdl9C5m2Vw3SjZjWR7UV9D2oK7GpNF41UwrHOR1pGUh5nA7ODlUncJrGKCIQWlsUn2LF2G5yW/fv3NxRpDKthhdApsmXIviGTxisEgFv2IOIp27RpY3K+OQeeSoLRCU6HCo6ccIQUS2IemZKT0d1bz4y4nGLAGQkDPA+kb+sGMnnNFvlSGdcTKzddWsuAcDjgJPf9bs2s2bj/UMQ//Lta1pNTk87JpKNbElvFoOcnpQ7sBWqXKiz3XXZJLOAkHfXN7m3kjV/nxCtJ4KF2jWT8qo0yQDOUyOoiA+u5n6bZy4Wdh2OdD3tihDuxtiJlgLdFkloI/ySsR14BrMqWLRvYRIzijBkzAuvEPhI4znayYKzYTJuuXbtKnTp17GYzJ+WQjBsmrzz99NMmeJxtXbp0ke+//96721yDvG6CyWE4gp0puRndY1QgA6+kGHBGqvOnlYzjWBDOvkjPj+9xp5Ug49HhvxuAje+5yXV8cuiAnPx/7vs9VpXJrCpfKL/m6UfR08U6IIk3hGOkT6pLxYcB3ntNSCu8edPsI6AbUl0rBGePGDHCrDKcA5ky5HaTQQNFGqQckBxbgdUcwUq9+OKLTcaM3cecc7EWoVKzAjEGfKukOpK5wzIfAzsGEJk8ZP8AnASYJyeju61TRp+nWuC87pLq0rV+VfN8vpu/Wn5WLk0rpZWT8jEdAqKC/sCRedpMfn3sLLs77Ly40s99cevVUiBHdpm9aYe8o8QYsDAhzyvFGuzyyHOaJ06z08rNaq12rVdN2eL/1oHa9krZgvnkrq/H2t3SrHJpY6nyQpMTP2LRWrOvX+eWhr0JMMqh1twiJdd4Tev6p6aYIT0aVJOmlUrLzsPHpHmlMmbba2NnykIlSg6ng1As+KYA/ce9QOxcrXghKad1PaWsT3cNHivQ8H3Zp5MhOIGO786vou/hvZ7tpKSmYiKvKskxxChzN++U9yfMkwfbNZTiSn787I9TzX7+DejdQSat2az3Gw0kgZ2+BRi777zzTjM8A4QQVsKxzttjEjuPLwO8vR6gaJvKdlswPyGACUM6zWQAE1ILLE5GA3juuefMkA9Yr6QVWsGPCNDBUekVCIW916BMiDHIrCHDBuCGfIMsG8iTAXbcAGxDkpvR3VvXjLycYsAZjgGeBzJRm+fLFaCe79RSCuswEV65vUVdya3MRY+PmKiglEVqaU52pFK5SEEZOm+l8XXe2aKeAkvBQJN84Iyl5lovXNNSh9eIZoQpoOxE3RtUl6nrtsoSBbR7tYmbWQHSK/XKFJOPtZnaqEJJualJLRmpwAkcF8mTU0rnz2tY4xnmg30tFGSnnh90Lb+WXUXJlAvmziGfTl8sWTNnCgB5KB1w5VAs+BCcIOTjNyhTXFbv3i/vjJ8rFyvLOwz4yGtjZsqlFUtJt/rVzLr9967S1xXS/PWXurSW/5u22Pgsj5zn8Zy7YYc81bGZFNL7gdgZnQOyM9dH8Sl+O3+V+aBQ1pB5K2TPkah62LJJTcQ35+/UCMc6b89NzDyhDPA0iy39m/f6jMvjtSChUWNYCJrIjz76qJlzTQTLD25LrExGaITmzqYPMm4Ow1PYISrsNU6fPm1A166/8MILcvjwYWOJUh4TFiiDqlHGyZMnYxB0JDeju61XRp+nGHCGY4DnoVgWeNiQ/FJQf9zIWaWJ27Bvv6wKQlThP8eu7zp6XL5bEOWEB8QalisRAM6tylm5V0HBLwAdVHZYXkgDPaeFWolembx2i0zSCYuyue6rrGCInw/ZfyKaQb5N9fIGtCxw2jKeHTUtlk8xlA7iYsG3ZWJRPv3DFLM6c8N2u1nW7jkopc4PpRHYqAvblSSZTh1k0/4jMRin5m7aachUrq1bRb6Yucxwm+7RAe44BxmmwGnl56XRzUy7DXJbQMTbBGVfONZ5m7tsy0jIPL4M8Izo6PdB+q9rGcxpbtOpg2UZimwC0IPE96qrrjKgSYvENtdD5X/TBMdvClen1Rm+VSuwEAHggGcwSU5G92DXy4jbUgw4E6Ps/5u2RB7r0EQ+7NXe/Ji/nr1MRi/fEFGRm3S8HSvQyjFmelxSu1RROXgymih5gwKiHzjXnAdvS6icL2c0l+fWA1HgwnVo/tcoWTjGJU+qJRoftqZIWfCxNpNKsJ6n/LFF2l5cXgbpcBuXlC0hg+cuj7h4eoz9vcacHI51PuLCQxyYEAZ4wAo2d3yGNIOhQoM6DmIKO2SuvRysP9CdQWJNz7YVrEpGvrTcrDD+wEWJEO4Ds8/IkVFUfvYc75xxyu1wEgxIZoHaHkP4EkNJ+K1Vu595cjG6e6+RkZejA8PSkBawMPHN3TdknLHq7tAmdzYP2Wq4W7H+zHDH+Pet0gHNGFHTSjkd98gv592k/s1mHb+qlZI6IuW282zsdtspD3Gr3RZuHhkLvrK9n29mhysr1L4smWO6IjgO90MebW7f2bKuKKuf/BbHIHfesum0gDkcv5xXwjHSe49LyHJCGOCxHBm6oUmTJsavyDL+RXgrbdMafkm2W+JfGIUAM8bPYcIaZMAylgFfhn/wC4znXINednrMmfBPElaEzzKUwH8Jw/qcOVFE1/Y4tltJbkZ3e52MPE+TwNmxVkVjKWKlrVYQ/VNRKyGAGOmDn67NXPg/71DfaoOyxaRZxZjN9LjKKaGdKjDK19JRKCsUKiBz1F+YGImEBT+h5Z/QOFd8sR00ljWHcoF64XP3keOyQ3XesWYlM1IolnKkAmDCkO9tcnJuONb5SMsOdlxiGOCx+PBvesOOoDoDsJjopPELZMZvv/12rOmnn37yHxpYp0wAFDZ0JuIuvUHugQM9C/g8AWU/iS++TXrpkT7JzOjuqU6GXUy1TfXv7+4WGNqCsYKY6OGl97yzLvdt1cD0LJ7Vnsqhc1fKOU+PZainSXPTL3YbvdRvdW8b2P36tW3M8oApCzU+cZP8unKDdKpd2Uxb1a8HibJX6G2PIZ7V48pT+OzVLcxu/J1TzncMxTg+yEo4HcTFgk9xwXyE/9DogB7a0WXlh3u6m8VbB42WIydPm+UfdLTQ6xvWkLbVyhuA9Pakj122Xj8g9WSUHhMfsXWxc3tuOEZ6e0xC5gllgMeypMNn0qRJxjoGqADK2bNnhx3HG6Dt27dvrKpiaYcSOnewwpmsHDp0yFzPryf20/SnmY/PFMFfStwoYIu/k3Cl5GZ09w79ayqRQf+lWuC87tMfQj6S+7WJTk93bh0byHZOcHAWfYHI/AkmAOsj38WMW+w7+NfAoX9oh0m3j0P7nT6Zulh7mpcYMHq0fRNjldmTu38Ss67+chbq4Gr0uOfX5r7fl/mF9uQzBZNwOpi8dqvJbgrFgv/gsPHBipTBc1aYKejO8xvpPLMdaP7jcFNgkS44P2Ccf3+odXx6wfx6AMRHz35qBpwLxUgfqsxQ2wnnqVWrlgwdOjToIQDV2rVrDdu4/wAsP4aBICOHQdbwFQKcgBYTIUUAFXNGZLRD6rKNcXH8QjRBKCFw3SvU+6OPPjKjZsKM7hd607knAuYROtxgSCeOFHcCoGv9scEAzsvoTtgUgruB5AAEwmLvMBls4zg+GsOHDw9EBLA9o0u6IjL+5vbOZqC1YA91wupNOhb7wmC7ItpGzOJG7VjKo2Oa19Emd38ta6LGMMYl/W9sb3qnbY98XMen1v1lC+Y1WVy4GwbPWR6IU02N9U0MAzzj3wDm/vhNe58ApA1AJ3QIsfGVwYasxRIlC8m7jxEaQ41MSY8+WUZ0PFkBfHEbwIjub6JjdTJ5Y0RxAVjG9aRmdLd1yujzdAWcxBiGGtqXvHOCvxMqHXR43joaq0mv+U8ajG/jJeMqr7OG7+zTsJ1ZifRrxnWd5N5fUl0T3TVYf/n2vRG7GpK7Tq58p4GU0kC6As6UUqK7rtOA00DG0kCa7FXPWI/I3a3TgNNAatNAojqHoNQi9CGYfPnll8E2u21OA04DTgNpXgOJAk7u/vMhA2Mp4Y7et8Xa5jY4DTgNOA2kFw0kuqmeM3vw8J/0oiB3H04DTgNOA34NJNrinDGgoBQtkEnWbf9T2j500F++W3cacBpwGkh3Gki0xXnJHQek3xfHpUrpzHJx+UTjcLpTsLshpwGngfSngUQDJyr5ZVZUIHCJgklSXPrTsrsjpwGngXSlgSRBOk3FNuL8nenq3XA34zTgNBBCA0kCnAeO/iUQ5VzfLruhGwtxLbfZacBpwGkgXWggSYATTTwx4Ji0rpdV1n9bRFpWW5culONuwmnAacBpIJgGkqw355lbcgm8uW9+c1wKlioT7Fpum9OA04DTQLrQQJJYnHlzXiTFNCTp7aEn5KvfTsqx09Fs6elCS+4mnAacBpwGPBpIEuDMpcCJbNoZe2A1z7XcotOA04DTQLrQQJIAZ8s6UQOT7TkUPW50utCOuwmnAacBp4EgGki0j3PWxwWlTNHMsldBc/XmyMegCVIXt8lpwGnAaSBNaCDRwNnn1aNy9ORfsmOfszbTxBN3lXQacBpItAYSDZxrtjorM9FPwRXgNOA0kKY0kCQ+zjR1x66yTgNOA04DidRAoi1Ox72ZyCfgTncacBpIcxpI1JhDae5uXYWdBpwGnAaSQAOuqZ4ESnRFOA04DWQsDTjgzFjP292t04DTQBJowAFnEijRFeE04DSQsTTggDNjPW93t04DTgNJoAEHnEmgRFeE04DTQMbSgAPOjPW83d06DTgNJIEGHHAmgRJdEU4DTgMZSwMOODPW83Z36zTgNJAEGvh/vJFYpBBJVxoAAAAASUVORK5CYII=;" vertex="1" parent="1">
          <mxGeometry x="1080" y="106" width="334" height="165" as="geometry" />
        </mxCell>
        <mxCell id="mMl1sKTFDAsI_Ko-cwrK-37" value="" style="shape=image;verticalLabelPosition=bottom;labelBackgroundColor=default;verticalAlign=top;aspect=fixed;imageAspect=0;image=data:image/png,iVBORw0KGgoAAAANSUhEUgAAAXAAAACnCAYAAAAIVQccAAABX2lDQ1BJQ0MgUHJvZmlsZQAAKJF1kD9LQmEUhx/LEEpKI6ihwa0CC1OHxkyjAoeLFv0ZguvVtFC7XI1oC/oK0dbQEn2BcKgh+gRBUNAQNURBo+CScjtXK7XovBzOw4/ze9/zHuhwqrqetQO5fNGIzc14VlbXPI5XHDjpp5c+VSvoIUWJSgvftT0qd9isejtu3ZV2n0Qe16sH0+/G9WD5zfu3vy26k6mCJrUqGdR0owg2n7CyW9Qt3hceMGQo4UOL0w0+szjR4Mt6z2IsLHwj7NIyalL4SdibaNHTLZzL7mhfM1jTO1P5pbjUIclhIswSleMhjoKfIJNMMf+PJ1j3hNlGZw+DTdJkKIo7JIpOlpTwAnk0JvAK+/FJBqxd/95hU0u+QCAnT402tS0XXFTAfd7URp7lO8dwpeiqof5s1laxFzYC/gb3lKDryDTLy+AYg9q9aX6UTLN2Cp0P4q18Aj9vZQqPir9BAAAAOGVYSWZNTQAqAAAACAABh2kABAAAAAEAAAAaAAAAAAACoAIABAAAAAEAAAFwoAMABAAAAAEAAACnAAAAACnNZiMAAEAASURBVHgB7Z0FgFXV1seXIt3dMXSnIC2ggKCIgogtKHbXM57d7fuePAMDi7CxQEKkW6RLuru7/NZv39mXM2duzTB3mMG94Mw5Z9fZZ917/3vttdde64wyZcr8LY4cBxwHHAccBzIdB87MdD12HXYccBxwHHAcMBxwAO6+CI4DjgOOA5mUAw7AM+kH57rtOOA44DjgANx9BxwHHAccBzIpBxyAZ9IPznXbccBxwHHAAbj7DjgOOA44DmRSDjgAz6QfnOu244DjgOOAA3D3HXAccBxwHMikHHAAnkk/ONdtxwHHAccBB+DuO+A44DjgOJBJOXBWuH736tUrXJZ88sknYfNchuOA44DjgONA+nAgLIDz+I8G9k/Wixuv6p0szSU4DjgOOA44DqQ/B1KkQsmZ/Yz076F7ouOA44DjgONASA7EBOCPXZtbVn1TRJYMLCxF8u4J2ZBLdBxwHHAccBxIXw7EBODXdMghi1YelYqXb5Wte/Kmbw/d0xwHHAccBxwHQnIgJgDPnlXkjyVH5cixkG24RMcBxwHHAceBU8CBmAD8jDPPkKNHT0Hv3CMdBxwHHAccB8JyICqAt66XTbJmERk353DYRlyG44DjgOOA40D6cyCsGWHWLEdl2eDCki3rGfL9uMMy+g8H4On/8bgnOg44DjgOhOdAWAn86PEsctsbe2TmkiNyaetsUqaoiuGOHAccBxwHHAcyDAfCAvjff58hI6Yflsse3yV/a9jjnufnyDCddh1xHHAccBxwHBAJC+CWOVieHDn6txTI7TbxWJ64s+OA44DjQEbgQFQAp5OH1QKldoJToWSED8z1wXHAccBxwHIgJgAfOumwNKyW1ezGLJxnr63rzo4DjgOOA44Dp5ADMQH4A+/skdrXbZMuD++UHftzncLuukc7DjgOOA44DlgOxATgFN6172+Zs+yoHD8ecxX7DHd2HHAccBxwHIgDBxwax4GprknHAccBx4H04EDYjTw83Pn+To+PwD3DccBxwHEgdRwIC+AbN26UMWPGhGw1Rw5nEx6SMS7xlHKgTJkyp/T5p8vD165de7q8ymn/Hk6Fctp/xO4FHQccB05XDoSVwO0LHzx40F66s+NAhubA8ePH49q/3Llzy759+4LPyJ49uxw6dEjy5csnu3fvDqaHujjrrLOkUKFCsnnz5lDZJo32ae9oouvPbNmyCbPdaG17G6SNM888U/bsCR14pXDhwrJt27Zglbx585p38vLO/eaD7MnwF3GRwMsVyiftqpU3L18sb245v3p5yXbWiY1AF9etLJc3qm6OM89Ivx2ePKtTrYqSJ3u2sB8M/aWMpbZVy0mFwvnNbbOKpaR6iUI2K+o5S5YsUqp8CTkra9RxMmpbrkD6cqBEiRLSoUOHJA99/PHHpX379iYtf/788uKLLxpQfuqpp6RkyZJJypYrV05atGgRPLp27SqPPPKInHvuucE08gsUKBCsd/vtt8vll18evO/YsaPcf//9wXvvxY033ij33XefMDB46dprr5Urr7zSmyRn6Pf+mWeekYIFC8pjjz0mgPizzz4rfD/vvfde6dSpU5Ly7ibzcCAuAH6BAuBdbRsZLpyTUELuaNNICuY6oTevUryQNEkoKVc2rqmuauPShZCfAIPIza3qS5mCeULmk1irZGG5qWW9YP7d7c6WzrUDgH5327Pl6ia1gnmRLnreeqm8POBJuf/V2+Wlz5+QB167Q7IRGcNRijlQvnx5GTJkiLRs2TJZXcDpq6++koceeihZ3skkVK9eXQBQS40bNxYk4rFjx5okgBxpGaBH2u3evbvUrFkzCMjUBbQBbMqSt3XrVgPeDAznnXeeyStSpIgB0sqVK0vx4sVl/fr1kpCQYJ5Rt25dU6dixYpiD6RraPDgwZInTx554oknTH2TGObP3+rMaPHixdKsWTNTgmfPmzdPjh07ZmYP8Peyyy4zR9myZcO04pIzIgeSDt/p1MM3Rk6TGiUKy4uXnJtOTww85tCRo3L/17/Jup3x3016VJ/1y4ARMn3Mn1KjYVW54vZu0vHydvLT58PT9Z1Ph4fdeuutsnfvXpkwYUKy17n00ksla9as8tFHHwXBM1mhNEi44IIL5M8//5SePXsaFUWNGjVMq4B0rly5hAVUrkeNGiXTp083eagqxo0bZwYCrqkPAeCAOfcbNmww/Ub6pkzr1q0F6f7NN9800j0SNlI1RPobb7wh69atM2qP559/Xho1amSA2BQI86d27dpmAMmZM6eRxhs0aGDq/PXXX+ZdUJnUqVPHXM+cOTNMKy45I3LglAB4JEZUKVZQHu3UTArmzCEHFQQ/mjhbRi1aZaoUzZtLnu/aWorlySUbdu+Vo6rzHLlghfw0Z1mkJk3ekxe1ENqGnvhhvKzctstc8+fac2pJ13pV5W/9t2r7ifRggQgX/Bj79OkjS5cuNdNTW/Tbj36ylzJj7Cy56OqOUrtxDQfgQa7EdoHeGGn4888/D1mhW7dusmjRItm+fXsQwJFWr7/+eiOhUmnJkiXy/vvvyz333GOkXHTXACcS74EDB+Q///mPqX/FFVcIkjYSK+1ZatiwoVE/7N+/X0qVKiUAH9L4/PnzzcBx2223GUD97LPPbBVzRlXRrl07QS+NZIsKA0JyBky5Rye+c+dO3SB3XF544QUjEaOSue6668xz3nvvPVOHP6+99pq5RtqvX7++ue7fv788/PDDwbYZzKCXX37ZnOkrg9uvv/4qnTt3Ft6dWcvkyZOlQoUK5nrgwIFyxx13mIFh+fLlpp77kzk4EBf9xYSla+SrPxYaDsxeu0W+mblIdh84FJUjZ2iJZ7q0kuP6A3p1xBRZtnWnUb8A3BCqjbyqv37rt+myYdc+KVsgnxTwqGZMoTB/+k+cI2+MmCZ5WBgixFAiUb9bg2oyTvvcb/wsKV8ooO+2+V/OWChj/1pjbgdOny8/z1lqs8yZRSB+zABNOMpfKK/kzpdLVi0OtBOunEtPzoFbbrlFjhw5It9//32yTNQTgKEX5AAoABX97g8//GCA3y7QsdiItDl79mwDxMOGDTOLhM2bNzefX5MmTYyqgXTv54mqAdM6ABnz2tKlS8uWLVuMVPvqq68K6o969eoJ16gjIECSQR1QBqRXrVplpHMkdGYTU6dONXnLloUWPmifflrQt20yuCC5//777waMeX/A+eeffzYHkj117T3l2rRpI5dccol8+umnpm8ffPCBVKtWzUjvtNe0aVPzvpEWWE1F9yfDcSAuEviCDduEA1q9fbcMmLYgphcvr4uFOXXB739j/pDJy9fLnHVb5IveXaRVpTLy3awlUrtUURk2b5mMU0CdvnKDDLzx4pjapdCaHXtky94Dycq30IXJY8f/lv+OnmHy6pctLs0SSgXLDVYAtxRK0kcKQ5oJ90Pkh3z70zfKEXXp+M2HP9qm3DkGDqCaAFQBI4DGT6gW1qxZY8DR5p1zzjkGvL/44gsjmZM+a9Ysm23KAoBIsKNHjzY6aRYSeQ7P6NevnykLwFWqVMlcA6QrV640+makVQZsJOvDhw/L0KFD5aKLLjIDA+CMZA/R902bNplr+kh7qGEsAbJeQreNesTShx9+KA888IB5DoMAxHeJwQgpmYM+QPTPEuoSynjVTejoGUCKFi1q+kRdVDRI+vAGNQzWLqtXr7bNuHMm4UBcADy1714sUdJeuCkwfd136IgcOnpMiqr0mitbVgPuSxLzDqh6hbyTpdqli8mOAydMJZdu3p4EwKO1z/SdIxzd8ngvKaSqm//+u58c1vdxFDsHUIMARoCxnwAqFgCffvrpJFnFihUzQBzuM8FED4neDghI16gdkKJRkVhC4rYATtrNN99sQBrVBuBr61srEACYa0AWQm2CGgb9PYC/Y8cOk27/oJYBMC1o0t4rr7xiZhSoMyBmFrwfAwSDGETfU0oVVFXSo0eP4GInz4GvWMUwKwHIuWfG4ChzcSAuKpRYWHBYfzhQdpW4LW3fFwDSCmqGCGE1kl2PnfsPyv7DATCvnKjHJp3jZAnAzpfjhFlhmcRnx9ouOlFW8O0Kv7feVXd0l0q1Ksgnrw+SNcvWebPcdRQOAIhYSzC7wdrDTzfddJMBSK90TRlAExDFjC8UWeD15wHY3h3G6MctYRWCmSD9YMb19ddfmyw++6uvvtpYovA8rm092mJRErBHrYLOGwsTDixX0Imjf7dEv1BhoAKxhM35N998k+S7FQrAGbQi0dy5c4MDwNtvvy0LFy4M8hQbc57DwqijzMeBUwbgy7fsNKqLHg2rSV4F0Cz6g0Xdgjqj59k1jG77uqa1DUdnrNpozgs2bpWOaqJYp1QRub1NwzTh9sRl6yWb6ksvqJUgZQvmlaYVTqhPYnkAwH3NNdeYRTNv+Quvai8NW9eTKSNnyL49+6VCtXJSstwJUPCWddfJOYA9NHpsq9LwlsDiA1AcMGCAN9lcY0UBGGILDegCpLHYOU+bNs08j0Vp2vZK3ytWrDAL1M8995xRTaAOgRYsWGCkWCRX1BhItEjUSOKoULj+9ttvzQIqswUIaZjBCX25V43CoIPZYK1atUw5+wdd+ZNPPmluKeOdJZDYtm1bueuuu2zxkGf0/la1gr6b648//tiU5fuLHh29Pus5jjIXB06Iv+ncbzSaX0ybJ1ecXVMuqlNZPp4021iT9B0zQ7C37n9dZ9OjofOXyTIFe+ijCXPkhUtay7MXt5Zt+w8IUvyRo8dNXqQ/WJ+82q1tsMhLl7Qx1++MnSkjF66UWWs3yy2tGpi0XQcPSc5gyegXVqKzZ1ujfvM65rJZh8bCAR3QGcYTN7xort2fyBzAJA9b5VC7EFFLAGS//fZbskaw6MBmnPrWNhyploVJS97PimvUB0jGSOHoqTm8uxGrVKlibLmRmlkkRbdNm4AeFiFI3ahiuAbsAUTqI1GjPmEhEhUKi6UQ74Xe3Q/g1kTR9tOeaRuzRfpqd2kyCNAXBrN3333XFg17/umnn4QFYavrB7iZFTB7HDlypFFHsTEI9YqjzMOBM/QLkHx1SPvPl3jMmDFJvsjp9VpZzjxDSuXPI5tVcg2l50Zax5KEBc57vhol69WuO9yOTkwNsWqJRvlzqXmV/kNd4+jUcgApGLvoO++804CqtzcAH6ZzgwYNMht4vHmYD3oJgEXlkBLrCsAWSddrRnj++ecbAAV4Z8yYYTbusBMSKd0uWtrnYrKISgPQRQ+OCSR9YHAYMWKEkfIBcnTu6N4ZWLAbZ8ESXTSgjG07G3UgpOXevXuba6R8r6kiPMK80rttnsGNAck7c2Eww76chXZ06fSLNGYJqFPgJYSZJQPjo48+au7dn4zPgQwJ4OHYdqHuiGxfM8GYFzYqV8IU6/XJLzLghi5mkTNUvVGLVqpVy8xQWS4tg3KAqTwHUrGfkGhRjaCe8ErSlPMDuL9uWt6jEgEovUBv22cAAIgZbJDEmRWEIoAewMSsMBKhBkLyttJ3pLIMWpBXp019eOVfS2Cm4H02Uj1SOTpzR5mDA5kKwEvkyyMX1a0khXLnkEm6KMiBdF0oT07Jql++ULT30GHBmsXR6c+B9ATw05mbbjNP5vl0o+rAGb0zCu1UW+ovZiwOdiebSjnQ/qOoSMKYFJ6RRReyTt5axTzI/cnQHECCdHTyHMhIv/mTf5vTuwX3jT+9P1/3do4DjgOnMQciSuDelfjTmAfu1U4TDriNKKfJB+leI2YOOAk8Zla5go4DjgOOAxmLAw7AM9bn4XrjOOA44DgQMwfiAuDRIvLE3LsoBVtXKSsJidFy6pcpJg3KBrYUV9OAEc0rBsypojQh+XJmNxGDOLMjk+hBxfPljlYt0+ZjQ19SbezPCrPgVyh3zmQeHk8mKlGmZZTruONAJuBAXAA8WkSetOLLDS3qSssqgUjkN7euL7eeG9hef2WTmkIknVioog4ARAyqUrSAsJmHa+uNkEHg+1u7mePLm7qaABQAnJe4p8xnvS8KJt/QvK5Ju+e8E324Un2Bf3fLpULINsp/cG2nYPlXurUxaQ3VEyJuAsgHZC19ffMlcm3TpFusbZ49d1HzSurZZ7KxiT6TBuVQnzPPXdxKvta0d67sILTZo1FgSzj5DH6D+3SVj7Rf7IL9KHEnLHmpjUpEXUeOA44D8eNAXAA8ft1N35YVAw09OmSM/N9vM6RUgTzyds/zk+z6bKc+TtgkgZ9yK7mfqTtJoXMrl5XciWHUkHjZ4GHbLKLAX1Lt2nGfW6VowNE/9SgTirR2qORgWpYzAh9ls4TAzOPs8iXMjMIW6KkxSKtrFKRHvh8jl/X7Xp77ZaJsVJ/qELOPJzq3kPkbtsrVH/8kvT8bKos3bbNV3dlxwHEgg3IgohVKvPpMUOF/dTxHapbQeIAKWus1us7dg0cJUuQl9atKPs3fuGefcXDF9SvDpxh/JUivz3VtFYzIk11VHrESO/uITMJuNBuiKta6hGBbtHG7rN+1V97qcZ60Vql/zJI1pnrLymVkxuqNKjkX1UDO5WTQ9IUmHVDfp1uor9LZwAfjT/hrts9cs3O3dKpTUTZpm+v0KFPg5B0J4RvmmO4OrKVS/AW6a5VnEPQCaqJ+z4k2tGRzwK3pzDWbbFcEh2LQq8pnXBccUM+Pr/06xQwm0Z0QBJtxF44DjgPpzIG4SODRIvI8eVFzQU89eMYCefDb0bJKw5sB5AU0jBoSKRF3kE7nr99iQKh7IsD0aVlXI+pklTdHTTPBGVALWPp6xiL5MhE8h85dpkEk5tssc2aTB9uw2T7spdU795iIQas14MOeg4fN9Z8ecPOWJQwbwFyxSEBixt1tuYL5ZLLuCEV6bak6eS99pX3qWKOicYvrTed69MJVOhCUlfPVNcBvut0/rWji8nXGOVjdUsXk98RQdLQ9aan6t9Z+E1qusUrnXnk+oUgBdQ520ID3Gfp+hpgJ6DXlokUlClRwfx0HHAfSmwMnEDANnxwpIg+gW6VoIRmiEXa+mRnYVfnq8KnBp2/dd0DGK9jcd15jmaBnJNtGFQJ+T4jIM1Qj8pD/x+pNxgeKrfj7ktX2Uqat3BC8thfYtONb2uuDmbztGqXHGzHIe23res+Hjx2XgrqVH0JXjspjyor1RjVyl3pRZACyRF+v0Xib3RtUtUnB83R1kXu15uXPoeoLBfPrmwa8FwYLpPLiV33mG5edZ4JU4OTL0tfK65w6+F1Qs6I0KFNc8Lr4mvKdgSe/qlD2qcsBwLpGycJyZ+L6wXvqQ2auRkWKFpXIPsOdHQccB9KXA3GRwCO9QslECw/r49tfFhWApSM6nUctgP4YXTLguDRRBWADPNiy0c6oTnCV+d///jda0Yj52bKcKdt1kIHaVCtvAivjv7ya6pchVCqW8G3+k8bQJGAy1h9ewocLsTbn6CwDfy2WjlkJ2CYknmPxqEjR5Vt3yVqdVQyfvzxJC4eVlx9OmG3038/+MsFI17fpwi+0S+OV5lZVFURQDXzMMAMqrD5mzMhkctwfxwHHgYzGgaSokg69s3EpkfRCURj8Mg6pAPMyGnQBwuQvJRF5CA6A72PCU6WW8CuOxG0Hkdqqa96n+uL6asGBSgjXtedWLZekeWYZDECtfOoVCvX9/Q956sfxScrv3B+IPsNAYcm4uY0hKLQtf9fgkar2WGRvk51n6exlmAJ8aeUlKpMVGjy6cK4cRtWzafc+GTBlnkk3FTU/qFZJ1lIggQDAuCdt2bJlmBIu2XHAcSAeHDiBEvFoPUSbSJuoSS6qW9kstmHuxuJlOLtkbxN/qfSNO1mi1F9zTk1vVtRrdN9EzsGPc0qJEG/YQqM/3quBbFHt1CpZxPT5haGT5N6vfjPHrwtWSPXiSQemgxq787fFK6WQAmQstHXvfqNnv1D5g9SOnpz1gZUKsidDvTXARJuqGpBABzLs9M+vkSAbFKyRsL/9IwD2D3U4R3KqJF40Ty75W9PRhnOGAn/NZbI/derUMT6rCXPmyHHAcSD9OHBCYZt+z5Rnf56g1iSt5XmNrAMhWQ+fv9IAl+2Gah/kuL1JPA+YOl9tmVtLv6svMHWQeGMlFh9TSrYKEYDo49ItO+S1EdMMsJ2rFic8n0HF0njVw19Uu1JA9WAT9YxevX31CkZ69yQnu6SPWIF8phIw4eSoA03Shcm567ea62h/DNDS8UTgpTxprD3c066xHpqn/zfqQMEMAK6gQnlx2CR5qGNTXVcIzFCIeLRQLW9iIYIgQP5wX7HUdWUcBxwHUs+BiP7Af/3119S3HEPNAiqV5taFtQ1qRherjhdpFL/gKakTQ1cyXBFURCXy55atusiKvh9ilhIu8hARYAwPEyVn7wsZFYimZ6XNfLlkm7a5T2cGlizoI22Tf0jzdhwI6OW9eba8/0ysSKTwF198UYgt6chxwHEgfThwSiRw+2qEL0tpCDMWBtfpIt3pTkj8BHn20qe9Lgwbeei3hSuk79g/vcWD11YNYtpUc8kzfRI6UrgBaj1v3L3fXHv13rZ+sEHfRYUKFUxoMQfePsa4W8eBOHPglAJ4nN/ttGv+Lo3/mU1nIIAtoBuw0g685j41C7QgjP22oRDSOOkGsLVMOGA2tbVurJTSjVGxtuvKOQ44DkTmgAPwyPzJULk7VPVhwBlwTQRpC8IGbj3AbTqu91jNJMJ58F2og4RNHQvmwUx34TjgOJBpOJDuViiZhjMZsaMAdCIgB4E7EbQNEGufSeeawyxkJuYD1kZ1QrqSqa95Ns22F8h1fx0HHAcyAwecBJ7BPyUrJYfqJqDr1VUf1/twZEDdl2/BPlwdl+444DiQsTngJPAM8vkAvV4wDnYrUYIO3oe4sLCdrA3q+kA7RHWX5DjgOJBJOeAAPAN8cEHgTpSoLSDTtSSqDcDYD+ieNKM20TqoRUybmmfTMsBrZpgu5MqVK0lfiMJeqVKlJGnRbkqUKCGpid7OjmA/0VZqiPWNMmVOuG5ITRvpVSd79uwhH5U/f/6Q6S4xNg5kyZcv39OhilauXFlSGySWnX6NypWQFeq9DxewzdSV6Vp1rIQJ4MkQUXdKqm30Rt1ByNZ1jjVqFpcZqHHjxlKjenVZuXx5EqnYgrUFan6UwYXKEC9GecqUKlVK2rdvL4sWBtzXBiVtQJs2ONKY8uhnWURdIOzbE9gt6m2ePFZFj6mzr4xM7Mj94osvZP78+bJ582bT1bJly8obb7whw4YNM+6Gvf3v37+/FClSRP78M6mJ5vvvvy87d+6UZcuWBYsDpu3atZPq+jlzbN26NcnmpgYNGsh//vMf+frrr4N19Pcn/fr1k927d8uqVavkpZdeMp8rn609ihcvLnPnzjWfebNmzcxgw4CD7f1jjz0mDAolS5YMpnO9evXq4DPidYGHz3feecfwcf369dK3b18pVqyYzJo1K8kjGTAHDRok8+bNky1btiTJ+/LLL2Xw4MFJ0txN7ByIiw6ciDyd9Bi9eJWck1BCbmhez+wkxM+GJbZtT1UvfuPUoVOsRNQdtpff8sWvQtQdtq2zSzEz0CUXXyxF9cs9evToiNIxQxzQe0Pv3lJQfYwALEkIYFYJu/HZZxu/5t9/+22ag/XVV19t/MZwZndlQY1WdPcLN0vexChBh9UdwmPXPW+6lVvdGjzw2h2SL9FHzaJZS+XDlz5L0uV43jCYAQLTp0+X1157Ldmj3nzzTWGnaG/lJ3TLLbfInj17DJgAKjlzqsOuRPrss0C/2RTVvXt3k/ryyy8LG5WQkl944QVbNOS5devW0q1bNwOe5cuXl8PqdoHP2xLujOkvkjt5Z511ltSqVUs++eQTwQ3BH3/8kWwjVJMmTYTBf8CAAdKhQwfp3LlzEJzxcY+QRRnAFIdtSLoA+IQJE+xjU3UupR5Au/e5WMpVLi1bN26TV+5N7gTukUceMe6ZZ86caZ7x1VdfyX333Se//PJLEqC+7rrrzHs/88wzptyjjz4q27ZtC/YLXzrQvn37kg2gwULuIiQH4gLgIZ/kS6xTuqjZTelLPi1vAWRD+uM1AJ0IwmGlZM2vojOgQir5QVbFYhcdAYHRv/0mSxarO97ENk3BNPrTpUsXmT17dlB6vPWJXupLPav0ffJD2aiOsGrr4Gnp6rt7SG7dvfn6g32lvYaGq9e8tpx9bn2ZMTapFGbLp/X50ksvlaxZs5pgHf62Ad2KFSvKe++9Z7KQBHG49X//938GlD///HMDJP/6178MwD/wwAPG5bB3B/Ji5fHNN98sCQkJ/uZD3m/atEnuv/9+QXI/55xzkgQPQVKmr+R9+OGHBogp26NHD525HDOSPjMDSzy7QIECRtImbdGiRVK3bl1Tlvfavn27aYfZMn5+AEA+t5UrV9omUn2++/mb5ZD6xz+iu4AZHPzE4N6oUSO55557TH/IHzdunFxyySVmICV9165dBrjPO+88GTlypNgB8mIVZnAsx6wDeuutt8xAMGLECGFm4yh2DqQ7gN/Uqp60q1re+Oa4RN2sXqi+Q3bqJpTbBgw3vS6tkWkeaN9YKhQK6Mama7Sbl4ZNjumNkFD69OljpBKmlqGIHxFSEpIMkhs/Vq579uwp6OP4If3www/BLxs/3Mcff1yQEo6r7xO+iBYQXn31VRWG/zZ6SMBhwYIF8sQTT5hySEJMh6l/RKWt/frjOnw0sH3dStkAO9f8PDhDvAPSmHHupT8cO92+9957Zd26wGxjoEqOgPgRjfjj3UQzcOBAk46Eh2Rm1WAPPfSQafuOO+6Qtm3bGslvx44dpq9r1641efYPvKC+fcf8hfJKYYJvvPOdrFm6zvBnhmfHZ8Ua5WXpvJWycc1mKVwiIEk1a99EFs9cJh988IGMHTvWSI/2x2qfk1ZnPkuADTDz02233Sb4gbeADEBDSNeoO+gfUvvQoUMNMPL5wnt2lNIeny+DAN8JQJzviyU+X6R56xyNwcBP+J9/6qmngsmoUJA+r7zySpNWpUqVYN6FF15o1A98phDfJyRXL02ZMkUYsPge4BaZ79bzzz9vwHvUqFHSokULYfD99NNPvdVSdd3vhc9k+cKV8vB/7k4C4IA5knTNmjXl6aefFv/3h98dgAxveXdmA8w0ateuLcxm+L1MmjTJqIv4Tg8ZMkSuv/56k5eqjv7DK8UFwInIs0dBGZq9douJcrM70R3qtzOXyGiNFINTqumrNsiPs/9SYDsW/BgIVIxvaiL1ZGeKqS5bLRF1B+CCiLrzhwZF8BJTSqapdkrmzePLDtjVq1fPfCGRbqyuji8QgPfss88aPaJdcOHLCggz3X377bfNl/aCCy6Qn3/+2XxxkY7Q+Q1TANir03IkKX6kTIWRMngmg0F+1XO2bdNGNqtONEi8h36Z9YUCUrleI2Hzo0efeKsCRh6t9/rrr5sqVl/LDcDCjxXJxkuoA1AlMH1HQuNHBPCUK1fOTLPRqf6mkjv6VIAH6Y/DS5dffrksVz39xo0B3pbRwM5Q8w5N5Irbu8lB/RwnqUOvoQNHmvSz1EnW+pXrpa4GXS6dUFJ265pEPo0diuqFqTU6YQalFStWGF1nWm63P/fcc43kZgcb06HEP3wXkFa/+eabYDI8RMJFbTFmzBgD5HzWuBju2LGjkQgZaFCZMNgB/Oi/AdyjOvh6gbFXr14G6Bm0oRkzZsj5558vpUtrIOzvvw9+TwGt7777LplqJNgpzwW64G9RiSnZsyfbXNKfqlWrCu8O8R1FvWIJAcUfdcrmpeQMeIcins0Bb6644gpz+MsxoKK3Z1bw73//2ww4N9xwg/leol5xlHYciAuAR4rIQzAEDjz5bdHFsGVbdiZ5m4IaGR46oothy7duU494J3Rl0aLu8OMEAL0LS/xAWWgpXLiwIHUi0fKDApQhfgBWN8mUj2mcJXSPSKP8SFnoQnfKD5kftNG36jvsVEmtH9M+Bd+uKh01bdrUADjTZwAD/SbUTO+9hMQdGIoUx7UuahLuecZ8BVjOWbXvLPz4iQU1+hOKmMbybN4byRKJEimyU6dO5p0BKACeBTOAjPdDSoXQpTIoMWhZKlA4MBMqqouXA/77tTRoXlfaaVzSiRoz84AGf4AOHzoiPW+7VCYOnyYV1GUtOnOkVgYaCBBHckQ6IyISA+VCu/hqSqTuDwPymjVrzLv4W2CAog/eBTKm50ioANC7775reMQgAygCmOjLmW0BxBD6a1QefN5IjvDTEiqEOXPmJPm+kMciHU69eEeIhU5mArEMXAwkfH8ggDgcEdsVIQK9PnWsagLJlnewQk64+ieTDjgDzAgPSNcANQvqdpGXewQGPhvbDwQLBALy+D4j5CCVWwsUztw7SjkHkiu3Ut5GmtYgADAeB//bs70M7tNVVSwVY26fLxdRd7xSFz8EQIkfIKCFdGzBm4aZNjM15keNXhILBYAbqlChgjnzxQPcONBx7t2bGKpMgXf9hg0GgAFkgBCrAogpulV5cL+Z1Xd9VjgyliPax5PdGQlA8n6AlyXAHKmMH5R9Dxb2kPRtfykLIPB+zE4s7VFPkdD4oVPkz4lz5dM3Bxteturc3AA3eW26tJCjR47KkP6/6KCTVQ6r7tRLAN1ff/1lVD4MGPaH6y2T0mum5AAvYOYnBuRWrVoZKdvLBz5HJEHeET00IAyYoMuFN8xamDn8+OOP/iZjvof3zDYY6KH//e9/5vvHLCQaobahLgff10gEQALe8JXZGJ9depkUouZBAmeQYjEScOaaAxWjfXf7DqiNWHvgd8g1AgV9tTMazqj7HKWcA6ds2MP1aaggDkjcfT4bZkJ63dG2odzYop6M1JiReNKLRkgCzZs3N8CJJA7xg0S1geSFWgPJGen2999/N9IZ+UhpHEiuLL7cfvvt5gdh1QgAOxKGdzHR9uXvRFA2eXptpWoksaJFi9piUlBnAAdUD06+kb5D/EDtIiWV+PJbCSbYyElcAOy0iWogFKGPRaJiAPTSZo2JCR08EJC2GfCgHBrLEwK4s2tMzY+f7W/uC6gJKfpw+g7AoNvlB8vzmd1g+REcAE2N1P1hZgHgWTWYtxWAmZnVxx9/7E02nyv9Z6BFZw3YYFkCCFmwoQJ9997bRlCPeAdlmx7pzHeNdQAk659++ilSUaMbtqoTv3rMW5HBF1Ue33EGH56xZMmSoBTsLcs14MkMFMsUr/WHv1xK7xGOmMV5BzwEAn5TXmJ9iYOZGOsG9IeZCTNjdOAsfFrhwVvPXUfnwCmTwInw3lh1pvgE9/q4vqBWguRTQNi4e68sUjAnRmSsvsKxkWV6h07bS/xo0UUzrcbMCakFYOELxWLRVVddZdQogAFqFsyxIPTJSHAsjCao2oEvLKCE1GZIf+iQAW+uOQBePZD0GVD4gfFjRCerqGLyY5GymU3wowNYAaOTJXS0/PAJfcZ7AEb8aCwBiKhX7MBn0wHjQ6r3bn1hc6Ma6Xzl+Qbgxvw80RRZvnC1Abs9auff9LyzDZhPHjXDvC/SLj9mQBI1BDr5tABvpDfUQF7dr+0v4Au4wX8/kDB4Y/2Azrx+/frms0xISDCWG7Y+ZwYxL4DSJqoJeBSN4CsgDK8tYfViVSo2LdQZqRpA4+AzCkd8R+kj3ylmNKz5MEhWq1YtZBW+v3zWrAnESixeV9CgJdmyZ5Os2bKaa2sqattANQQxKFvis4m2YM3vCvD2EjMir4rKm+euw3PglEnghPEi+nn/6zqbKDRXfPiD6WWXelXkllYNDCgcUeAdpNFsYo28Y6Umew712kxP+TGh27QHEjqLdxDSGT9WCABg4wVSOSvrAPDfCuh9dVpsyTxLf+Bmwqtn5FNgnR8hi4ZYpUBWz+yVsk1GmD8s9iCpoEcGQOgDKqA777wzqKOlKs+BAEtL/vfnHp0vukl+yBa4rSqBhVhUSKHUEbQ5sO+3cv39V8i/+94vx3VtYs7k+cY2mLxBb38jD755p/zrzbu4lWULVqoJoc5WtM9YUSAdpjXdeuut5rNhQdZPzLJQGYUyR2vTpo2RBFEnsdGFzTbwBgmZ/kIAIjMn2oDgGYRk+fTTT5vrSH/YvAO4ou+3FiX28/DOyPxtYJHhB22+M6h9bH1bh0EHsIe3LJgikLCgaE0qbTl7tu/i30Rj80Odu994sdQ8+8SAcOezfWT+9EXS//WBRqDg+4jdO/sUrEoS1RWbi5jZ+InBBtUZ6hIMBlgodnTyHDilEXnCdd9G6kmPwA38bDn4oWLmh144FCFZAPirFUSPK4gbnXWogpqGBG7zkRT54VhpEKDgix6OrPQfLv9k0wGoChUqmAAMLNpCTz75pJkKM82NRGzu2Lh6s1k38JcrqtZC+3VRml2a8ST0qEhrSH1sHPETqpENui6BbbefkL7hPYNew4YNzaDIgMhABtEu7QNId999t0m3MxVmEV4gRfoHjLyL3gA0enn/Ai2LmkjHzKQQIKzlD7Mr8hAgQhEL4PSHRXe7UMkgy2dov0/+ejwfYYPFbIiBh7oMLEjiaUGAL++DoINpIypG+skAhC06krl/4MaUld8YaiQA3vKSzwIViqPUcSBDAnjqXiX2WkbWUpANEtKXB3SD6WEuUIF4Pf95Adu2bQHc3wSSPiqbcHQqvswAD6qiULbU4fp5qtIBYHT1SNAWBLx9YaDlPcIBnLcs4BZtuu8t771GjYa5pR0EvXn+ayR+VHXw2KuDBohr1KgRVnfNzIgB3fsMFm9593D9RjWEhGtVVaiTmLEAuqiV0oJQ2TA7sDxG1YelCZ9HStcIWGweP358WnTrH9nGPxfA9eO2EB4NdP3fDKvz9tenHdLCgTft8ENGSgpH6eHDItyzXbrjgONA5uLAKdOBpyeb/ABtgTdSH2wdU0Yl9CR1EiV2VZyabJPnLxOmcaQWB9JhmOOSHQccB1LEgZM3b0jR49K/sJGWeawCLNcByA3Rj0QwNkX5o2WpgzSdBLzJIt+R44DjgOPAKebAaQ3gFqwBXAO6gDTA7CdfmikfAri91SKpSbzl3LXjgOOA40C8OHBaA7ifaRa6LbB7822eN81dOw44DjgOZGQOZEoAN6qQSOqQSBwPJ4VHquPy/tEcYOH5ZAhrEuygY20HU1PM8qIRViwJahMOYeIaC3nLcZ0Wbg1iea4rEx8OxGURk4g8lYsWNAEdiMhTt3QRGbd0bRKvg6l5HSM5J+qmTX3vdYgGkaoZobzSNdd+CZx7bxm9zbBEVCLGoD91hyQRiQrnzplpglqcaqZi041JXSRii7c3iAYmctg5s9Emd+7cZiu4vz42znYziz+PezYA4TQLnyW4X8XNqnVJEKo8rlrZbGaDSnjLMBjgbIxdxTjdwiSVgw1fbBzC14j1/8Iu4LvuuksefvhhY9OO2SS27pgUsusYlwO4F/bvXPY+z11nbA7EBcBjiciTKrYoYHt1zwBvNPA1gO2r5382baYmQhDt1NENLFdogIN/DxnnbzYu96mNSsQmkg492kqrzs0ke45s8s7THxt/z3HpZDo2irQaa0QebJfZzRqOAEf84XgJvzjYblMPaXX48OHBbDY+wVe745KMNm3amB2ewUJ6wbZ67MbxxIfd84MPPmi28wOk2K1b4jm4/41E7DS14I/NN94YIXb84iOc8Gxs2MEmG7tvHJPhUIvNWpRl4w3uJOgDHirxasjMwNp0R3q2y8t4HIgLgKfFawLMQUsQ2yCip4+8knOwTmIZY0Gidaz1iQVzXxNG+k5thKCiOsOoVqywv8kMd39Bz3bSVt3A4pyquErxZ56ZnJcZrtMxdMhuHw/lBgD/IN6IPAAkG2PwxYGvGT8BsoCiJSRWdmyyWxLJlk0qdkckOzgBdLaUezcU4WMHqZ3t7ZYAXKR3NiFNnTrV7FjEfSq+sjmz45L2IJyqsaORw7rCZYBg6zyEUyzy6A/b1tnxyDXExiK8+rHT084ikNbx30PfmX0g3UP4pWG2gT8gNhrhasFR5uPAKQFw1CvPXtxKBk9fIFc2rqmBG7LI97OXyOdT5hsvhP/u1FRKaVAAfKH88OdfMnDGQsPZp7q0NGXLq4omh36JZ63dLC9qtJ6jKm3gAOsplS4TiqgvakXqMUtWyztjZhpwBsgvq1/VBFder+5Rm1Uqa9p7cdgkaaTbwyNFCAr3kebUQAYfqR+XrFnONO5vB6nvCOijibNllAas+N9VHWSCxvscND3Q96IaO/L/Lj9fnvl5gnHO9WyXVrJo03app6HlDmpAi1eHTzHvQxsl8+WRx/RdSucP8GDIrCXBdsiPROhaATOAyv7oKT9j3GwZ9/NkKVKqsODX4nShlETk4Z2RkNnuHQrA/TxBNQL44meEgQB1BK4RkF4ZHFCbIM3i98QrweI+Fx86lgBqdioCpvgbx3uff9cruy0BYz4zHGkhRXPNLlkkaEv4/EZiRqrHxwn3VmVCGZyW2RkBvl7YNcnARfvGh72WYSMZAN6rVy+qOMrEHIgLgEeKyAOvsmfNIjn1uPLsGvLz3KWyYusuKZQ74JXwlW7nyoEjR+UlDRhQrURh6dGouvymwZE3qY+NInlyKqjlNRF+DmqZq5vUkhaVy8g4Bev7zmssZTQM23vqT7yMBtjtUqeyLFGAHLlwpfl48mn7FYsVkvzaRr8Jswzw4uUwWoQgUznEH57/xI/jpGlCKeneoJo8rtfQpt0BXyB4UrxI+2ABvEvdysbrIn2qrWqXHDoA0M/XRk6Vq/Q97j2/sfT65BdT5pXubRJ5MNnw4PJGNeS3Ratl8559Ei0qEVN6JD3vYhX9sm5hi0jGny3Q31gopRF5bJuoPlBF+MnPMzZcAeBsX0eHDZCjxwag0SsjPeNpELe1hGuz28jximklXfy14AuHSFCA8dkajDqUF0XbF8CXhUm2wnNt1SU237rIZXAh3x/wgz5b6R8dN/5WWOzknW2gDu5RPVmnbfjvDuU7xj7TnTMuB+IC4JEi8sCKgKpD5MuZi1TCXmK4g5RM+LS8qp/9Q+NgEhtzrwYGOKT+I7rWryL9FJihbfsPyAD1UAi1qVZemiiAjlcABxSJUD9iwQqT17pKWc0vFwRwk6h/Hh8y3riqtfecI0UI8pbzXqOOIZpQeR00juuNP7LQdxo6Dsm+pkaygR9ttS/jNdQc9Sz1nzhHJi9fL7v1PZ/XEHN51HVn+cL5JK+eZ2i4uSAPVELvWr+yEOwiWlQi9Ly4hMX/9ulOSKgpichj+YHvbD/w2Tyv3xGkVFQM+LzGQRS+5vGAaKPPUAedNWoUXLxCDKA4jkJNQxAHvAni3Ip28M4IMOPQKhIh5VvddqhINYAvunryrGdJ2kNNw+Bi43BaT5h4LETNY3cAM4gwC7H3/kEiUt9cXsbiQFwAPNorGgDXP1imANzWLLCsSqTAe2k9c0BrtuvU0hPhZe22PUFvf/gUr0EgXW2D4BBIt5bWamxGpHovIdnjZzw9CE+KG1VivkRVN8eOL5Y8KhV/lzhY2ecv2hzo71+bAz/+uqpOyZcz4KkQ6ZwDWr1jlxnMbL1IZ1Qn/qAMkcpn1jwbkefpp59O9grMQFgsJGiHV71gCwLAePiLRqgaCICBRIv0itrF+sD21iXdqlBQYdlAzuir+Tyw+EDqZQCw7n+99e014A+YAvrWJSuzAj/AomdHD44EPmzYMCPRo49Hl+4NrmDb5Yy6B7UO78TMhRkFswSsa2zfveXddebgQNwBPCBtq9ypIOuVPmHP3gOB0FsWxDcnuiL9aMIcWaxgbOuSb6lY/oBNLqBfKl8uWbdjr/HBfUzFYMwXLZXIn9tI1vae88HEMFfeNHsdLkKQzQ9/1jBoJ7qXpNhQVQ9d37SuSdu8d79sSAxPZguVV4DevveABAYukb+27AheWx7YsrGe+WGzsIckjoXB6UqpicgTKy/QOeM+Fh/rgCrgCAjDT6K/Q1iQAMZYeqBjtsTCp7V0QUfNQiG6bQ7AmJB9FqipY23DCX4McBP4Ahtw6zmQwci7SMpAgGpkzJgxJjg1enmkabxY4grZ1rP98Z4TVDXDe+E+F3143759jdUKrnP9OnlvPXedcTlwZjy7BsgaAoDtdYQHzl+31QRvuLFlXSmhC3lZtForVYVg72yphFp9NCxfQmqWKqrqhoIyZcV6k7Vm525pXqm0AfHmGkm9cK6c8ufqgJ9nWzfSOVyEoEh1yJu7fqvRJ7ZSXXwWH5IP1+AGJDUuX1KGzV2WrKnLdQ0A3+cs5DI7IMjzfG2PABZBHmgDtO3lQbKGPAlYFBCVCDthP5VXXpauUNIk49ub+8xImN6lJiJPrO9KJCVAER0xi6SoIgBfnolZHgeSPYDJNSoTCMDm4DNAJw4QI7137tzZbORB1wwYo45po4upb7/9tgwcONCoVVauXGlM/VALIS2j5oEAeO8sAqCnL1iNEHSZRUwWIxlkrOrEVEz8g94dlQs28LwPqh4WYRngrd9u9PiOMicH4iaBG/D2SN0IqRxAuoF1/ZMkVJqWJaACliEPd2wm76oVB6CPRcmrwycbtQn3+3Ta+HjnFobb6MPHqqUH9Nao6fLypW2MpQf3K7btNAuUXMdC4SIERasL6M5et1nuP7+J3K+FP50yV4bMCpiQHVbd9Zz1W6SuDja/Jurmve0Vz5fbRCQi7UO1XoEOaZ0kPNA0ZhevKA9iIa+05i9/1/M3BZMuvq6TuX6w55PBtMxykdqIPLwf6gJUGfjMDsUr8lBZoAvHlzYADggSHxUzPRvwmpkOC4QAPTR37lwjPXOPBM4GGUAWW+uOHTuakH6oPlgsZABCDw54L1u2TDZv3mzaIB2wRwVm+8ZmHaviIJ4kgwhmjTwbG3UGGwYRbNjR2aMeIhoRUjYDCH1gPQSzQgIRs4BqfYWjgsF8ER2/o8zJgbj5AwesIQPWek52j0TuA3gA2qpLiqm1SDY10duwa59RkdBO3yvbm8XC9zRkV/6cOULqs5Hc9+sXc7fGcTxZyqY/0nB0RCUw+27hypD+/jUXaD/3yVM/jg8WY/PPs7poeVm/IVIsTy7ZrgMRwO0nTA/R7W/S+kkGO3/Bf9A9oJTaiDywCb00QIhZXyhCSiZqDJuDsK9GtcA1qhDUD5gThiKsUjgITmDttx955BFjRw6gsviJzhmdPW2F2rBDrE6kenZhsrMSkGYwQVJHZYIOGx03EjpSNFI6m3fY3Qnxbqh9GHCQ5NFvc80iK7FQUc8wQ/ATEnpaBnzwt+/u48eBkwJwqyKxoBupm5T1ljOA7gHxUBI77XlB0gI40na8CbvyT6+/MOxjkJKnr9oYNr+FqnN6Nq4hZQvkkwe/HZ3ESsUL4Mf0B+oodg6gE06riDyxPzW2kixgIi1blQfqD6RcjliIDUDoygFodN2oYqx6xl8fad0Ctz+PhUrq0QaWKlbi9pdz95mfA1FVKH6gta9swdveRzpb6dtbBmBm5EfqNvkeaZxyXuC29YbPXyFbdTEwPWiPSvC3Djyxbdr/zB37DvqTktyjPpmnOn02E/lNDDeq2gXbdr91QZIG3E1IDgBudpEwVIFwoBaqbFqnAb5esqoPb1qka+9iKDpqjnAU6T0t6EeqH65dl565OBBRAh+uJkqGEoGWaytFW4naLzkHKiT9G0uZpDXcneOA44DjgONANA5EtUIBsJGGOXslaQvk6LGRoqORkbi1EGDubSdaPZfvOOA44DjgOBCaA0EAN8DqB2LAOZG4CgXTFphtOf+ZeuZIbNsOCP5y7t5xwHHAccBxIGUciKgDt4BtVCCJ7XIdlL4T0yyI2/L+LjjQ9nPE3TsOOA44Dpw8B4wEfkLODkjL/mYNAKNKSZTIveVN2QhqFEA9HLD7n+PuHQcyAwcye4QdjAcwx4xG7BitVKlStGJmW78xSIhaMlAAax1LduMT91jtYGXkKHYOnJDAE8HZ6LPtdah2LFh7ylgJ3BaPV0Qe235KzzjI6lQrYL+L4yrcvVrCXLCJ7uycpiaBBw8fldZVypjdldhex5v40ufX7f871adLKCpQOL/s2r5bP5LkQ2Ae3ZGKRcbhQ8lN1AjYcJZ6O9yX6JrA23akvGj98baTGa9TE5En1Htiy50ZIuwkJCTI888/bw4sZPBgiPtb/MgQ4OGyyy4ztulsCLL+yAFtXDFA+BbHtpzt/5bYMerfro8Pls8//1xGjBhh3ODiQ91L2K6ziQhiI9Lrr79udgsTMah9+/bGNS/1sY3HyRi7S3FdkFIrHu8z/ynXAQD3qEWMvtrz9kZ9okATBGlPWU+xoHROWiwRedIzAk52tYXFNW0FBUS2u3sBvKKm3dGmkewYOlGdRu0x159O1t2UswO7Kb3vmJJrfgiRIuC0797G5AOaR48clXef6S+rEneVVqxRQW7+93UGhAHvXwaMlDE/TTCPz62bex547Q7Jl+joatGspfLhS58Fu3brE72lcu0Ec8/A8MZD78gBHbSgSHmR+mMqZ9A/8C+eEXnatMm8EXbY7cl2e3ZushmIzUts8bdRhfiO4qv8l19+CX66SMBsAlqwIODxE0+KAC2E/T025RbAcYrVunVrIzl36dLFbDxi0MCMETCH2DzEQOAntv4Tyo0ztupcI5kTVIMNTBs2bIjqtdHf5j/xPgDg/jdX0AjqvfUHglSOrsXIgdynAaVnBBxsx5/7ZaL0bl5Hzq1aLg16H72JSBFwkJ47Xt5O5k1bJL8NGSt3PHOj9H7oKnn65ldMw70futJIz32f/FBue7K3XHh1e5k6+g8DxFff3UNyqxOv1x/sK+27tZF6zWvL2efWlxljZ0mz9o0NeH/13hC1Mf9brrj9Urny9m7y8WsDIuZF60/0tz11JeIZkYe3yswRdthmj+SLVIvrAHZ5ArTWPwo+ynEPEMpDIpuK/MTGIO+mIK5xA8B+BlwI4GcFAMcVLi4AcBOwe/fuYDM4ICMdXy7sKiXwCK4LCE4xbdo042sdn+oMyNFc7gYb/YdfBAHcwLICNcS11Xdb0A7kmOyT+nNTq3oRI+BUKVZQHu3UTArqVnmCJtgIN9Ei4HSpW0mualzLBEo4rNvcx6ur2v/9/kea6N+ZeuID44cffojojN/LmEgRcFpd2NQUHfzud1K4eEEjaefJf5YULFJAzsp2luTUQMVDB42SPTv3Sh71qoiU2aJjExn13VipWKO8LJ23UjZqUOPCuNJVata+iQHwpuedLfvVu+G032eaAYK8ynUCqqNIeZH6s2PrTprJsBTPiDz2pTNrhB0GN/yQEzGITUI4s8JbIqAJoUbhu4VTKxuCzb7zM888Yy+DZ3hdrVq14D2SOEfLli2NpI/UbdUngLRfn42vFjMzVT/pSNy4HgDw8eWCaoXNSah38KOO+wFH0TkQBHCKWtA2evBEMI/eRPISkSLyRIqAw8DxjIYaw5fJqyOmyIUa0Qb1xmyN47hV9bmRIuBgpf7ZlHkyf8NWE2i4T8v6slT9bf+quzcj0Wr12/2NBpZAfYLfca7/XJPUiyHSCF/GWBZ+7LMiRcApWqKIHNOdmgf3H5Qb/nW1bFYPhMXUP0rxskUlmwZzgJYtWClX3HapHFG9PFPMoiWLmHR02+tXrpe6TWtJ6YSSslv7nU/Dz0F59bxToxshUZ93SWvZorwooqqjaHmR+pORATzeEXkM4/RPZo2wg1tcVBT4cCEiDwSIDh061FzzBx15KMLHip9w4OXdAcoAUKNGDbNlH+ma4BKoPiCkddZo/ES4ONqxEYDoH2oTS6F8tdg8d07OAQPgQeBOzDf3J6EqiRSRh0XEcBFwyqs+Gkn7f2P+MJFq5ihwf9G7i7SqVEa+07iQkSLg/DhnqYmXebYuSGbTGJtI4RU19qb6JUz+1p4U/HHbCD8ke69tsTHqSIjpIVFW0oJyqh4bfxnnXXquoNP+6OUv5P5Xb1cgzivZdAESKlgkv1GPvPfcJ3IfZzOQAAAVjklEQVTTo9dKLi2XLXtWk8fCZU8F94nDp0mFqmWlYNGARUHWbFnNj6b3v66SLRrSbY7GGEW3jZQVKS9Sf8wDM+ifeEfk4bWRGNHpZtYIO+i/sSSx/lmICmTBnPfD3wqLhn5iodFPgC+xQC0R6YcYnIA3ftJRnVAGQtIHzG1oOdJQn8BPHIbVrVvXqFdQs6Cnt4Rfc0excyCJBB57tfiULKYgBS3UYA7QPgUqvPQVVZ1vNLq+aW3pWq+K7Dx4yPhLyXLGmZJDgTwtCD2iXUVPi/YO6GwCQO3Qo40M6T9UsiT2c7fOBqwEft19PWXx7GWyTGcQZ+jC636tYy1O2nRpYRY+h/T/RR568y45rDMH6MjhI1JKBzDafvGut+Tci1oYCxYWQiPlRepPWrxvPNpIj4g89Pt0iLCDquKzzwIL3YTb84aE84I574s+G4sVIhFBDP5eK6j58+ebdP7gQhe9OtYjADaSPSobCMmaPC9dfvnlMmHCBKPrxpUuOngsg7p372708rjAhSL5uvG2565VwDhVTAgVAWd7ooOoComRdZCks+uxU1UNJyh5BBwsSwDvb/9cLDd8OlQeUV0xxJfPSziYyqoSQEqpfv36xuQqFpvYWNresjEQBGLrxu0yeeR01WtXMNU2rt4sGxKDUKAq+fytwZKXwBY65UTNAmGxkl1NHz9760tzX0B5hRoFQmfOAIBkvkPjdZYsV9wAd7S8SP0xDWfAP0h9uHrF3MxPRKxB0rMBgP350e5RPbAACEWKsIOXQRthx7bpjbBDQGN0wajerOUGqjgvIKJqsBF28N2NaR9SKEEWAEBbz7bvPaM/RtVhI+zwzv369TOR6G051BMsWiIpQ+ia0VPbg/fzEs9//PHHjTQNiNsFR2Y7uLAl7qaXWBtCuifO5lVXXWUsXmbPnm2+s7ioRZK3gwfvjateiHic1OPM50ge1xxYvQDsjqJzIOVoFr3NmEqEioCzWm2eCV7QMzFSzXUqVUMzPG5bQ0XAweLi8LHjGk9SI6Io4PdqVjtZdBzambpig+RS6bSRAhsBhGMlopET5QYH/ymhcBFwJgydaprZsWWX5NCIPEjU2Gxj9rdFgRqzv/16nKE/yB63XmK+3JNGTDN1li9cbe4BaxYmAfPJowI/zmm6aAttWrtZiml8zQQNpMyCJxQpL1J/TOUM9ie9IvKgj7UbTTJrhJ1evXoJgGo9EzJgYPVhD4QDSwB9jx49TFlUHwhAqElYBGXGQ7CJqlWrJon2xDoEJofEDKUugwjRoIgTyjWLpwwiDIjwEPWJJQYzDtrkWahVbJpf+LJ13DkpB06ZCiVUBBz01n3HzJC7254djFQzdL6qEVSatBQuAs7XfyzU0GS1pEONBBOebM+hw0kkHeov1ZiTE5atlX93am6+MDcP+NWEMbNthztbicmew5Xzp4eLgLNHAyuP/mG8tOvaSp7v/5iRRN5/7tNg9S/+72u58eFrTB6Jw78aHbTlHvT2N/Lgm3fKv1R1ArHYOUMDXECTRkyXhq3qS/c+Xcz9Xg2G8aVaukTLi9Yf00AG+pNeEXlYlMvMEXaIsVmuXDkT/9J+fMT19C5iesOpYRlC5CGrykANQnAKVBoAODbfhINDJYMtOX7HWcRE0mYmxGwA6b1QoULmzGyAARABCFtznm3NE1HjMMOgPIMLVi8sqCKV8wy/a17bf3dOyoGI7mTTUu+b9LGR71CJlMqfRwhyHCpSTbjaWXTEL6oRbtIr8ny4fsSajpqkeJmisk5nBn5CAiFu5aa1W4zaxJ9fVK1W0IuH2m2J2iV7ruyyVRcy/RQpL1J//O2cqvv0jMiDKiUzR9hBokW1YfXZn376qbGxBsAxCWSTDSqSd955x2y8YTcmNuNjxowxUY/8VleA8IcffmhUJWADwI0dOOCLZE+4NmKAElGIXZTco1JCr86gu2XLluBOTGy9UR2xUQjgpjxSOtYpqHk405aj8BxAQZwhATx8l13OP50DTLHTKyLP6RBhB4C2EYFQPaFvBiwBXPTMWFeRFoqoa1UZtOGfgSJNs1HHtg8AexcuqYuVCxt+bF3aJCwdFitQqO3yzBrQhTtKzgGzqmdNvJW/DsCT88ilOA44DjgOZEgOWAC3pt+nbBEzQ3LHdcpxwHHAcSADc8DuiDdArv08ZYuYGZhHrmuOA44DjgMZlwOqOlGdlHF54iTwjPsxuZ45DjgOOA4k4wBSuJHAFcgdgCdjj0twHHAccBzI2BywqhQH4Bn7c3K9y+QcwKIiGmGtwaYXS9hRp4So7zf5C1WfZ6TVbuJQ7bu0dORAoholLjrwWCPyNKtYStbpjkJ2YJ4sNVYfIPvUFwiOtMLRmfrSHWsmGFeze3WjTyxEJJ8ZqzfGtOEnlvb8ZdKSB7btImoLX1/ty72BK2xeas5t1Yf6Ct0lyu5Z+rtDXRssUjcAsVKkKECxtpGW5ewGk1BtYveNrTOE4ybrNS9UWZuGT+2+ffsa16iEW7OEySO7D9nNyM5EL7GRxXrrwx67TZs2xqcIdfCTzaYaNtngAhafIxBb57GZ5ohnhB1vP911xuQAEjhDflwAPJaIPLDlltYNZMzi1fKJRsA5Wbr6nFpmMIgE4PhWuVl3Kq7YtjNmALqpZT05+PtR+X3P6pPtYsj6ackD+4DapQrL7ec2TAbguBl4pVsbefnXqSna7HR3u7Nl5MIV8o7u+GSXLDtan/hxvH1cxHOkKEARK8aYifQZa0Qe2yRbxvF/jZdBLwGaZcuWDSZh4zxx4sTgPbbTbIAhnV2FluzOxa5du0qdOnVssjmzlZwdjBxeevTRR80mGNIuvvhi+eabb7zZ5hn4DWFTDB4F8YYY7wg7STrgbjI8BzAljAuAx/rmj6rTqb0hfAbHWj+l5Q6pI6j7v/7NAH1K68arfDx4gM+Xe7f+lqzL7FQtXyi/+oEJuKVNViCNEyJFCEqrR6UkIo/3mThn8vrlII+NKQQXsMQmk2+//dbcEuaLnYf4DmFHIq5RcT5FsAdLRJmBkNqrV69udiDaPM7URXrGhaolHEDh750t7OyE5JpBycaoZGckuykBcDbKsAMyXhF2bJ/cOXNwACn8lAD4ZQ2rSdf6VQyXvpqxSH5SX96WSqtP7Ac0NFgFBRpouqovXho22WZHPBdXt7MfX99ZCuTILlNWrpfX1QEUXg+hJ9W1KtF+oCfUDwnqAEvXqvTetV5Vjd7ztwY03iJlC+aTmz4fZrOlWaXSRnLnh4XPlW//XGLynu7S0jjPAhRxXfunOpF6Uft6TLcOQ90bVJWmFUvLhl17pXnFMibtxWGTZKYGjIjEg3BRiUwD+od3IcBF1eKFpJz29aB6Wbzpi2HG/e4nvS40jrxwQdDnsxPv8GaPdlJSt9hDL2iwBxyATVu1Qd4aNV3uatdIimsQiMd/GGfy+fPOVR3k98Wr9H1PAFow03dBBJU+ffqYsF04PrIUKQqQLXOy55RG5LHPA5ytCsOmhdIjA9xErEF9AXDjvAkJnOhMTzzxhAkFhjTPdnFL6JkBXHxke4nACt5n0CYOoNipyI5FBhCcTLFrkSASDDCoZ0iD4h1hx9tXd505OBAXAI8UkQe2jFa1yTwFyicvbCmFNXyYl25oUVdyq6fAB78dreB4ltRSnx+xUqUiBWXQ9AVGF96nRT0FuIJBVUn/iXPMs566qKWGXTvhga2AegPs1qCajFu6RmYrsN6mqocsCtReqlemmLyn6oOzK5SUq5vUku8UwBkWiuTJKaXz5zVRfAj/Rl4LBftxicGJ82vblTWoRMHcOaTfhFmSNcuZwQElHA94crioRDjygvD30qBMcVm0aZu8PnKaVNeoO7qp1uS9OHSSnJNQSi6tX9Xc2z9vqNvaQuof5dmLW8sH42cZnfbuRD/i05avl0cuaCaF9H0IcAHPAftJywL+nL+csdAMbLQ1cPp82bw70A/bNlvO0d36F98iRQiydU/mnNqIPKgrrNtX7/OJG+mVqHGfSrgwVBf333+/OfNMCEkY39pI3URUx72t3RZOXEfCltnQZfYZhw4dMuBv75966inZtWuXkcxpjwOJnODDtHHgwIEkjqjiHWHH9sudMw8H4gLgkSLywBoblQfvg34qqCADHVH3sMu3bpOFIRwy+evY+4179slXfwQWiwDTRuVKBAF8jfrM3qLg5CcAFxe2SKJQA63TQqVmL41Zslp+1wMJu7nmVVJQRg8Mbdt/IqJPm2rlDXhaALdtPD5kfDKdczgeRItKZNtEwn70+7HmdtLydTZZlmzeIaUSQ6wFE/VinQaLYPERWrltdxIPj9NWbjBOwy6pW1k+njTX+FbfrIGgqQMNVgC39NOcE9N/m4aTf8DMqxogL1IUIOsbw7aRmnNKI/IQgd2vo/Y/10aUQQ3C4iOSdjinSoAvwQw6depkwJsZmlWjhPMvgmoEvTq+wi3P0L1bwusfAwkgHoriGWEn1PNcWsbmQFwA/GRe+YPxs+WBDk3kvz3bG1D5fMpc+WXe8piaXKnxIC3hThb/4NGodqmisuPAiYARyxWY/QC+OHEQsYEl8uU84Ut8zfYAyPEc1DI1ShZO8sgDKpmnxDtirFGJkL7TiphNjP1rtbStXl4+1TBsDcuWkC+mzYu5eSws/FYWVI4UBSjmxsMUTE1EHkBz7NixRqeMegIXqLiMxQET7lG9hJc93JwSzANLEEtI2USqt77h8bCHL2wIMz086X33XcCFr63jPTdt2jQYZozAvXbAsGUwOyTEmF96t/mc4xVhx/sMd505OIAlSoYiJG50t7cPHGGk3BtVFZLN43Q+UmetvjtSGX/eQg38WzBnjmByOY3L6Sfr/Mufzj16d0slNYL82sToODbtoMeBvU2LdI4tKpFG30lUf0RqK1zeWVmSqogoh1ooj6pB+rSsK+rNV4ZHCQbtbZvFNSK5oLf1UqQIQd5yqblOTUQeJGlCejVp0sTonblG/4zfbKvywL816TYAAh78AFXiO3IgHRPYl2sGAcKC+YkINDwDqxQsTDjQX2MOiE47HOF/m4g3U6cGAn7YcqRbineEHfscd84cHMhwAH5BrQQjOSO1LlIwP6bomRpgjpX9E1T9gP/xG1X33qBsMWmWkFR9Eq2dErr4R4SfWho1vkKhAjJV9cknQ7FEJUpt+/vVTh5dfQe1hc+hvsi9ML5p9z5Zrzy/oGZFma+DGjOHWAngJmKRVxVA3UhRgGJtO1S5k4nIgwSM/ttrLoiLU4CTg8VEPxHU4bXXXkt2/Pjjj/6iwXvaBMiJTsOB3bZ3s06woOcCnTiDgz+YAbpvrFqgXr3iG2HH0x13mQk4cEpUKN/cfGkw5BmxLDmwiMDapIte39KqgVmJP6Ir+4OmLZCjnhX+cDxFDeAnm4ZVx6vd2gazX7qkjbl+Z+xMtW9eKb8uWC4X1q5kjjWq9yWYhJewTklCntt96if58c4tTDb68LGJC5hJyoe4icSDaFGJaC6UDvkatabprguylr6/tZu5vP7TX2T3gUPm+vtZS+TyRjWkbdXyBqi9lifD5i7TgayeDNEyKSHbF3u2dSNFCLJlUnNObUQeJG0WJn///XczWwAwAewpU6YI6oxwBODfcsstybKZeYQjFiGZlXBY2rlzp3men0/ko5JB/YJOHUKfjt05oI8+HDPDeEfYYfBwlLk4cEoA/LJ+34fl0h2qOsEyJLfGrrSLaBQ+S7/I7KQMRQD8fV8ltXu+5Ytfg0X/0oW9S98Lr5d8f9wstcyYbUDx/vZNjJRqK3d7P2lf/e3M1CDEWKjkVzWMX9f9sVq+cISiSDwYs2SN2S0aLirRXYNHhmpSvpg63xwhMxMTWeS1C73+cqiPkND/SAys7M8Pd4/ON5TeF6B6+/F+JjBzuAhB4doMl44ZXq1atWTQoEEhiwCYS5YsMdFf/AWQhAkPxg5HghGjSwbAAU8OTAEBTM5EUCe8F0QacRv9hPVNOGIDjpfo99tvv22i3BOpxk9Yn/BObPyBWBgmYg126Kh5AH+rrw8FtN4IO5g7QqiB2OQEEbjBGz6NNMoxeH399ddBCxrSHWUeDmSagA4DbuhiAhKHYu2oRSvlf2NmhsqKKQ2b5xW6AJonRzapo6qQvtrWaLWBjkZ9r2xvrDmsBUu08hk1v2zBvGZXLGqgL6bOC9q5Z8T+nkxEHuIzMqj47b/tewLUdiMNJn+Qtc8G+P2EZM6uTm8eEdXDRZLHAoZdmyyQWmIQQJ1DhBq/6gQpnMNrY45qxkbASesIO7ZP7px5OJBpABwb5az6AwtF+DXZd+hIqKyY0jrUqCB11NYbK5MfdVORtbeOVrmLmt1tVXO7ySep9472nHjnl1SVUTfddDRv3ZaYVUDx7pNr33HAcSA6BzINgEd/FVfCccBxwHHgn8WB0CLtP4sH7m0dBxwHHAcyJQfCLmLiShOTpVD0ySefhEp2aY4DjgOOA44D6ciBsABOHz4a2D9ZV268qneyNJfgOOA44DjgOJD+HIioQsmZPbTZXvp30z3RccBxwHHAccDPgYgS+MR3CkrRAmfK0nXHpO3dO/x13b3jgOOA44DjwCnkQEQJvOGN2+Xpj/dJ5dJZpHr5iFh/Cl/BPdpxwHHAceCfyYGIAA5Lfp4c2NBQomDUov9MDrq3dhxwHHAcOEUciIrK6urDkNOHn6JPyD3WccBxwHEgDAeiAvj2PccFx3SXt8tu3IyGacclOw44DjgOOA6kMweiAjj9eeidvdK6XlZZ9mURaVl1aTp30T3OccBxwHHAcSAUB2JamXzsulxC/IBXBuyTgqXKhGrHpTkOOA44DjgOpDMHokrgeXOeIcXUlPC1Qfvls+EHZO+hE9Fr0rmv7nGOA44DjgOOAx4ORAXwXArg0MoNyQMQe9pxl44DjgOOA44D6cyBqADesk4ggO/mncfTuWvucY4DjgOOA44DkTgQUQc++b2CUqZoFtmi4L1oVewxEiM90OU5DjgOOA44DqQNByICeK8X9sieA8dl/VYnfacNu10rjgOOA44DaceBiAC+eI2TutOO1a4lxwHHAceBtOVAVB142j7OteY44DjgOOA4kFYciCiBO9/facVm147jgOOA40DacyBsTMy0f5Rr0XHAccBxwHEgLTngVChpyU3XluOA44DjQDpywAF4OjLbPcpxwHHAcSAtOeAAPC256dpyHHAccBxIRw44AE9HZrtHOQ44DjgOpCUHHICnJTddW44DjgOOA+nIAQfg6chs9yjHAccBx4G05IAD8LTkpmvLccBxwHEgHTngADwdme0e5TjgOOA4kJYccACeltx0bTkOOA44DqQjBxyApyOz3aMcBxwHHAfSkgMOwNOSm64txwHHAceBdOTA/wNKYXa3oYrd+wAAAABJRU5ErkJggg==;" vertex="1" parent="1">
          <mxGeometry x="1440" y="106" width="368" height="167" as="geometry" />
        </mxCell>
        <mxCell id="mMl1sKTFDAsI_Ko-cwrK-38" value="&lt;b&gt;&lt;font style=&quot;font-size: 18px;&quot;&gt;FLINK&lt;/font&gt;&lt;/b&gt;" style="text;strokeColor=none;align=center;fillColor=none;html=1;verticalAlign=middle;whiteSpace=wrap;rounded=0;" vertex="1" parent="1">
          <mxGeometry x="940" y="-220" width="60" height="30" as="geometry" />
        </mxCell>
        <mxCell id="mMl1sKTFDAsI_Ko-cwrK-44" style="edgeStyle=orthogonalEdgeStyle;rounded=0;orthogonalLoop=1;jettySize=auto;html=1;entryX=0.5;entryY=1;entryDx=0;entryDy=0;" edge="1" parent="1" source="mMl1sKTFDAsI_Ko-cwrK-40" target="mMl1sKTFDAsI_Ko-cwrK-5">
          <mxGeometry relative="1" as="geometry" />
        </mxCell>
        <mxCell id="mMl1sKTFDAsI_Ko-cwrK-40" value="&lt;span style=&quot;font-size: 15px;&quot;&gt;&lt;b&gt;job&lt;/b&gt;&lt;/span&gt;" style="ellipse;whiteSpace=wrap;html=1;" vertex="1" parent="1">
          <mxGeometry x="960" y="520" width="160" height="90" as="geometry" />
        </mxCell>
        <mxCell id="mMl1sKTFDAsI_Ko-cwrK-45" style="edgeStyle=orthogonalEdgeStyle;rounded=0;orthogonalLoop=1;jettySize=auto;html=1;" edge="1" parent="1" source="mMl1sKTFDAsI_Ko-cwrK-41">
          <mxGeometry relative="1" as="geometry">
            <mxPoint x="1430" y="420" as="targetPoint" />
          </mxGeometry>
        </mxCell>
        <mxCell id="mMl1sKTFDAsI_Ko-cwrK-41" value="&lt;span style=&quot;font-size: 15px;&quot;&gt;&lt;b&gt;high-priority-job&lt;/b&gt;&lt;/span&gt;" style="ellipse;whiteSpace=wrap;html=1;" vertex="1" parent="1">
          <mxGeometry x="960" y="750" width="160" height="90" as="geometry" />
        </mxCell>
        <mxCell id="mMl1sKTFDAsI_Ko-cwrK-48" value="" style="shape=image;verticalLabelPosition=bottom;labelBackgroundColor=default;verticalAlign=top;aspect=fixed;imageAspect=0;image=data:image/png,iVBORw0KGgoAAAANSUhEUgAAAe0AAACkCAYAAAC6lHbrAAABX2lDQ1BJQ0MgUHJvZmlsZQAAKJF1kD9LQmEUhx/LEEpKI6ihwa0CC1OHxkyjAoeLFv0ZguvVtFC7XI1oC/oK0dbQEn2BcKgh+gRBUNAQNURBo+CScjtXK7XovBzOw4/ze9/zHuhwqrqetQO5fNGIzc14VlbXPI5XHDjpp5c+VSvoIUWJSgvftT0qd9isejtu3ZV2n0Qe16sH0+/G9WD5zfu3vy26k6mCJrUqGdR0owg2n7CyW9Qt3hceMGQo4UOL0w0+szjR4Mt6z2IsLHwj7NIyalL4SdibaNHTLZzL7mhfM1jTO1P5pbjUIclhIswSleMhjoKfIJNMMf+PJ1j3hNlGZw+DTdJkKIo7JIpOlpTwAnk0JvAK+/FJBqxd/95hU0u+QCAnT402tS0XXFTAfd7URp7lO8dwpeiqof5s1laxFzYC/gb3lKDryDTLy+AYg9q9aX6UTLN2Cp0P4q18Aj9vZQqPir9BAAAAOGVYSWZNTQAqAAAACAABh2kABAAAAAEAAAAaAAAAAAACoAIABAAAAAEAAAHtoAMABAAAAAEAAACkAAAAANEO7XQAAEAASURBVHgB7V0HfBXF9j703gk1lFClg/QivQoIouDDAgiC7SGWh4pi4yEo2NC/WEGeCCiiFBEUlN4EIQjSi5TQSUggoZf/+c69c7P35tbkJtyQc36/m92dmZ2Z/Xaz35wzs+dkCg8Pv0EqioAioAgoAoqAIhDyCGQO+R5qBxUBRUARUAQUAUVAEFDS1gdBEVAEFAFFQBFIJwgoaaeTG6XdVAQUAUVAEVAElLT1GVAEFAFFQBFQBNIJAkra6eRGaTcVAUVAEVAEFAElbX0GFAFFQBFQBBSBdIKAknY6uVHaTUVAEVAEFAFFQElbnwFFQBFQBBQBRSCdIKCknU5ulHZTEVAEFAFFQBFQ0tZnQBFQBBQBRUARSCcIZE0n/dRuZhAEBgwY4PFKp0yZ4jFPMxQBRUARyAgIKGlnhLuczq5x0vSvkvR40P0PJ0nTBEVAEVAEMhoCStoZ7Y6ns+vNnIkoW1b+o6IIKAKKgCJAStr6EIQkAiDryMmFqXD+zLRp9xWatzUku6mdUgQUAUUgTRFIlYVoAwcOpOeeey5NL8RdYzNnzqTZs2dT/vz5JfvRRx+lOXPm0AsvvOCuuF9pHMpU6pg6daqj/McffyxpLVu2dKR522nSpAlNmDDBW5Gg5+UqW4tK9X0z6PV6q7BAo15UpO0gb0U85t3TKqcQdqfnYqnHiDiP5TRDEVAEFIGMhECqkHalSpWoSpUqNx3HzJkzU6ZMmahXr17Sl+bNm8s2S5Ysye4b6oTky5ePIiIiKG/evFSqVClJ87fekiVLUtmyZeWctPqTNX8Y5ShZNa2ak3ZylqpMOcvUSFabFUpnoavXiLYfuJqs8/UkRUARUARuRQSCah7v2LEjDR48mLJmtVX7/fffC2ZPP/00Xb16lT766CMaP348bdiwQdJBpr1796YHH3yQHn74YQKpghQLFChAsbGx9OKLL9Lx48elbNu2bWnIkCGUM2dOunjxIk2cOJFWrFjh856cPn2a7rjjDlq8eLEQbXx8vOOcHDly0JgxY6h8+fIEwkVev3796Pr165Q9e3Z66623hJivXLlCR48epfPnz9Onn34q56Ne9P/YsWMUExNDRYoUcdQLMh85ciQVLlxY6kLbOA8EP3nyZGkLgwmDz7fffks//PAD1a9fXywUuXPnphs3bkibL7/8smDhqNzDTvbCpSms+3OUo2h5KZGwfwOdmD2WMmfPRWUfm0SZsmSjTJmzUPmnZkh+9NJJdG7rb7JfoverdPXsacpZsgplL1KWrl+5SIc+G0z5aralvNVb0pGpw6VcoRYPUM5SVejYzNfkOHPOvFS8x/OUs3R1qfvKmaMU9dVTlLtiQwrrMowyZ8sh5UybyLt67pSk+fqTQ+exfUGk+YqAIpABEQgqaa9du1aIBmZoaKLvvPOOQHry5EkC8V26dElI2pB2165dCXnXrl2jggULUqFChWjPnj1CZv3796cnn3ySXnnlFYJJ+qmnnqJ9+/YJud177700dOhQv0h706ZN1KFDB0J9hw4dEiI19/mRRx6hChUq0Lhx44R4u3TpIpo58nv06CGEPX/+fCHwTp06SV/NuStXrqTOnTvTuXPnCPs9e/aULAw6xo4dS5cvX5ZBSvXq1aUc6jly5AiNGjWKWrVqRe3bt6c33nhDzjl8+LBsMYhYs2YNLV26lKCNP/bYY/TSSy/R888/b5r1uC3cdiBlyZ6HCfY/lInJ0mi41y9fpGPfvUK5qzShQo3u4f2RUseVuBOOurLlC6Pc5erRxaM76eRP71CO0rcRA0FZ8hamrJxnJGu+QpQ1fzFzSCXvfZWyFy1HZ1Z/SxcORFLBJvcQ8cDgwsEt0k6RdoMoS+5CUidOupYQ4zjX2072bJmoXYNsdObcdW/FNE8RUAQUgQyHQFDN4yCwv//+W4gMBI19/EDYkCVLllDlypWFBIsVKyba6dy5c51AB0mD4NatW0cws0Puu+8+2W7btk3O37lzJ2XLlo2aNWsm6d7+QCuHNtyoUSPRtq1loe0awWDhgw8+kAEE0jDvjAHFpEmT6JNPPqGEhARTVLarVq1yXAfmzY00bNhQrAF79+6lMmXKCBawMvTt21e0Z+ABrR1i8ImLs83ZgrBhQcCAx5xbvHhxU7XXbZY8hZhoiW5cu0IXj+yg2HWz7OVv0KUT++jqmWPc/nXZx/H1i4kWBxS8ceUSHZ0+guJ3r6HopZOT5Ls2njl7TspRojLFRS6g2D9m0WWu8+SctynT1ct0/fJ5aefa+TjW2i842rxxne3dPuSehpto74wiVKZ4FnrmI+c++jhVsxUBRUARuOURCCpp+0Lru+++kyJ33XUX/etf/xKTOYjcCLRTkCxk9+7dlCtXLiFGEBfMxTAfg3zr1KkjWivy/ZFffvmFLly4QL/++qtT8RkzZtCpU6dkYRrM06+9ZjP7olDp0qWlDXMCzOFWgQk9MjKS9u/fT4Z0kV+eTe0Q9Bl9xe/EiRNiepcML39gxkc/nn32WTkP12emGrycJlnRv33BpJ2Fwh/+kCKGfUv563X1dYpT/sVjO52OfR1kK1hSilzY9ydl4nvDN0i0cyTKsa8KPOQv3VGVxs84z/URPdvHv/vroSpNVgQUAUXglkMgqOZxgw4I1qrFmnTMCf/zzz+EuW9okzBdWwXzyJhbhrkcmiY0dBD5mTNnpBhM4iDLQGXevHmEn6tER0fLPDnm0DGX3a5dO9HeofFCO4eJ2gjmp0H8Vhk9erT1UPbNHPyXX34ppJ6kACcAH3eCVfcgeJjFIZ9//jnlyZPHXdEkadCuD332CIFMi3Z+koryqu1zWxfTDdZ8RYRTPY/Rrl04l6ROzG1nymqbl0ZmNp43N3LlrG1uOkd4Nbp4+G+6Ybda4MrQilyhPAee2zR1Wbcx8Xlo0g/nqUp4VrqzaTZrlu4rAoqAIpDhEQjsjeonXDBfY2EWTOFmtbU5ddasWQTTOLRIaLqu8vjjj8scdtOmTenAgQOSvWjRIhkEPPPMM0L2WNA1aNAg2Xc9P5BjDB6qVq0qmjKIGoK6IZh3L1GihCw2g1UAgwx/BOdh0IH58nLlyskgpFu3blSvXj3H6X/+ydopkxzSrSvOz549K5YFLES78847KSwscT7ZcbKHnXx1O/P8cX66EnuczeM7SUzRbA43cuHwVtGE81a7QxaNmXRv24sHNvNCtpyUK7w6LzarRjmLV6LMXCc0aZjXr547TQVu70a5ytbkujNT/vrdeUo7i42wueILUTsoW6HSvLitjOR7a8s1L+r0NX52EqcvXPP1WBFQBBSBjIhAqmjaP//8M7Vo0UIWeIGchg0bRgcPHhR8QY7QnqG1Quu2CsiuTZs2skgL+9OmTZPsjRs3EuoEkcGEDME8MQYAKRGY25944gmH5ot5aAwQIPieG21BA0dfQKhmbt5Tm9CgYU3A3Diu2XyLjXSsnDcSFRUlZnUQO35oC361cb3Dhw+n6dOnS5+wKh2r5f2RgkyYYe0fFTM15rVjVs/g+e3Ez6WusmZ84dBfVKzrs0T8i17+P4rbMCexau6jq1w8upsuxxymUv8aTZnYwoHFa9CojVZ9fNYoKnnff+UHIodWH7/5F6kGxwk7lvMK9DYUPmCCDBgOf/m4DCpc23F3HHP2OmXlL/NKFc1MR08nDj7cldU0RUARUAQyCgKZeGV20rd1Kl49HJ3873//ox9//JGsDkr+85//UN26dWWVd3meFwahu5rCobVXrFhRFncZM3RKuwoNGvPXWJnujpSx4A3pINJly5aJydrfNrHqHedjwOJ6Ld7qiOBPxgI9B/VlyVtQVpBfjjnirfqA87CC/Hp8NF23aO7WStBuVl65ftm+2A15oiODyJnkA5EBAwYQfI8XLZCZ/visEGEl+eotl2nxnntkYBNIXVpWEVAEFIFbDYFU0bQ9gQTTNz53gpYMb2XuBFotCNSdgPiwyjuYghXvMOe7Cpyf4BvuXbt2iZkb5nx38+Ku51mPoVEnR1wtEP7WcS0+lq5RrL/FHeUcC8egRdtTQbVmH99WSxnON2SMYoaQ0e71G2ccx/YqUrQ5HXedKveNpvAwmyOcDu1TVJ2erAgoAorALYFAmpI2VobjW26YtfFJmFXWr1/vWHBmTb9Z+1gtvnr1alkQhy36DIK/lcRBwEYbhoncso+pDUPcuG5D7iBrnItjQ9ySz39QPkm9yEyGXOfKDp30/ZlYMqrWUxQBRUARSJcIpClpf/XVVx5BgnczfzyceawgyBmYm8b32be02EnaELMQMV8wjq1kLBiAzC0kjTLW8kL2nO9YOe5C+FKH/lEEFAFFQBFIEQJpStop6qmenGwErJqvIWhPlXnKl3QQtwcx+Z7O93Ca22SNne0WFk1UBBQBRYCCuhANbj3hyEQldBAwJm2jCaNnVi3akW/tsgctWcra88xAwFqXtQrdVwQUAUVAEQg+AqnynXbwu6k1pgQBECs0YGyT6MqcBpEyKIdjmM1ZkJPZvo9jkydpSLefizwVRUARUAQUgdRHQM3jqY9xmrZgSNlhprYQK/Ic6aZXbsjXlENZIWpT1n6cpA5Lvu4qAoqAIqAIpB4C6VLTxvfP8FKW0QXk6ta8bdWO7SBJOXt6knMs5ZGX3kkZ3ueME57Ufka6165EnzzQiXJm8zz+rVGyKNUv61/gl9Tsb93wYlSvjC1KW9XihalZhUS3tKbdzDzI61KjAuXNkd0kJdkWy5dHyiAjf64c1P62crLNzt7wsF88f6Lr3YphBWnKgK6ErYoioAikHIGQIW3EyoZnMOvvvffec3uF8GRmIn+5LZABEh3Eyy9Z7Fs1bFftGHAgzfxw7Chv18Rh8pY67eVQ5mYJ3LjC7zrcwCZHEOf8oYceSs6pAZ8zf8teOnvhEr3atbnHc7vXqUT3N67hMT+tMoa0rEuPtbpdmuvbqDo91bZBkqazsxu6IXfUpfBCNne+SQpwQo2SRWhwizqSVaFIAXqydX2qzKRcIHcO2W8aUcpx2r5TsbTw733037taUi4vAxvHCbqjCCgCXhHwrB54PS34mfBD/vvvv0vcbETIevnll8V1aPBbSl81CrlC+7WTK3rvIFz7pUhwFi7j9xwz6rKUFzIPIVjgjx3+6RHIJTny4YcfEmKTp4XAKvHynBXUv2lNKpg7J8Wev5ik2YnLIwkabHqQS1eu0rPf/05HYoMXFvW7P3fShctXqULRgrTt2On0AIP2UREIWQRChrThuAQ/+CR35xXt3//+t0Thglc0xLnOCGI0X5Cx2XdnukYaKAE/d/nWc4U6XAYBaY0lCBXe5sqXLy8BU+Lj48XHO+7tZ599RoioBkGoVKQhjvrrr78uabVr16aRI0dKzPXu3btL6FKEd4Vvd5jFX3jhBSkHr3IjRoyQffwZN26c+HPH1Ao0+e3btxNit6N+RJd76623KCIiQlzWIt45vtN/6aWXHOd727nKdUxavSVJkW61KtIDjWwa9pajp2jswrWOMjAlj+jSlKqz1or9GCb7wVMXsmc5/tad7/fQtvWpRcVwysL7e0+foVHz11D8pctUnjXbMT1b0Zr9R6h15bIUd/ESfbx0I206fMJR9+A76lCbKuVo+vptNH+re++CjsKWnVe7NafKxTguO8src1fSgeg4R+5DbCnoUacKP1836GBMYrqjgI+deWyRUFEEFIGUIxAypO3tUhDtqn379hLKEy/bvn37eit+S+QJufKVGBL2qU3zy92qPcPc7dCg7XlWxyc3EyQESalQoYIQKYKidOnShccltisGuULLBvkigAriqpvQrOgz3MmCZEHY8AUPl7eIKAeBy9nx48fTAPZfbtIkg/8ULFhQ6l2wYIHENu/Tp4+QPILR9OjRQwh7/vz5UnenTp2CMjBcsTeKdhyPpkfYlFw0r3Ns8N71q1KtUmH0xvyVTLyXZS5YIOAb3qVmBSHkuX/toRNnE2hg89psyq5PY5j0c7D5GmbmGqWK0vhF66h/s1rUj7V8K2kXzZtbyhTg+WarfM8ar8F5AZP5xoPHrdn0FQ88iuTJRa91a8Fz9Db3sSgAC0KvelVp6e5DtIM1ZZjPjRyKPUezNu2kQ2d40M3Xgf1IywDClNOtIqAIBAeBdEHaHTp0EC1p1KhRctV16tShmjU5HGQGEldt2kHAdgxMvoHkup0EcSzEz8eyNQVu4tYQB7oAX/IgWyMgYWNJQdS1v//+22Q5bRH1bQpHRrMKtGOQcM+ePQlTLK4SGxvrCPiCMk2aNJHy2KLNSZMmySmIUBcMwVw3fnH8C8uX26lKq7k8iglv8hoOnWqXVlXKiOY9Za0trVZ4GC9kK2GyZfvFys206dAJKswkO6i5bX7ZFFi+6xDFJFygzYedLVIgXSPrDxwzu47tYe7HqfgLjmOz07xCKbrGPmU/XPKnJNUtU5zMvHUMl5+2frsp6rTvSNQdRUARCBoCePeHvICgYUI1sn//frObbrfQK2G2Nhq1XxcCIuZzIELS9n2/zg2hQli/cOrUKdGmf/jhBzGDB9q95DjxgdnbCPzgI+IcBFHejhxJjIwGv/OpLXPZXHw49iyN4gVas4b0pGHtEheFFciVkw7FnHV0Yc+JGDGhOxJ4Z+fxGDmMZnLO4hJ3HKbzz1ZsDtr8cc3SxejMhcS5+r0nbW1b+6P7ioAikDYIpAvShvaFeUgjmJdMryJEbYjXi/YrpOxykVZN2SxMM6Qv89Yu5UP1MDo6mvC1QP/+/Qnz0ZiLbtasWZLuIqypJ7GazD2VcU3H/LU7OXbsGJUsWdKRZebUHQmpsAMN/JmZv9NDX82n2X/tFnN47dJh0lICz12XKJD42VSZwgUI8+ZWQYx2T4J56Q7VylPpgvk8FQkoHSSdP2fiJ2DhhW2DnYAq0cKKgCKQYgTwng8Z0sZK4WrVqlGePHlkcRL2S5SwmQR/++03ScNnXpUrV073pnHHXLOPW+hLmxbixk20DAJ8VBkS2R07dqSqVatSXFwcrVmzRvqUN29eR9+wIBExzLt27SqDNas53VEoiDsbNmyQZw2fiuH7f8RYT21pwp9FlWXyw+KyDXZTde7stkEK5oSL87x04/IlKYIXnmFrXRTmq2/31r+NnuBPu1qzmT0YsnrfUdH0O9eIoDKF8lGT8omfdAWjfq1DEVAE/EcgZOa0Qch33nmno+djx44lrAB+5pln6ODBg7LgCAvQ8MPcZXoRowEbzRj9NtqxMXVjdbg7vQnniGbO53gicH8HAKGEF76zf+KJJ2SdAvqFuetFixY5dXHx4sWyQG369Oly/4cNG+aU707T/PTTTx0DPRTGN/8wgxtHPK7nmGOUgzOWfv36yZcLZ8+elUGDU4MpOHA36KjHzlZeqNbEgUFk1Ala94/NfD+TF4w1ZKJ+sXNTafX85Sv0we+2+WTTZ3fPi+miKWOO/dlCOx/Xq42j6NierWV/4vJNtHjHAdocdZIevaOepGHFuvOyOsdpuqMIKAJBRMAtf7Cp2dv/f0DNp3bAkKJFi8rqV8yHpgcxgKOvhrSFsI1pE3PUksm3wANxI9tK3KYeOS8d/4E2i7lkTH1Aqw4FgTkefcFAASvT4eAlGPJBn3Z0LC6B3v51nVN10KzDeFV5FH8Tfc3F/I2CcFaSM2tWWUHudOJNOkB/eBjp9lv0m9QlbVYRuGUR8MQfIaNp+4N8WiwQ8qcfgZRx1ZYxQsKchHV1t2hiIHJD4i4NpEdt2uUSkhzCBL5z584k6TcjoWzZsvLdOFaxwwsbPiubN29eirvyfKfG8qlXOZ6TnvbHtiT1QYM+GON5wBJ3nlee06Uk592sBPRHRRFQBNIOAXf8ka5IO+2g8t6SVVv2pvk68kDGFlK2Erb3ljQ3LRDAYHD16tVUpkwZ2c6aNUsc/aS07Xj+bhmfe01cFhnQnHRK29XzFQFFIHQRSCl/aDxtP++tFWg5xU7EDmL2UQ8WixmyNnWZc8UM4sU87qNqzVYEFAFFQBEIYQTMO9/RxRTwh2raDhT92LEQq9wEP04xRWAWxznYmn3xWoYClnpxqKIIKAKKgCJwiyFgec+nhD+UtD08F2ZkZLRhEK0vMedIOcsNMsdWEznq9adOX21qviKgCCgCikBoIWC4IDX4I2S+0w4lyB2r9phYzcptt/3jfCPmJonW7IaQlaANUrpVBBQBReDWRSC1+UNJ2+XZMTQMkhWiBTGbT7SsZV3SpLwbsnY6xULy1nTdVwQUAUVAEUj/CKQFf9wSpA0PW3CLiR8+3wmmGA3Z3Axr3SbPmqb7/iNQqlQpgheyYAt8ikdERFDmzKn/eHevXYk+eaATR8XyPNNUo2RRDviRNIBJsK/bV311w4tRvTLFpFjV4oWpWYXSvk7xK/8uxqAPe2HDzxoIBSe3qVJWwolivykHHrmtRGHsiiBa2cT7OxLOV1EEbkUEDEcEkz9S/63mx51AaER4pXL3e+ONNxw1jB49mrp16+Y4Njsgarg3hUc1RABzJ2LmZu3YHXjuyjuledK2nQrpQaAINGjQgB566KFATyNPzwFCeiLy19dff03vv/++OElxrRyucWfPnk3ffvuta1ayjudz4A/4EX+1a3OP53evU4nu53jUN1uGtKxLj7F7U0jfRtU53GdikBKkIewnHMGUyJ/oUhbpRoZ3bEwtKyd1jVqZBwCNIkpS34bVKVsW51cK2riTQ41CnmrTwBFfHMcXrlzlWOCbqF+TWlQpzBbHG+kqikCoIRBK/OFZPUhD1OCy0oRgHDp0qLiifPnll6UH1sAQlSpVouPHnWMAo9CXX34pZfEydhUhaZiyjWnauu9amI8xMsJrx4yQUAT7rmSPY2sZlFMJDAEEC7GG5fT3bE/PAUK35siRg1588UU6dOiQhN50rfPVV191TUrRMZ6Bl+esoP4c0xpxp2PPJ0bDMhVPXB6ZRAM1eaG0zcKWCTiCyZvDfaCWWhzQ5FhcYrQ90/d3F6+naiWK0JierUyS39ttHJ977C9rqELRArT31Bm/z9OCikBaIBCK/BESpA1f4nBnCUlISCBEYzLHSBs+fDg1atSI4GayXbt21KpVKyk3YMAAZHsXJmmzgg8FcRN8Ea6QtMt5ro1Y63TN02PfCCA8JzzBwW2oVdtG5C/Es758+TLBfI5B2ptvvklRUVFen4MiRYrIYG/ChAkSo/vatWsSQczaE1hpwsLCZIAIy0ywBBG4Jq3ekqS6brUqOjTLLUdP0diFax1lsmfJQiO6NKXqJYtIMI4YJvvBUxfSdX7uYGIe2rY+tagYTll4f+/pMzRq/hoJLlKeA4iAHBF+s3XlsgQ/4B8v3UibOMiIkcF31GGzdDmavn4bzd9q+78yeZ627/VuSyXtGvabPVvy/+ANWn/wGL3/2wZCfW25PkwB9KxThbrWrEix3O7j0371VF1A6Rs5LriKIhCSCLjwQCjwR0iQtq+bBXPnwoULCVrS9u3bCR6rLl1ydqkoIyL4b2aQncRo2JZEawk5z3KOfIrF55hV44bALafLrrUO1zw99o3AuHHjqHnz5jIIs5ZGtDcQK+7zTz/9RIMHD6Z77rmHQMbenoOKFStKNV26dCEEF8FAEM/M1KlTJR2hXTHIg/kcZvm0kBV7o2jH8Wh6pEUdcWdqbbN3/apUq1QYvTF/JRPvZWp/WzmbMYgfrC5sTgYhz/1rj/gdH9i8Npuy69MYJn2YsDEXXKNUURq/aB31b1aL+rGWbyXtohwhDGUK5MphbZK+50AkJnjJAibzjQcTrVbvLt5Ahdm3OOJ7f7FyM/0THUdnuV+QHzbtpiU7D9J/OW8DE/k87tflq9ec6vZ08N2fO2grD1gg0zdso5Nn00+wH0/XpOm3HgIOHuB3v9O7PQT5I12Q9okTJwg/aOBwOWlM6ebRsQKOfRCu0YTNDXCUcck3306bcqZOnI96jKnc1GfydZsyBCIjI8VtqKdaXn/9ddG2YVlBmFaIt+cAwWQg0M7fffddidoFsl+wYAEhfveIESMoNjaW5s+fn2akjblu/ODKNCxfYjx49NO6YCvqzDmavGYrkkVacUhNaN5T1trSaoWH8UI2W5haUwbEuok11MJ5ctGg5s7rOJbvOkQxCRdo8+GTprhsl+4+5Dhebw8HahKOxJ6jM3bT/oHos7TvVKzJkrpQHywKp86xVcyS5yjkYedbJm0jP23xT+s35XWrCKQFAg5uAEHzOx/H5n1veMFRhvOs/HIz+AOclH4EgNpBdeo0pwnIGCW5GRmhLMBHnimHeiQdabKX9A/KwvWopzqTnqEpwUDgwoULQtioCzG3c+bM6bNaEDIEpLxy5Up6++23+f/pBnXv3l0WKdaqVYvWrl0rmj0IPitHz2rTpo3PelOrwFxewHY49qxotrOG9KRh7RK1/wK5ctKhmLOOpveciBETuiOBd3Yej5HDaCbTLJnlleLIhun8sxWbCfPFKoqAImBDAP8l3vjDcIQ7vExeKPBHutC0ASIAv8Ej/Sz8snUdDVlBRoQmX4IbYDRoX2U1P/QQABln4Tlhq2DOG2JircMqAwHhFypUSOJkm3jt+BQMZmLE9F66dKmUS+s/0MCfmfk7L/rKTnfXq0y96lalpWyC3nLkFCVcukwlCuRxdKkMLw6DlmsVbzGzERsbc9/bj0UTNOhAJWsW50GAOR/z7Vk9fEZ3mdcQQHKwWf6Sn6ZzU69uFYHURkCeaChq/H/vjT/86cfN5o/0o2kz4Md4UVKdunWpKH/aIy9e3AQWowmfPHlStCd81oM5TCO4YUazRhr2zTmmjG7TDwLHjh2juvwcYO7bfIuN1eLQ0O+66y7Cp19Y3AZiRojN9evXy7w4zOX4/fXXX3Tx4kXq3bv3TbvoJhGlqGzh/LK4bIPdVI342pBIXlRWnOelG5cvSRFMvtge4Dlmf+Ve/l76Cf60qzWb2QMRhAq9yJ9hdaweIYvOXKkbfWjIn3ZhlbzVvI829rPJ/BovXut9e1XKlzM7a//p59USCEZaNp0iYCdsMIZ59xtOMMeerizU+CM0/7MYYHdmDCxAg4b1xRdf0Hfff58E4//973+Ul8n6k08/lW95TQEbtdvIWm4UTN4mU7dpjsC///1v+SZ/4MCBQqzm+/zChQuLSdtXh77ne2+eg5kzZzqK49tsaNWff/454dt/hNs8evSoI9/seNNSTZlgbs3iL2ud9djZyoQ+7enHR++mMT1aUWTUCVr3j62vM3nBWFTcOXqxc1N6r3c7Oe2D3/+Urem7t+fXlLG25+/+7M27qWWlsjRj0F303x4tnU77YeNO0bS/6ncnTed8q6A/36z/mzpUi6CvB3Tjb7MjrNm6rwikGQKGZF0HndYOeCJqww9OZe0HwkkW8reWScv9kAvN6QSaRSM26daXlac0TzckLYHVtm4eAhEREXTw4EFZuHjzepHYMhyWHItLoLd/XZeYyHvQrMPy5qKo2HjWUp3N3yhYgFdz5+TpoBNnE5zO0wNFQBFwj4DhBMm9RfkjpOa0DeCGmGXExOjLsX0uQuYkzP1ySTMjK9liRIRzUUYlQyHwzz//hMT1Pt+psXzqBYcl0/7YlqRPMEcfjLmSJN0kxJ3nlefk/GmjydOtIqAIOCOQUfgjzUkbFGpI2RlyPnIlWMsxzsG5Xs9nopZ8EDaf67GdJA1rgiIQfATi+TtnfO41cVlkQHPSwe+J1qgI3BoIeH3/W/hCrtZyfCvxR5qStpCuF0JNQrJc1klTxk0AMRtCttfleBw5PamR0ZGrO4pAmiIA96UqioAiEBwElD9sOKbKQjQDLrZOAhJGAsjWhyQ5F6fhHEPcdsK21mTd91G9ZisCioAioAiEIALKH95vStA1bZlXQJuGXHkX2rKQMG9BrI4yKOdJXLVoezkHcXs6T9MVAUVAEVAE0iUCDm5Q/vB4/1JF0wZJg1wdZI19+8/0xJ0mbfLMVgieD3Aj/SlvztOtIqAIKAKKQPpEQPnD+31LEWm7JVOMkOyCPdGMTYLZ2kdR5tB1i/PkZzejm5voWk6PFQFFQBFQBNInAsofybtvySZtBzXbidU0b0hazBz2PNk3BXhrNGhLUpJdIWq7xp4kMxkJ9erVkyASyThVT0klBBDco1evXkGvPX/+/BQREeHwlhb0BiwVdq9diT55oJN4ELMkO+3WKFmUA34Ud0q7GQd1w4tRvTLFpOmqxQtTswql06wbVdi1qmk7zRoNsCF4qGtbtZycVSxfHom8lp2jqhnx516bsrr1jkB64w/vV5O2ucmf0wYhe9GYQbpGzIjKEDrSDXGbtCeffJI6dOhgTpEtPDvdfffdTmnJPQA5FC9eXIJJJLcOnJc3b1765ptv3FYRHx9PDz74oNs8TUyKAEJkwt3ojz/+mDTTS8ro0aNp3bp1EhzEWgzuSxHys2DBgpIMV6X/+te/rEUk5vYnn3wioV1d85wK+nkwnwN/tKgUTq92bU4vzVnu9qzudSpJlK+bHTd6SMu64l700W9+ob6NqtNtxYtIXG63nQ5yYo+6Vah0wbzsovX3INfsvrpe3F6hPDndxjl3fwZR5xoVqAv/luw6SI0jStDAZnU4rOhph3Mbf+61p7o13QWBIPOHtXbDKda0W2nfJ2mLluxB4wU4xgexV6AMuVuIHIQPWjfnyWdcfCP/85//OPA1QR8cCSnY+fDDDylHDuf4wsmpDsT83HPPyakIG4kgFCNHjhS/1yAJFf8RWLJkCe3atcv/E+wlK1WqRMfZD72rjBo1Su7xiy++SPBF3qRJE9ciEpM9SWIKEvD8vjxnBfXnmNbwyR1rD29prRKffpn/E2t6Rtr/YtVflC1Lsg17AUNVmS0JxfMnxh8IuAI3J/hzr92clqGT0oo/MhLIXknboSubUZEbZPBdtLkxJtsc4yGXOvh8q+aNcsjDz1X27Usac3fAgAGihUMbRwhGhFR87LHH6LXXXqOdO3fSt99+Kz6mYRIF0S9atIg+++wzqRpm8RdeeEH24SkLcZWt8s4771BMTAyVL19eAlBcuXKFHnnkETp79iyhPbSFMI5nzpyhV155hRBNyvQR4R4h+/fvd0SXwnHFihXp+eefl8AVOAYxgUhUEhGYMWMGj9syEfCGtm2kf//+1KJFCwnNCfM5yPnNN98U3IcPH06NGjWibNmySYjNVq1aUUJCAuH5KFKkiGjREyZMoD179khULwwKrNKtWze5x4jHXrlyZWtWivYRgWvS6i1J6uhWqyI90KiGpG85eorGLlzrKJOdfeiP6NKUqpcsImE3ET978NSFhEhaIPihbetTi4rhlIX3954+Q6Pmr5HgIojeNaZnK9GQW1cuS3EXL9HHSzfSJg4yYmTwHXWoTZVyNH39Npq/Nen/kynnun2Ate/utStTDjYJHz0bT6//tEriZ/esW5nuqlOZhn33G51jhzENypWgZ9o1FMsCzMejut9BOzl8aJ3SYXSRI3yNY3etm6NssbxhFn+lW3NpahtrrW/94uzK9VXOO80xuqswyZYtlF/OH/zNQo50doWxc98f135bjxGIZVjbBnINSIcPdchTM3+Ta/GGuxT08cfTvfZxWobMvhn8kRGAzgyClZ+7q/VA1o6bYTlHiBrlIfyiwbfYmXHsoQ5bQee/eIl//PHHjp8h2KlTpwoZjxkzRkyfCDixdetWIWzUgPCL5cqVI5Tbtm0bdenShfLlyyeVgzDHjx9Pp06dkhe7c4skASZABJcuXRKiR8xl9OPee++VgcLy5cvpgw8+EOJ+9tlnXU93e4wBBfoEDRym3L1797otl5ETYcZetWqVTDdYcShQoIAQK+JoY+AFkzcic0G+/vpreuONN4TQEakL+yB0CAZKENz7H374gaZPn+40GEDUN5A7gspcs4eRlBNS8c+KvVE0ct4KOhATJ+5MrU31rl+VapUKo9E/r6ZhTCir9x6WfxuU6VKzAoGQf2bChYYaUaQgPcUkDgGh5uLwlzVKFaXxi9ZxGMyr1I+1fKsU5QhhKFMgl7Nl6XsORPLdhh1SdAHXPY1J3UiHauXp3ttvo5//3kujF6yWgcSTrW+X7J94CgCDCUwBIILX8I6NaS0HNznIMb9zcn9yclvhhfLR+MV/EOJ7P92+oamWDp05R28uWEOHY85RifyJ4UZNgTDuK4KMXODoYu8sXk+/7TjAA/1MnOa5P+Zcd1uENgXmGESciD8v+ziOSbBZwbzhvorvwcyNNnz+ijpFszbtJIRQVXGPAHggmPzh4JVk8of7Xt56qVnNmwLgu2rDuFzQsDHtuWrGQtRWTAA2i5Tjfdfy1qKe9kGuRhBqE4KXLAgQ5IkIToiZDAK3ypYtW2RudPbs2bJt27YtzZ07V8pu3LiRevbsKXPa1nPM/lV+8Q0dOlQOf/nlF9ni5X/58mXRuDEgQACKGjVqCBn7MoNjIRSIH+djEIH2VZwRiIyMpDJlyjgnWo5ef/11wQ9TENWqVZOcEydOEH6wppw+fZqgMRspWrSo7EI7f/fdd2XRIch+wYIFFB0dLRYWWGnmz59PmEtPC8ELHz+4Mg3L52yqNf9T6EcUE9vkNVsdXWrFITWheU9Za0urFR7GC9lKOPKx88XKzbTp0AkqnCcXDWpexylv+a5DTFIXaPNh2/+PyVy6+5DZpfX2cKAmAZo0iPPchctUhjXe3Ux6TVlrhSZ9mbXnkXNW0sS+HeizBzrTWda2Jy7bZE6V7VdsaVi7/6jkjb6rpcQJj+e44Aj1ufN4DJ3h68mdPa/TOeYA8bdHzF4uh2v2H5Gtr/6Yc1238Oe+j8OEAvOc2bLIvrWMN9wRfxw/yCEekExbv916qu7bERCi5n3znkdyMPjD8IWp1xzbm9WNHYGsVmBAudZjg5I7E7jkWYg5CYGbkwPYYuEZXtbuBKQJAqxZsyZNnjw5SQQnmEQhqANxlRFvGaTtj2D+01Ww4AzECy3cCMI8gpB9kTYGFk8//bRo+BgQYKEVND8V/xDA/cOABwKNG3GzfQkIGQJSXrlyJa1Zs4YQyrV79+4SohNTGT/99JOY1UHwmPLA1MfSpUt9VZ0q+XNZe72dzcyjmODwzC5nLW+CPfxmgVw5hTRMw3uEQJ1XeoMIIdBss2R26CiSBuIz5CcJfvwpzPPxqKVZpcR2YJZHJDKQ9nE2l0O7xorz/2NzPDRvq+w8aevPnpNnJLk2m8r97cPOEzaitNbnqz/WsoHse8M9kHoyelncfVcl72bzR0a5JzKnbf7lrf+GJs0KhBCzIWreWsX1BlrzgrEPEgZhYyHYww8/TCtWrHCaR7Zqbbly5ZJ5Zn/bRZ2uAuLAyxTz2oEKNGvM00bwHDvIu3fv3mKyhQleJeUI4L4gnrZVsNYAAisMxCxixDQFYmzDWoNFg5DMmTPLgOyJJ564aaQNDfyZmb+LRnp3vcrUq25VWrrzIMG8m8AaaokCiabkMhwlDHOpVgEGnqQyzyNj7hta45HYc56KOaWf5TZBxM//sMwp3RygThA2LAAwm288dJxN89dMNpVj83hM/AXW0vNJ2p5TNvJ2FPCyg3lyV/HVH9fyrsdwmGzVqk2+N9xNGd06IyBvejxv9nc/3vVWJc0wgfWJNGnWmm4mf1j7kd73ZU5b5p35SgCqK9iSZnlBWG9Malw8TKHWH9rAfORLL70kC8CGDBkiL1zMFVsFC84wrwmyhIa8ePFia3bA+3/++ae87Hv06CEEUbp0aRks+FPRfffdJ/PnBw4ckEVRIBBvL1l/6tQyiQgcO3ZMLCnQwEHAEFhLMNC66667ZB7cPAfz5s2j9evXy7w4zOX4YT4c1hIMpm6WYMEUvguGCXmD3VQNrRYSyYvKivNcb+PyJXk+u4BsD0TH+d3Ve+vfRk+0up1as5ndX1nN8++l8uflBWxlRXOHOf9uXoAGwZz1G7zYDIvLnpyxSP6/sIjOKn0aVJPV830bVhcz+yleXJYS8dYff+rdcew0f2KWTwYRVvL2hrs/9WaUMuAB67sfRO367nfk2/khFPgjI9wfmdO23gwsHnPSmi03CzcltQSkBrIdO3asUxMgQEPQWL0NTQplsHIced99952Ux/mYy4Rg8Zn5JOjTTz+VVcWSwX/mzJkjL2zrN7ruCBXf8pYtW1aIGpo9BPOpX331lexb/xitzqR17tyZ+vbtK0SNvJ9//tlh7jVlMvIWCwnbt2/vgAD3BDJw4EC/Bjfff/89Pf744/TFF18Qph+waBDy/vvvy5cCmJ6AZr169Wr5qkAyLX/c3W9LdtB38Vy7Sj12tvJCtSaO642MOkHr2PwMmckLxhoyYb/Y2UaMmKf9wG46N3339p9oyri26e14xobtVL5oAV7w1kB+KPtPdCzN3ryH+9FETn2bV4VjjvqN+avorbtb83fNEXSE5+MhxXmR2Vf9bJaML1f/JWn4827vtlSBF9IZmf1YLzrHA5V+X803SQ4MHAm8460/1nKe9pfviaI2VcvRhD7t5b3y+PRFYuL3hrunujJCujyh9ve79f1v3XfCgZ9p8IErmd8s/nDq2y1+kCk8PNzp/x+gX3fzkvEHB5CVWcjlT/lglcFLHy9qaMd4WWPhUbAE5tXy5csTtDvMr/or0AIx/20+D/P3PC2XcgQwLYE1EK6DqZTXnLwaPujTjo7FJRBIzyrQrMPy5qKo2Hi65mL+RrkCuXPw6uysDuce1nNTax8Lz0oyAUfzamtYAXxJLV7Fjnn5ez+fQ8XYOhBz/oKT2dzX+b7yXfsDcsnmMjVireMy///7El+4+zr/Vsq3kjWPbpy0aVHSLGlSli/eEIY7rnCXdivhFQrXkhU3AjfB3DyPI6tQ6K2PPpjV5j6KBZQNMyq+BQ9UsAreuhI+0PO1fPIRwPf4oSDPd2osn3qV4znpaX8kfl5l+gYN+mDMFXOYZBt3nleeU9qug8CiM3zKlRw5xovVgi2u/elQPYIeb1nPYzN3f/qjxzyT4Qt3Uy4jbM373+17nwmbzSDOU6ZIs4vhDbNFWbf1mBN0GxQEsjqZvC2jqqDUnkaV4Ntqs3o8jZrUZhQBnwjE8wIrfHo0cVkkBTIn7bPiECpwnOeuf2e3n2ll1VjOn639ZXfcEkIwpJuuGOXMaNXyZZBL7x1EzulYMeJqAncUZ764FfjDcT3pZCdTmdKlbwRrdHSzzOPpBGvtpiKgCCgCaY6Ag6jRshvFzJjBpWOsLUMMJ5g8W6pkOf1BvinrlKEHqYZAVgU81bDVihUBRUARCBkEPL7rYfIGWYPQsW8VS56V/E05s7Weovupi4B8px3MJrBwS0URUAQUAUUgdBAQjRjdMaRs16jNsbcFZMgzmrZsTR2hc3kZqidBJ+0MhZ5erCKgCCgC6QABkK1VU0aXDRE79u3aNo6tIm59lKitkNzU/VQhbV9uPm/qFWvjioAioAhkQAREY2bytZK1gcEQupq7DSKhu7W5kwrd/t30nsHjFhyxIPqUv4Ly/P27v8UDLtexY0eqWrVqwOd5OwGBNnr16uWtSNDyEASkfv36QavPVARc4DEPPzjGSQvpXrsSffJAJ/Ea5qm9GiWLcsCP4p6y0yy9bngxqlemmLRXlUNhwi2pOynM34535UhjrSr771HNXT0pSYMnuJZ+tN+0gs2znL9tNWR/7wiHejMEYUoN/sFs318M3JG16YfkMaHDS1/bquUkuVi+PNT+tnISNMaU8+d5N2V1mzoIhAxpN2nSRLyVwVGK9Ve8eOq87BCTGe0Yb1qAF7G1EbrRKpijBwlXqlTJmux1H57aPJESPLSZ60MISYSojGBnIIEIPLRhpX4wBZGvrHGtTd1wIQvHNYh0FiyBtzhEXQu2gKgRJxs+xuvUcY58Fey2TH3zOfAH/FkjbKUn6V6nEt3fuIan7DRLH9KyLj3G7k0hfTlWNbyfucodlcJp0oNd6E4ejDRgr2w3S0DYA5vX9tn8o/zNtiEZn4W5wAN8H7rW8v9/2Z86/S3To24V6t+0lr/F/S7nCYNe3N4gK4YwcdvnsqFZY55bVofbWwJxd65RgYa2sQ2oG0eUYD/z9akQB5Mx4s/zbsrqNnUQSBXzeHK6alw9TpgwQfxImzrS0kEJ+mD6YdqHP2vj99ykpWSL+uGxDbGgQZQPPPCAuOR8/vnn/a4W/Tlzxv+ADP5UvGTJEnH/6loWgTkQ0zoQS4NrHWl1/OWXX0pTCM+aVoIX3ctzVvDLuKb43o7lgBquMnF5pNvgFa7lQuG4XbXytI39do+cuyIUuuOzDyN+XE7x9ohwPgvf5AKIjZ4tS/D1JE8YVGZrSvH8iSFh8axK63biltXiAWLiz/MeYJVaPEAEQoa0Tb8R+MGd68/atWtLTG2EXkS4RYRWBNF89NFHEjxi+PDhlCdPHrpy5QrNmDFDwmEOGDCAYDJF1C+EbgQBYR8Dgz/++MM06XELzduYuUGyO3bscJSF/2yYeeFUAh64YBGwaqrNmjWjBx98UAYBCxcupEmTJjnORdhJXCd+iFyGYCdGBg0aJFo6Biu4Zgh8aiOq2SOPPOLw2Q1/5lOnTjWnecTAFMC1xMTEUPny5SXUJXBCfWfPnhW8MJhAmvUaPvvsMypcuLBUAV/vuFaER3399dcJfuAR4nLYsGGmCfHLjpCY8AnuS4DrzJkzCRYP4Pfiiy+Kf3ZMR6BuXDv2EQ4VgxTjQhZWDFhHcN65c+forbfekj75ai818xGBaxLHk3aVbrUq0gONbBr2lqOnaOzCtY4i2flZRNANmGqxj+hZg6culEhbCHAxtG19alExnLLwPkJkjpq/RtyKInrXmJ6tJOxl68plKe7iJfqYQ2Vu4iAjRgbfUYcDf5Sj6eu30fyt+0yy121Pjqd9Hwf9yMFuTCEzBt1F8HD27PdL5LhSWCF2V3oHfcs+yhEUBOVm/7Wbpq7bJj7I+zepJVME0ezGdMyCNbT/dBz15IAjPVnby58jOx0/l8CBSDLLPty5IviIL0HI0XH3tKZKRQvRfvaDPu7X9XSS64Hce3tV6mEPaAJf7T+xxcNIAzaBP9e+kfQxktu5jclrxJzljnCnILLJ/e+kgjlz0LoDR+mdReuThBo1dZktopyN4qApOzlMah0OO3qRPceNc7mOKQO60i9/76eO7JO9EIdX3cuRzob/sJRgFn+lm80Ss+3oaXrrl3WmWsqfKwdbaZqJf/ZrTKbL2HkMYpWDHCH31KtCTXga41hcPE9n2KbcxixcI/fbEwYIijKMrSjWe4m6npr5G12/dp0+6tuRRi9Y7YgdDhP4g01q0qCvF6CYT/H0vPs8UQsEBYHgD/tS2K2XX36ZEKwDvxdeeMFRG8g2e/bsQtjLli0jEApICGSDlzoIZeLEifKS79evHyEqF7TDHDlyCGEiPOPevXsJrk6tJnFE8fr444/l52oCRhv/93//RzCRw0xsBH7FEfBiy5YtQpwwbyP+tlVgTv/mm2+E6Lt165ZEg0dZEE+FChWc4nMXLFiQML+MdAw+EBzDeJtCPOjx48cLmRkyRT3eMEA+BNeP2OAID4rrghc5nAeBiX7VqlVJrgHp7733npSZNm2aWAcMIeN84FWiRAnJb9y4sbSBgZQ/gv5gIIIoXMAPAzEIpiIwiEEegsGg/hEjRkge2oNp/fDhw4RpBkPwkhmCf1Zw5KyR81bQgZg4cWdq7WLv+lWpVqkwGv3zahrGL9PVHE/bfjuoC88ng5B/ZsKFdhbBATeeYhKH4EWci6Nu1WCf3+MXrWM/31epH2v5VinKPsBRpgATglW+Z3L7boNt4LmA657GpG5kCZMF+noi/jzt4PjW2H938QaTTTmy2doFYc/fupfeWbyezrB/8hIcGezRO+rRLo6nPX7RH2JReIPJHVKQiQv9eP/3DezPPC9t44HL4dizdA8Trj+Sl//fo+MvSltlCuWnOxkXI0t2HaI3eXCQJVNmKpInl0mW7bB2DehUwnkax/3BHC18jee0D0ZQoCIPAkCuk9ZsoaYRpalK8UJO57s7wPmIdhbOoUfHL/5D4pg/3b6hU1EMTvpwhLWtHF71TSZWEDTkEAdVQV8Px5xjvPI4nfNMu4YciSw/fbpyMy3ctp/nkMtTe7Z2GCnApmkMmKrz/f581Wb6au0WxwDDEwYI74r7hwEG7if28Yvh+xXNg8MEdp/bq17iPYDZHiFcr12/Qav4OZy50faM/BV1imZt2inTP6Y/ur35CIScpg0NMyHBNpo2kbqsMEHDnDJliiMJYTxB5khbtGgRrVu3jr7++mvq1KmTlIEmCe0cGuzy5ctlrtNosCiAqGHGBF+kiPMCFbhGPXLkiKMts9OhQweeGrohkcaQdvvtt1OtWs5zVQheMnfuXCFHzAkjHyQPAREhWhgIGgJydpWRI0dK0AtrOqKM4YegKFa57bbbPGIwefJkR1FExBo6dKgcWwO7REZGkjUeuTkBFg/jzx0Dnr///ttk0e+//06PPfaYkOwHH3xAd999t2jt7qwkjpMsO7jHGBBBmjZtSiB9zPE3b95cYqbDGgIBbrg+iJnHBza4bxhMDWBrCkg/VPyNS0ftfzDXjR9cmSLUpVWs4SKj+KU+ec1WR3YrDqkJzXvKWltarfAwXshmGxyZQl/wS37ToRNUmAlrUHPn+fvlTGgxCRdo82FnbXYpE7OR9fZwoObY9BVRvGLZ5/m+U7Emy2n7Hb/Q53DkLyP/Yu0cAu0R5+Zkch/apgGVLGAbxJ7mfqzkwQvIaRVvMVCpX975Wkxd7rbv8uAAmh3M9sDBCK4PP9cAIRiwgOxHzV9Ne06eEXP0s6x1WwVa/8yNOyUJlhBgu/N4jLWIx/2v2KKydv9ROssuakdzoJS8TNTWwCrbj0fT+7/ZBjt/Hjwu9QAX1H+G72nu7M6D+5pMxmv2H6FF2/+RspjLb121LC3eccCpDyPnrJQoZdZETxjAtzruH5473A/Xe7mAB10PNKpJWdnykTdndgrnEKZjFtqeNcRgxw9yiH3QT1u/3dqk7ocAAiFH2iA4by9+K9kAP2ilkE2bNskWJA1ygjaMT8+sBActEyZgmMmNIO72rFmz5BChPXGeL4FJOz4+MTgCCMOVtI0p3ZAeNEsj6MfGjRvpwIEDEvcbx1aB+RxRqvwVbxhY64A5PliCQQuuAQsIYTHAanYMUvwVDD6MwARuVsPny5dPBiYmD4OFGjVsJmbcG2ADwoYgLjYEVpVQJG3pnIc/c9mcezubcREhC1guZw1ngj38ZgHWUPHCNLKHNSZohFYxJBPNxAUzslVAAvilhsB6YJWiPBi5wKQEYoLsOGYjv+L2QYo1etkVNimDZEEW/ghM/yBsCAivVEFnwnNXR202XUP2n7YNOvaeTDr4OMCmeyMIEwoTtb+yky0KEAwIIGjPivW6AHDHXQMWu/n+GsEArnCenOZQtsD3eBCDsSzc9g891Lgmhy4tS6V4cHWJ78sG+wDDqWE9CEkE/PvvCaGuuy7AMlqyeelD+8J8N+awIcmJLezrchH1y2oOd/d5kbd2cQ3QMmEBcCVstI2BRSDiCwNTl3WgYdL83YKYXQUmc+D97LPPSpYZ/LiWc3dstWqAjA2JY+GfNQ8WADPwwj2FVcX0BSvFIadPn07SBKZTQlmg2T4z83d66Kv5MjcMc7ghnAQmkhIFEs2oZThKmCEvc03eni/Mv3ZgzbQ0a1DBlvgLzuE6sfAOJnDMV0PKF80vW5AshMcjaSpYRAfB3D8kgmOEu8r1FHSqHJvHIWXs2z08b20VaLf+CqCBSRomfCO471bNHekXWQlJjsCPmdWiY+rAAAtrLLrymos2PJ+9Yk/wBvOmDd2mHgLpjrRdodi1a5cQc58+fURLNubf1atXuxYN2jHM8JgPfu655+iOO+5IomUHrSE/K0pNDLDYC4OIrl27yry+mQdH16C5YwAyg3FmAAAiJklEQVQC8zYsA4EMChBrvE2bNrLoDtMF0NohMMFjLQLWDFSvXl20bEPo5p4++eSTsqIdJnkQuqtlBtYN1I3Fgda1CNJAiPzBYiG8rPGC3mA3VWPuFRLJi8qKs5m3MX9yhe+VsQ0kSti9PK/6BH/a1ZrN7Kktpu/9mtSQ1fOYr4Y2jRjhN0NOnE0Qzf9R/rwN36Lf37h6ULvRh6cDCvI8M+b2oQGf4ihnKRHM8TerWFqeBXw3XyR3LorkaY9gyA4ewGDghgGGK3n/uGkXIWRsAV6MNzsycbojGO1qHamLQMiYx71pDlYIXMtBU8X8ML5dNouk8HLHy79t27bWU4XcXc+3FrDm1a1bV1ZJm3ysaIZgcRk0SizEatGihfyg6VkXhqGctS7rsWs68vwVfMpkSBOkhB+0fqy89oSBtW53bWMVPAjSCL4hhwwcOFAW+mEfUwhdunSh6dOnCzlbV4z/9ttv1Lt3b/n2HGX9EfQD983UA7LHgjQIVtnjG2v0C4JymLaAYO59/fr11Lp1a/mhHtxzV8sEvrV//PHHZcHd/v37HZYAqeQm/DH3zNp0PXa28kK1Jo7nJDLqBK3756gUwWrohkzUL3ZuKseYo/zAbjo399CbAmvKWNsL1r6rlrqLTbuLdx6gu2pXlh/afo8XnsEsbu0HK5RkM3T71xM+22vBWUPudkwL9OCV7/itP3hMVuhPXL5JVk+/dXdr2nPKZnq+zKumIe5qdZfmqfHivJDsq353SvaXq23TM9ay7up6t3dbWR1uys1+rBfBLN+PrSyY/0Y/J/Sx/Q/+w6vkf9i02xT1uvWGAU5cvieKTeDlpG48g49PX+Qws2OxGgYd6EdqxEH32nHNTBECmfjTG3fPWbIqxUKhZbyy+2a4McU8NVZcY+GYmfNM1kUEcBJWL+PFNGrUKCFtaIA3U24GBli5j9XeIO5ABVowTOPu5u/xORny3c3DIx3z2NCwzcr6QNtOy/If9GnHn+wkED51sgo06zD2Pgat1Dr3a8oUyJ2DVz1nJWiPoS5YWY1rOcLX4krs7vqOuVxX7c+Uw1SAP3WY8p62MNm3YC323+wspPfntsGo57KZZCW6u3x8ilW9RGFZf3Av11OMrSAx/Gkb5oKDJViFf54tWpg2SQvJkyMbTR3QjVejb3X6XC4t2tY2UoZAyGjaKbsMnhtikxxWe6eVQLONioqSb8Oxehkr1m+2pCUGmE+GNozPsPApWnIEgyt3hI263M1TmzZwXlrea9NuoNvnOzWWT71ghpz2x7Ykp0ODPhjjef1CHK/ijqO0eYkn6VyACZgnPcyLqPyV//E3zWY6wPWc33YeoI/5W+XkyvCOjWVVNAiwEVssXFfKu6t3BFs1XFfom3In+bOp/1vypzlMFc00mAvNHB31sNO3YTX+rLCiDDp+5UVpKukLgVuGtNMa9gULFogDEGj2+JYZBJ6RBCv0MXcM83hySftWxyuePwvCwqSJyyIDmpO+1XHB9Q3lb9OzsSbsTlwXYrkr4y3tl7/3UWteYAVt/tV5KwkmfF8ygUnZ0yACGjU8mf2+62C6sOz4ulYMsJbsPEg/M06un8z5Olfzbz4CqWIev/mXpT1QBBQBRUARUARuPQTcD3VvvevUK1IEFAFFQBFQBNI9AkE3j9+MRWjp/i7oBSgCioAioAgoAn4goJq2HyBpEUVAEVAEFAFFIBQQUNIOhbugfVAEFAFFQBFQBPxAIORIGy4q8QkV3FUGW/Adc//+/R2BOvypH99iI/JUeogn7c/1hFIZ+Ezv1atX0LsEb2t4hnDvUlu6165EnzzQSSJAeWqrRsmi/DlRcU/ZaZZeN7wY1StTTNqDtzB44EpLgY90hADNx0EqgiVNK9g8ywWjPnioa8vOSCDF8uXhiFvlKLslOpg/9zoY/dA6FAFvCAR9TttbY97y4DBjzJgx8t2v8SCFiF7Gy5m3c/3Ngz9quL5EtK177rlHYlm7OxdBS/BJFwS+tUHa+C7YuNp0d46mBY5AgwYNJH73jz/+GNDJo0ePlmhu8N1ulWLFikmYURM9DesrcO+sApepCPsKT2uuedZy/u7P58AfLSqFc0zk5vQSx2x2J93rVJIoXxuD5J7SXRv+pA1h155wOPLoN79Q30bVOc50EadgF/7UkZIyiBvev2ktjiJ1ms7x53C+BGFI3+7VmiOI/eHw5OV6zqMt69EyjmpmIqK55gdy3LlGBerCvyX8aVfjiBI0sFkd2srhNY1zG3/udSDtaVlFIDkIhAxpP/LIIxIeEt7FQKoI0QiNKbXk/fffd2jcGCzge2vE1YYcO3bM0SwCWMDrl6t/a0cB3Uk2Aoi9Db/pgQpilbsL24pnB/HT4dYVntQQgcxVXn31VdekFB3DneDLc1YwGdUUn9QIoOEqE5dHevT+5VpWjxMRwAADjmnysvcuTzLix+UUz5Hf0kL8uddp0Q9tI2MjEDKkDVeYcNYB/9KQFStWON0Z+BEfMmSIaL7QoCZOnOgog2hT0IQRwhFa+sKFC8WHNSqAf274oYbZHaEwjURHRxN+ELjCRHxnV2J+5513iN28Spk33niDTLjNcePGSTo0d3j0QiQq+M8ePny4XANMs4j5DH/kqBu+uz/99FOpR//YEEAMcdwr+A1/6KGHHLBg+gI+3RGCE+ZzkPObb74pzmuAb6NGjeRetmvXjlq1aiX3bQDH1EZkMGjRiMONZwHe4TAosEq3bt3EbSr80psIYdb85O7D7eYkjrPsKt04ihLiNUMQVWnswrWOItA6R3RpStVLFiHsI3724KkLxX0n3HsObVufXXCGs2vNTLT39BmOD71GgosgetWYnq1EQ0ZkMISv/HjpRtrEQUaMDL6jDrWpUo6mr99G87fuM8k+twOb1ZKoT4hHDb/Ur/+0knbbQ1A25DCiQ9s2oHyIH8335v3FG6RNX/1pwOchnnVO1pr/tkfg8tkRLvAe++suya49IW/2bMn/RzfEt7iJVX0vBybpUbey5MNX+09s8YD05LSedatQfu4n4maD+LEPF7Kbo07KNMZ/OjSiuuHFeSDF/uw5DffFNYqaVObmj6d77aaoJikCqYJA6k/6+dntP//8k0qWLEkgShC0MZHjdBDnU089JdowCBPxl000L+TDtI541gjmAWLFy9mc/+ijj0qYTphE/YmVjfqMfPbZZxJCEyZytGEE5le40lyzZg2VL19eAmkgH0E1MI86duxYIZaPPvqIli5dSvDJbsjf1JHRt7iPq1atcgpxCkywdgD3KS4uTgJ+wOSNqQwIXMVi8ARCRyxt7IPQIRUrVpQt7sEPP/wg98Q6GMD9AbkjmAgIPS0EsadHzltBB2LixJ2ptc3e9atSrVJhNPrn1TSMvYOt5njazM8iXWpWIBDyz0y4X6z6iyN9FaSnmMQhMBkjFGaNUkVp/KJ17IryKvVjLd8qRdk3NsoUcIkT/T2T23cbdkjRBVz3NCZ1Iwjn2Z2DfnzL+f/+drEQPnxuQzC/+1KXZrTvVCy9xkSOLVyFQnz1Z1i7BnSSyXP84j8CChX6Lg8KxixcI218sXKz4PiNxRXsEjaJv7lgjfgLL5InMQxrQY5Fjmt/n4OWgPS38WAJkbQQfQzybPuGVItjYH++ajMhsAjCoXapGSF5q/gezNxow+evqFM0a9PONPMFLh3QP4qAHwiEDGkjuhOic+HlC4JGRCloVZD77rtPttu2bRMNCZGtoDk3a9ZM0vEHpD937lwCUYKwQeLQvEC4iF2NcJozZ850lPdnBxrbpk3ufSDDrGusASAJhKiEZt2wYUNpc+/evaKBI7QlXH727dvXnyYzTBlYVNwFAzEAvP766/TLL78QonRVq1ZNkhGiE1oyrBfwTY593CMIAoxAoJ0jKhjyQPYmNveIESNk8OY6Dy4npdIf+L4GwbmLsWwNlhHFPrsnr9kqsZXRlVYcUhOaN+ZpF27bTxs4elUdXkRmFRDZHxzS86e/9lJ4QedppOVMaL9s30+bD5+0nkJLdx+S+Vokwh+30U6dCvHBafa1DQ0dfYd0q20bEG1lrbRC0YK0ned5ESDExP9GGXf9KcwBRKC1/9/STbR2/1Gaum4rivolR2LP0b7TcVL2QPRZ6Ys1DGZMwgXaeTzGrRvO05y3kgdMCOazirfbjpwmBF+BNChbgo7GxVNu7n9eaOMcjKUz++GGbD8WTTPsg5pDMWd5ULNdLA6SqX8UgRBBIGTM4zB5jx8/XmBBjOonnniCoCUjFCPiIuMfsH59m7aBQpiDhnnaiDFdw8QOKVSokEP7wgscsnWr/y8NOcHLH5h1ofGZ8IPQ3rDiHZo3BH3GDwKyCSTWtJyUgf9gHQGwhUDj9sdCEhtrIxiQ8sqVK8UKghCq3bt3l8EgBnHwkQ6zOgg+K0fPwtQJLCE3Q+ayOfd2Nh2PuqulPEPLWcubYA+/WYC1RZCGkT3sO7tphPNKbxAWJJoJCquyrbJm/5GAF5jtYTP4qn1R9EjzOvJDSMsxC9cR5uhLFcgrA4omFUs5mkE+iNtEunLXn7qlbQON/adt92bX8TOO81Nzxxox7Qr7DYd/bfghB3FjQA+yblbJhucF/j+O5cAsKopAekEgZEjbChheutWrVxdzM9KhxUJgEvcUitGQpxS0/8GCNgjmmDFfbUyo9uxU2ZgFUl9++aVjfj5VGsrAleJe4/M9q5iALSYsq3lOYGnBAA6DqjvvvFNOwRQGXt4YGN4s0oYW/szM34VA7q5XmXrVrUpLOYgD4hwncIzjEgXyOC6vDC/Gcp1zdfe8mxNg6sZcMzRHaKz+yruL10vc7pa8Gv7J1vUJ88ZfsnkeAwPIi7zoyzVkJj4dg7jrjwnUUZJJH/0oWziflA30T9YszoMSX+fbrfpJip27YBsIrj9wlC0DSWNhJzlBExSBEEQgZMzjTz/9NN11110yd4xFQliMZMgapm28ZJ955hnKly+fzIMOGjRI9r1hCqKGaXrgwIGEuVF87pXasmHDBiEIrIZH2EqQC+bYsdBOJTgIYHV/3bp1RQM332LD1A4NHc8Q7jXms/HMzJs3T6w1MJWbH+bDYdlJTgzw4FwBUZMI2/fFiGi1gU3VEBNlKpIXlRXneenGHFYygskX2wPRNlOxP+3fW/82eqLV7dSazez+SoWiBeRbcmipfx46LoOE3NltY/ql/AkUtPmHeaEa+og5YxC66a+nNkDU0MQfaFxdVtbfw/P4gQhClyIiVcfqEaLVB0bdSVvCgOOf6FhqWbmMrAlAiSo8wGnFxyqKQHpBIGQ0bZi6Qa74QWDuxApxCL6Pxjfb0JRgOoeAjGH+NOI60jfHMJf27NmT8O11ICZqkALmVY288sorsovFbkZMGzjGPn7Q9D744AMaNmyYrGQ2eZhrV7EhgDjc7du3d8AxZ84c2ce9t2LqKOCy8/3338sXAfiGH8/BvffeKyXwGd8LL7wg9xqaNdZIYNGiq/jThus5KTnG4MFV6rGzlReqNXFcb2TUCVr3j62vWA3dkIn6RY7xDAF5fWA3nZu+25aIudZqOzZl3Oe6Ty3Bi7bM4jKUQAzpKWtt00owfU/fsI36NqhO3WpVkgpAxr9wLGbTlqf+fPvndurfpJaY9zFPH6jM3ryb+tSvJqvht/Hq85FzV0gVs4bc7ZgW6MEOW/Bbz3P/Ry0xvXnBOV13aXDsL+todI+WNJqnJYxgbn/5nsPmULeKQEgjEPTQnFg8lFzBN7Zly5aVz3ywgMtVoFXBxI08Y4Z2LePuGCuHMS+Kz7PSUrBiHAvm0K4x16Zl+xm1LUyHhBLmH/RpR8fiEuSzI+s9gaYaxou1omLjec7YlV54JT3PwebkuXfj3MN6bmrsY963JJvloxMuykDBtQ0snitdMC8lsPYbE28zmbuWcXeMuW+s6j5+Nt6Rjbasi/EcGbyDqQBXM7w1Pxj78MpWKDf6lECXeQCiogikFwRCirTTC2jaT0XAHwSe79RYPvWqHFZYPl/acPC4P6dliDLTBnb3aF7/becB+niZ+682MgQ4epGKgBcEsnrJ0yxFQBFIAQLx7KoTn3tNXBYZ0Jx0CppMN6cO5W/Ts7G27U4wz6+iCCgC7hFQ0naPi6YqAilGAO5LVdwjEIh53X0NmqoIZEwE3A91MyYWetWKgCKgCCgCikBII6CkHdK3RzunCCgCioAioAgkIqCknYiF7ikCioAioAgoAiGNgJJ2SN8e7ZwioAgoAoqAIpCIQEiSNoI+GL/diV31bw8eyBDeEZG4rAK/4PjGG24tVW5tBD5qMpYWdZpFU1vanPOkxdV27NiRqlYNzOOXt35NbjFBrmFi03EeiwW7TY8NcUb32pXokwc6iWcyT+VqlCwqXtU85adVepsqZcWNK9prWqEU3VbC5mo1mO0j8lmXGhWCWWVAdeXnCG7tbytH2CK0K/aL5090fVsxrCBNGdCVsFW5tRAIKdJGSE5EzIInNITFnDJlSsBow7Ma3JXCwQYEJA0PZYjwhehP3377rcMHta/K4ZQFntTgjlQl/SCQL1te+mbvTBqwcqjfnU7pvX744YclBKvfDfooOHj1szRlzwzCtXiS5LTZpEkTh6c+T/W6S5/PXsPgL/3Vrs3dZUta9zqV6P7GtvjhHgulQcZTHPf7Tg5vCnmqTQNHTPNgNl2D46APblEnmFW6rQuhT+GcBx7rrFKB3dvCP3xlJmU44cF+U3aNawQR2hb+vY/+y57f4HZW5dZBIGTuJsJoIiTn9u3bJR41yNe4p0wJ3K+++qqEyESMa4Tv7NChg9/uTKG1w481YjyrpC8Ert24Ttdu+O/pKqX3+qWXXnL4yg8GUuj71eve+5+cNhGzHl4HAxW4KX15zgrqz7G7C7InMUT/chV84ubJy5lrWT32D4Es/C17OQ4YkzdHNv9OsJT6jt3hXrh8VcKpwgWsyq2BQMiQtvE7DX/fCMsIV6XG9/i4ceMILkFB5HBPWaZMGSHe4cOHE0JxIsTi448/Li5DDxw44Lgz0LIRLQyRnP744w9Jt7pZRb3wnYy6oWlhwAAf43A5Ck0f8bEhr732mqQhnrfVH7lk6p+AEMD9AIbwx40fQqyCROAjHjHVEX71ueeek/uBewPf4S+//LL4ooc/eOwjOEiFChUI4VE//PBDWrVqlc8+wEXumDFjqHz58hLEBX7o+/Xr59e9rl27No0cOVL6iFCfCOu5ZMkSid2OwDDGjzr840+dOtXRl2nTpkm87xo1asi1Lly4UK4RBfDMoT/58+cXsoev9OXLlzud76jIZSc5bebNm5cmT54s1w7c4b8dAssTrFv+CNyLTlpti5xnLd+tVkWHNrvl6Ckau3CtIxum2xFdmlJ11kyxD//jg6cuFDelMO2+2rUZVShSkAdYN2gZx/ueyJ7QMEDoyb7E27DJ9xL7lq9UtBDt50Af435dTyfPJTjqfq93W9FAX/hxKR22+Bx3FPCwgwAhj9xRR2J9I2znV2u2iB91mJMh+Tl0ZyTHDq/HMcyx/e/PqyX9IbYi9KhThft3gw7G+B/ABSd7atPbdeL6Sto17Dd7tuRn9Yb4V3//tw3SH3/+zGMLicqthUDImMdLly4tL2YTR9kKM+anEYhjzZo18tKdPn26vNS7dOkixRB3GwFGPvnkE6fYy8ZEjoAj7gT1Yh4SL0u8xPByNdG4QOjvvfeenIaX7xtvvEEIUKGSMgQw8ML6AhN4BaQF/M29BLniPoOcP/74Y1nbAI0SgnPhyx3WD9xrDOwQXtMfAdGB6N955x0JKgKriwnk4etemz6DsJctWyYDupgYWzxrxOhGHHj4xTeDPNMfDAQRxxvXinjviPZm2kSYWQwqEcL19OnTEuPbdR2Gqcd1m5w2ExISaNSoUTLYwGAIzzN+v/32m2v1AR+v2BtFI+etoANMZEXZl7pVenNkr1qlwmg0E98w9oK2muOG85hB5Jl2DalMofz06crNtHDbfp6XLU/tq5WXvAJM6GU5Lzr+Ir3DIUNRzpi8bWcTheXLLabf7GxCtsp3f+5wBABBoBOY9o1UCitET3O7B6PPSp8/WxEp4VGRD7Jez0FbcB21S4fRu7+tp9vLFJe5YlgXetWrSiu4/59zf6H9+ive2vR2ne8u3iDub9HOF9wmMP7mj23S7CGOoDZr0046xIOVc+x5D/uIDqdy6yMQMpo2NAG8WDzJrl27aMWKFdS8eXPRDDp16iQvSZjV8fKD1oL42dg3kcLMYjbzgnVXN8ge89YQRAPDnB9IHmE9ocVD9u7dS3//bYt4JAn6J8UIzJ07V8JoAluQdqtWraROEPa6deuoUaNGYlEBMZv7aBrFIArhWuPi4mjEiBEyfYF9b2LIEmX27NlDeJ6M+HuvoUm7rrM4ceIE4QdN2Z1gcIBrXbt2rTxnIHE8pxhQ4nmGhQEDATOIcVeHa1py28QzjLC3kGA+z5jrxg8uW0GkVrGay6OYYCav2erIrlmqKK3Zf4QWbf9H0hAys3XVsrR4xwFHGcT4hobfjsm8VniYIx07czfvoSI8SDhtj/dtMr9l0jby05Z9Zle2PepW5uAsN+jVeStF27dRYGKRNfuO0EUOIJKLg7ms5v3n2t+gonly8cK2/HLeh0v+lMJ1mcytc8iJNSTd89UmznB3nQhtesY+DXGABxmYpzYCj3LT1m83h077jkTduSURCBnShrkSmokngSkUWrgJBYiXJDS2pk1t4QvNS2jr1sSXgokE5qoBWduwhm5EjGVofiqpi4D1HuKe4mdIFaFXn332WTF9R0dHi3btSoibN2+WDiIuNgTPgHXaQxJd/syYMYNg5kboTrSPOqBpBiK+2nBXFzRsiBkAFipUSOLA49nduXOn5OHZR4jRYIm7NoNVd6D1zGUt9/ZyJWgUL4gC7stZU53AYUahbCPS1+4TNosF6gWpF86T+HVH3MVLQtjIA3mV4ghjVpm1KXHgZU33tl+CV1gfPXvOYxQxhBy9wu+Wq9dsUdcQ3jN71sxUs3QxOnMhcR5/78kYv0nbV5u+rtPb9WhexkMgZMzjmNuEeRDm0UAEWgvEmMLxWZcRzG/jRdG4cWOTlGTrT8hMmGRV0gYBWEmgSfbp00fWKZw9ezZJw0ZbrFSpkuSZAVuSgpYEDACGDBkinwNiPhrTIM2aNbOUsO16u9dnzpxJUt5XghmgWMvBegCSrlKliiRjsIp58mCJuzZN3d7yTJlgbqGBPzPzd3roq/k0+6/d1LpyWTE9Y94aGm/ZwomD5BIcFjSQYCGNOeZ4B9bAEeLUX8GcenH+XCtQAUnn53CeRsIt/TZpnrbJbdNaX9Ys9jkFa6LuZ0gEQoa0sUgG2tZ///tf0URgEsVqcl8C0yZegHjZY64Tn3sZgeYMraNFixbygsYL+c4776SWLVuaIl63eLlCw+/atatYAYw26PUkzUwRAiBpaKEgMtwrxEF3FRA60rGQDFp6VFSUa5Ekx+abZpjRYYKHYErGSFrfawwo8RzCSvD888+bbqT61szlY34dK+ZTW5rwZ0ggZpDxhgPHpDlDsodjz1KziqUlv1mF0lQkdy6KPOT/vOy/29anJ1rdLjHA/b2OpTsPyoK4gc1qC9nje+sWlcJ9nr5631E5r3ONCJ5fz0dNyid+XuXr5OS2iXrPX75CFzl+ecfqEfKNvFK3L7Rv/fzgDe9TiBVM2VgtjkVlZgWu6zylVUvAvjnGvCDmozE3DVOjVUaPHk1vv/2204vRzGGjnKnDnON6vHjxYlkkhcVvWLk+bNgwU1S3yUDAatkwWJstqsN8Nb4KAN5Ix3oErFOwCqY7zKJAfH/vj2BVOhatmbYwl455cav4utfmXOs5s2fPdpj28RUDfjB7v/jii1LM9RxzjIV0eDZhrseAAVMAGID4I8ltE3VjgLN//37Cwjz85syZk2Se3p8+uCvjblBbr2xxeqFaEwfukVEnaB0v9oJgFfRbd7emCX3ay/E/vEL8h027Zf+6rCGXXY9/+PEIWND2/K17xVkMHMZAfozcRat4MZ1DXOpFO8fPxtNmXkn+6B31pBhM2s5L7hxnJ9nx1qY/1zl7827qU78atalSjvDp1si5K5K0oQkZB4FM/OmJyyOa/Ivv3Lmzz7lFf2rHJ0B4ufujQZn6oJlB+wKxuhPko158LoSV6CqhjQCmO3AvrSQPrRQk17t3b/lkCmZ0d/cS3sTK5S1LMZfOUO+lAx0Xmi9fPsJXCrDOwIISCgLrD1anf/3113JtZoHcjFafU7FcYRSVcJT6r3wyFLrqsw9wAnIsLoHe/nWdU1lo1mG8YCwqNp5N4ra5YmsBOA45z/cDpvS0Enz/XJrnyGMSLgZkkocjE/5Y0ek7dXzK5kkwP25esMlt01Pdmp4xEQgZTdsKP4g1UMHL2xNhoy7km4U/gdat5dMegX/++cdro97yB65ybw2BRhsqz8D9999PrVu3psOHD4svgQsXLjitaO+7fIjX6w+lzOc7NZZPvfAZ1DT7J0nW/sHEezDG8yAJWmxaCwYPh2KSrpfw1Y+4884DC3xr/r/+tu+73Z07ZuEa2nDwuGQlt0139WpaxkUgJEk7494OvXJvCIDgMCcbzJXW3tpLzbzVq1eL1o/Fl5gOSs7K9NTsXyB1x/N3wvjca+KySDoQ7f3Tu0DqTQ9lz/F1Pzb9V49dPcOavIoiEEwEQtI8HswL1LoUAUVAEVAEFIFbBYHMt8qF6HUoAoqAIqAIKAK3OgJBNY/DO9mAAQPcYjZlyhS36ZqoCCgCioAioAgoAv4hEFTSRpOTpn+VpOVB9z+cJE0TFAFFQBFQBBQBRSAwBIJuHs+VQz//D+wWaGlFQBFQBBQBRcA/BIKuaa+eWIjCCmamvUeuUZunAnf76F+3tZQioAgoAoqAIpDxEAi6pn37oBh6fXICVSqdhW4rF/QxQca7Q3rFioAioAgoAoqAHYGgkzbqnb/W5oCgRKFUqV5vniKgCCgCioAikCERSBVWNR4idX47Qz5TetGKgCKgCCgCqYRAqpB2zLnrxIFpqE/bHJRZ16Wl0q3TahUBRUARUAQyGgKpQtoAcfjEeGpZJxvt+64otaiyN6PhqterCCgCioAioAgEHYFUWyn2Ur/cxC6J6e1pCVSolO94tUG/Mq1QEVAEFAFFQBG4xRBIFU07X65MVIw/+xo/4zx9/esFDn3nHA/5FsNQL0cRUAQUAUVAEUgTBFKFtHMzaUMOHLuWJhehjSgCioAioAgoAhkBgVQh7Ra1sgt2J2OTBrzPCKDqNSoCioAioAgoAqmBQNDntNd+WojCw7LQKSbsnQd5CbmKIqAIKAKKgCKgCAQFgaCT9oA3z9G5C9fp6GnVsoNyh7QSRUARUAQUAUXAjkDQSXvXYdWu9elSBBQBRUARUARSA4FUmdNOjY5qnYqAIqAIKAKKQEZHIOiatsbOzuiPlF6/IqAIKAKKQGohkCk8PPxGalWu9SoCioAioAgoAopA8BBQ83jwsNSaFAFFQBFQBBSBVEVASTtV4dXKFQFFQBFQBBSB4CGgpB08LLUmRUARUAQUAUUgVRFQ0k5VeLVyRUARUAQUAUUgeAgoaQcPS61JEVAEFAFFQBFIVQSUtFMVXq1cEVAEFAFFQBEIHgJK2sHDUmtSBBQBRUARUARSFQEl7VSFVytXBBQBRUARUASCh8D/AxKImmDkJSLQAAAAAElFTkSuQmCC;" vertex="1" parent="1">
          <mxGeometry x="307" y="483" width="493" height="164" as="geometry" />
        </mxCell>
        <mxCell id="mMl1sKTFDAsI_Ko-cwrK-49" value="" style="shape=image;verticalLabelPosition=bottom;labelBackgroundColor=default;verticalAlign=top;aspect=fixed;imageAspect=0;image=data:image/png,iVBORw0KGgoAAAANSUhEUgAAAe0AAACkCAYAAAC6lHbrAAABX2lDQ1BJQ0MgUHJvZmlsZQAAKJF1kD9LQmEUhx/LEEpKI6ihwa0CC1OHxkyjAoeLFv0ZguvVtFC7XI1oC/oK0dbQEn2BcKgh+gRBUNAQNURBo+CScjtXK7XovBzOw4/ze9/zHuhwqrqetQO5fNGIzc14VlbXPI5XHDjpp5c+VSvoIUWJSgvftT0qd9isejtu3ZV2n0Qe16sH0+/G9WD5zfu3vy26k6mCJrUqGdR0owg2n7CyW9Qt3hceMGQo4UOL0w0+szjR4Mt6z2IsLHwj7NIyalL4SdibaNHTLZzL7mhfM1jTO1P5pbjUIclhIswSleMhjoKfIJNMMf+PJ1j3hNlGZw+DTdJkKIo7JIpOlpTwAnk0JvAK+/FJBqxd/95hU0u+QCAnT402tS0XXFTAfd7URp7lO8dwpeiqof5s1laxFzYC/gb3lKDryDTLy+AYg9q9aX6UTLN2Cp0P4q18Aj9vZQqPir9BAAAAOGVYSWZNTQAqAAAACAABh2kABAAAAAEAAAAaAAAAAAACoAIABAAAAAEAAAHtoAMABAAAAAEAAACkAAAAANEO7XQAAEAASURBVHgB7V0HfBXF9j703gk1lFClg/QivQoIouDDAgiC7SGWh4pi4yEo2NC/WEGeCCiiFBEUlN4EIQjSi5TQSUggoZf/+c69c7P35tbkJtyQc36/m92dmZ2Z/Xaz35wzs+dkCg8Pv0EqioAioAgoAoqAIhDyCGQO+R5qBxUBRUARUAQUAUVAEFDS1gdBEVAEFAFFQBFIJwgoaaeTG6XdVAQUAUVAEVAElLT1GVAEFAFFQBFQBNIJAkra6eRGaTcVAUVAEVAEFAElbX0GFAFFQBFQBBSBdIKAknY6uVHaTUVAEVAEFAFFQElbnwFFQBFQBBQBRSCdIKCknU5ulHZTEVAEFAFFQBFQ0tZnQBFQBBQBRUARSCcIZE0n/dRuZhAEBgwY4PFKp0yZ4jFPMxQBRUARyAgIKGlnhLuczq5x0vSvkvR40P0PJ0nTBEVAEVAEMhoCStoZ7Y6ns+vNnIkoW1b+o6IIKAKKgCJAStr6EIQkAiDryMmFqXD+zLRp9xWatzUku6mdUgQUAUUgTRFIlYVoAwcOpOeeey5NL8RdYzNnzqTZs2dT/vz5JfvRRx+lOXPm0AsvvOCuuF9pHMpU6pg6daqj/McffyxpLVu2dKR522nSpAlNmDDBW5Gg5+UqW4tK9X0z6PV6q7BAo15UpO0gb0U85t3TKqcQdqfnYqnHiDiP5TRDEVAEFIGMhECqkHalSpWoSpUqNx3HzJkzU6ZMmahXr17Sl+bNm8s2S5Ysye4b6oTky5ePIiIiKG/evFSqVClJ87fekiVLUtmyZeWctPqTNX8Y5ShZNa2ak3ZylqpMOcvUSFabFUpnoavXiLYfuJqs8/UkRUARUARuRQSCah7v2LEjDR48mLJmtVX7/fffC2ZPP/00Xb16lT766CMaP348bdiwQdJBpr1796YHH3yQHn74YQKpghQLFChAsbGx9OKLL9Lx48elbNu2bWnIkCGUM2dOunjxIk2cOJFWrFjh856cPn2a7rjjDlq8eLEQbXx8vOOcHDly0JgxY6h8+fIEwkVev3796Pr165Q9e3Z66623hJivXLlCR48epfPnz9Onn34q56Ne9P/YsWMUExNDRYoUcdQLMh85ciQVLlxY6kLbOA8EP3nyZGkLgwmDz7fffks//PAD1a9fXywUuXPnphs3bkibL7/8smDhqNzDTvbCpSms+3OUo2h5KZGwfwOdmD2WMmfPRWUfm0SZsmSjTJmzUPmnZkh+9NJJdG7rb7JfoverdPXsacpZsgplL1KWrl+5SIc+G0z5aralvNVb0pGpw6VcoRYPUM5SVejYzNfkOHPOvFS8x/OUs3R1qfvKmaMU9dVTlLtiQwrrMowyZ8sh5UybyLt67pSk+fqTQ+exfUGk+YqAIpABEQgqaa9du1aIBmZoaKLvvPOOQHry5EkC8V26dElI2pB2165dCXnXrl2jggULUqFChWjPnj1CZv3796cnn3ySXnnlFYJJ+qmnnqJ9+/YJud177700dOhQv0h706ZN1KFDB0J9hw4dEiI19/mRRx6hChUq0Lhx44R4u3TpIpo58nv06CGEPX/+fCHwTp06SV/NuStXrqTOnTvTuXPnCPs9e/aULAw6xo4dS5cvX5ZBSvXq1aUc6jly5AiNGjWKWrVqRe3bt6c33nhDzjl8+LBsMYhYs2YNLV26lKCNP/bYY/TSSy/R888/b5r1uC3cdiBlyZ6HCfY/lInJ0mi41y9fpGPfvUK5qzShQo3u4f2RUseVuBOOurLlC6Pc5erRxaM76eRP71CO0rcRA0FZ8hamrJxnJGu+QpQ1fzFzSCXvfZWyFy1HZ1Z/SxcORFLBJvcQ8cDgwsEt0k6RdoMoS+5CUidOupYQ4zjX2072bJmoXYNsdObcdW/FNE8RUAQUgQyHQFDN4yCwv//+W4gMBI19/EDYkCVLllDlypWFBIsVKyba6dy5c51AB0mD4NatW0cws0Puu+8+2W7btk3O37lzJ2XLlo2aNWsm6d7+QCuHNtyoUSPRtq1loe0awWDhgw8+kAEE0jDvjAHFpEmT6JNPPqGEhARTVLarVq1yXAfmzY00bNhQrAF79+6lMmXKCBawMvTt21e0Z+ABrR1i8ImLs83ZgrBhQcCAx5xbvHhxU7XXbZY8hZhoiW5cu0IXj+yg2HWz7OVv0KUT++jqmWPc/nXZx/H1i4kWBxS8ceUSHZ0+guJ3r6HopZOT5Ls2njl7TspRojLFRS6g2D9m0WWu8+SctynT1ct0/fJ5aefa+TjW2i842rxxne3dPuSehpto74wiVKZ4FnrmI+c++jhVsxUBRUARuOURCCpp+0Lru+++kyJ33XUX/etf/xKTOYjcCLRTkCxk9+7dlCtXLiFGEBfMxTAfg3zr1KkjWivy/ZFffvmFLly4QL/++qtT8RkzZtCpU6dkYRrM06+9ZjP7olDp0qWlDXMCzOFWgQk9MjKS9u/fT4Z0kV+eTe0Q9Bl9xe/EiRNiepcML39gxkc/nn32WTkP12emGrycJlnRv33BpJ2Fwh/+kCKGfUv563X1dYpT/sVjO52OfR1kK1hSilzY9ydl4nvDN0i0cyTKsa8KPOQv3VGVxs84z/URPdvHv/vroSpNVgQUAUXglkMgqOZxgw4I1qrFmnTMCf/zzz+EuW9okzBdWwXzyJhbhrkcmiY0dBD5mTNnpBhM4iDLQGXevHmEn6tER0fLPDnm0DGX3a5dO9HeofFCO4eJ2gjmp0H8Vhk9erT1UPbNHPyXX34ppJ6kACcAH3eCVfcgeJjFIZ9//jnlyZPHXdEkadCuD332CIFMi3Z+koryqu1zWxfTDdZ8RYRTPY/Rrl04l6ROzG1nymqbl0ZmNp43N3LlrG1uOkd4Nbp4+G+6Ybda4MrQilyhPAee2zR1Wbcx8Xlo0g/nqUp4VrqzaTZrlu4rAoqAIpDhEQjsjeonXDBfY2EWTOFmtbU5ddasWQTTOLRIaLqu8vjjj8scdtOmTenAgQOSvWjRIhkEPPPMM0L2WNA1aNAg2Xc9P5BjDB6qVq0qmjKIGoK6IZh3L1GihCw2g1UAgwx/BOdh0IH58nLlyskgpFu3blSvXj3H6X/+ydopkxzSrSvOz549K5YFLES78847KSwscT7ZcbKHnXx1O/P8cX66EnuczeM7SUzRbA43cuHwVtGE81a7QxaNmXRv24sHNvNCtpyUK7w6LzarRjmLV6LMXCc0aZjXr547TQVu70a5ytbkujNT/vrdeUo7i42wueILUTsoW6HSvLitjOR7a8s1L+r0NX52EqcvXPP1WBFQBBSBjIhAqmjaP//8M7Vo0UIWeIGchg0bRgcPHhR8QY7QnqG1Quu2CsiuTZs2skgL+9OmTZPsjRs3EuoEkcGEDME8MQYAKRGY25944gmH5ot5aAwQIPieG21BA0dfQKhmbt5Tm9CgYU3A3Diu2XyLjXSsnDcSFRUlZnUQO35oC361cb3Dhw+n6dOnS5+wKh2r5f2RgkyYYe0fFTM15rVjVs/g+e3Ez6WusmZ84dBfVKzrs0T8i17+P4rbMCexau6jq1w8upsuxxymUv8aTZnYwoHFa9CojVZ9fNYoKnnff+UHIodWH7/5F6kGxwk7lvMK9DYUPmCCDBgOf/m4DCpc23F3HHP2OmXlL/NKFc1MR08nDj7cldU0RUARUAQyCgKZeGV20rd1Kl49HJ3873//ox9//JGsDkr+85//UN26dWWVd3meFwahu5rCobVXrFhRFncZM3RKuwoNGvPXWJnujpSx4A3pINJly5aJydrfNrHqHedjwOJ6Ld7qiOBPxgI9B/VlyVtQVpBfjjnirfqA87CC/Hp8NF23aO7WStBuVl65ftm+2A15oiODyJnkA5EBAwYQfI8XLZCZ/visEGEl+eotl2nxnntkYBNIXVpWEVAEFIFbDYFU0bQ9gQTTNz53gpYMb2XuBFotCNSdgPiwyjuYghXvMOe7Cpyf4BvuXbt2iZkb5nx38+Ku51mPoVEnR1wtEP7WcS0+lq5RrL/FHeUcC8egRdtTQbVmH99WSxnON2SMYoaQ0e71G2ccx/YqUrQ5HXedKveNpvAwmyOcDu1TVJ2erAgoAorALYFAmpI2VobjW26YtfFJmFXWr1/vWHBmTb9Z+1gtvnr1alkQhy36DIK/lcRBwEYbhoncso+pDUPcuG5D7iBrnItjQ9ySz39QPkm9yEyGXOfKDp30/ZlYMqrWUxQBRUARSJcIpClpf/XVVx5BgnczfzyceawgyBmYm8b32be02EnaELMQMV8wjq1kLBiAzC0kjTLW8kL2nO9YOe5C+FKH/lEEFAFFQBFIEQJpStop6qmenGwErJqvIWhPlXnKl3QQtwcx+Z7O93Ca22SNne0WFk1UBBQBRYCCuhANbj3hyEQldBAwJm2jCaNnVi3akW/tsgctWcra88xAwFqXtQrdVwQUAUVAEQg+AqnynXbwu6k1pgQBECs0YGyT6MqcBpEyKIdjmM1ZkJPZvo9jkydpSLefizwVRUARUAQUgdRHQM3jqY9xmrZgSNlhprYQK/Ic6aZXbsjXlENZIWpT1n6cpA5Lvu4qAoqAIqAIpB4C6VLTxvfP8FKW0QXk6ta8bdWO7SBJOXt6knMs5ZGX3kkZ3ueME57Ufka6165EnzzQiXJm8zz+rVGyKNUv61/gl9Tsb93wYlSvjC1KW9XihalZhUS3tKbdzDzI61KjAuXNkd0kJdkWy5dHyiAjf64c1P62crLNzt7wsF88f6Lr3YphBWnKgK6ErYoioAikHIGQIW3EyoZnMOvvvffec3uF8GRmIn+5LZABEh3Eyy9Z7Fs1bFftGHAgzfxw7Chv18Rh8pY67eVQ5mYJ3LjC7zrcwCZHEOf8oYceSs6pAZ8zf8teOnvhEr3atbnHc7vXqUT3N67hMT+tMoa0rEuPtbpdmuvbqDo91bZBkqazsxu6IXfUpfBCNne+SQpwQo2SRWhwizqSVaFIAXqydX2qzKRcIHcO2W8aUcpx2r5TsbTw733037taUi4vAxvHCbqjCCgCXhHwrB54PS34mfBD/vvvv0vcbETIevnll8V1aPBbSl81CrlC+7WTK3rvIFz7pUhwFi7j9xwz6rKUFzIPIVjgjx3+6RHIJTny4YcfEmKTp4XAKvHynBXUv2lNKpg7J8Wev5ik2YnLIwkabHqQS1eu0rPf/05HYoMXFvW7P3fShctXqULRgrTt2On0AIP2UREIWQRChrThuAQ/+CR35xXt3//+t0Thglc0xLnOCGI0X5Cx2XdnukYaKAE/d/nWc4U6XAYBaY0lCBXe5sqXLy8BU+Lj48XHO+7tZ599RoioBkGoVKQhjvrrr78uabVr16aRI0dKzPXu3btL6FKEd4Vvd5jFX3jhBSkHr3IjRoyQffwZN26c+HPH1Ao0+e3btxNit6N+RJd76623KCIiQlzWIt45vtN/6aWXHOd727nKdUxavSVJkW61KtIDjWwa9pajp2jswrWOMjAlj+jSlKqz1or9GCb7wVMXsmc5/tad7/fQtvWpRcVwysL7e0+foVHz11D8pctUnjXbMT1b0Zr9R6h15bIUd/ESfbx0I206fMJR9+A76lCbKuVo+vptNH+re++CjsKWnVe7NafKxTguO8src1fSgeg4R+5DbCnoUacKP1836GBMYrqjgI+deWyRUFEEFIGUIxAypO3tUhDtqn379hLKEy/bvn37eit+S+QJufKVGBL2qU3zy92qPcPc7dCg7XlWxyc3EyQESalQoYIQKYKidOnShccltisGuULLBvkigAriqpvQrOgz3MmCZEHY8AUPl7eIKAeBy9nx48fTAPZfbtIkg/8ULFhQ6l2wYIHENu/Tp4+QPILR9OjRQwh7/vz5UnenTp2CMjBcsTeKdhyPpkfYlFw0r3Ns8N71q1KtUmH0xvyVTLyXZS5YIOAb3qVmBSHkuX/toRNnE2hg89psyq5PY5j0c7D5GmbmGqWK0vhF66h/s1rUj7V8K2kXzZtbyhTg+WarfM8ar8F5AZP5xoPHrdn0FQ88iuTJRa91a8Fz9Db3sSgAC0KvelVp6e5DtIM1ZZjPjRyKPUezNu2kQ2d40M3Xgf1IywDClNOtIqAIBAeBdEHaHTp0EC1p1KhRctV16tShmjU5HGQGEldt2kHAdgxMvoHkup0EcSzEz8eyNQVu4tYQB7oAX/IgWyMgYWNJQdS1v//+22Q5bRH1bQpHRrMKtGOQcM+ePQlTLK4SGxvrCPiCMk2aNJHy2KLNSZMmySmIUBcMwVw3fnH8C8uX26lKq7k8iglv8hoOnWqXVlXKiOY9Za0trVZ4GC9kK2GyZfvFys206dAJKswkO6i5bX7ZFFi+6xDFJFygzYedLVIgXSPrDxwzu47tYe7HqfgLjmOz07xCKbrGPmU/XPKnJNUtU5zMvHUMl5+2frsp6rTvSNQdRUARCBoCePeHvICgYUI1sn//frObbrfQK2G2Nhq1XxcCIuZzIELS9n2/zg2hQli/cOrUKdGmf/jhBzGDB9q95DjxgdnbCPzgI+IcBFHejhxJjIwGv/OpLXPZXHw49iyN4gVas4b0pGHtEheFFciVkw7FnHV0Yc+JGDGhOxJ4Z+fxGDmMZnLO4hJ3HKbzz1ZsDtr8cc3SxejMhcS5+r0nbW1b+6P7ioAikDYIpAvShvaFeUgjmJdMryJEbYjXi/YrpOxykVZN2SxMM6Qv89Yu5UP1MDo6mvC1QP/+/Qnz0ZiLbtasWZLuIqypJ7GazD2VcU3H/LU7OXbsGJUsWdKRZebUHQmpsAMN/JmZv9NDX82n2X/tFnN47dJh0lICz12XKJD42VSZwgUI8+ZWQYx2T4J56Q7VylPpgvk8FQkoHSSdP2fiJ2DhhW2DnYAq0cKKgCKQYgTwng8Z0sZK4WrVqlGePHlkcRL2S5SwmQR/++03ScNnXpUrV073pnHHXLOPW+hLmxbixk20DAJ8VBkS2R07dqSqVatSXFwcrVmzRvqUN29eR9+wIBExzLt27SqDNas53VEoiDsbNmyQZw2fiuH7f8RYT21pwp9FlWXyw+KyDXZTde7stkEK5oSL87x04/IlKYIXnmFrXRTmq2/31r+NnuBPu1qzmT0YsnrfUdH0O9eIoDKF8lGT8omfdAWjfq1DEVAE/EcgZOa0Qch33nmno+djx44lrAB+5pln6ODBg7LgCAvQ8MPcZXoRowEbzRj9NtqxMXVjdbg7vQnniGbO53gicH8HAKGEF76zf+KJJ2SdAvqFuetFixY5dXHx4sWyQG369Oly/4cNG+aU707T/PTTTx0DPRTGN/8wgxtHPK7nmGOUgzOWfv36yZcLZ8+elUGDU4MpOHA36KjHzlZeqNbEgUFk1Ala94/NfD+TF4w1ZKJ+sXNTafX85Sv0we+2+WTTZ3fPi+miKWOO/dlCOx/Xq42j6NierWV/4vJNtHjHAdocdZIevaOepGHFuvOyOsdpuqMIKAJBRMAtf7Cp2dv/f0DNp3bAkKJFi8rqV8yHpgcxgKOvhrSFsI1pE3PUksm3wANxI9tK3KYeOS8d/4E2i7lkTH1Aqw4FgTkefcFAASvT4eAlGPJBn3Z0LC6B3v51nVN10KzDeFV5FH8Tfc3F/I2CcFaSM2tWWUHudOJNOkB/eBjp9lv0m9QlbVYRuGUR8MQfIaNp+4N8WiwQ8qcfgZRx1ZYxQsKchHV1t2hiIHJD4i4NpEdt2uUSkhzCBL5z584k6TcjoWzZsvLdOFaxwwsbPiubN29eirvyfKfG8qlXOZ6TnvbHtiT1QYM+GON5wBJ3nlee06Uk592sBPRHRRFQBNIOAXf8ka5IO+2g8t6SVVv2pvk68kDGFlK2Erb3ljQ3LRDAYHD16tVUpkwZ2c6aNUsc/aS07Xj+bhmfe01cFhnQnHRK29XzFQFFIHQRSCl/aDxtP++tFWg5xU7EDmL2UQ8WixmyNnWZc8UM4sU87qNqzVYEFAFFQBEIYQTMO9/RxRTwh2raDhT92LEQq9wEP04xRWAWxznYmn3xWoYClnpxqKIIKAKKgCJwiyFgec+nhD+UtD08F2ZkZLRhEK0vMedIOcsNMsdWEznq9adOX21qviKgCCgCikBoIWC4IDX4I2S+0w4lyB2r9phYzcptt/3jfCPmJonW7IaQlaANUrpVBBQBReDWRSC1+UNJ2+XZMTQMkhWiBTGbT7SsZV3SpLwbsnY6xULy1nTdVwQUAUVAEUj/CKQFf9wSpA0PW3CLiR8+3wmmGA3Z3Axr3SbPmqb7/iNQqlQpgheyYAt8ikdERFDmzKn/eHevXYk+eaATR8XyPNNUo2RRDviRNIBJsK/bV311w4tRvTLFpFjV4oWpWYXSvk7xK/8uxqAPe2HDzxoIBSe3qVJWwolivykHHrmtRGHsiiBa2cT7OxLOV1EEbkUEDEcEkz9S/63mx51AaER4pXL3e+ONNxw1jB49mrp16+Y4Njsgarg3hUc1RABzJ2LmZu3YHXjuyjuledK2nQrpQaAINGjQgB566KFATyNPzwFCeiLy19dff03vv/++OElxrRyucWfPnk3ffvuta1ayjudz4A/4EX+1a3OP53evU4nu53jUN1uGtKxLj7F7U0jfRtU53GdikBKkIewnHMGUyJ/oUhbpRoZ3bEwtKyd1jVqZBwCNIkpS34bVKVsW51cK2riTQ41CnmrTwBFfHMcXrlzlWOCbqF+TWlQpzBbHG+kqikCoIRBK/OFZPUhD1OCy0oRgHDp0qLiifPnll6UH1sAQlSpVouPHnWMAo9CXX34pZfEydhUhaZiyjWnauu9amI8xMsJrx4yQUAT7rmSPY2sZlFMJDAEEC7GG5fT3bE/PAUK35siRg1588UU6dOiQhN50rfPVV191TUrRMZ6Bl+esoP4c0xpxp2PPJ0bDMhVPXB6ZRAM1eaG0zcKWCTiCyZvDfaCWWhzQ5FhcYrQ90/d3F6+naiWK0JierUyS39ttHJ977C9rqELRArT31Bm/z9OCikBaIBCK/BESpA1f4nBnCUlISCBEYzLHSBs+fDg1atSI4GayXbt21KpVKyk3YMAAZHsXJmmzgg8FcRN8Ea6QtMt5ro1Y63TN02PfCCA8JzzBwW2oVdtG5C/Es758+TLBfI5B2ptvvklRUVFen4MiRYrIYG/ChAkSo/vatWsSQczaE1hpwsLCZIAIy0ywBBG4Jq3ekqS6brUqOjTLLUdP0diFax1lsmfJQiO6NKXqJYtIMI4YJvvBUxfSdX7uYGIe2rY+tagYTll4f+/pMzRq/hoJLlKeA4iAHBF+s3XlsgQ/4B8v3UibOMiIkcF31GGzdDmavn4bzd9q+78yeZ627/VuSyXtGvabPVvy/+ANWn/wGL3/2wZCfW25PkwB9KxThbrWrEix3O7j0371VF1A6Rs5LriKIhCSCLjwQCjwR0iQtq+bBXPnwoULCVrS9u3bCR6rLl1ydqkoIyL4b2aQncRo2JZEawk5z3KOfIrF55hV44bALafLrrUO1zw99o3AuHHjqHnz5jIIs5ZGtDcQK+7zTz/9RIMHD6Z77rmHQMbenoOKFStKNV26dCEEF8FAEM/M1KlTJR2hXTHIg/kcZvm0kBV7o2jH8Wh6pEUdcWdqbbN3/apUq1QYvTF/JRPvZWp/WzmbMYgfrC5sTgYhz/1rj/gdH9i8Npuy69MYJn2YsDEXXKNUURq/aB31b1aL+rGWbyXtohwhDGUK5MphbZK+50AkJnjJAibzjQcTrVbvLt5Ahdm3OOJ7f7FyM/0THUdnuV+QHzbtpiU7D9J/OW8DE/k87tflq9ec6vZ08N2fO2grD1gg0zdso5Nn00+wH0/XpOm3HgIOHuB3v9O7PQT5I12Q9okTJwg/aOBwOWlM6ebRsQKOfRCu0YTNDXCUcck3306bcqZOnI96jKnc1GfydZsyBCIjI8VtqKdaXn/9ddG2YVlBmFaIt+cAwWQg0M7fffddidoFsl+wYAEhfveIESMoNjaW5s+fn2akjblu/ODKNCxfYjx49NO6YCvqzDmavGYrkkVacUhNaN5T1trSaoWH8UI2W5haUwbEuok11MJ5ctGg5s7rOJbvOkQxCRdo8+GTprhsl+4+5Dhebw8HahKOxJ6jM3bT/oHos7TvVKzJkrpQHywKp86xVcyS5yjkYedbJm0jP23xT+s35XWrCKQFAg5uAEHzOx/H5n1veMFRhvOs/HIz+AOclH4EgNpBdeo0pwnIGCW5GRmhLMBHnimHeiQdabKX9A/KwvWopzqTnqEpwUDgwoULQtioCzG3c+bM6bNaEDIEpLxy5Up6++23+f/pBnXv3l0WKdaqVYvWrl0rmj0IPitHz2rTpo3PelOrwFxewHY49qxotrOG9KRh7RK1/wK5ctKhmLOOpveciBETuiOBd3Yej5HDaCbTLJnlleLIhun8sxWbCfPFKoqAImBDAP8l3vjDcIQ7vExeKPBHutC0ASIAv8Ej/Sz8snUdDVlBRoQmX4IbYDRoX2U1P/QQABln4Tlhq2DOG2JircMqAwHhFypUSOJkm3jt+BQMZmLE9F66dKmUS+s/0MCfmfk7L/rKTnfXq0y96lalpWyC3nLkFCVcukwlCuRxdKkMLw6DlmsVbzGzERsbc9/bj0UTNOhAJWsW50GAOR/z7Vk9fEZ3mdcQQHKwWf6Sn6ZzU69uFYHURkCeaChq/H/vjT/86cfN5o/0o2kz4Md4UVKdunWpKH/aIy9e3AQWowmfPHlStCd81oM5TCO4YUazRhr2zTmmjG7TDwLHjh2juvwcYO7bfIuN1eLQ0O+66y7Cp19Y3AZiRojN9evXy7w4zOX4/fXXX3Tx4kXq3bv3TbvoJhGlqGzh/LK4bIPdVI342pBIXlRWnOelG5cvSRFMvtge4Dlmf+Ve/l76Cf60qzWb2QMRhAq9yJ9hdaweIYvOXKkbfWjIn3ZhlbzVvI829rPJ/BovXut9e1XKlzM7a//p59USCEZaNp0iYCdsMIZ59xtOMMeerizU+CM0/7MYYHdmDCxAg4b1xRdf0Hfff58E4//973+Ul8n6k08/lW95TQEbtdvIWm4UTN4mU7dpjsC///1v+SZ/4MCBQqzm+/zChQuLSdtXh77ne2+eg5kzZzqK49tsaNWff/454dt/hNs8evSoI9/seNNSTZlgbs3iL2ud9djZyoQ+7enHR++mMT1aUWTUCVr3j62vM3nBWFTcOXqxc1N6r3c7Oe2D3/+Urem7t+fXlLG25+/+7M27qWWlsjRj0F303x4tnU77YeNO0bS/6ncnTed8q6A/36z/mzpUi6CvB3Tjb7MjrNm6rwikGQKGZF0HndYOeCJqww9OZe0HwkkW8reWScv9kAvN6QSaRSM26daXlac0TzckLYHVtm4eAhEREXTw4EFZuHjzepHYMhyWHItLoLd/XZeYyHvQrMPy5qKo2HjWUp3N3yhYgFdz5+TpoBNnE5zO0wNFQBFwj4DhBMm9RfkjpOa0DeCGmGXExOjLsX0uQuYkzP1ySTMjK9liRIRzUUYlQyHwzz//hMT1Pt+psXzqBYcl0/7YlqRPMEcfjLmSJN0kxJ3nlefk/GmjydOtIqAIOCOQUfgjzUkbFGpI2RlyPnIlWMsxzsG5Xs9nopZ8EDaf67GdJA1rgiIQfATi+TtnfO41cVlkQHPSwe+J1qgI3BoIeH3/W/hCrtZyfCvxR5qStpCuF0JNQrJc1klTxk0AMRtCttfleBw5PamR0ZGrO4pAmiIA96UqioAiEBwElD9sOKbKQjQDLrZOAhJGAsjWhyQ5F6fhHEPcdsK21mTd91G9ZisCioAioAiEIALKH95vStA1bZlXQJuGXHkX2rKQMG9BrI4yKOdJXLVoezkHcXs6T9MVAUVAEVAE0iUCDm5Q/vB4/1JF0wZJg1wdZI19+8/0xJ0mbfLMVgieD3Aj/SlvztOtIqAIKAKKQPpEQPnD+31LEWm7JVOMkOyCPdGMTYLZ2kdR5tB1i/PkZzejm5voWk6PFQFFQBFQBNInAsofybtvySZtBzXbidU0b0hazBz2PNk3BXhrNGhLUpJdIWq7xp4kMxkJ9erVkyASyThVT0klBBDco1evXkGvPX/+/BQREeHwlhb0BiwVdq9diT55oJN4ELMkO+3WKFmUA34Ud0q7GQd1w4tRvTLFpOmqxQtTswql06wbVdi1qmk7zRoNsCF4qGtbtZycVSxfHom8lp2jqhnx516bsrr1jkB64w/vV5O2ucmf0wYhe9GYQbpGzIjKEDrSDXGbtCeffJI6dOhgTpEtPDvdfffdTmnJPQA5FC9eXIJJJLcOnJc3b1765ptv3FYRHx9PDz74oNs8TUyKAEJkwt3ojz/+mDTTS8ro0aNp3bp1EhzEWgzuSxHys2DBgpIMV6X/+te/rEUk5vYnn3wioV1d85wK+nkwnwN/tKgUTq92bU4vzVnu9qzudSpJlK+bHTd6SMu64l700W9+ob6NqtNtxYtIXG63nQ5yYo+6Vah0wbzsovX3INfsvrpe3F6hPDndxjl3fwZR5xoVqAv/luw6SI0jStDAZnU4rOhph3Mbf+61p7o13QWBIPOHtXbDKda0W2nfJ2mLluxB4wU4xgexV6AMuVuIHIQPWjfnyWdcfCP/85//OPA1QR8cCSnY+fDDDylHDuf4wsmpDsT83HPPyakIG4kgFCNHjhS/1yAJFf8RWLJkCe3atcv/E+wlK1WqRMfZD72rjBo1Su7xiy++SPBF3qRJE9ciEpM9SWIKEvD8vjxnBfXnmNbwyR1rD29prRKffpn/E2t6Rtr/YtVflC1Lsg17AUNVmS0JxfMnxh8IuAI3J/hzr92clqGT0oo/MhLIXknboSubUZEbZPBdtLkxJtsc4yGXOvh8q+aNcsjDz1X27Usac3fAgAGihUMbRwhGhFR87LHH6LXXXqOdO3fSt99+Kz6mYRIF0S9atIg+++wzqRpm8RdeeEH24SkLcZWt8s4771BMTAyVL19eAlBcuXKFHnnkETp79iyhPbSFMI5nzpyhV155hRBNyvQR4R4h+/fvd0SXwnHFihXp+eefl8AVOAYxgUhUEhGYMWMGj9syEfCGtm2kf//+1KJFCwnNCfM5yPnNN98U3IcPH06NGjWibNmySYjNVq1aUUJCAuH5KFKkiGjREyZMoD179khULwwKrNKtWze5x4jHXrlyZWtWivYRgWvS6i1J6uhWqyI90KiGpG85eorGLlzrKJOdfeiP6NKUqpcsImE3ET978NSFhEhaIPihbetTi4rhlIX3954+Q6Pmr5HgIojeNaZnK9GQW1cuS3EXL9HHSzfSJg4yYmTwHXWoTZVyNH39Npq/Nen/kynnun2Ate/utStTDjYJHz0bT6//tEriZ/esW5nuqlOZhn33G51jhzENypWgZ9o1FMsCzMejut9BOzl8aJ3SYXSRI3yNY3etm6NssbxhFn+lW3NpahtrrW/94uzK9VXOO80xuqswyZYtlF/OH/zNQo50doWxc98f135bjxGIZVjbBnINSIcPdchTM3+Ta/GGuxT08cfTvfZxWobMvhn8kRGAzgyClZ+7q/VA1o6bYTlHiBrlIfyiwbfYmXHsoQ5bQee/eIl//PHHjp8h2KlTpwoZjxkzRkyfCDixdetWIWzUgPCL5cqVI5Tbtm0bdenShfLlyyeVgzDHjx9Pp06dkhe7c4skASZABJcuXRKiR8xl9OPee++VgcLy5cvpgw8+EOJ+9tlnXU93e4wBBfoEDRym3L1797otl5ETYcZetWqVTDdYcShQoIAQK+JoY+AFkzcic0G+/vpreuONN4TQEakL+yB0CAZKENz7H374gaZPn+40GEDUN5A7gspcs4eRlBNS8c+KvVE0ct4KOhATJ+5MrU31rl+VapUKo9E/r6ZhTCir9x6WfxuU6VKzAoGQf2bChYYaUaQgPcUkDgGh5uLwlzVKFaXxi9ZxGMyr1I+1fKsU5QhhKFMgl7Nl6XsORPLdhh1SdAHXPY1J3UiHauXp3ttvo5//3kujF6yWgcSTrW+X7J94CgCDCUwBIILX8I6NaS0HNznIMb9zcn9yclvhhfLR+MV/EOJ7P92+oamWDp05R28uWEOHY85RifyJ4UZNgTDuK4KMXODoYu8sXk+/7TjAA/1MnOa5P+Zcd1uENgXmGESciD8v+ziOSbBZwbzhvorvwcyNNnz+ijpFszbtJIRQVXGPAHggmPzh4JVk8of7Xt56qVnNmwLgu2rDuFzQsDHtuWrGQtRWTAA2i5Tjfdfy1qKe9kGuRhBqE4KXLAgQ5IkIToiZDAK3ypYtW2RudPbs2bJt27YtzZ07V8pu3LiRevbsKXPa1nPM/lV+8Q0dOlQOf/nlF9ni5X/58mXRuDEgQACKGjVqCBn7MoNjIRSIH+djEIH2VZwRiIyMpDJlyjgnWo5ef/11wQ9TENWqVZOcEydOEH6wppw+fZqgMRspWrSo7EI7f/fdd2XRIch+wYIFFB0dLRYWWGnmz59PmEtPC8ELHz+4Mg3L52yqNf9T6EcUE9vkNVsdXWrFITWheU9Za0urFR7GC9lKOPKx88XKzbTp0AkqnCcXDWpexylv+a5DTFIXaPNh2/+PyVy6+5DZpfX2cKAmAZo0iPPchctUhjXe3Ux6TVlrhSZ9mbXnkXNW0sS+HeizBzrTWda2Jy7bZE6V7VdsaVi7/6jkjb6rpcQJj+e44Aj1ufN4DJ3h68mdPa/TOeYA8bdHzF4uh2v2H5Gtr/6Yc1238Oe+j8OEAvOc2bLIvrWMN9wRfxw/yCEekExbv916qu7bERCi5n3znkdyMPjD8IWp1xzbm9WNHYGsVmBAudZjg5I7E7jkWYg5CYGbkwPYYuEZXtbuBKQJAqxZsyZNnjw5SQQnmEQhqANxlRFvGaTtj2D+01Ww4AzECy3cCMI8gpB9kTYGFk8//bRo+BgQYKEVND8V/xDA/cOABwKNG3GzfQkIGQJSXrlyJa1Zs4YQyrV79+4SohNTGT/99JOY1UHwmPLA1MfSpUt9VZ0q+XNZe72dzcyjmODwzC5nLW+CPfxmgVw5hTRMw3uEQJ1XeoMIIdBss2R26CiSBuIz5CcJfvwpzPPxqKVZpcR2YJZHJDKQ9nE2l0O7xorz/2NzPDRvq+w8aevPnpNnJLk2m8r97cPOEzaitNbnqz/WsoHse8M9kHoyelncfVcl72bzR0a5JzKnbf7lrf+GJs0KhBCzIWreWsX1BlrzgrEPEgZhYyHYww8/TCtWrHCaR7Zqbbly5ZJ5Zn/bRZ2uAuLAyxTz2oEKNGvM00bwHDvIu3fv3mKyhQleJeUI4L4gnrZVsNYAAisMxCxixDQFYmzDWoNFg5DMmTPLgOyJJ564aaQNDfyZmb+LRnp3vcrUq25VWrrzIMG8m8AaaokCiabkMhwlDHOpVgEGnqQyzyNj7hta45HYc56KOaWf5TZBxM//sMwp3RygThA2LAAwm288dJxN89dMNpVj83hM/AXW0vNJ2p5TNvJ2FPCyg3lyV/HVH9fyrsdwmGzVqk2+N9xNGd06IyBvejxv9nc/3vVWJc0wgfWJNGnWmm4mf1j7kd73ZU5b5p35SgCqK9iSZnlBWG9Malw8TKHWH9rAfORLL70kC8CGDBkiL1zMFVsFC84wrwmyhIa8ePFia3bA+3/++ae87Hv06CEEUbp0aRks+FPRfffdJ/PnBw4ckEVRIBBvL1l/6tQyiQgcO3ZMLCnQwEHAEFhLMNC66667ZB7cPAfz5s2j9evXy7w4zOX4YT4c1hIMpm6WYMEUvguGCXmD3VQNrRYSyYvKivNcb+PyJXk+u4BsD0TH+d3Ve+vfRk+0up1as5ndX1nN8++l8uflBWxlRXOHOf9uXoAGwZz1G7zYDIvLnpyxSP6/sIjOKn0aVJPV830bVhcz+yleXJYS8dYff+rdcew0f2KWTwYRVvL2hrs/9WaUMuAB67sfRO367nfk2/khFPgjI9wfmdO23gwsHnPSmi03CzcltQSkBrIdO3asUxMgQEPQWL0NTQplsHIced99952Ux/mYy4Rg8Zn5JOjTTz+VVcWSwX/mzJkjL2zrN7ruCBXf8pYtW1aIGpo9BPOpX331lexb/xitzqR17tyZ+vbtK0SNvJ9//tlh7jVlMvIWCwnbt2/vgAD3BDJw4EC/Bjfff/89Pf744/TFF18Qph+waBDy/vvvy5cCmJ6AZr169Wr5qkAyLX/c3W9LdtB38Vy7Sj12tvJCtSaO642MOkHr2PwMmckLxhoyYb/Y2UaMmKf9wG46N3339p9oyri26e14xobtVL5oAV7w1kB+KPtPdCzN3ryH+9FETn2bV4VjjvqN+avorbtb83fNEXSE5+MhxXmR2Vf9bJaML1f/JWn4827vtlSBF9IZmf1YLzrHA5V+X803SQ4MHAm8460/1nKe9pfviaI2VcvRhD7t5b3y+PRFYuL3hrunujJCujyh9ve79f1v3XfCgZ9p8IErmd8s/nDq2y1+kCk8PNzp/x+gX3fzkvEHB5CVWcjlT/lglcFLHy9qaMd4WWPhUbAE5tXy5csTtDvMr/or0AIx/20+D/P3PC2XcgQwLYE1EK6DqZTXnLwaPujTjo7FJRBIzyrQrMPy5qKo2Hi65mL+RrkCuXPw6uysDuce1nNTax8Lz0oyAUfzamtYAXxJLV7Fjnn5ez+fQ8XYOhBz/oKT2dzX+b7yXfsDcsnmMjVireMy///7El+4+zr/Vsq3kjWPbpy0aVHSLGlSli/eEIY7rnCXdivhFQrXkhU3AjfB3DyPI6tQ6K2PPpjV5j6KBZQNMyq+BQ9UsAreuhI+0PO1fPIRwPf4oSDPd2osn3qV4znpaX8kfl5l+gYN+mDMFXOYZBt3nleeU9qug8CiM3zKlRw5xovVgi2u/elQPYIeb1nPYzN3f/qjxzyT4Qt3Uy4jbM373+17nwmbzSDOU6ZIs4vhDbNFWbf1mBN0GxQEsjqZvC2jqqDUnkaV4Ntqs3o8jZrUZhQBnwjE8wIrfHo0cVkkBTIn7bPiECpwnOeuf2e3n2ll1VjOn639ZXfcEkIwpJuuGOXMaNXyZZBL7x1EzulYMeJqAncUZ764FfjDcT3pZCdTmdKlbwRrdHSzzOPpBGvtpiKgCCgCaY6Ag6jRshvFzJjBpWOsLUMMJ5g8W6pkOf1BvinrlKEHqYZAVgU81bDVihUBRUARCBkEPL7rYfIGWYPQsW8VS56V/E05s7Weovupi4B8px3MJrBwS0URUAQUAUUgdBAQjRjdMaRs16jNsbcFZMgzmrZsTR2hc3kZqidBJ+0MhZ5erCKgCCgC6QABkK1VU0aXDRE79u3aNo6tIm59lKitkNzU/VQhbV9uPm/qFWvjioAioAhkQAREY2bytZK1gcEQupq7DSKhu7W5kwrd/t30nsHjFhyxIPqUv4Ly/P27v8UDLtexY0eqWrVqwOd5OwGBNnr16uWtSNDyEASkfv36QavPVARc4DEPPzjGSQvpXrsSffJAJ/Ea5qm9GiWLcsCP4p6y0yy9bngxqlemmLRXlUNhwi2pOynM34535UhjrSr771HNXT0pSYMnuJZ+tN+0gs2znL9tNWR/7wiHejMEYUoN/sFs318M3JG16YfkMaHDS1/bquUkuVi+PNT+tnISNMaU8+d5N2V1mzoIhAxpN2nSRLyVwVGK9Ve8eOq87BCTGe0Yb1qAF7G1EbrRKpijBwlXqlTJmux1H57aPJESPLSZ60MISYSojGBnIIEIPLRhpX4wBZGvrHGtTd1wIQvHNYh0FiyBtzhEXQu2gKgRJxs+xuvUcY58Fey2TH3zOfAH/FkjbKUn6V6nEt3fuIan7DRLH9KyLj3G7k0hfTlWNbyfucodlcJp0oNd6E4ejDRgr2w3S0DYA5vX9tn8o/zNtiEZn4W5wAN8H7rW8v9/2Z86/S3To24V6t+0lr/F/S7nCYNe3N4gK4YwcdvnsqFZY55bVofbWwJxd65RgYa2sQ2oG0eUYD/z9akQB5Mx4s/zbsrqNnUQSBXzeHK6alw9TpgwQfxImzrS0kEJ+mD6YdqHP2vj99ykpWSL+uGxDbGgQZQPPPCAuOR8/vnn/a4W/Tlzxv+ADP5UvGTJEnH/6loWgTkQ0zoQS4NrHWl1/OWXX0pTCM+aVoIX3ctzVvDLuKb43o7lgBquMnF5pNvgFa7lQuG4XbXytI39do+cuyIUuuOzDyN+XE7x9ohwPgvf5AKIjZ4tS/D1JE8YVGZrSvH8iSFh8axK63biltXiAWLiz/MeYJVaPEAEQoa0Tb8R+MGd68/atWtLTG2EXkS4RYRWBNF89NFHEjxi+PDhlCdPHrpy5QrNmDFDwmEOGDCAYDJF1C+EbgQBYR8Dgz/++MM06XELzduYuUGyO3bscJSF/2yYeeFUAh64YBGwaqrNmjWjBx98UAYBCxcupEmTJjnORdhJXCd+iFyGYCdGBg0aJFo6Biu4Zgh8aiOq2SOPPOLw2Q1/5lOnTjWnecTAFMC1xMTEUPny5SXUJXBCfWfPnhW8MJhAmvUaPvvsMypcuLBUAV/vuFaER3399dcJfuAR4nLYsGGmCfHLjpCY8AnuS4DrzJkzCRYP4Pfiiy+Kf3ZMR6BuXDv2EQ4VgxTjQhZWDFhHcN65c+forbfekj75ai818xGBaxLHk3aVbrUq0gONbBr2lqOnaOzCtY4i2flZRNANmGqxj+hZg6culEhbCHAxtG19alExnLLwPkJkjpq/RtyKInrXmJ6tJOxl68plKe7iJfqYQ2Vu4iAjRgbfUYcDf5Sj6eu30fyt+0yy121Pjqd9Hwf9yMFuTCEzBt1F8HD27PdL5LhSWCF2V3oHfcs+yhEUBOVm/7Wbpq7bJj7I+zepJVME0ezGdMyCNbT/dBz15IAjPVnby58jOx0/l8CBSDLLPty5IviIL0HI0XH3tKZKRQvRfvaDPu7X9XSS64Hce3tV6mEPaAJf7T+xxcNIAzaBP9e+kfQxktu5jclrxJzljnCnILLJ/e+kgjlz0LoDR+mdReuThBo1dZktopyN4qApOzlMah0OO3qRPceNc7mOKQO60i9/76eO7JO9EIdX3cuRzob/sJRgFn+lm80Ss+3oaXrrl3WmWsqfKwdbaZqJf/ZrTKbL2HkMYpWDHCH31KtCTXga41hcPE9n2KbcxixcI/fbEwYIijKMrSjWe4m6npr5G12/dp0+6tuRRi9Y7YgdDhP4g01q0qCvF6CYT/H0vPs8UQsEBYHgD/tS2K2XX36ZEKwDvxdeeMFRG8g2e/bsQtjLli0jEApICGSDlzoIZeLEifKS79evHyEqF7TDHDlyCGEiPOPevXsJrk6tJnFE8fr444/l52oCRhv/93//RzCRw0xsBH7FEfBiy5YtQpwwbyP+tlVgTv/mm2+E6Lt165ZEg0dZEE+FChWc4nMXLFiQML+MdAw+EBzDeJtCPOjx48cLmRkyRT3eMEA+BNeP2OAID4rrghc5nAeBiX7VqlVJrgHp7733npSZNm2aWAcMIeN84FWiRAnJb9y4sbSBgZQ/gv5gIIIoXMAPAzEIpiIwiEEegsGg/hEjRkge2oNp/fDhw4RpBkPwkhmCf1Zw5KyR81bQgZg4cWdq7WLv+lWpVqkwGv3zahrGL9PVHE/bfjuoC88ng5B/ZsKFdhbBATeeYhKH4EWci6Nu1WCf3+MXrWM/31epH2v5VinKPsBRpgATglW+Z3L7boNt4LmA657GpG5kCZMF+noi/jzt4PjW2H938QaTTTmy2doFYc/fupfeWbyezrB/8hIcGezRO+rRLo6nPX7RH2JReIPJHVKQiQv9eP/3DezPPC9t44HL4dizdA8Trj+Sl//fo+MvSltlCuWnOxkXI0t2HaI3eXCQJVNmKpInl0mW7bB2DehUwnkax/3BHC18jee0D0ZQoCIPAkCuk9ZsoaYRpalK8UJO57s7wPmIdhbOoUfHL/5D4pg/3b6hU1EMTvpwhLWtHF71TSZWEDTkEAdVQV8Px5xjvPI4nfNMu4YciSw/fbpyMy3ctp/nkMtTe7Z2GCnApmkMmKrz/f581Wb6au0WxwDDEwYI74r7hwEG7if28Yvh+xXNg8MEdp/bq17iPYDZHiFcr12/Qav4OZy50faM/BV1imZt2inTP6Y/ur35CIScpg0NMyHBNpo2kbqsMEHDnDJliiMJYTxB5khbtGgRrVu3jr7++mvq1KmTlIEmCe0cGuzy5ctlrtNosCiAqGHGBF+kiPMCFbhGPXLkiKMts9OhQweeGrohkcaQdvvtt1OtWs5zVQheMnfuXCFHzAkjHyQPAREhWhgIGgJydpWRI0dK0AtrOqKM4YegKFa57bbbPGIwefJkR1FExBo6dKgcWwO7REZGkjUeuTkBFg/jzx0Dnr///ttk0e+//06PPfaYkOwHH3xAd999t2jt7qwkjpMsO7jHGBBBmjZtSiB9zPE3b95cYqbDGgIBbrg+iJnHBza4bxhMDWBrCkg/VPyNS0ftfzDXjR9cmSLUpVWs4SKj+KU+ec1WR3YrDqkJzXvKWltarfAwXshmGxyZQl/wS37ToRNUmAlrUHPn+fvlTGgxCRdo82FnbXYpE7OR9fZwoObY9BVRvGLZ5/m+U7Emy2n7Hb/Q53DkLyP/Yu0cAu0R5+Zkch/apgGVLGAbxJ7mfqzkwQvIaRVvMVCpX975Wkxd7rbv8uAAmh3M9sDBCK4PP9cAIRiwgOxHzV9Ne06eEXP0s6x1WwVa/8yNOyUJlhBgu/N4jLWIx/2v2KKydv9ROssuakdzoJS8TNTWwCrbj0fT+7/ZBjt/Hjwu9QAX1H+G72nu7M6D+5pMxmv2H6FF2/+RspjLb121LC3eccCpDyPnrJQoZdZETxjAtzruH5473A/Xe7mAB10PNKpJWdnykTdndgrnEKZjFtqeNcRgxw9yiH3QT1u/3dqk7ocAAiFH2iA4by9+K9kAP2ilkE2bNskWJA1ygjaMT8+sBActEyZgmMmNIO72rFmz5BChPXGeL4FJOz4+MTgCCMOVtI0p3ZAeNEsj6MfGjRvpwIEDEvcbx1aB+RxRqvwVbxhY64A5PliCQQuuAQsIYTHAanYMUvwVDD6MwARuVsPny5dPBiYmD4OFGjVsJmbcG2ADwoYgLjYEVpVQJG3pnIc/c9mcezubcREhC1guZw1ngj38ZgHWUPHCNLKHNSZohFYxJBPNxAUzslVAAvilhsB6YJWiPBi5wKQEYoLsOGYjv+L2QYo1etkVNimDZEEW/ghM/yBsCAivVEFnwnNXR202XUP2n7YNOvaeTDr4OMCmeyMIEwoTtb+yky0KEAwIIGjPivW6AHDHXQMWu/n+GsEArnCenOZQtsD3eBCDsSzc9g891Lgmhy4tS6V4cHWJ78sG+wDDqWE9CEkE/PvvCaGuuy7AMlqyeelD+8J8N+awIcmJLezrchH1y2oOd/d5kbd2cQ3QMmEBcCVstI2BRSDiCwNTl3WgYdL83YKYXQUmc+D97LPPSpYZ/LiWc3dstWqAjA2JY+GfNQ8WADPwwj2FVcX0BSvFIadPn07SBKZTQlmg2T4z83d66Kv5MjcMc7ghnAQmkhIFEs2oZThKmCEvc03eni/Mv3ZgzbQ0a1DBlvgLzuE6sfAOJnDMV0PKF80vW5AshMcjaSpYRAfB3D8kgmOEu8r1FHSqHJvHIWXs2z08b20VaLf+CqCBSRomfCO471bNHekXWQlJjsCPmdWiY+rAAAtrLLrymos2PJ+9Yk/wBvOmDd2mHgLpjrRdodi1a5cQc58+fURLNubf1atXuxYN2jHM8JgPfu655+iOO+5IomUHrSE/K0pNDLDYC4OIrl27yry+mQdH16C5YwAyg3FmAAAiJklEQVQC8zYsA4EMChBrvE2bNrLoDtMF0NohMMFjLQLWDFSvXl20bEPo5p4++eSTsqIdJnkQuqtlBtYN1I3Fgda1CNJAiPzBYiG8rPGC3mA3VWPuFRLJi8qKs5m3MX9yhe+VsQ0kSti9PK/6BH/a1ZrN7Kktpu/9mtSQ1fOYr4Y2jRjhN0NOnE0Qzf9R/rwN36Lf37h6ULvRh6cDCvI8M+b2oQGf4ihnKRHM8TerWFqeBXw3XyR3LorkaY9gyA4ewGDghgGGK3n/uGkXIWRsAV6MNzsycbojGO1qHamLQMiYx71pDlYIXMtBU8X8ML5dNouk8HLHy79t27bWU4XcXc+3FrDm1a1bV1ZJm3ysaIZgcRk0SizEatGihfyg6VkXhqGctS7rsWs68vwVfMpkSBOkhB+0fqy89oSBtW53bWMVPAjSCL4hhwwcOFAW+mEfUwhdunSh6dOnCzlbV4z/9ttv1Lt3b/n2HGX9EfQD983UA7LHgjQIVtnjG2v0C4JymLaAYO59/fr11Lp1a/mhHtxzV8sEvrV//PHHZcHd/v37HZYAqeQm/DH3zNp0PXa28kK1Jo7nJDLqBK3756gUwWrohkzUL3ZuKseYo/zAbjo399CbAmvKWNsL1r6rlrqLTbuLdx6gu2pXlh/afo8XnsEsbu0HK5RkM3T71xM+22vBWUPudkwL9OCV7/itP3hMVuhPXL5JVk+/dXdr2nPKZnq+zKumIe5qdZfmqfHivJDsq353SvaXq23TM9ay7up6t3dbWR1uys1+rBfBLN+PrSyY/0Y/J/Sx/Q/+w6vkf9i02xT1uvWGAU5cvieKTeDlpG48g49PX+Qws2OxGgYd6EdqxEH32nHNTBECmfjTG3fPWbIqxUKhZbyy+2a4McU8NVZcY+GYmfNM1kUEcBJWL+PFNGrUKCFtaIA3U24GBli5j9XeIO5ABVowTOPu5u/xORny3c3DIx3z2NCwzcr6QNtOy/If9GnHn+wkED51sgo06zD2Pgat1Dr3a8oUyJ2DVz1nJWiPoS5YWY1rOcLX4krs7vqOuVxX7c+Uw1SAP3WY8p62MNm3YC323+wspPfntsGo57KZZCW6u3x8ilW9RGFZf3Av11OMrSAx/Gkb5oKDJViFf54tWpg2SQvJkyMbTR3QjVejb3X6XC4t2tY2UoZAyGjaKbsMnhtikxxWe6eVQLONioqSb8Oxehkr1m+2pCUGmE+GNozPsPApWnIEgyt3hI263M1TmzZwXlrea9NuoNvnOzWWT71ghpz2x7Ykp0ODPhjjef1CHK/ijqO0eYkn6VyACZgnPcyLqPyV//E3zWY6wPWc33YeoI/5W+XkyvCOjWVVNAiwEVssXFfKu6t3BFs1XFfom3In+bOp/1vypzlMFc00mAvNHB31sNO3YTX+rLCiDDp+5UVpKukLgVuGtNMa9gULFogDEGj2+JYZBJ6RBCv0MXcM83hySftWxyuePwvCwqSJyyIDmpO+1XHB9Q3lb9OzsSbsTlwXYrkr4y3tl7/3UWteYAVt/tV5KwkmfF8ygUnZ0yACGjU8mf2+62C6sOz4ulYMsJbsPEg/M06un8z5Olfzbz4CqWIev/mXpT1QBBQBRUARUARuPQTcD3VvvevUK1IEFAFFQBFQBNI9AkE3j9+MRWjp/i7oBSgCioAioAgoAn4goJq2HyBpEUVAEVAEFAFFIBQQUNIOhbugfVAEFAFFQBFQBPxAIORIGy4q8QkV3FUGW/Adc//+/R2BOvypH99iI/JUeogn7c/1hFIZ+Ezv1atX0LsEb2t4hnDvUlu6165EnzzQSSJAeWqrRsmi/DlRcU/ZaZZeN7wY1StTTNqDtzB44EpLgY90hADNx0EqgiVNK9g8ywWjPnioa8vOSCDF8uXhiFvlKLslOpg/9zoY/dA6FAFvCAR9TttbY97y4DBjzJgx8t2v8SCFiF7Gy5m3c/3Ngz9quL5EtK177rlHYlm7OxdBS/BJFwS+tUHa+C7YuNp0d46mBY5AgwYNJH73jz/+GNDJo0ePlmhu8N1ulWLFikmYURM9DesrcO+sApepCPsKT2uuedZy/u7P58AfLSqFc0zk5vQSx2x2J93rVJIoXxuD5J7SXRv+pA1h155wOPLoN79Q30bVOc50EadgF/7UkZIyiBvev2ktjiJ1ms7x53C+BGFI3+7VmiOI/eHw5OV6zqMt69EyjmpmIqK55gdy3LlGBerCvyX8aVfjiBI0sFkd2srhNY1zG3/udSDtaVlFIDkIhAxpP/LIIxIeEt7FQKoI0QiNKbXk/fffd2jcGCzge2vE1YYcO3bM0SwCWMDrl6t/a0cB3Uk2Aoi9Db/pgQpilbsL24pnB/HT4dYVntQQgcxVXn31VdekFB3DneDLc1YwGdUUn9QIoOEqE5dHevT+5VpWjxMRwAADjmnysvcuTzLix+UUz5Hf0kL8uddp0Q9tI2MjEDKkDVeYcNYB/9KQFStWON0Z+BEfMmSIaL7QoCZOnOgog2hT0IQRwhFa+sKFC8WHNSqAf274oYbZHaEwjURHRxN+ELjCRHxnV2J+5513iN28Spk33niDTLjNcePGSTo0d3j0QiQq+M8ePny4XANMs4j5DH/kqBu+uz/99FOpR//YEEAMcdwr+A1/6KGHHLBg+gI+3RGCE+ZzkPObb74pzmuAb6NGjeRetmvXjlq1aiX3bQDH1EZkMGjRiMONZwHe4TAosEq3bt3EbSr80psIYdb85O7D7eYkjrPsKt04ihLiNUMQVWnswrWOItA6R3RpStVLFiHsI3724KkLxX0n3HsObVufXXCGs2vNTLT39BmOD71GgosgetWYnq1EQ0ZkMISv/HjpRtrEQUaMDL6jDrWpUo6mr99G87fuM8k+twOb1ZKoT4hHDb/Ur/+0knbbQ1A25DCiQ9s2oHyIH8335v3FG6RNX/1pwOchnnVO1pr/tkfg8tkRLvAe++suya49IW/2bMn/RzfEt7iJVX0vBybpUbey5MNX+09s8YD05LSedatQfu4n4maD+LEPF7Kbo07KNMZ/OjSiuuHFeSDF/uw5DffFNYqaVObmj6d77aaoJikCqYJA6k/6+dntP//8k0qWLEkgShC0MZHjdBDnU089JdowCBPxl000L+TDtI541gjmAWLFy9mc/+ijj0qYTphE/YmVjfqMfPbZZxJCEyZytGEE5le40lyzZg2VL19eAmkgH0E1MI86duxYIZaPPvqIli5dSvDJbsjf1JHRt7iPq1atcgpxCkywdgD3KS4uTgJ+wOSNqQwIXMVi8ARCRyxt7IPQIRUrVpQt7sEPP/wg98Q6GMD9AbkjmAgIPS0EsadHzltBB2LixJ2ptc3e9atSrVJhNPrn1TSMvYOt5njazM8iXWpWIBDyz0y4X6z6iyN9FaSnmMQhMBkjFGaNUkVp/KJ17IryKvVjLd8qRdk3NsoUcIkT/T2T23cbdkjRBVz3NCZ1Iwjn2Z2DfnzL+f/+drEQPnxuQzC/+1KXZrTvVCy9xkSOLVyFQnz1Z1i7BnSSyXP84j8CChX6Lg8KxixcI218sXKz4PiNxRXsEjaJv7lgjfgLL5InMQxrQY5Fjmt/n4OWgPS38WAJkbQQfQzybPuGVItjYH++ajMhsAjCoXapGSF5q/gezNxow+evqFM0a9PONPMFLh3QP4qAHwiEDGkjuhOic+HlC4JGRCloVZD77rtPttu2bRMNCZGtoDk3a9ZM0vEHpD937lwCUYKwQeLQvEC4iF2NcJozZ850lPdnBxrbpk3ufSDDrGusASAJhKiEZt2wYUNpc+/evaKBI7QlXH727dvXnyYzTBlYVNwFAzEAvP766/TLL78QonRVq1ZNkhGiE1oyrBfwTY593CMIAoxAoJ0jKhjyQPYmNveIESNk8OY6Dy4npdIf+L4GwbmLsWwNlhHFPrsnr9kqsZXRlVYcUhOaN+ZpF27bTxs4elUdXkRmFRDZHxzS86e/9lJ4QedppOVMaL9s30+bD5+0nkJLdx+S+Vokwh+30U6dCvHBafa1DQ0dfYd0q20bEG1lrbRC0YK0ned5ESDExP9GGXf9KcwBRKC1/9/STbR2/1Gaum4rivolR2LP0b7TcVL2QPRZ6Ys1DGZMwgXaeTzGrRvO05y3kgdMCOazirfbjpwmBF+BNChbgo7GxVNu7n9eaOMcjKUz++GGbD8WTTPsg5pDMWd5ULNdLA6SqX8UgRBBIGTM4zB5jx8/XmBBjOonnniCoCUjFCPiIuMfsH59m7aBQpiDhnnaiDFdw8QOKVSokEP7wgscsnWr/y8NOcHLH5h1ofGZ8IPQ3rDiHZo3BH3GDwKyCSTWtJyUgf9gHQGwhUDj9sdCEhtrIxiQ8sqVK8UKghCq3bt3l8EgBnHwkQ6zOgg+K0fPwtQJLCE3Q+ayOfd2Nh2PuqulPEPLWcubYA+/WYC1RZCGkT3sO7tphPNKbxAWJJoJCquyrbJm/5GAF5jtYTP4qn1R9EjzOvJDSMsxC9cR5uhLFcgrA4omFUs5mkE+iNtEunLXn7qlbQON/adt92bX8TOO81Nzxxox7Qr7DYd/bfghB3FjQA+yblbJhucF/j+O5cAsKopAekEgZEjbChheutWrVxdzM9KhxUJgEvcUitGQpxS0/8GCNgjmmDFfbUyo9uxU2ZgFUl9++aVjfj5VGsrAleJe4/M9q5iALSYsq3lOYGnBAA6DqjvvvFNOwRQGXt4YGN4s0oYW/szM34VA7q5XmXrVrUpLOYgD4hwncIzjEgXyOC6vDC/Gcp1zdfe8mxNg6sZcMzRHaKz+yruL10vc7pa8Gv7J1vUJ88ZfsnkeAwPIi7zoyzVkJj4dg7jrjwnUUZJJH/0oWziflA30T9YszoMSX+fbrfpJip27YBsIrj9wlC0DSWNhJzlBExSBEEQgZMzjTz/9NN11110yd4xFQliMZMgapm28ZJ955hnKly+fzIMOGjRI9r1hCqKGaXrgwIGEuVF87pXasmHDBiEIrIZH2EqQC+bYsdBOJTgIYHV/3bp1RQM332LD1A4NHc8Q7jXms/HMzJs3T6w1MJWbH+bDYdlJTgzw4FwBUZMI2/fFiGi1gU3VEBNlKpIXlRXneenGHFYygskX2wPRNlOxP+3fW/82eqLV7dSazez+SoWiBeRbcmipfx46LoOE3NltY/ql/AkUtPmHeaEa+og5YxC66a+nNkDU0MQfaFxdVtbfw/P4gQhClyIiVcfqEaLVB0bdSVvCgOOf6FhqWbmMrAlAiSo8wGnFxyqKQHpBIGQ0bZi6Qa74QWDuxApxCL6Pxjfb0JRgOoeAjGH+NOI60jfHMJf27NmT8O11ICZqkALmVY288sorsovFbkZMGzjGPn7Q9D744AMaNmyYrGQ2eZhrV7EhgDjc7du3d8AxZ84c2ce9t2LqKOCy8/3338sXAfiGH8/BvffeKyXwGd8LL7wg9xqaNdZIYNGiq/jThus5KTnG4MFV6rGzlReqNXFcb2TUCVr3j62vWA3dkIn6RY7xDAF5fWA3nZu+25aIudZqOzZl3Oe6Ty3Bi7bM4jKUQAzpKWtt00owfU/fsI36NqhO3WpVkgpAxr9wLGbTlqf+fPvndurfpJaY9zFPH6jM3ryb+tSvJqvht/Hq85FzV0gVs4bc7ZgW6MEOW/Bbz3P/Ry0xvXnBOV13aXDsL+todI+WNJqnJYxgbn/5nsPmULeKQEgjEPTQnFg8lFzBN7Zly5aVz3ywgMtVoFXBxI08Y4Z2LePuGCuHMS+Kz7PSUrBiHAvm0K4x16Zl+xm1LUyHhBLmH/RpR8fiEuSzI+s9gaYaxou1omLjec7YlV54JT3PwebkuXfj3MN6bmrsY963JJvloxMuykDBtQ0snitdMC8lsPYbE28zmbuWcXeMuW+s6j5+Nt6Rjbasi/EcGbyDqQBXM7w1Pxj78MpWKDf6lECXeQCiogikFwRCirTTC2jaT0XAHwSe79RYPvWqHFZYPl/acPC4P6dliDLTBnb3aF7/becB+niZ+682MgQ4epGKgBcEsnrJ0yxFQBFIAQLx7KoTn3tNXBYZ0Jx0CppMN6cO5W/Ts7G27U4wz6+iCCgC7hFQ0naPi6YqAilGAO5LVdwjEIh53X0NmqoIZEwE3A91MyYWetWKgCKgCCgCikBII6CkHdK3RzunCCgCioAioAgkIqCknYiF7ikCioAioAgoAiGNgJJ2SN8e7ZwioAgoAoqAIpCIQEiSNoI+GL/diV31bw8eyBDeEZG4rAK/4PjGG24tVW5tBD5qMpYWdZpFU1vanPOkxdV27NiRqlYNzOOXt35NbjFBrmFi03EeiwW7TY8NcUb32pXokwc6iWcyT+VqlCwqXtU85adVepsqZcWNK9prWqEU3VbC5mo1mO0j8lmXGhWCWWVAdeXnCG7tbytH2CK0K/aL5090fVsxrCBNGdCVsFW5tRAIKdJGSE5EzIInNITFnDJlSsBow7Ma3JXCwQYEJA0PZYjwhehP3377rcMHta/K4ZQFntTgjlQl/SCQL1te+mbvTBqwcqjfnU7pvX744YclBKvfDfooOHj1szRlzwzCtXiS5LTZpEkTh6c+T/W6S5/PXsPgL/3Vrs3dZUta9zqV6P7GtvjhHgulQcZTHPf7Tg5vCnmqTQNHTPNgNl2D46APblEnmFW6rQuhT+GcBx7rrFKB3dvCP3xlJmU44cF+U3aNawQR2hb+vY/+y57f4HZW5dZBIGTuJsJoIiTn9u3bJR41yNe4p0wJ3K+++qqEyESMa4Tv7NChg9/uTKG1w481YjyrpC8Ert24Ttdu+O/pKqX3+qWXXnL4yg8GUuj71eve+5+cNhGzHl4HAxW4KX15zgrqz7G7C7InMUT/chV84ubJy5lrWT32D4Es/C17OQ4YkzdHNv9OsJT6jt3hXrh8VcKpwgWsyq2BQMiQtvE7DX/fCMsIV6XG9/i4ceMILkFB5HBPWaZMGSHe4cOHE0JxIsTi448/Li5DDxw44Lgz0LIRLQyRnP744w9Jt7pZRb3wnYy6oWlhwAAf43A5Ck0f8bEhr732mqQhnrfVH7lk6p+AEMD9AIbwx40fQqyCROAjHjHVEX71ueeek/uBewPf4S+//LL4ooc/eOwjOEiFChUI4VE//PBDWrVqlc8+wEXumDFjqHz58hLEBX7o+/Xr59e9rl27No0cOVL6iFCfCOu5ZMkSid2OwDDGjzr840+dOtXRl2nTpkm87xo1asi1Lly4UK4RBfDMoT/58+cXsoev9OXLlzud76jIZSc5bebNm5cmT54s1w7c4b8dAssTrFv+CNyLTlpti5xnLd+tVkWHNrvl6Ckau3CtIxum2xFdmlJ11kyxD//jg6cuFDelMO2+2rUZVShSkAdYN2gZx/ueyJ7QMEDoyb7E27DJ9xL7lq9UtBDt50Af435dTyfPJTjqfq93W9FAX/hxKR22+Bx3FPCwgwAhj9xRR2J9I2znV2u2iB91mJMh+Tl0ZyTHDq/HMcyx/e/PqyX9IbYi9KhThft3gw7G+B/ABSd7atPbdeL6Sto17Dd7tuRn9Yb4V3//tw3SH3/+zGMLicqthUDImMdLly4tL2YTR9kKM+anEYhjzZo18tKdPn26vNS7dOkixRB3GwFGPvnkE6fYy8ZEjoAj7gT1Yh4SL0u8xPByNdG4QOjvvfeenIaX7xtvvEEIUKGSMgQw8ML6AhN4BaQF/M29BLniPoOcP/74Y1nbAI0SgnPhyx3WD9xrDOwQXtMfAdGB6N955x0JKgKriwnk4etemz6DsJctWyYDupgYWzxrxOhGHHj4xTeDPNMfDAQRxxvXinjviPZm2kSYWQwqEcL19OnTEuPbdR2Gqcd1m5w2ExISaNSoUTLYwGAIzzN+v/32m2v1AR+v2BtFI+etoANMZEXZl7pVenNkr1qlwmg0E98w9oK2muOG85hB5Jl2DalMofz06crNtHDbfp6XLU/tq5WXvAJM6GU5Lzr+Ir3DIUNRzpi8bWcTheXLLabf7GxCtsp3f+5wBABBoBOY9o1UCitET3O7B6PPSp8/WxEp4VGRD7Jez0FbcB21S4fRu7+tp9vLFJe5YlgXetWrSiu4/59zf6H9+ive2vR2ne8u3iDub9HOF9wmMP7mj23S7CGOoDZr0046xIOVc+x5D/uIDqdy6yMQMpo2NAG8WDzJrl27aMWKFdS8eXPRDDp16iQvSZjV8fKD1oL42dg3kcLMYjbzgnVXN8ge89YQRAPDnB9IHmE9ocVD9u7dS3//bYt4JAn6J8UIzJ07V8JoAluQdqtWraROEPa6deuoUaNGYlEBMZv7aBrFIArhWuPi4mjEiBEyfYF9b2LIEmX27NlDeJ6M+HuvoUm7rrM4ceIE4QdN2Z1gcIBrXbt2rTxnIHE8pxhQ4nmGhQEDATOIcVeHa1py28QzjLC3kGA+z5jrxg8uW0GkVrGay6OYYCav2erIrlmqKK3Zf4QWbf9H0hAys3XVsrR4xwFHGcT4hobfjsm8VniYIx07czfvoSI8SDhtj/dtMr9l0jby05Z9Zle2PepW5uAsN+jVeStF27dRYGKRNfuO0EUOIJKLg7ms5v3n2t+gonly8cK2/HLeh0v+lMJ1mcytc8iJNSTd89UmznB3nQhtesY+DXGABxmYpzYCj3LT1m83h077jkTduSURCBnShrkSmokngSkUWrgJBYiXJDS2pk1t4QvNS2jr1sSXgokE5qoBWduwhm5EjGVofiqpi4D1HuKe4mdIFaFXn332WTF9R0dHi3btSoibN2+WDiIuNgTPgHXaQxJd/syYMYNg5kboTrSPOqBpBiK+2nBXFzRsiBkAFipUSOLA49nduXOn5OHZR4jRYIm7NoNVd6D1zGUt9/ZyJWgUL4gC7stZU53AYUahbCPS1+4TNosF6gWpF86T+HVH3MVLQtjIA3mV4ghjVpm1KXHgZU33tl+CV1gfPXvOYxQxhBy9wu+Wq9dsUdcQ3jN71sxUs3QxOnMhcR5/78kYv0nbV5u+rtPb9WhexkMgZMzjmNuEeRDm0UAEWgvEmMLxWZcRzG/jRdG4cWOTlGTrT8hMmGRV0gYBWEmgSfbp00fWKZw9ezZJw0ZbrFSpkuSZAVuSgpYEDACGDBkinwNiPhrTIM2aNbOUsO16u9dnzpxJUt5XghmgWMvBegCSrlKliiRjsIp58mCJuzZN3d7yTJlgbqGBPzPzd3roq/k0+6/d1LpyWTE9Y94aGm/ZwomD5BIcFjSQYCGNOeZ4B9bAEeLUX8GcenH+XCtQAUnn53CeRsIt/TZpnrbJbdNaX9Ys9jkFa6LuZ0gEQoa0sUgG2tZ///tf0URgEsVqcl8C0yZegHjZY64Tn3sZgeYMraNFixbygsYL+c4776SWLVuaIl63eLlCw+/atatYAYw26PUkzUwRAiBpaKEgMtwrxEF3FRA60rGQDFp6VFSUa5Ekx+abZpjRYYKHYErGSFrfawwo8RzCSvD888+bbqT61szlY34dK+ZTW5rwZ0ggZpDxhgPHpDlDsodjz1KziqUlv1mF0lQkdy6KPOT/vOy/29anJ1rdLjHA/b2OpTsPyoK4gc1qC9nje+sWlcJ9nr5631E5r3ONCJ5fz0dNyid+XuXr5OS2iXrPX75CFzl+ecfqEfKNvFK3L7Rv/fzgDe9TiBVM2VgtjkVlZgWu6zylVUvAvjnGvCDmozE3DVOjVUaPHk1vv/2204vRzGGjnKnDnON6vHjxYlkkhcVvWLk+bNgwU1S3yUDAatkwWJstqsN8Nb4KAN5Ix3oErFOwCqY7zKJAfH/vj2BVOhatmbYwl455cav4utfmXOs5s2fPdpj28RUDfjB7v/jii1LM9RxzjIV0eDZhrseAAVMAGID4I8ltE3VjgLN//37Cwjz85syZk2Se3p8+uCvjblBbr2xxeqFaEwfukVEnaB0v9oJgFfRbd7emCX3ay/E/vEL8h027Zf+6rCGXXY9/+PEIWND2/K17xVkMHMZAfozcRat4MZ1DXOpFO8fPxtNmXkn+6B31pBhM2s5L7hxnJ9nx1qY/1zl7827qU78atalSjvDp1si5K5K0oQkZB4FM/OmJyyOa/Ivv3Lmzz7lFf2rHJ0B4ufujQZn6oJlB+wKxuhPko158LoSV6CqhjQCmO3AvrSQPrRQk17t3b/lkCmZ0d/cS3sTK5S1LMZfOUO+lAx0Xmi9fPsJXCrDOwIISCgLrD1anf/3113JtZoHcjFafU7FcYRSVcJT6r3wyFLrqsw9wAnIsLoHe/nWdU1lo1mG8YCwqNp5N4ra5YmsBOA45z/cDpvS0Enz/XJrnyGMSLgZkkocjE/5Y0ek7dXzK5kkwP25esMlt01Pdmp4xEQgZTdsKP4g1UMHL2xNhoy7km4U/gdat5dMegX/++cdro97yB65ybw2BRhsqz8D9999PrVu3psOHD4svgQsXLjitaO+7fIjX6w+lzOc7NZZPvfAZ1DT7J0nW/sHEezDG8yAJWmxaCwYPh2KSrpfw1Y+4884DC3xr/r/+tu+73Z07ZuEa2nDwuGQlt0139WpaxkUgJEk7494OvXJvCIDgMCcbzJXW3tpLzbzVq1eL1o/Fl5gOSs7K9NTsXyB1x/N3wvjca+KySDoQ7f3Tu0DqTQ9lz/F1Pzb9V49dPcOavIoiEEwEQtI8HswL1LoUAUVAEVAEFIFbBYHMt8qF6HUoAoqAIqAIKAK3OgJBNY/DO9mAAQPcYjZlyhS36ZqoCCgCioAioAgoAv4hEFTSRpOTpn+VpOVB9z+cJE0TFAFFQBFQBBQBRSAwBIJuHs+VQz//D+wWaGlFQBFQBBQBRcA/BIKuaa+eWIjCCmamvUeuUZunAnf76F+3tZQioAgoAoqAIpDxEAi6pn37oBh6fXICVSqdhW4rF/QxQca7Q3rFioAioAgoAoqAHYGgkzbqnb/W5oCgRKFUqV5vniKgCCgCioAikCERSBVWNR4idX47Qz5TetGKgCKgCCgCqYRAqpB2zLnrxIFpqE/bHJRZ16Wl0q3TahUBRUARUAQyGgKpQtoAcfjEeGpZJxvt+64otaiyN6PhqterCCgCioAioAgEHYFUWyn2Ur/cxC6J6e1pCVSolO94tUG/Mq1QEVAEFAFFQBG4xRBIFU07X65MVIw/+xo/4zx9/esFDn3nHA/5FsNQL0cRUAQUAUVAEUgTBFKFtHMzaUMOHLuWJhehjSgCioAioAgoAhkBgVQh7Ra1sgt2J2OTBrzPCKDqNSoCioAioAgoAqmBQNDntNd+WojCw7LQKSbsnQd5CbmKIqAIKAKKgCKgCAQFgaCT9oA3z9G5C9fp6GnVsoNyh7QSRUARUAQUAUXAjkDQSXvXYdWu9elSBBQBRUARUARSA4FUmdNOjY5qnYqAIqAIKAKKQEZHIOiatsbOzuiPlF6/IqAIKAKKQGohkCk8PPxGalWu9SoCioAioAgoAopA8BBQ83jwsNSaFAFFQBFQBBSBVEVASTtV4dXKFQFFQBFQBBSB4CGgpB08LLUmRUARUAQUAUUgVRFQ0k5VeLVyRUARUAQUAUUgeAgoaQcPS61JEVAEFAFFQBFIVQSUtFMVXq1cEVAEFAFFQBEIHgJK2sHDUmtSBBQBRUARUARSFQEl7VSFVytXBBQBRUARUASCh8D/AxKImmDkJSLQAAAAAElFTkSuQmCC;" vertex="1" parent="1">
          <mxGeometry x="1450" y="513" width="493" height="164" as="geometry" />
        </mxCell>
      </root>
    </mxGraphModel>
  </diagram>
</mxfile>
